G04 #@! TF.GenerationSoftware,KiCad,Pcbnew,5.0.2-bee76a0~70~ubuntu18.04.1*
G04 #@! TF.CreationDate,2020-04-26T13:11:53-04:00*
G04 #@! TF.ProjectId,weeSpindel,77656553-7069-46e6-9465-6c2e6b696361,rev?*
G04 #@! TF.SameCoordinates,PX56c8cc0PY6dac2c0*
G04 #@! TF.FileFunction,Copper,L1,Top*
G04 #@! TF.FilePolarity,Positive*
%FSLAX46Y46*%
G04 Gerber Fmt 4.6, Leading zero omitted, Abs format (unit mm)*
G04 Created by KiCad (PCBNEW 5.0.2-bee76a0~70~ubuntu18.04.1) date Sun 26 Apr 2020 01:11:53 PM EDT*
%MOMM*%
%LPD*%
G01*
G04 APERTURE LIST*
G04 #@! TA.AperFunction,Conductor*
%ADD10C,0.050000*%
G04 #@! TD*
G04 #@! TA.AperFunction,ComponentPad*
%ADD11C,1.200000*%
G04 #@! TD*
G04 #@! TA.AperFunction,ComponentPad*
%ADD12O,1.750000X1.200000*%
G04 #@! TD*
G04 #@! TA.AperFunction,ComponentPad*
%ADD13O,2.200000X1.800000*%
G04 #@! TD*
G04 #@! TA.AperFunction,ComponentPad*
%ADD14R,2.200000X1.800000*%
G04 #@! TD*
G04 #@! TA.AperFunction,ComponentPad*
%ADD15O,1.600000X2.000000*%
G04 #@! TD*
G04 #@! TA.AperFunction,ComponentPad*
%ADD16R,1.100000X2.500000*%
G04 #@! TD*
G04 #@! TA.AperFunction,ComponentPad*
%ADD17O,1.100000X2.500000*%
G04 #@! TD*
G04 #@! TA.AperFunction,ComponentPad*
%ADD18O,2.000000X1.600000*%
G04 #@! TD*
G04 #@! TA.AperFunction,ViaPad*
%ADD19C,1.500000*%
G04 #@! TD*
G04 #@! TA.AperFunction,Conductor*
%ADD20C,0.400000*%
G04 #@! TD*
G04 #@! TA.AperFunction,Conductor*
%ADD21C,0.700000*%
G04 #@! TD*
G04 #@! TA.AperFunction,Conductor*
%ADD22C,0.254000*%
G04 #@! TD*
G04 APERTURE END LIST*
D10*
G04 #@! TO.N,Net-(BT1-Pad1)*
G04 #@! TO.C,BT1*
G36*
X47649505Y9848796D02*
X47673773Y9845196D01*
X47697572Y9839235D01*
X47720671Y9830970D01*
X47742850Y9820480D01*
X47763893Y9807868D01*
X47783599Y9793253D01*
X47801777Y9776777D01*
X47818253Y9758599D01*
X47832868Y9738893D01*
X47845480Y9717850D01*
X47855970Y9695671D01*
X47864235Y9672572D01*
X47870196Y9648773D01*
X47873796Y9624505D01*
X47875000Y9600001D01*
X47875000Y8899999D01*
X47873796Y8875495D01*
X47870196Y8851227D01*
X47864235Y8827428D01*
X47855970Y8804329D01*
X47845480Y8782150D01*
X47832868Y8761107D01*
X47818253Y8741401D01*
X47801777Y8723223D01*
X47783599Y8706747D01*
X47763893Y8692132D01*
X47742850Y8679520D01*
X47720671Y8669030D01*
X47697572Y8660765D01*
X47673773Y8654804D01*
X47649505Y8651204D01*
X47625001Y8650000D01*
X46374999Y8650000D01*
X46350495Y8651204D01*
X46326227Y8654804D01*
X46302428Y8660765D01*
X46279329Y8669030D01*
X46257150Y8679520D01*
X46236107Y8692132D01*
X46216401Y8706747D01*
X46198223Y8723223D01*
X46181747Y8741401D01*
X46167132Y8761107D01*
X46154520Y8782150D01*
X46144030Y8804329D01*
X46135765Y8827428D01*
X46129804Y8851227D01*
X46126204Y8875495D01*
X46125000Y8899999D01*
X46125000Y9600001D01*
X46126204Y9624505D01*
X46129804Y9648773D01*
X46135765Y9672572D01*
X46144030Y9695671D01*
X46154520Y9717850D01*
X46167132Y9738893D01*
X46181747Y9758599D01*
X46198223Y9776777D01*
X46216401Y9793253D01*
X46236107Y9807868D01*
X46257150Y9820480D01*
X46279329Y9830970D01*
X46302428Y9839235D01*
X46326227Y9845196D01*
X46350495Y9848796D01*
X46374999Y9850000D01*
X47625001Y9850000D01*
X47649505Y9848796D01*
X47649505Y9848796D01*
G37*
D11*
G04 #@! TD*
G04 #@! TO.P,BT1,1*
G04 #@! TO.N,Net-(BT1-Pad1)*
X47000000Y9250000D03*
D12*
G04 #@! TO.P,BT1,2*
G04 #@! TO.N,Net-(BT1-Pad2)*
X47000000Y11250000D03*
G04 #@! TD*
D13*
G04 #@! TO.P,JP1,2*
G04 #@! TO.N,Net-(JP1-Pad2)*
X43250000Y13460000D03*
D14*
G04 #@! TO.P,JP1,1*
G04 #@! TO.N,GND*
X43250000Y16000000D03*
G04 #@! TD*
D15*
G04 #@! TO.P,J1,4*
G04 #@! TO.N,SDA*
X30793000Y16575000D03*
G04 #@! TO.P,J1,3*
G04 #@! TO.N,SCL*
X33333000Y16575000D03*
G04 #@! TO.P,J1,2*
G04 #@! TO.N,GND*
X35873000Y16575000D03*
G04 #@! TO.P,J1,1*
G04 #@! TO.N,3V3*
X38413000Y16575000D03*
G04 #@! TD*
D16*
G04 #@! TO.P,U1,1*
G04 #@! TO.N,Net-(R3-Pad2)*
X2497000Y2421000D03*
D17*
G04 #@! TO.P,U1,2*
G04 #@! TO.N,ADC*
X4497000Y2421000D03*
G04 #@! TO.P,U1,3*
G04 #@! TO.N,Net-(C7-Pad2)*
X6497000Y2421000D03*
G04 #@! TO.P,U1,4*
G04 #@! TO.N,Net-(R3-Pad1)*
X8497000Y2421000D03*
G04 #@! TO.P,U1,5*
G04 #@! TO.N,Net-(JP1-Pad2)*
X10497000Y2421000D03*
G04 #@! TO.P,U1,6*
G04 #@! TO.N,Net-(U1-Pad6)*
X12497000Y2421000D03*
G04 #@! TO.P,U1,7*
G04 #@! TO.N,Net-(U1-Pad7)*
X14497000Y2421000D03*
G04 #@! TO.P,U1,8*
G04 #@! TO.N,3V3*
X16497000Y2421000D03*
G04 #@! TO.P,U1,9*
G04 #@! TO.N,GND*
X16497000Y17821000D03*
G04 #@! TO.P,U1,10*
G04 #@! TO.N,Net-(R7-Pad2)*
X14497000Y17721000D03*
G04 #@! TO.P,U1,11*
G04 #@! TO.N,Net-(U1-Pad11)*
X12497000Y17821000D03*
G04 #@! TO.P,U1,12*
G04 #@! TO.N,Net-(R4-Pad1)*
X10497000Y17821000D03*
G04 #@! TO.P,U1,13*
G04 #@! TO.N,SDA*
X8497000Y17821000D03*
G04 #@! TO.P,U1,14*
G04 #@! TO.N,SCL*
X6497000Y17821000D03*
G04 #@! TO.P,U1,15*
G04 #@! TO.N,Net-(U1-Pad15)*
X4497000Y17821000D03*
G04 #@! TO.P,U1,16*
G04 #@! TO.N,Net-(U1-Pad16)*
X2497000Y17821000D03*
G04 #@! TD*
D18*
G04 #@! TO.P,SW1,3*
G04 #@! TO.N,N/C*
X41650000Y4000000D03*
G04 #@! TO.P,SW1,2*
G04 #@! TO.N,Net-(BT1-Pad1)*
X44850000Y6500000D03*
G04 #@! TO.P,SW1,1*
G04 #@! TO.N,Net-(C2-Pad1)*
X41650000Y9000000D03*
G04 #@! TD*
D19*
G04 #@! TO.N,3V3*
X38000000Y14750000D03*
X1500000Y6250000D03*
X15500000Y7000000D03*
G04 #@! TO.N,ADC*
X5250000Y6500000D03*
X21500000Y14500000D03*
G04 #@! TO.N,SCL*
X30600000Y13900000D03*
X5700000Y14900000D03*
G04 #@! TO.N,SDA*
X8497000Y14921000D03*
X28000000Y16000000D03*
G04 #@! TO.N,Net-(JP1-Pad2)*
X41500000Y12000000D03*
X12600000Y6400000D03*
G04 #@! TO.N,Net-(C2-Pad1)*
X36500000Y9000000D03*
X24750000Y14500000D03*
X27000000Y6500000D03*
G04 #@! TD*
D20*
G04 #@! TO.N,3V3*
X7500000Y4750000D02*
X3000000Y4750000D01*
X11150000Y8400000D02*
X7500000Y4750000D01*
X15500000Y7000000D02*
X15500000Y7100000D01*
X3000000Y4750000D02*
X1500000Y6250000D01*
X14200000Y8400000D02*
X11150000Y8400000D01*
X15500000Y7100000D02*
X14200000Y8400000D01*
X20750000Y4750000D02*
X18500000Y7000000D01*
X34850000Y4750000D02*
X20750000Y4750000D01*
X38300000Y8200000D02*
X34850000Y4750000D01*
X18500000Y7000000D02*
X15500000Y7000000D01*
X38000000Y14750000D02*
X38300000Y14450000D01*
X38300000Y14450000D02*
X38300000Y8200000D01*
G04 #@! TO.N,ADC*
X5750000Y6500000D02*
X5250000Y6500000D01*
X19500000Y12500000D02*
X11750000Y12500000D01*
X11750000Y12500000D02*
X5750000Y6500000D01*
X21500000Y14500000D02*
X19500000Y12500000D01*
G04 #@! TO.N,SCL*
X5700000Y13550000D02*
X5700000Y14900000D01*
X6500000Y12750000D02*
X5700000Y13550000D01*
X10350000Y12750000D02*
X6500000Y12750000D01*
X11200000Y13600000D02*
X10350000Y12750000D01*
X30300000Y13600000D02*
X28200000Y13600000D01*
X30600000Y13900000D02*
X30300000Y13600000D01*
X25500000Y16300000D02*
X20500000Y16300000D01*
X28200000Y13600000D02*
X25500000Y16300000D01*
X20500000Y16300000D02*
X17800000Y13600000D01*
X17800000Y13600000D02*
X11200000Y13600000D01*
G04 #@! TO.N,SDA*
X20050000Y17600000D02*
X17200000Y14750000D01*
X17200000Y14750000D02*
X8668000Y14750000D01*
X28000000Y16000000D02*
X26400000Y17600000D01*
X8668000Y14750000D02*
X8497000Y14921000D01*
X26400000Y17600000D02*
X20050000Y17600000D01*
G04 #@! TO.N,Net-(JP1-Pad2)*
X39300000Y11000000D02*
X40300000Y12000000D01*
X12600000Y6400000D02*
X14200000Y4800000D01*
X14200000Y4800000D02*
X18500000Y4800000D01*
X35500000Y3500000D02*
X39300000Y7300000D01*
X40300000Y12000000D02*
X41500000Y12000000D01*
X19800000Y3500000D02*
X35500000Y3500000D01*
X18500000Y4800000D02*
X19800000Y3500000D01*
X39300000Y7300000D02*
X39300000Y11000000D01*
G04 #@! TO.N,Net-(C2-Pad1)*
X26750000Y6750000D02*
X26750000Y12500000D01*
X26750000Y12500000D02*
X24750000Y14500000D01*
X27000000Y6500000D02*
X26750000Y6750000D01*
D21*
X34000000Y6500000D02*
X27000000Y6500000D01*
X36500000Y9000000D02*
X34000000Y6500000D01*
G04 #@! TD*
D22*
G04 #@! TO.N,GND*
G36*
X46107235Y18423352D02*
X47195022Y18204015D01*
X48244234Y17842742D01*
X49236464Y17345872D01*
X50154252Y16722143D01*
X50981488Y15982508D01*
X51703636Y15139964D01*
X52308012Y14209307D01*
X52783990Y13206900D01*
X53123214Y12150342D01*
X53319720Y11058206D01*
X53370058Y9949675D01*
X53273343Y8844216D01*
X53031275Y7761266D01*
X52648108Y6719848D01*
X52130566Y5738243D01*
X51487755Y4833720D01*
X50730956Y4022151D01*
X49873471Y3317806D01*
X48930363Y2733055D01*
X47918211Y2278175D01*
X46854782Y1961153D01*
X45753549Y1786736D01*
X44988613Y1752000D01*
X17774000Y1752000D01*
X17774000Y3246769D01*
X17699907Y3619260D01*
X17530363Y3873000D01*
X18116025Y3873000D01*
X19079951Y2909073D01*
X19131670Y2831670D01*
X19438303Y2626785D01*
X19708698Y2573000D01*
X19708699Y2573000D01*
X19800000Y2554839D01*
X19891301Y2573000D01*
X35408700Y2573000D01*
X35500000Y2554839D01*
X35591300Y2573000D01*
X35591302Y2573000D01*
X35861697Y2626785D01*
X36168330Y2831670D01*
X36220051Y2909076D01*
X37310975Y4000000D01*
X39893085Y4000000D01*
X40011598Y3404194D01*
X40349095Y2899095D01*
X40854194Y2561598D01*
X41299607Y2473000D01*
X42000393Y2473000D01*
X42445806Y2561598D01*
X42950905Y2899095D01*
X43288402Y3404194D01*
X43406915Y4000000D01*
X43288402Y4595806D01*
X42950905Y5100905D01*
X42445806Y5438402D01*
X42000393Y5527000D01*
X41299607Y5527000D01*
X40854194Y5438402D01*
X40349095Y5100905D01*
X40011598Y4595806D01*
X39893085Y4000000D01*
X37310975Y4000000D01*
X39810975Y6500000D01*
X43093085Y6500000D01*
X43211598Y5904194D01*
X43549095Y5399095D01*
X44054194Y5061598D01*
X44499607Y4973000D01*
X45200393Y4973000D01*
X45645806Y5061598D01*
X46150905Y5399095D01*
X46488402Y5904194D01*
X46606915Y6500000D01*
X46488402Y7095806D01*
X46150905Y7600905D01*
X45645806Y7938402D01*
X45200393Y8027000D01*
X44499607Y8027000D01*
X44054194Y7938402D01*
X43549095Y7600905D01*
X43211598Y7095806D01*
X43093085Y6500000D01*
X39810975Y6500000D01*
X39890928Y6579952D01*
X39968330Y6631670D01*
X40173215Y6938303D01*
X40227000Y7208698D01*
X40227000Y7208699D01*
X40245161Y7300000D01*
X40227000Y7391301D01*
X40227000Y8081823D01*
X40349095Y7899095D01*
X40854194Y7561598D01*
X41299607Y7473000D01*
X42000393Y7473000D01*
X42445806Y7561598D01*
X42950905Y7899095D01*
X43288402Y8404194D01*
X43406915Y9000000D01*
X43288402Y9595806D01*
X42950905Y10100905D01*
X42445806Y10438402D01*
X42000393Y10527000D01*
X41803451Y10527000D01*
X42336653Y10747860D01*
X42752140Y11163347D01*
X42788032Y11250000D01*
X45372003Y11250000D01*
X45474994Y10732230D01*
X45735688Y10342075D01*
X45674086Y10300914D01*
X45459212Y9979333D01*
X45383758Y9600001D01*
X45383758Y8899999D01*
X45459212Y8520667D01*
X45674086Y8199086D01*
X45995667Y7984212D01*
X46374999Y7908758D01*
X47625001Y7908758D01*
X48004333Y7984212D01*
X48325914Y8199086D01*
X48540788Y8520667D01*
X48616242Y8899999D01*
X48616242Y9600001D01*
X48540788Y9979333D01*
X48325914Y10300914D01*
X48264312Y10342075D01*
X48525006Y10732230D01*
X48627997Y11250000D01*
X48525006Y11767770D01*
X48231713Y12206713D01*
X47792770Y12500006D01*
X47405696Y12577000D01*
X46594304Y12577000D01*
X46207230Y12500006D01*
X45768287Y12206713D01*
X45474994Y11767770D01*
X45372003Y11250000D01*
X42788032Y11250000D01*
X42977000Y11706206D01*
X42977000Y11833000D01*
X43610242Y11833000D01*
X44084824Y11927400D01*
X44623001Y12286999D01*
X44982600Y12825176D01*
X45108874Y13460000D01*
X44982600Y14094824D01*
X44731237Y14471014D01*
X44761812Y14483679D01*
X44966321Y14688187D01*
X45077000Y14955390D01*
X45077000Y15645250D01*
X44895250Y15827000D01*
X43423000Y15827000D01*
X43423000Y15807000D01*
X43077000Y15807000D01*
X43077000Y15827000D01*
X41604750Y15827000D01*
X41423000Y15645250D01*
X41423000Y14955390D01*
X41533679Y14688187D01*
X41738188Y14483679D01*
X41768763Y14471014D01*
X41517400Y14094824D01*
X41394508Y13477000D01*
X41206206Y13477000D01*
X40663347Y13252140D01*
X40347016Y12935809D01*
X40300000Y12945161D01*
X40208699Y12927000D01*
X40208698Y12927000D01*
X39938303Y12873215D01*
X39631670Y12668330D01*
X39579951Y12590927D01*
X39227000Y12237976D01*
X39227000Y13888207D01*
X39252140Y13913347D01*
X39477000Y14456206D01*
X39477000Y15043794D01*
X39410285Y15204858D01*
X39513905Y15274095D01*
X39851402Y15779195D01*
X39940000Y16224608D01*
X39940000Y16925393D01*
X39916287Y17044610D01*
X41423000Y17044610D01*
X41423000Y16354750D01*
X41604750Y16173000D01*
X43077000Y16173000D01*
X43077000Y17445250D01*
X43423000Y17445250D01*
X43423000Y16173000D01*
X44895250Y16173000D01*
X45077000Y16354750D01*
X45077000Y17044610D01*
X44966321Y17311813D01*
X44761812Y17516321D01*
X44494609Y17627000D01*
X43604750Y17627000D01*
X43423000Y17445250D01*
X43077000Y17445250D01*
X42895250Y17627000D01*
X42005391Y17627000D01*
X41738188Y17516321D01*
X41533679Y17311813D01*
X41423000Y17044610D01*
X39916287Y17044610D01*
X39851402Y17370806D01*
X39513905Y17875905D01*
X39008805Y18213402D01*
X38413000Y18331915D01*
X37817194Y18213402D01*
X37312095Y17875905D01*
X37135709Y17611924D01*
X36793289Y17995734D01*
X36281207Y18246426D01*
X36046000Y18109080D01*
X36046000Y16748000D01*
X36066000Y16748000D01*
X36066000Y16402000D01*
X36046000Y16402000D01*
X36046000Y15040920D01*
X36281207Y14903574D01*
X36523000Y15021945D01*
X36523000Y14456206D01*
X36747860Y13913347D01*
X37163347Y13497860D01*
X37373000Y13411019D01*
X37373001Y10215792D01*
X37336653Y10252140D01*
X36793794Y10477000D01*
X36206206Y10477000D01*
X35663347Y10252140D01*
X35247860Y9836653D01*
X35023000Y9293794D01*
X35023000Y9046108D01*
X33553893Y7577000D01*
X28011793Y7577000D01*
X27836653Y7752140D01*
X27677000Y7818271D01*
X27677000Y12408700D01*
X27695161Y12500001D01*
X27665750Y12647860D01*
X27623215Y12861697D01*
X27612587Y12877603D01*
X27838303Y12726785D01*
X28108698Y12673000D01*
X28108699Y12673000D01*
X28200000Y12654839D01*
X28291301Y12673000D01*
X29738207Y12673000D01*
X29763347Y12647860D01*
X30306206Y12423000D01*
X30893794Y12423000D01*
X31436653Y12647860D01*
X31852140Y13063347D01*
X32077000Y13606206D01*
X32077000Y14193794D01*
X31852140Y14736653D01*
X31546696Y15042097D01*
X31893905Y15274095D01*
X32063000Y15527163D01*
X32232095Y15274095D01*
X32737195Y14936598D01*
X33333000Y14818085D01*
X33928806Y14936598D01*
X34433905Y15274095D01*
X34610291Y15538076D01*
X34952711Y15154266D01*
X35464793Y14903574D01*
X35700000Y15040920D01*
X35700000Y16402000D01*
X35680000Y16402000D01*
X35680000Y16748000D01*
X35700000Y16748000D01*
X35700000Y18109080D01*
X35464793Y18246426D01*
X34952711Y17995734D01*
X34610292Y17611924D01*
X34433905Y17875905D01*
X33928805Y18213402D01*
X33333000Y18331915D01*
X32737194Y18213402D01*
X32232095Y17875905D01*
X32063000Y17622837D01*
X31893905Y17875905D01*
X31388805Y18213402D01*
X30793000Y18331915D01*
X30197194Y18213402D01*
X29692095Y17875905D01*
X29354598Y17370805D01*
X29266000Y16925392D01*
X29266000Y16803192D01*
X29252140Y16836653D01*
X28836653Y17252140D01*
X28293794Y17477000D01*
X27833975Y17477000D01*
X27120050Y18190925D01*
X27068330Y18268330D01*
X26761697Y18473215D01*
X26637095Y18498000D01*
X44983353Y18498000D01*
X46107235Y18423352D01*
X46107235Y18423352D01*
G37*
X46107235Y18423352D02*
X47195022Y18204015D01*
X48244234Y17842742D01*
X49236464Y17345872D01*
X50154252Y16722143D01*
X50981488Y15982508D01*
X51703636Y15139964D01*
X52308012Y14209307D01*
X52783990Y13206900D01*
X53123214Y12150342D01*
X53319720Y11058206D01*
X53370058Y9949675D01*
X53273343Y8844216D01*
X53031275Y7761266D01*
X52648108Y6719848D01*
X52130566Y5738243D01*
X51487755Y4833720D01*
X50730956Y4022151D01*
X49873471Y3317806D01*
X48930363Y2733055D01*
X47918211Y2278175D01*
X46854782Y1961153D01*
X45753549Y1786736D01*
X44988613Y1752000D01*
X17774000Y1752000D01*
X17774000Y3246769D01*
X17699907Y3619260D01*
X17530363Y3873000D01*
X18116025Y3873000D01*
X19079951Y2909073D01*
X19131670Y2831670D01*
X19438303Y2626785D01*
X19708698Y2573000D01*
X19708699Y2573000D01*
X19800000Y2554839D01*
X19891301Y2573000D01*
X35408700Y2573000D01*
X35500000Y2554839D01*
X35591300Y2573000D01*
X35591302Y2573000D01*
X35861697Y2626785D01*
X36168330Y2831670D01*
X36220051Y2909076D01*
X37310975Y4000000D01*
X39893085Y4000000D01*
X40011598Y3404194D01*
X40349095Y2899095D01*
X40854194Y2561598D01*
X41299607Y2473000D01*
X42000393Y2473000D01*
X42445806Y2561598D01*
X42950905Y2899095D01*
X43288402Y3404194D01*
X43406915Y4000000D01*
X43288402Y4595806D01*
X42950905Y5100905D01*
X42445806Y5438402D01*
X42000393Y5527000D01*
X41299607Y5527000D01*
X40854194Y5438402D01*
X40349095Y5100905D01*
X40011598Y4595806D01*
X39893085Y4000000D01*
X37310975Y4000000D01*
X39810975Y6500000D01*
X43093085Y6500000D01*
X43211598Y5904194D01*
X43549095Y5399095D01*
X44054194Y5061598D01*
X44499607Y4973000D01*
X45200393Y4973000D01*
X45645806Y5061598D01*
X46150905Y5399095D01*
X46488402Y5904194D01*
X46606915Y6500000D01*
X46488402Y7095806D01*
X46150905Y7600905D01*
X45645806Y7938402D01*
X45200393Y8027000D01*
X44499607Y8027000D01*
X44054194Y7938402D01*
X43549095Y7600905D01*
X43211598Y7095806D01*
X43093085Y6500000D01*
X39810975Y6500000D01*
X39890928Y6579952D01*
X39968330Y6631670D01*
X40173215Y6938303D01*
X40227000Y7208698D01*
X40227000Y7208699D01*
X40245161Y7300000D01*
X40227000Y7391301D01*
X40227000Y8081823D01*
X40349095Y7899095D01*
X40854194Y7561598D01*
X41299607Y7473000D01*
X42000393Y7473000D01*
X42445806Y7561598D01*
X42950905Y7899095D01*
X43288402Y8404194D01*
X43406915Y9000000D01*
X43288402Y9595806D01*
X42950905Y10100905D01*
X42445806Y10438402D01*
X42000393Y10527000D01*
X41803451Y10527000D01*
X42336653Y10747860D01*
X42752140Y11163347D01*
X42788032Y11250000D01*
X45372003Y11250000D01*
X45474994Y10732230D01*
X45735688Y10342075D01*
X45674086Y10300914D01*
X45459212Y9979333D01*
X45383758Y9600001D01*
X45383758Y8899999D01*
X45459212Y8520667D01*
X45674086Y8199086D01*
X45995667Y7984212D01*
X46374999Y7908758D01*
X47625001Y7908758D01*
X48004333Y7984212D01*
X48325914Y8199086D01*
X48540788Y8520667D01*
X48616242Y8899999D01*
X48616242Y9600001D01*
X48540788Y9979333D01*
X48325914Y10300914D01*
X48264312Y10342075D01*
X48525006Y10732230D01*
X48627997Y11250000D01*
X48525006Y11767770D01*
X48231713Y12206713D01*
X47792770Y12500006D01*
X47405696Y12577000D01*
X46594304Y12577000D01*
X46207230Y12500006D01*
X45768287Y12206713D01*
X45474994Y11767770D01*
X45372003Y11250000D01*
X42788032Y11250000D01*
X42977000Y11706206D01*
X42977000Y11833000D01*
X43610242Y11833000D01*
X44084824Y11927400D01*
X44623001Y12286999D01*
X44982600Y12825176D01*
X45108874Y13460000D01*
X44982600Y14094824D01*
X44731237Y14471014D01*
X44761812Y14483679D01*
X44966321Y14688187D01*
X45077000Y14955390D01*
X45077000Y15645250D01*
X44895250Y15827000D01*
X43423000Y15827000D01*
X43423000Y15807000D01*
X43077000Y15807000D01*
X43077000Y15827000D01*
X41604750Y15827000D01*
X41423000Y15645250D01*
X41423000Y14955390D01*
X41533679Y14688187D01*
X41738188Y14483679D01*
X41768763Y14471014D01*
X41517400Y14094824D01*
X41394508Y13477000D01*
X41206206Y13477000D01*
X40663347Y13252140D01*
X40347016Y12935809D01*
X40300000Y12945161D01*
X40208699Y12927000D01*
X40208698Y12927000D01*
X39938303Y12873215D01*
X39631670Y12668330D01*
X39579951Y12590927D01*
X39227000Y12237976D01*
X39227000Y13888207D01*
X39252140Y13913347D01*
X39477000Y14456206D01*
X39477000Y15043794D01*
X39410285Y15204858D01*
X39513905Y15274095D01*
X39851402Y15779195D01*
X39940000Y16224608D01*
X39940000Y16925393D01*
X39916287Y17044610D01*
X41423000Y17044610D01*
X41423000Y16354750D01*
X41604750Y16173000D01*
X43077000Y16173000D01*
X43077000Y17445250D01*
X43423000Y17445250D01*
X43423000Y16173000D01*
X44895250Y16173000D01*
X45077000Y16354750D01*
X45077000Y17044610D01*
X44966321Y17311813D01*
X44761812Y17516321D01*
X44494609Y17627000D01*
X43604750Y17627000D01*
X43423000Y17445250D01*
X43077000Y17445250D01*
X42895250Y17627000D01*
X42005391Y17627000D01*
X41738188Y17516321D01*
X41533679Y17311813D01*
X41423000Y17044610D01*
X39916287Y17044610D01*
X39851402Y17370806D01*
X39513905Y17875905D01*
X39008805Y18213402D01*
X38413000Y18331915D01*
X37817194Y18213402D01*
X37312095Y17875905D01*
X37135709Y17611924D01*
X36793289Y17995734D01*
X36281207Y18246426D01*
X36046000Y18109080D01*
X36046000Y16748000D01*
X36066000Y16748000D01*
X36066000Y16402000D01*
X36046000Y16402000D01*
X36046000Y15040920D01*
X36281207Y14903574D01*
X36523000Y15021945D01*
X36523000Y14456206D01*
X36747860Y13913347D01*
X37163347Y13497860D01*
X37373000Y13411019D01*
X37373001Y10215792D01*
X37336653Y10252140D01*
X36793794Y10477000D01*
X36206206Y10477000D01*
X35663347Y10252140D01*
X35247860Y9836653D01*
X35023000Y9293794D01*
X35023000Y9046108D01*
X33553893Y7577000D01*
X28011793Y7577000D01*
X27836653Y7752140D01*
X27677000Y7818271D01*
X27677000Y12408700D01*
X27695161Y12500001D01*
X27665750Y12647860D01*
X27623215Y12861697D01*
X27612587Y12877603D01*
X27838303Y12726785D01*
X28108698Y12673000D01*
X28108699Y12673000D01*
X28200000Y12654839D01*
X28291301Y12673000D01*
X29738207Y12673000D01*
X29763347Y12647860D01*
X30306206Y12423000D01*
X30893794Y12423000D01*
X31436653Y12647860D01*
X31852140Y13063347D01*
X32077000Y13606206D01*
X32077000Y14193794D01*
X31852140Y14736653D01*
X31546696Y15042097D01*
X31893905Y15274095D01*
X32063000Y15527163D01*
X32232095Y15274095D01*
X32737195Y14936598D01*
X33333000Y14818085D01*
X33928806Y14936598D01*
X34433905Y15274095D01*
X34610291Y15538076D01*
X34952711Y15154266D01*
X35464793Y14903574D01*
X35700000Y15040920D01*
X35700000Y16402000D01*
X35680000Y16402000D01*
X35680000Y16748000D01*
X35700000Y16748000D01*
X35700000Y18109080D01*
X35464793Y18246426D01*
X34952711Y17995734D01*
X34610292Y17611924D01*
X34433905Y17875905D01*
X33928805Y18213402D01*
X33333000Y18331915D01*
X32737194Y18213402D01*
X32232095Y17875905D01*
X32063000Y17622837D01*
X31893905Y17875905D01*
X31388805Y18213402D01*
X30793000Y18331915D01*
X30197194Y18213402D01*
X29692095Y17875905D01*
X29354598Y17370805D01*
X29266000Y16925392D01*
X29266000Y16803192D01*
X29252140Y16836653D01*
X28836653Y17252140D01*
X28293794Y17477000D01*
X27833975Y17477000D01*
X27120050Y18190925D01*
X27068330Y18268330D01*
X26761697Y18473215D01*
X26637095Y18498000D01*
X44983353Y18498000D01*
X46107235Y18423352D01*
G36*
X19688303Y18473215D02*
X19381670Y18268330D01*
X19329951Y18190927D01*
X17603629Y16464605D01*
X17610590Y16472482D01*
X17774000Y16948000D01*
X17774000Y17648000D01*
X16670000Y17648000D01*
X16670000Y16039499D01*
X16865795Y15898413D01*
X17195252Y16056227D01*
X16816025Y15677000D01*
X9782548Y15677000D01*
X9749140Y15757653D01*
X9351001Y16155792D01*
X9417665Y16200335D01*
X9497000Y16319069D01*
X9576336Y16200335D01*
X9998741Y15918093D01*
X10497000Y15818983D01*
X10995260Y15918093D01*
X11417665Y16200335D01*
X11497000Y16319069D01*
X11576336Y16200335D01*
X11998741Y15918093D01*
X12497000Y15818983D01*
X12995260Y15918093D01*
X13417665Y16200335D01*
X13463591Y16269069D01*
X13576336Y16100335D01*
X13998741Y15818093D01*
X14497000Y15718983D01*
X14995260Y15818093D01*
X15417665Y16100335D01*
X15544508Y16290170D01*
X15716354Y16095695D01*
X16128205Y15898413D01*
X16324000Y16039499D01*
X16324000Y17648000D01*
X16304000Y17648000D01*
X16304000Y17994000D01*
X16324000Y17994000D01*
X16324000Y18014000D01*
X16670000Y18014000D01*
X16670000Y17994000D01*
X17774000Y17994000D01*
X17774000Y18498000D01*
X19812905Y18498000D01*
X19688303Y18473215D01*
X19688303Y18473215D01*
G37*
X19688303Y18473215D02*
X19381670Y18268330D01*
X19329951Y18190927D01*
X17603629Y16464605D01*
X17610590Y16472482D01*
X17774000Y16948000D01*
X17774000Y17648000D01*
X16670000Y17648000D01*
X16670000Y16039499D01*
X16865795Y15898413D01*
X17195252Y16056227D01*
X16816025Y15677000D01*
X9782548Y15677000D01*
X9749140Y15757653D01*
X9351001Y16155792D01*
X9417665Y16200335D01*
X9497000Y16319069D01*
X9576336Y16200335D01*
X9998741Y15918093D01*
X10497000Y15818983D01*
X10995260Y15918093D01*
X11417665Y16200335D01*
X11497000Y16319069D01*
X11576336Y16200335D01*
X11998741Y15918093D01*
X12497000Y15818983D01*
X12995260Y15918093D01*
X13417665Y16200335D01*
X13463591Y16269069D01*
X13576336Y16100335D01*
X13998741Y15818093D01*
X14497000Y15718983D01*
X14995260Y15818093D01*
X15417665Y16100335D01*
X15544508Y16290170D01*
X15716354Y16095695D01*
X16128205Y15898413D01*
X16324000Y16039499D01*
X16324000Y17648000D01*
X16304000Y17648000D01*
X16304000Y17994000D01*
X16324000Y17994000D01*
X16324000Y18014000D01*
X16670000Y18014000D01*
X16670000Y17994000D01*
X17774000Y17994000D01*
X17774000Y18498000D01*
X19812905Y18498000D01*
X19688303Y18473215D01*
G04 #@! TD*
M02*
