M48
;DRILL file {KiCad 5.0.2-bee76a0~70~ubuntu18.04.1} date Sun 19 Apr 2020 03:07:55 PM EDT
;FORMAT={-:-/ absolute / metric / decimal}
FMAT,2
METRIC,TZ
T1C0.600
T2C0.650
T3C0.762
T4C0.800
T5C1.000
%
G90
G05
T1
X1.5Y6.25
X5.25Y6.5
X5.7Y14.9
X8.497Y14.921
X12.75Y8.
X16.497Y5.721
X19.4Y12.2
X25.25Y12.
X27.7Y8.7
X28.Y16.
X29.2Y3.
X30.6Y13.9
X37.25Y11.25
X38.Y14.75
X39.Y8.2
X41.5Y12.
X46.Y17.5
T2
X2.497Y17.121
X2.497Y3.121
X4.497Y17.121
X4.497Y3.121
X6.497Y17.121
X6.497Y3.121
X8.497Y17.121
X8.497Y3.121
X10.497Y17.121
X10.497Y3.121
X12.497Y17.121
X12.497Y3.121
X14.497Y17.121
X14.497Y3.121
X16.497Y17.121
X16.497Y3.121
T3
X30.793Y16.575
X33.333Y16.575
X35.873Y16.575
X38.413Y16.575
T4
X41.65Y9.
X41.65Y4.
X44.85Y6.5
T5
X43.25Y16.
X43.25Y13.46
X46.5Y11.
X46.5Y10.5
X46.5Y10.
X46.5Y9.5
X46.5Y9.
X102.5Y11.
X102.5Y10.5
X102.5Y10.
X102.5Y9.5
X102.5Y9.
T0
M30
