G04 #@! TF.GenerationSoftware,KiCad,Pcbnew,5.0.2-bee76a0~70~ubuntu18.04.1*
G04 #@! TF.CreationDate,2020-04-04T21:44:00-04:00*
G04 #@! TF.ProjectId,weeSpindel,77656553-7069-46e6-9465-6c2e6b696361,rev?*
G04 #@! TF.SameCoordinates,PX56c8cc0PY6dac2c0*
G04 #@! TF.FileFunction,Drawing*
%FSLAX46Y46*%
G04 Gerber Fmt 4.6, Leading zero omitted, Abs format (unit mm)*
G04 Created by KiCad (PCBNEW 5.0.2-bee76a0~70~ubuntu18.04.1) date Sat 04 Apr 2020 09:44:00 PM EDT*
%MOMM*%
%LPD*%
G01*
G04 APERTURE LIST*
%ADD10C,0.300000*%
G04 APERTURE END LIST*
D10*
X22028571Y3667858D02*
X21885714Y3596429D01*
X21600000Y3596429D01*
X21457142Y3667858D01*
X21385714Y3739286D01*
X21314285Y3882143D01*
X21314285Y4310715D01*
X21385714Y4453572D01*
X21457142Y4525000D01*
X21600000Y4596429D01*
X21885714Y4596429D01*
X22028571Y4525000D01*
X22671428Y4596429D02*
X22671428Y3096429D01*
X22671428Y4525000D02*
X22814285Y4596429D01*
X23100000Y4596429D01*
X23242857Y4525000D01*
X23314285Y4453572D01*
X23385714Y4310715D01*
X23385714Y3882143D01*
X23314285Y3739286D01*
X23242857Y3667858D01*
X23100000Y3596429D01*
X22814285Y3596429D01*
X22671428Y3667858D01*
X24600000Y3667858D02*
X24457142Y3596429D01*
X24171428Y3596429D01*
X24028571Y3667858D01*
X23957142Y3810715D01*
X23957142Y4382143D01*
X24028571Y4525000D01*
X24171428Y4596429D01*
X24457142Y4596429D01*
X24600000Y4525000D01*
X24671428Y4382143D01*
X24671428Y4239286D01*
X23957142Y4096429D01*
X25314285Y3596429D02*
X25314285Y4596429D01*
X25314285Y4310715D02*
X25385714Y4453572D01*
X25457142Y4525000D01*
X25600000Y4596429D01*
X25742857Y4596429D01*
X26242857Y3596429D02*
X26242857Y4596429D01*
X26242857Y5096429D02*
X26171428Y5025000D01*
X26242857Y4953572D01*
X26314285Y5025000D01*
X26242857Y5096429D01*
X26242857Y4953572D01*
X27171428Y3596429D02*
X27028571Y3667858D01*
X26957142Y3739286D01*
X26885714Y3882143D01*
X26885714Y4310715D01*
X26957142Y4453572D01*
X27028571Y4525000D01*
X27171428Y4596429D01*
X27385714Y4596429D01*
X27528571Y4525000D01*
X27600000Y4453572D01*
X27671428Y4310715D01*
X27671428Y3882143D01*
X27600000Y3739286D01*
X27528571Y3667858D01*
X27385714Y3596429D01*
X27171428Y3596429D01*
X28957142Y3596429D02*
X28957142Y5096429D01*
X28957142Y3667858D02*
X28814285Y3596429D01*
X28528571Y3596429D01*
X28385714Y3667858D01*
X28314285Y3739286D01*
X28242857Y3882143D01*
X28242857Y4310715D01*
X28314285Y4453572D01*
X28385714Y4525000D01*
X28528571Y4596429D01*
X28814285Y4596429D01*
X28957142Y4525000D01*
X30742857Y4953572D02*
X30814285Y5025000D01*
X30957142Y5096429D01*
X31314285Y5096429D01*
X31457142Y5025000D01*
X31528571Y4953572D01*
X31600000Y4810715D01*
X31600000Y4667858D01*
X31528571Y4453572D01*
X30671428Y3596429D01*
X31600000Y3596429D01*
X32528571Y5096429D02*
X32671428Y5096429D01*
X32814285Y5025000D01*
X32885714Y4953572D01*
X32957142Y4810715D01*
X33028571Y4525000D01*
X33028571Y4167858D01*
X32957142Y3882143D01*
X32885714Y3739286D01*
X32814285Y3667858D01*
X32671428Y3596429D01*
X32528571Y3596429D01*
X32385714Y3667858D01*
X32314285Y3739286D01*
X32242857Y3882143D01*
X32171428Y4167858D01*
X32171428Y4525000D01*
X32242857Y4810715D01*
X32314285Y4953572D01*
X32385714Y5025000D01*
X32528571Y5096429D01*
X33600000Y4953572D02*
X33671428Y5025000D01*
X33814285Y5096429D01*
X34171428Y5096429D01*
X34314285Y5025000D01*
X34385714Y4953572D01*
X34457142Y4810715D01*
X34457142Y4667858D01*
X34385714Y4453572D01*
X33528571Y3596429D01*
X34457142Y3596429D01*
X35385714Y5096429D02*
X35528571Y5096429D01*
X35671428Y5025000D01*
X35742857Y4953572D01*
X35814285Y4810715D01*
X35885714Y4525000D01*
X35885714Y4167858D01*
X35814285Y3882143D01*
X35742857Y3739286D01*
X35671428Y3667858D01*
X35528571Y3596429D01*
X35385714Y3596429D01*
X35242857Y3667858D01*
X35171428Y3739286D01*
X35100000Y3882143D01*
X35028571Y4167858D01*
X35028571Y4525000D01*
X35100000Y4810715D01*
X35171428Y4953572D01*
X35242857Y5025000D01*
X35385714Y5096429D01*
X19671428Y2046429D02*
X19957142Y1046429D01*
X20242857Y1760715D01*
X20528571Y1046429D01*
X20814285Y2046429D01*
X21957142Y1117858D02*
X21814285Y1046429D01*
X21528571Y1046429D01*
X21385714Y1117858D01*
X21314285Y1260715D01*
X21314285Y1832143D01*
X21385714Y1975000D01*
X21528571Y2046429D01*
X21814285Y2046429D01*
X21957142Y1975000D01*
X22028571Y1832143D01*
X22028571Y1689286D01*
X21314285Y1546429D01*
X23242857Y1117858D02*
X23100000Y1046429D01*
X22814285Y1046429D01*
X22671428Y1117858D01*
X22600000Y1260715D01*
X22600000Y1832143D01*
X22671428Y1975000D01*
X22814285Y2046429D01*
X23100000Y2046429D01*
X23242857Y1975000D01*
X23314285Y1832143D01*
X23314285Y1689286D01*
X22600000Y1546429D01*
X23885714Y1117858D02*
X24100000Y1046429D01*
X24457142Y1046429D01*
X24600000Y1117858D01*
X24671428Y1189286D01*
X24742857Y1332143D01*
X24742857Y1475000D01*
X24671428Y1617858D01*
X24600000Y1689286D01*
X24457142Y1760715D01*
X24171428Y1832143D01*
X24028571Y1903572D01*
X23957142Y1975000D01*
X23885714Y2117858D01*
X23885714Y2260715D01*
X23957142Y2403572D01*
X24028571Y2475000D01*
X24171428Y2546429D01*
X24528571Y2546429D01*
X24742857Y2475000D01*
X25385714Y2046429D02*
X25385714Y546429D01*
X25385714Y1975000D02*
X25528571Y2046429D01*
X25814285Y2046429D01*
X25957142Y1975000D01*
X26028571Y1903572D01*
X26100000Y1760715D01*
X26100000Y1332143D01*
X26028571Y1189286D01*
X25957142Y1117858D01*
X25814285Y1046429D01*
X25528571Y1046429D01*
X25385714Y1117858D01*
X26742857Y1046429D02*
X26742857Y2046429D01*
X26742857Y2546429D02*
X26671428Y2475000D01*
X26742857Y2403572D01*
X26814285Y2475000D01*
X26742857Y2546429D01*
X26742857Y2403572D01*
X27457142Y2046429D02*
X27457142Y1046429D01*
X27457142Y1903572D02*
X27528571Y1975000D01*
X27671428Y2046429D01*
X27885714Y2046429D01*
X28028571Y1975000D01*
X28100000Y1832143D01*
X28100000Y1046429D01*
X29457142Y1046429D02*
X29457142Y2546429D01*
X29457142Y1117858D02*
X29314285Y1046429D01*
X29028571Y1046429D01*
X28885714Y1117858D01*
X28814285Y1189286D01*
X28742857Y1332143D01*
X28742857Y1760715D01*
X28814285Y1903572D01*
X28885714Y1975000D01*
X29028571Y2046429D01*
X29314285Y2046429D01*
X29457142Y1975000D01*
X30742857Y1117858D02*
X30600000Y1046429D01*
X30314285Y1046429D01*
X30171428Y1117858D01*
X30100000Y1260715D01*
X30100000Y1832143D01*
X30171428Y1975000D01*
X30314285Y2046429D01*
X30600000Y2046429D01*
X30742857Y1975000D01*
X30814285Y1832143D01*
X30814285Y1689286D01*
X30100000Y1546429D01*
X31671428Y1046429D02*
X31528571Y1117858D01*
X31457142Y1260715D01*
X31457142Y2546429D01*
X33242857Y2046429D02*
X33600000Y1046429D01*
X33957142Y2046429D01*
X35314285Y1046429D02*
X34457142Y1046429D01*
X34885714Y1046429D02*
X34885714Y2546429D01*
X34742857Y2332143D01*
X34600000Y2189286D01*
X34457142Y2117858D01*
X35957142Y1189286D02*
X36028571Y1117858D01*
X35957142Y1046429D01*
X35885714Y1117858D01*
X35957142Y1189286D01*
X35957142Y1046429D01*
X36957142Y2546429D02*
X37100000Y2546429D01*
X37242857Y2475000D01*
X37314285Y2403572D01*
X37385714Y2260715D01*
X37457142Y1975000D01*
X37457142Y1617858D01*
X37385714Y1332143D01*
X37314285Y1189286D01*
X37242857Y1117858D01*
X37100000Y1046429D01*
X36957142Y1046429D01*
X36814285Y1117858D01*
X36742857Y1189286D01*
X36671428Y1332143D01*
X36600000Y1617858D01*
X36600000Y1975000D01*
X36671428Y2260715D01*
X36742857Y2403572D01*
X36814285Y2475000D01*
X36957142Y2546429D01*
M02*
