G04 #@! TF.GenerationSoftware,KiCad,Pcbnew,5.0.2-bee76a0~70~ubuntu18.04.1*
G04 #@! TF.CreationDate,2020-04-11T17:04:52-04:00*
G04 #@! TF.ProjectId,weeSpindel,77656553-7069-46e6-9465-6c2e6b696361,rev?*
G04 #@! TF.SameCoordinates,PX56c8cc0PY6dac2c0*
G04 #@! TF.FileFunction,Copper,L1,Top*
G04 #@! TF.FilePolarity,Positive*
%FSLAX46Y46*%
G04 Gerber Fmt 4.6, Leading zero omitted, Abs format (unit mm)*
G04 Created by KiCad (PCBNEW 5.0.2-bee76a0~70~ubuntu18.04.1) date Sat 11 Apr 2020 05:04:52 PM EDT*
%MOMM*%
%LPD*%
G01*
G04 APERTURE LIST*
G04 #@! TA.AperFunction,ComponentPad*
%ADD10O,1.800000X2.200000*%
G04 #@! TD*
G04 #@! TA.AperFunction,ComponentPad*
%ADD11R,1.700000X1.900000*%
G04 #@! TD*
G04 #@! TA.AperFunction,ComponentPad*
%ADD12R,2.000000X11.500000*%
G04 #@! TD*
G04 #@! TA.AperFunction,ComponentPad*
%ADD13R,1.100000X2.500000*%
G04 #@! TD*
G04 #@! TA.AperFunction,ComponentPad*
%ADD14O,1.100000X2.500000*%
G04 #@! TD*
G04 #@! TA.AperFunction,ComponentPad*
%ADD15O,2.200000X1.800000*%
G04 #@! TD*
G04 #@! TA.AperFunction,ComponentPad*
%ADD16R,2.200000X1.800000*%
G04 #@! TD*
G04 #@! TA.AperFunction,ComponentPad*
%ADD17O,2.000000X1.600000*%
G04 #@! TD*
G04 #@! TA.AperFunction,ViaPad*
%ADD18C,1.500000*%
G04 #@! TD*
G04 #@! TA.AperFunction,Conductor*
%ADD19C,0.400000*%
G04 #@! TD*
G04 APERTURE END LIST*
D10*
G04 #@! TO.P,J1,4*
G04 #@! TO.N,SDA*
X30870000Y17550000D03*
G04 #@! TO.P,J1,3*
G04 #@! TO.N,SCL*
X33410000Y17550000D03*
G04 #@! TO.P,J1,2*
G04 #@! TO.N,GND*
X35950000Y17550000D03*
D11*
G04 #@! TO.P,J1,1*
G04 #@! TO.N,3V3*
X38490000Y17550000D03*
G04 #@! TD*
D12*
G04 #@! TO.P,BT1,2*
G04 #@! TO.N,GND*
X106200000Y10000000D03*
G04 #@! TO.P,BT1,1*
G04 #@! TO.N,Net-(BT1-Pad1)*
X46200000Y10000000D03*
G04 #@! TD*
D13*
G04 #@! TO.P,U1,1*
G04 #@! TO.N,Net-(R3-Pad2)*
X2497000Y2421000D03*
D14*
G04 #@! TO.P,U1,2*
G04 #@! TO.N,ADC*
X4497000Y2421000D03*
G04 #@! TO.P,U1,3*
G04 #@! TO.N,Net-(C7-Pad2)*
X6497000Y2421000D03*
G04 #@! TO.P,U1,4*
G04 #@! TO.N,Net-(R3-Pad1)*
X8497000Y2421000D03*
G04 #@! TO.P,U1,5*
G04 #@! TO.N,Net-(JP1-Pad2)*
X10497000Y2421000D03*
G04 #@! TO.P,U1,6*
G04 #@! TO.N,Net-(U1-Pad6)*
X12497000Y2421000D03*
G04 #@! TO.P,U1,7*
G04 #@! TO.N,Net-(U1-Pad7)*
X14497000Y2421000D03*
G04 #@! TO.P,U1,8*
G04 #@! TO.N,3V3*
X16497000Y2421000D03*
G04 #@! TO.P,U1,9*
G04 #@! TO.N,GND*
X16497000Y17821000D03*
G04 #@! TO.P,U1,10*
G04 #@! TO.N,Net-(R7-Pad2)*
X14497000Y17721000D03*
G04 #@! TO.P,U1,11*
G04 #@! TO.N,Net-(U1-Pad11)*
X12497000Y17821000D03*
G04 #@! TO.P,U1,12*
G04 #@! TO.N,Net-(R4-Pad1)*
X10497000Y17821000D03*
G04 #@! TO.P,U1,13*
G04 #@! TO.N,SDA*
X8497000Y17821000D03*
G04 #@! TO.P,U1,14*
G04 #@! TO.N,SCL*
X6497000Y17821000D03*
G04 #@! TO.P,U1,15*
G04 #@! TO.N,Net-(U1-Pad15)*
X4497000Y17821000D03*
G04 #@! TO.P,U1,16*
G04 #@! TO.N,Net-(U1-Pad16)*
X2497000Y17821000D03*
G04 #@! TD*
D15*
G04 #@! TO.P,JP1,2*
G04 #@! TO.N,Net-(JP1-Pad2)*
X43000000Y12660000D03*
D16*
G04 #@! TO.P,JP1,1*
G04 #@! TO.N,GND*
X43000000Y15200000D03*
G04 #@! TD*
D17*
G04 #@! TO.P,SW1,3*
G04 #@! TO.N,N/C*
X41600000Y3300000D03*
G04 #@! TO.P,SW1,2*
G04 #@! TO.N,Net-(BT1-Pad1)*
X44800000Y5800000D03*
G04 #@! TO.P,SW1,1*
G04 #@! TO.N,Net-(C2-Pad1)*
X41600000Y8300000D03*
G04 #@! TD*
D18*
G04 #@! TO.N,3V3*
X16497000Y5721000D03*
X1500000Y6250000D03*
X38500000Y14250000D03*
X39000000Y8200000D03*
G04 #@! TO.N,Net-(C2-Pad1)*
X36500000Y10500000D03*
G04 #@! TO.N,ADC*
X6000000Y6250000D03*
X21250000Y11500000D03*
G04 #@! TO.N,SCL*
X5700000Y14900000D03*
X33500000Y13750000D03*
G04 #@! TO.N,SDA*
X8497000Y14921000D03*
X28000000Y17500000D03*
G04 #@! TO.N,Net-(JP1-Pad2)*
X43000000Y10900000D03*
X12750000Y8000000D03*
G04 #@! TO.N,Net-(C2-Pad1)*
X23250000Y11500000D03*
G04 #@! TD*
D19*
G04 #@! TO.N,3V3*
X16497000Y5721000D02*
X14971000Y5721000D01*
X14971000Y5721000D02*
X14000000Y4750000D01*
X14000000Y4750000D02*
X3000000Y4750000D01*
X3000000Y4750000D02*
X1500000Y6250000D01*
X39000000Y8200000D02*
X39000000Y13750000D01*
X39000000Y13750000D02*
X38500000Y14250000D01*
G04 #@! TO.N,ADC*
X11250000Y11500000D02*
X6000000Y6250000D01*
X21250000Y11500000D02*
X11250000Y11500000D01*
G04 #@! TO.N,SCL*
X5700000Y14200000D02*
X5700000Y14900000D01*
X6900000Y13000000D02*
X5700000Y14200000D01*
X10600000Y13000000D02*
X6900000Y13000000D01*
X11200000Y13600000D02*
X10600000Y13000000D01*
X33500000Y13750000D02*
X33350000Y13600000D01*
X33350000Y13600000D02*
X11200000Y13600000D01*
G04 #@! TO.N,SDA*
X8576000Y15000000D02*
X8497000Y14921000D01*
X25900000Y15000000D02*
X8576000Y15000000D01*
X28000000Y17500000D02*
X28000000Y17100000D01*
X28000000Y17100000D02*
X25900000Y15000000D01*
G04 #@! TO.N,Net-(JP1-Pad2)*
X43742858Y7542858D02*
X43700000Y7500000D01*
X43000000Y10900000D02*
X43742858Y10157142D01*
X43742858Y10157142D02*
X43742858Y7542858D01*
X41850000Y5650000D02*
X43742858Y7542858D01*
X17250000Y8000000D02*
X18500000Y6750000D01*
X12750000Y8000000D02*
X17250000Y8000000D01*
X18500000Y6750000D02*
X18500000Y3250000D01*
X18500000Y3250000D02*
X19750000Y2000000D01*
X41400000Y5650000D02*
X41850000Y5650000D01*
X19750000Y2000000D02*
X37750000Y2000000D01*
X37750000Y2000000D02*
X41400000Y5650000D01*
G04 #@! TO.N,Net-(C2-Pad1)*
X35500000Y11500000D02*
X36500000Y10500000D01*
X23250000Y11500000D02*
X35500000Y11500000D01*
G04 #@! TD*
M02*
