G04 #@! TF.GenerationSoftware,KiCad,Pcbnew,5.0.2-bee76a0~70~ubuntu18.04.1*
G04 #@! TF.CreationDate,2020-04-26T13:11:53-04:00*
G04 #@! TF.ProjectId,weeSpindel,77656553-7069-46e6-9465-6c2e6b696361,rev?*
G04 #@! TF.SameCoordinates,PX56c8cc0PY6dac2c0*
G04 #@! TF.FileFunction,Copper,L2,Bot*
G04 #@! TF.FilePolarity,Positive*
%FSLAX46Y46*%
G04 Gerber Fmt 4.6, Leading zero omitted, Abs format (unit mm)*
G04 Created by KiCad (PCBNEW 5.0.2-bee76a0~70~ubuntu18.04.1) date Sun 26 Apr 2020 01:11:53 PM EDT*
%MOMM*%
%LPD*%
G01*
G04 APERTURE LIST*
G04 #@! TA.AperFunction,Conductor*
%ADD10C,0.050000*%
G04 #@! TD*
G04 #@! TA.AperFunction,ComponentPad*
%ADD11C,1.200000*%
G04 #@! TD*
G04 #@! TA.AperFunction,ComponentPad*
%ADD12O,1.750000X1.200000*%
G04 #@! TD*
G04 #@! TA.AperFunction,SMDPad,CuDef*
%ADD13R,0.800000X1.900000*%
G04 #@! TD*
G04 #@! TA.AperFunction,SMDPad,CuDef*
%ADD14C,1.150000*%
G04 #@! TD*
G04 #@! TA.AperFunction,ComponentPad*
%ADD15O,2.200000X1.800000*%
G04 #@! TD*
G04 #@! TA.AperFunction,ComponentPad*
%ADD16R,2.200000X1.800000*%
G04 #@! TD*
G04 #@! TA.AperFunction,ComponentPad*
%ADD17O,1.600000X2.000000*%
G04 #@! TD*
G04 #@! TA.AperFunction,SMDPad,CuDef*
%ADD18C,1.425000*%
G04 #@! TD*
G04 #@! TA.AperFunction,ComponentPad*
%ADD19R,1.100000X2.500000*%
G04 #@! TD*
G04 #@! TA.AperFunction,ComponentPad*
%ADD20O,1.100000X2.500000*%
G04 #@! TD*
G04 #@! TA.AperFunction,ComponentPad*
%ADD21O,2.000000X1.600000*%
G04 #@! TD*
G04 #@! TA.AperFunction,ViaPad*
%ADD22C,1.500000*%
G04 #@! TD*
G04 #@! TA.AperFunction,Conductor*
%ADD23C,0.700000*%
G04 #@! TD*
G04 #@! TA.AperFunction,Conductor*
%ADD24C,0.400000*%
G04 #@! TD*
G04 #@! TA.AperFunction,Conductor*
%ADD25C,0.254000*%
G04 #@! TD*
G04 APERTURE END LIST*
D10*
G04 #@! TO.N,Net-(BT1-Pad1)*
G04 #@! TO.C,BT1*
G36*
X47649505Y9848796D02*
X47673773Y9845196D01*
X47697572Y9839235D01*
X47720671Y9830970D01*
X47742850Y9820480D01*
X47763893Y9807868D01*
X47783599Y9793253D01*
X47801777Y9776777D01*
X47818253Y9758599D01*
X47832868Y9738893D01*
X47845480Y9717850D01*
X47855970Y9695671D01*
X47864235Y9672572D01*
X47870196Y9648773D01*
X47873796Y9624505D01*
X47875000Y9600001D01*
X47875000Y8899999D01*
X47873796Y8875495D01*
X47870196Y8851227D01*
X47864235Y8827428D01*
X47855970Y8804329D01*
X47845480Y8782150D01*
X47832868Y8761107D01*
X47818253Y8741401D01*
X47801777Y8723223D01*
X47783599Y8706747D01*
X47763893Y8692132D01*
X47742850Y8679520D01*
X47720671Y8669030D01*
X47697572Y8660765D01*
X47673773Y8654804D01*
X47649505Y8651204D01*
X47625001Y8650000D01*
X46374999Y8650000D01*
X46350495Y8651204D01*
X46326227Y8654804D01*
X46302428Y8660765D01*
X46279329Y8669030D01*
X46257150Y8679520D01*
X46236107Y8692132D01*
X46216401Y8706747D01*
X46198223Y8723223D01*
X46181747Y8741401D01*
X46167132Y8761107D01*
X46154520Y8782150D01*
X46144030Y8804329D01*
X46135765Y8827428D01*
X46129804Y8851227D01*
X46126204Y8875495D01*
X46125000Y8899999D01*
X46125000Y9600001D01*
X46126204Y9624505D01*
X46129804Y9648773D01*
X46135765Y9672572D01*
X46144030Y9695671D01*
X46154520Y9717850D01*
X46167132Y9738893D01*
X46181747Y9758599D01*
X46198223Y9776777D01*
X46216401Y9793253D01*
X46236107Y9807868D01*
X46257150Y9820480D01*
X46279329Y9830970D01*
X46302428Y9839235D01*
X46326227Y9845196D01*
X46350495Y9848796D01*
X46374999Y9850000D01*
X47625001Y9850000D01*
X47649505Y9848796D01*
X47649505Y9848796D01*
G37*
D11*
G04 #@! TD*
G04 #@! TO.P,BT1,1*
G04 #@! TO.N,Net-(BT1-Pad1)*
X47000000Y9250000D03*
D12*
G04 #@! TO.P,BT1,2*
G04 #@! TO.N,Net-(BT1-Pad2)*
X47000000Y11250000D03*
G04 #@! TD*
D13*
G04 #@! TO.P,U2,3*
G04 #@! TO.N,Net-(BT1-Pad2)*
X47250000Y13500000D03*
G04 #@! TO.P,U2,2*
G04 #@! TO.N,Net-(C4-Pad1)*
X48200000Y16500000D03*
G04 #@! TO.P,U2,1*
G04 #@! TO.N,GND*
X46300000Y16500000D03*
G04 #@! TD*
G04 #@! TO.P,U3,1*
G04 #@! TO.N,GND*
X25250000Y3500000D03*
G04 #@! TO.P,U3,2*
G04 #@! TO.N,3V3*
X23350000Y3500000D03*
G04 #@! TO.P,U3,3*
G04 #@! TO.N,Net-(C2-Pad1)*
X24300000Y6500000D03*
G04 #@! TD*
D10*
G04 #@! TO.N,Net-(C4-Pad1)*
G04 #@! TO.C,R8*
G36*
X51349505Y10198796D02*
X51373773Y10195196D01*
X51397572Y10189235D01*
X51420671Y10180970D01*
X51442850Y10170480D01*
X51463893Y10157868D01*
X51483599Y10143253D01*
X51501777Y10126777D01*
X51518253Y10108599D01*
X51532868Y10088893D01*
X51545480Y10067850D01*
X51555970Y10045671D01*
X51564235Y10022572D01*
X51570196Y9998773D01*
X51573796Y9974505D01*
X51575000Y9950001D01*
X51575000Y9049999D01*
X51573796Y9025495D01*
X51570196Y9001227D01*
X51564235Y8977428D01*
X51555970Y8954329D01*
X51545480Y8932150D01*
X51532868Y8911107D01*
X51518253Y8891401D01*
X51501777Y8873223D01*
X51483599Y8856747D01*
X51463893Y8842132D01*
X51442850Y8829520D01*
X51420671Y8819030D01*
X51397572Y8810765D01*
X51373773Y8804804D01*
X51349505Y8801204D01*
X51325001Y8800000D01*
X50674999Y8800000D01*
X50650495Y8801204D01*
X50626227Y8804804D01*
X50602428Y8810765D01*
X50579329Y8819030D01*
X50557150Y8829520D01*
X50536107Y8842132D01*
X50516401Y8856747D01*
X50498223Y8873223D01*
X50481747Y8891401D01*
X50467132Y8911107D01*
X50454520Y8932150D01*
X50444030Y8954329D01*
X50435765Y8977428D01*
X50429804Y9001227D01*
X50426204Y9025495D01*
X50425000Y9049999D01*
X50425000Y9950001D01*
X50426204Y9974505D01*
X50429804Y9998773D01*
X50435765Y10022572D01*
X50444030Y10045671D01*
X50454520Y10067850D01*
X50467132Y10088893D01*
X50481747Y10108599D01*
X50498223Y10126777D01*
X50516401Y10143253D01*
X50536107Y10157868D01*
X50557150Y10170480D01*
X50579329Y10180970D01*
X50602428Y10189235D01*
X50626227Y10195196D01*
X50650495Y10198796D01*
X50674999Y10200000D01*
X51325001Y10200000D01*
X51349505Y10198796D01*
X51349505Y10198796D01*
G37*
D14*
G04 #@! TD*
G04 #@! TO.P,R8,1*
G04 #@! TO.N,Net-(C4-Pad1)*
X51000000Y9500000D03*
D10*
G04 #@! TO.N,Net-(BT1-Pad1)*
G04 #@! TO.C,R8*
G36*
X49299505Y10198796D02*
X49323773Y10195196D01*
X49347572Y10189235D01*
X49370671Y10180970D01*
X49392850Y10170480D01*
X49413893Y10157868D01*
X49433599Y10143253D01*
X49451777Y10126777D01*
X49468253Y10108599D01*
X49482868Y10088893D01*
X49495480Y10067850D01*
X49505970Y10045671D01*
X49514235Y10022572D01*
X49520196Y9998773D01*
X49523796Y9974505D01*
X49525000Y9950001D01*
X49525000Y9049999D01*
X49523796Y9025495D01*
X49520196Y9001227D01*
X49514235Y8977428D01*
X49505970Y8954329D01*
X49495480Y8932150D01*
X49482868Y8911107D01*
X49468253Y8891401D01*
X49451777Y8873223D01*
X49433599Y8856747D01*
X49413893Y8842132D01*
X49392850Y8829520D01*
X49370671Y8819030D01*
X49347572Y8810765D01*
X49323773Y8804804D01*
X49299505Y8801204D01*
X49275001Y8800000D01*
X48624999Y8800000D01*
X48600495Y8801204D01*
X48576227Y8804804D01*
X48552428Y8810765D01*
X48529329Y8819030D01*
X48507150Y8829520D01*
X48486107Y8842132D01*
X48466401Y8856747D01*
X48448223Y8873223D01*
X48431747Y8891401D01*
X48417132Y8911107D01*
X48404520Y8932150D01*
X48394030Y8954329D01*
X48385765Y8977428D01*
X48379804Y9001227D01*
X48376204Y9025495D01*
X48375000Y9049999D01*
X48375000Y9950001D01*
X48376204Y9974505D01*
X48379804Y9998773D01*
X48385765Y10022572D01*
X48394030Y10045671D01*
X48404520Y10067850D01*
X48417132Y10088893D01*
X48431747Y10108599D01*
X48448223Y10126777D01*
X48466401Y10143253D01*
X48486107Y10157868D01*
X48507150Y10170480D01*
X48529329Y10180970D01*
X48552428Y10189235D01*
X48576227Y10195196D01*
X48600495Y10198796D01*
X48624999Y10200000D01*
X49275001Y10200000D01*
X49299505Y10198796D01*
X49299505Y10198796D01*
G37*
D14*
G04 #@! TD*
G04 #@! TO.P,R8,2*
G04 #@! TO.N,Net-(BT1-Pad1)*
X48950000Y9500000D03*
D10*
G04 #@! TO.N,3V3*
G04 #@! TO.C,C1*
G36*
X18974505Y3573796D02*
X18998773Y3570196D01*
X19022572Y3564235D01*
X19045671Y3555970D01*
X19067850Y3545480D01*
X19088893Y3532868D01*
X19108599Y3518253D01*
X19126777Y3501777D01*
X19143253Y3483599D01*
X19157868Y3463893D01*
X19170480Y3442850D01*
X19180970Y3420671D01*
X19189235Y3397572D01*
X19195196Y3373773D01*
X19198796Y3349505D01*
X19200000Y3325001D01*
X19200000Y2674999D01*
X19198796Y2650495D01*
X19195196Y2626227D01*
X19189235Y2602428D01*
X19180970Y2579329D01*
X19170480Y2557150D01*
X19157868Y2536107D01*
X19143253Y2516401D01*
X19126777Y2498223D01*
X19108599Y2481747D01*
X19088893Y2467132D01*
X19067850Y2454520D01*
X19045671Y2444030D01*
X19022572Y2435765D01*
X18998773Y2429804D01*
X18974505Y2426204D01*
X18950001Y2425000D01*
X18049999Y2425000D01*
X18025495Y2426204D01*
X18001227Y2429804D01*
X17977428Y2435765D01*
X17954329Y2444030D01*
X17932150Y2454520D01*
X17911107Y2467132D01*
X17891401Y2481747D01*
X17873223Y2498223D01*
X17856747Y2516401D01*
X17842132Y2536107D01*
X17829520Y2557150D01*
X17819030Y2579329D01*
X17810765Y2602428D01*
X17804804Y2626227D01*
X17801204Y2650495D01*
X17800000Y2674999D01*
X17800000Y3325001D01*
X17801204Y3349505D01*
X17804804Y3373773D01*
X17810765Y3397572D01*
X17819030Y3420671D01*
X17829520Y3442850D01*
X17842132Y3463893D01*
X17856747Y3483599D01*
X17873223Y3501777D01*
X17891401Y3518253D01*
X17911107Y3532868D01*
X17932150Y3545480D01*
X17954329Y3555970D01*
X17977428Y3564235D01*
X18001227Y3570196D01*
X18025495Y3573796D01*
X18049999Y3575000D01*
X18950001Y3575000D01*
X18974505Y3573796D01*
X18974505Y3573796D01*
G37*
D14*
G04 #@! TD*
G04 #@! TO.P,C1,2*
G04 #@! TO.N,3V3*
X18500000Y3000000D03*
D10*
G04 #@! TO.N,GND*
G04 #@! TO.C,C1*
G36*
X18974505Y5623796D02*
X18998773Y5620196D01*
X19022572Y5614235D01*
X19045671Y5605970D01*
X19067850Y5595480D01*
X19088893Y5582868D01*
X19108599Y5568253D01*
X19126777Y5551777D01*
X19143253Y5533599D01*
X19157868Y5513893D01*
X19170480Y5492850D01*
X19180970Y5470671D01*
X19189235Y5447572D01*
X19195196Y5423773D01*
X19198796Y5399505D01*
X19200000Y5375001D01*
X19200000Y4724999D01*
X19198796Y4700495D01*
X19195196Y4676227D01*
X19189235Y4652428D01*
X19180970Y4629329D01*
X19170480Y4607150D01*
X19157868Y4586107D01*
X19143253Y4566401D01*
X19126777Y4548223D01*
X19108599Y4531747D01*
X19088893Y4517132D01*
X19067850Y4504520D01*
X19045671Y4494030D01*
X19022572Y4485765D01*
X18998773Y4479804D01*
X18974505Y4476204D01*
X18950001Y4475000D01*
X18049999Y4475000D01*
X18025495Y4476204D01*
X18001227Y4479804D01*
X17977428Y4485765D01*
X17954329Y4494030D01*
X17932150Y4504520D01*
X17911107Y4517132D01*
X17891401Y4531747D01*
X17873223Y4548223D01*
X17856747Y4566401D01*
X17842132Y4586107D01*
X17829520Y4607150D01*
X17819030Y4629329D01*
X17810765Y4652428D01*
X17804804Y4676227D01*
X17801204Y4700495D01*
X17800000Y4724999D01*
X17800000Y5375001D01*
X17801204Y5399505D01*
X17804804Y5423773D01*
X17810765Y5447572D01*
X17819030Y5470671D01*
X17829520Y5492850D01*
X17842132Y5513893D01*
X17856747Y5533599D01*
X17873223Y5551777D01*
X17891401Y5568253D01*
X17911107Y5582868D01*
X17932150Y5595480D01*
X17954329Y5605970D01*
X17977428Y5614235D01*
X18001227Y5620196D01*
X18025495Y5623796D01*
X18049999Y5625000D01*
X18950001Y5625000D01*
X18974505Y5623796D01*
X18974505Y5623796D01*
G37*
D14*
G04 #@! TD*
G04 #@! TO.P,C1,1*
G04 #@! TO.N,GND*
X18500000Y5050000D03*
D15*
G04 #@! TO.P,JP1,2*
G04 #@! TO.N,Net-(JP1-Pad2)*
X43250000Y13460000D03*
D16*
G04 #@! TO.P,JP1,1*
G04 #@! TO.N,GND*
X43250000Y16000000D03*
G04 #@! TD*
D17*
G04 #@! TO.P,J1,4*
G04 #@! TO.N,SDA*
X30793000Y16575000D03*
G04 #@! TO.P,J1,3*
G04 #@! TO.N,SCL*
X33333000Y16575000D03*
G04 #@! TO.P,J1,2*
G04 #@! TO.N,GND*
X35873000Y16575000D03*
G04 #@! TO.P,J1,1*
G04 #@! TO.N,3V3*
X38413000Y16575000D03*
G04 #@! TD*
D10*
G04 #@! TO.N,Net-(R3-Pad1)*
G04 #@! TO.C,R3*
G36*
X9737004Y9623796D02*
X9761273Y9620196D01*
X9785071Y9614235D01*
X9808171Y9605970D01*
X9830349Y9595480D01*
X9851393Y9582867D01*
X9871098Y9568253D01*
X9889277Y9551777D01*
X9905753Y9533598D01*
X9920367Y9513893D01*
X9932980Y9492849D01*
X9943470Y9470671D01*
X9951735Y9447571D01*
X9957696Y9423773D01*
X9961296Y9399504D01*
X9962500Y9375000D01*
X9962500Y8125000D01*
X9961296Y8100496D01*
X9957696Y8076227D01*
X9951735Y8052429D01*
X9943470Y8029329D01*
X9932980Y8007151D01*
X9920367Y7986107D01*
X9905753Y7966402D01*
X9889277Y7948223D01*
X9871098Y7931747D01*
X9851393Y7917133D01*
X9830349Y7904520D01*
X9808171Y7894030D01*
X9785071Y7885765D01*
X9761273Y7879804D01*
X9737004Y7876204D01*
X9712500Y7875000D01*
X8787500Y7875000D01*
X8762996Y7876204D01*
X8738727Y7879804D01*
X8714929Y7885765D01*
X8691829Y7894030D01*
X8669651Y7904520D01*
X8648607Y7917133D01*
X8628902Y7931747D01*
X8610723Y7948223D01*
X8594247Y7966402D01*
X8579633Y7986107D01*
X8567020Y8007151D01*
X8556530Y8029329D01*
X8548265Y8052429D01*
X8542304Y8076227D01*
X8538704Y8100496D01*
X8537500Y8125000D01*
X8537500Y9375000D01*
X8538704Y9399504D01*
X8542304Y9423773D01*
X8548265Y9447571D01*
X8556530Y9470671D01*
X8567020Y9492849D01*
X8579633Y9513893D01*
X8594247Y9533598D01*
X8610723Y9551777D01*
X8628902Y9568253D01*
X8648607Y9582867D01*
X8669651Y9595480D01*
X8691829Y9605970D01*
X8714929Y9614235D01*
X8738727Y9620196D01*
X8762996Y9623796D01*
X8787500Y9625000D01*
X9712500Y9625000D01*
X9737004Y9623796D01*
X9737004Y9623796D01*
G37*
D18*
G04 #@! TD*
G04 #@! TO.P,R3,1*
G04 #@! TO.N,Net-(R3-Pad1)*
X9250000Y8750000D03*
D10*
G04 #@! TO.N,Net-(R3-Pad2)*
G04 #@! TO.C,R3*
G36*
X6762004Y9623796D02*
X6786273Y9620196D01*
X6810071Y9614235D01*
X6833171Y9605970D01*
X6855349Y9595480D01*
X6876393Y9582867D01*
X6896098Y9568253D01*
X6914277Y9551777D01*
X6930753Y9533598D01*
X6945367Y9513893D01*
X6957980Y9492849D01*
X6968470Y9470671D01*
X6976735Y9447571D01*
X6982696Y9423773D01*
X6986296Y9399504D01*
X6987500Y9375000D01*
X6987500Y8125000D01*
X6986296Y8100496D01*
X6982696Y8076227D01*
X6976735Y8052429D01*
X6968470Y8029329D01*
X6957980Y8007151D01*
X6945367Y7986107D01*
X6930753Y7966402D01*
X6914277Y7948223D01*
X6896098Y7931747D01*
X6876393Y7917133D01*
X6855349Y7904520D01*
X6833171Y7894030D01*
X6810071Y7885765D01*
X6786273Y7879804D01*
X6762004Y7876204D01*
X6737500Y7875000D01*
X5812500Y7875000D01*
X5787996Y7876204D01*
X5763727Y7879804D01*
X5739929Y7885765D01*
X5716829Y7894030D01*
X5694651Y7904520D01*
X5673607Y7917133D01*
X5653902Y7931747D01*
X5635723Y7948223D01*
X5619247Y7966402D01*
X5604633Y7986107D01*
X5592020Y8007151D01*
X5581530Y8029329D01*
X5573265Y8052429D01*
X5567304Y8076227D01*
X5563704Y8100496D01*
X5562500Y8125000D01*
X5562500Y9375000D01*
X5563704Y9399504D01*
X5567304Y9423773D01*
X5573265Y9447571D01*
X5581530Y9470671D01*
X5592020Y9492849D01*
X5604633Y9513893D01*
X5619247Y9533598D01*
X5635723Y9551777D01*
X5653902Y9568253D01*
X5673607Y9582867D01*
X5694651Y9595480D01*
X5716829Y9605970D01*
X5739929Y9614235D01*
X5763727Y9620196D01*
X5787996Y9623796D01*
X5812500Y9625000D01*
X6737500Y9625000D01*
X6762004Y9623796D01*
X6762004Y9623796D01*
G37*
D18*
G04 #@! TD*
G04 #@! TO.P,R3,2*
G04 #@! TO.N,Net-(R3-Pad2)*
X6275000Y8750000D03*
D10*
G04 #@! TO.N,GND*
G04 #@! TO.C,C2*
G36*
X27974505Y3523796D02*
X27998773Y3520196D01*
X28022572Y3514235D01*
X28045671Y3505970D01*
X28067850Y3495480D01*
X28088893Y3482868D01*
X28108599Y3468253D01*
X28126777Y3451777D01*
X28143253Y3433599D01*
X28157868Y3413893D01*
X28170480Y3392850D01*
X28180970Y3370671D01*
X28189235Y3347572D01*
X28195196Y3323773D01*
X28198796Y3299505D01*
X28200000Y3275001D01*
X28200000Y2624999D01*
X28198796Y2600495D01*
X28195196Y2576227D01*
X28189235Y2552428D01*
X28180970Y2529329D01*
X28170480Y2507150D01*
X28157868Y2486107D01*
X28143253Y2466401D01*
X28126777Y2448223D01*
X28108599Y2431747D01*
X28088893Y2417132D01*
X28067850Y2404520D01*
X28045671Y2394030D01*
X28022572Y2385765D01*
X27998773Y2379804D01*
X27974505Y2376204D01*
X27950001Y2375000D01*
X27049999Y2375000D01*
X27025495Y2376204D01*
X27001227Y2379804D01*
X26977428Y2385765D01*
X26954329Y2394030D01*
X26932150Y2404520D01*
X26911107Y2417132D01*
X26891401Y2431747D01*
X26873223Y2448223D01*
X26856747Y2466401D01*
X26842132Y2486107D01*
X26829520Y2507150D01*
X26819030Y2529329D01*
X26810765Y2552428D01*
X26804804Y2576227D01*
X26801204Y2600495D01*
X26800000Y2624999D01*
X26800000Y3275001D01*
X26801204Y3299505D01*
X26804804Y3323773D01*
X26810765Y3347572D01*
X26819030Y3370671D01*
X26829520Y3392850D01*
X26842132Y3413893D01*
X26856747Y3433599D01*
X26873223Y3451777D01*
X26891401Y3468253D01*
X26911107Y3482868D01*
X26932150Y3495480D01*
X26954329Y3505970D01*
X26977428Y3514235D01*
X27001227Y3520196D01*
X27025495Y3523796D01*
X27049999Y3525000D01*
X27950001Y3525000D01*
X27974505Y3523796D01*
X27974505Y3523796D01*
G37*
D14*
G04 #@! TD*
G04 #@! TO.P,C2,2*
G04 #@! TO.N,GND*
X27500000Y2950000D03*
D10*
G04 #@! TO.N,Net-(C2-Pad1)*
G04 #@! TO.C,C2*
G36*
X27974505Y5573796D02*
X27998773Y5570196D01*
X28022572Y5564235D01*
X28045671Y5555970D01*
X28067850Y5545480D01*
X28088893Y5532868D01*
X28108599Y5518253D01*
X28126777Y5501777D01*
X28143253Y5483599D01*
X28157868Y5463893D01*
X28170480Y5442850D01*
X28180970Y5420671D01*
X28189235Y5397572D01*
X28195196Y5373773D01*
X28198796Y5349505D01*
X28200000Y5325001D01*
X28200000Y4674999D01*
X28198796Y4650495D01*
X28195196Y4626227D01*
X28189235Y4602428D01*
X28180970Y4579329D01*
X28170480Y4557150D01*
X28157868Y4536107D01*
X28143253Y4516401D01*
X28126777Y4498223D01*
X28108599Y4481747D01*
X28088893Y4467132D01*
X28067850Y4454520D01*
X28045671Y4444030D01*
X28022572Y4435765D01*
X27998773Y4429804D01*
X27974505Y4426204D01*
X27950001Y4425000D01*
X27049999Y4425000D01*
X27025495Y4426204D01*
X27001227Y4429804D01*
X26977428Y4435765D01*
X26954329Y4444030D01*
X26932150Y4454520D01*
X26911107Y4467132D01*
X26891401Y4481747D01*
X26873223Y4498223D01*
X26856747Y4516401D01*
X26842132Y4536107D01*
X26829520Y4557150D01*
X26819030Y4579329D01*
X26810765Y4602428D01*
X26804804Y4626227D01*
X26801204Y4650495D01*
X26800000Y4674999D01*
X26800000Y5325001D01*
X26801204Y5349505D01*
X26804804Y5373773D01*
X26810765Y5397572D01*
X26819030Y5420671D01*
X26829520Y5442850D01*
X26842132Y5463893D01*
X26856747Y5483599D01*
X26873223Y5501777D01*
X26891401Y5518253D01*
X26911107Y5532868D01*
X26932150Y5545480D01*
X26954329Y5555970D01*
X26977428Y5564235D01*
X27001227Y5570196D01*
X27025495Y5573796D01*
X27049999Y5575000D01*
X27950001Y5575000D01*
X27974505Y5573796D01*
X27974505Y5573796D01*
G37*
D14*
G04 #@! TD*
G04 #@! TO.P,C2,1*
G04 #@! TO.N,Net-(C2-Pad1)*
X27500000Y5000000D03*
D10*
G04 #@! TO.N,3V3*
G04 #@! TO.C,C3*
G36*
X21224505Y3573796D02*
X21248773Y3570196D01*
X21272572Y3564235D01*
X21295671Y3555970D01*
X21317850Y3545480D01*
X21338893Y3532868D01*
X21358599Y3518253D01*
X21376777Y3501777D01*
X21393253Y3483599D01*
X21407868Y3463893D01*
X21420480Y3442850D01*
X21430970Y3420671D01*
X21439235Y3397572D01*
X21445196Y3373773D01*
X21448796Y3349505D01*
X21450000Y3325001D01*
X21450000Y2674999D01*
X21448796Y2650495D01*
X21445196Y2626227D01*
X21439235Y2602428D01*
X21430970Y2579329D01*
X21420480Y2557150D01*
X21407868Y2536107D01*
X21393253Y2516401D01*
X21376777Y2498223D01*
X21358599Y2481747D01*
X21338893Y2467132D01*
X21317850Y2454520D01*
X21295671Y2444030D01*
X21272572Y2435765D01*
X21248773Y2429804D01*
X21224505Y2426204D01*
X21200001Y2425000D01*
X20299999Y2425000D01*
X20275495Y2426204D01*
X20251227Y2429804D01*
X20227428Y2435765D01*
X20204329Y2444030D01*
X20182150Y2454520D01*
X20161107Y2467132D01*
X20141401Y2481747D01*
X20123223Y2498223D01*
X20106747Y2516401D01*
X20092132Y2536107D01*
X20079520Y2557150D01*
X20069030Y2579329D01*
X20060765Y2602428D01*
X20054804Y2626227D01*
X20051204Y2650495D01*
X20050000Y2674999D01*
X20050000Y3325001D01*
X20051204Y3349505D01*
X20054804Y3373773D01*
X20060765Y3397572D01*
X20069030Y3420671D01*
X20079520Y3442850D01*
X20092132Y3463893D01*
X20106747Y3483599D01*
X20123223Y3501777D01*
X20141401Y3518253D01*
X20161107Y3532868D01*
X20182150Y3545480D01*
X20204329Y3555970D01*
X20227428Y3564235D01*
X20251227Y3570196D01*
X20275495Y3573796D01*
X20299999Y3575000D01*
X21200001Y3575000D01*
X21224505Y3573796D01*
X21224505Y3573796D01*
G37*
D14*
G04 #@! TD*
G04 #@! TO.P,C3,1*
G04 #@! TO.N,3V3*
X20750000Y3000000D03*
D10*
G04 #@! TO.N,GND*
G04 #@! TO.C,C3*
G36*
X21224505Y5623796D02*
X21248773Y5620196D01*
X21272572Y5614235D01*
X21295671Y5605970D01*
X21317850Y5595480D01*
X21338893Y5582868D01*
X21358599Y5568253D01*
X21376777Y5551777D01*
X21393253Y5533599D01*
X21407868Y5513893D01*
X21420480Y5492850D01*
X21430970Y5470671D01*
X21439235Y5447572D01*
X21445196Y5423773D01*
X21448796Y5399505D01*
X21450000Y5375001D01*
X21450000Y4724999D01*
X21448796Y4700495D01*
X21445196Y4676227D01*
X21439235Y4652428D01*
X21430970Y4629329D01*
X21420480Y4607150D01*
X21407868Y4586107D01*
X21393253Y4566401D01*
X21376777Y4548223D01*
X21358599Y4531747D01*
X21338893Y4517132D01*
X21317850Y4504520D01*
X21295671Y4494030D01*
X21272572Y4485765D01*
X21248773Y4479804D01*
X21224505Y4476204D01*
X21200001Y4475000D01*
X20299999Y4475000D01*
X20275495Y4476204D01*
X20251227Y4479804D01*
X20227428Y4485765D01*
X20204329Y4494030D01*
X20182150Y4504520D01*
X20161107Y4517132D01*
X20141401Y4531747D01*
X20123223Y4548223D01*
X20106747Y4566401D01*
X20092132Y4586107D01*
X20079520Y4607150D01*
X20069030Y4629329D01*
X20060765Y4652428D01*
X20054804Y4676227D01*
X20051204Y4700495D01*
X20050000Y4724999D01*
X20050000Y5375001D01*
X20051204Y5399505D01*
X20054804Y5423773D01*
X20060765Y5447572D01*
X20069030Y5470671D01*
X20079520Y5492850D01*
X20092132Y5513893D01*
X20106747Y5533599D01*
X20123223Y5551777D01*
X20141401Y5568253D01*
X20161107Y5582868D01*
X20182150Y5595480D01*
X20204329Y5605970D01*
X20227428Y5614235D01*
X20251227Y5620196D01*
X20275495Y5623796D01*
X20299999Y5625000D01*
X21200001Y5625000D01*
X21224505Y5623796D01*
X21224505Y5623796D01*
G37*
D14*
G04 #@! TD*
G04 #@! TO.P,C3,2*
G04 #@! TO.N,GND*
X20750000Y5050000D03*
D10*
G04 #@! TO.N,Net-(C4-Pad1)*
G04 #@! TO.C,C4*
G36*
X51374505Y12198796D02*
X51398773Y12195196D01*
X51422572Y12189235D01*
X51445671Y12180970D01*
X51467850Y12170480D01*
X51488893Y12157868D01*
X51508599Y12143253D01*
X51526777Y12126777D01*
X51543253Y12108599D01*
X51557868Y12088893D01*
X51570480Y12067850D01*
X51580970Y12045671D01*
X51589235Y12022572D01*
X51595196Y11998773D01*
X51598796Y11974505D01*
X51600000Y11950001D01*
X51600000Y11049999D01*
X51598796Y11025495D01*
X51595196Y11001227D01*
X51589235Y10977428D01*
X51580970Y10954329D01*
X51570480Y10932150D01*
X51557868Y10911107D01*
X51543253Y10891401D01*
X51526777Y10873223D01*
X51508599Y10856747D01*
X51488893Y10842132D01*
X51467850Y10829520D01*
X51445671Y10819030D01*
X51422572Y10810765D01*
X51398773Y10804804D01*
X51374505Y10801204D01*
X51350001Y10800000D01*
X50699999Y10800000D01*
X50675495Y10801204D01*
X50651227Y10804804D01*
X50627428Y10810765D01*
X50604329Y10819030D01*
X50582150Y10829520D01*
X50561107Y10842132D01*
X50541401Y10856747D01*
X50523223Y10873223D01*
X50506747Y10891401D01*
X50492132Y10911107D01*
X50479520Y10932150D01*
X50469030Y10954329D01*
X50460765Y10977428D01*
X50454804Y11001227D01*
X50451204Y11025495D01*
X50450000Y11049999D01*
X50450000Y11950001D01*
X50451204Y11974505D01*
X50454804Y11998773D01*
X50460765Y12022572D01*
X50469030Y12045671D01*
X50479520Y12067850D01*
X50492132Y12088893D01*
X50506747Y12108599D01*
X50523223Y12126777D01*
X50541401Y12143253D01*
X50561107Y12157868D01*
X50582150Y12170480D01*
X50604329Y12180970D01*
X50627428Y12189235D01*
X50651227Y12195196D01*
X50675495Y12198796D01*
X50699999Y12200000D01*
X51350001Y12200000D01*
X51374505Y12198796D01*
X51374505Y12198796D01*
G37*
D14*
G04 #@! TD*
G04 #@! TO.P,C4,1*
G04 #@! TO.N,Net-(C4-Pad1)*
X51025000Y11500000D03*
D10*
G04 #@! TO.N,Net-(BT1-Pad2)*
G04 #@! TO.C,C4*
G36*
X49324505Y12198796D02*
X49348773Y12195196D01*
X49372572Y12189235D01*
X49395671Y12180970D01*
X49417850Y12170480D01*
X49438893Y12157868D01*
X49458599Y12143253D01*
X49476777Y12126777D01*
X49493253Y12108599D01*
X49507868Y12088893D01*
X49520480Y12067850D01*
X49530970Y12045671D01*
X49539235Y12022572D01*
X49545196Y11998773D01*
X49548796Y11974505D01*
X49550000Y11950001D01*
X49550000Y11049999D01*
X49548796Y11025495D01*
X49545196Y11001227D01*
X49539235Y10977428D01*
X49530970Y10954329D01*
X49520480Y10932150D01*
X49507868Y10911107D01*
X49493253Y10891401D01*
X49476777Y10873223D01*
X49458599Y10856747D01*
X49438893Y10842132D01*
X49417850Y10829520D01*
X49395671Y10819030D01*
X49372572Y10810765D01*
X49348773Y10804804D01*
X49324505Y10801204D01*
X49300001Y10800000D01*
X48649999Y10800000D01*
X48625495Y10801204D01*
X48601227Y10804804D01*
X48577428Y10810765D01*
X48554329Y10819030D01*
X48532150Y10829520D01*
X48511107Y10842132D01*
X48491401Y10856747D01*
X48473223Y10873223D01*
X48456747Y10891401D01*
X48442132Y10911107D01*
X48429520Y10932150D01*
X48419030Y10954329D01*
X48410765Y10977428D01*
X48404804Y11001227D01*
X48401204Y11025495D01*
X48400000Y11049999D01*
X48400000Y11950001D01*
X48401204Y11974505D01*
X48404804Y11998773D01*
X48410765Y12022572D01*
X48419030Y12045671D01*
X48429520Y12067850D01*
X48442132Y12088893D01*
X48456747Y12108599D01*
X48473223Y12126777D01*
X48491401Y12143253D01*
X48511107Y12157868D01*
X48532150Y12170480D01*
X48554329Y12180970D01*
X48577428Y12189235D01*
X48601227Y12195196D01*
X48625495Y12198796D01*
X48649999Y12200000D01*
X49300001Y12200000D01*
X49324505Y12198796D01*
X49324505Y12198796D01*
G37*
D14*
G04 #@! TD*
G04 #@! TO.P,C4,2*
G04 #@! TO.N,Net-(BT1-Pad2)*
X48975000Y11500000D03*
D10*
G04 #@! TO.N,GND*
G04 #@! TO.C,C6*
G36*
X20724505Y18373796D02*
X20748773Y18370196D01*
X20772572Y18364235D01*
X20795671Y18355970D01*
X20817850Y18345480D01*
X20838893Y18332868D01*
X20858599Y18318253D01*
X20876777Y18301777D01*
X20893253Y18283599D01*
X20907868Y18263893D01*
X20920480Y18242850D01*
X20930970Y18220671D01*
X20939235Y18197572D01*
X20945196Y18173773D01*
X20948796Y18149505D01*
X20950000Y18125001D01*
X20950000Y17474999D01*
X20948796Y17450495D01*
X20945196Y17426227D01*
X20939235Y17402428D01*
X20930970Y17379329D01*
X20920480Y17357150D01*
X20907868Y17336107D01*
X20893253Y17316401D01*
X20876777Y17298223D01*
X20858599Y17281747D01*
X20838893Y17267132D01*
X20817850Y17254520D01*
X20795671Y17244030D01*
X20772572Y17235765D01*
X20748773Y17229804D01*
X20724505Y17226204D01*
X20700001Y17225000D01*
X19799999Y17225000D01*
X19775495Y17226204D01*
X19751227Y17229804D01*
X19727428Y17235765D01*
X19704329Y17244030D01*
X19682150Y17254520D01*
X19661107Y17267132D01*
X19641401Y17281747D01*
X19623223Y17298223D01*
X19606747Y17316401D01*
X19592132Y17336107D01*
X19579520Y17357150D01*
X19569030Y17379329D01*
X19560765Y17402428D01*
X19554804Y17426227D01*
X19551204Y17450495D01*
X19550000Y17474999D01*
X19550000Y18125001D01*
X19551204Y18149505D01*
X19554804Y18173773D01*
X19560765Y18197572D01*
X19569030Y18220671D01*
X19579520Y18242850D01*
X19592132Y18263893D01*
X19606747Y18283599D01*
X19623223Y18301777D01*
X19641401Y18318253D01*
X19661107Y18332868D01*
X19682150Y18345480D01*
X19704329Y18355970D01*
X19727428Y18364235D01*
X19751227Y18370196D01*
X19775495Y18373796D01*
X19799999Y18375000D01*
X20700001Y18375000D01*
X20724505Y18373796D01*
X20724505Y18373796D01*
G37*
D14*
G04 #@! TD*
G04 #@! TO.P,C6,2*
G04 #@! TO.N,GND*
X20250000Y17800000D03*
D10*
G04 #@! TO.N,ADC*
G04 #@! TO.C,C6*
G36*
X20724505Y16323796D02*
X20748773Y16320196D01*
X20772572Y16314235D01*
X20795671Y16305970D01*
X20817850Y16295480D01*
X20838893Y16282868D01*
X20858599Y16268253D01*
X20876777Y16251777D01*
X20893253Y16233599D01*
X20907868Y16213893D01*
X20920480Y16192850D01*
X20930970Y16170671D01*
X20939235Y16147572D01*
X20945196Y16123773D01*
X20948796Y16099505D01*
X20950000Y16075001D01*
X20950000Y15424999D01*
X20948796Y15400495D01*
X20945196Y15376227D01*
X20939235Y15352428D01*
X20930970Y15329329D01*
X20920480Y15307150D01*
X20907868Y15286107D01*
X20893253Y15266401D01*
X20876777Y15248223D01*
X20858599Y15231747D01*
X20838893Y15217132D01*
X20817850Y15204520D01*
X20795671Y15194030D01*
X20772572Y15185765D01*
X20748773Y15179804D01*
X20724505Y15176204D01*
X20700001Y15175000D01*
X19799999Y15175000D01*
X19775495Y15176204D01*
X19751227Y15179804D01*
X19727428Y15185765D01*
X19704329Y15194030D01*
X19682150Y15204520D01*
X19661107Y15217132D01*
X19641401Y15231747D01*
X19623223Y15248223D01*
X19606747Y15266401D01*
X19592132Y15286107D01*
X19579520Y15307150D01*
X19569030Y15329329D01*
X19560765Y15352428D01*
X19554804Y15376227D01*
X19551204Y15400495D01*
X19550000Y15424999D01*
X19550000Y16075001D01*
X19551204Y16099505D01*
X19554804Y16123773D01*
X19560765Y16147572D01*
X19569030Y16170671D01*
X19579520Y16192850D01*
X19592132Y16213893D01*
X19606747Y16233599D01*
X19623223Y16251777D01*
X19641401Y16268253D01*
X19661107Y16282868D01*
X19682150Y16295480D01*
X19704329Y16305970D01*
X19727428Y16314235D01*
X19751227Y16320196D01*
X19775495Y16323796D01*
X19799999Y16325000D01*
X20700001Y16325000D01*
X20724505Y16323796D01*
X20724505Y16323796D01*
G37*
D14*
G04 #@! TD*
G04 #@! TO.P,C6,1*
G04 #@! TO.N,ADC*
X20250000Y15750000D03*
D10*
G04 #@! TO.N,GND*
G04 #@! TO.C,C7*
G36*
X9699505Y12198796D02*
X9723773Y12195196D01*
X9747572Y12189235D01*
X9770671Y12180970D01*
X9792850Y12170480D01*
X9813893Y12157868D01*
X9833599Y12143253D01*
X9851777Y12126777D01*
X9868253Y12108599D01*
X9882868Y12088893D01*
X9895480Y12067850D01*
X9905970Y12045671D01*
X9914235Y12022572D01*
X9920196Y11998773D01*
X9923796Y11974505D01*
X9925000Y11950001D01*
X9925000Y11049999D01*
X9923796Y11025495D01*
X9920196Y11001227D01*
X9914235Y10977428D01*
X9905970Y10954329D01*
X9895480Y10932150D01*
X9882868Y10911107D01*
X9868253Y10891401D01*
X9851777Y10873223D01*
X9833599Y10856747D01*
X9813893Y10842132D01*
X9792850Y10829520D01*
X9770671Y10819030D01*
X9747572Y10810765D01*
X9723773Y10804804D01*
X9699505Y10801204D01*
X9675001Y10800000D01*
X9024999Y10800000D01*
X9000495Y10801204D01*
X8976227Y10804804D01*
X8952428Y10810765D01*
X8929329Y10819030D01*
X8907150Y10829520D01*
X8886107Y10842132D01*
X8866401Y10856747D01*
X8848223Y10873223D01*
X8831747Y10891401D01*
X8817132Y10911107D01*
X8804520Y10932150D01*
X8794030Y10954329D01*
X8785765Y10977428D01*
X8779804Y11001227D01*
X8776204Y11025495D01*
X8775000Y11049999D01*
X8775000Y11950001D01*
X8776204Y11974505D01*
X8779804Y11998773D01*
X8785765Y12022572D01*
X8794030Y12045671D01*
X8804520Y12067850D01*
X8817132Y12088893D01*
X8831747Y12108599D01*
X8848223Y12126777D01*
X8866401Y12143253D01*
X8886107Y12157868D01*
X8907150Y12170480D01*
X8929329Y12180970D01*
X8952428Y12189235D01*
X8976227Y12195196D01*
X9000495Y12198796D01*
X9024999Y12200000D01*
X9675001Y12200000D01*
X9699505Y12198796D01*
X9699505Y12198796D01*
G37*
D14*
G04 #@! TD*
G04 #@! TO.P,C7,1*
G04 #@! TO.N,GND*
X9350000Y11500000D03*
D10*
G04 #@! TO.N,Net-(C7-Pad2)*
G04 #@! TO.C,C7*
G36*
X7649505Y12198796D02*
X7673773Y12195196D01*
X7697572Y12189235D01*
X7720671Y12180970D01*
X7742850Y12170480D01*
X7763893Y12157868D01*
X7783599Y12143253D01*
X7801777Y12126777D01*
X7818253Y12108599D01*
X7832868Y12088893D01*
X7845480Y12067850D01*
X7855970Y12045671D01*
X7864235Y12022572D01*
X7870196Y11998773D01*
X7873796Y11974505D01*
X7875000Y11950001D01*
X7875000Y11049999D01*
X7873796Y11025495D01*
X7870196Y11001227D01*
X7864235Y10977428D01*
X7855970Y10954329D01*
X7845480Y10932150D01*
X7832868Y10911107D01*
X7818253Y10891401D01*
X7801777Y10873223D01*
X7783599Y10856747D01*
X7763893Y10842132D01*
X7742850Y10829520D01*
X7720671Y10819030D01*
X7697572Y10810765D01*
X7673773Y10804804D01*
X7649505Y10801204D01*
X7625001Y10800000D01*
X6974999Y10800000D01*
X6950495Y10801204D01*
X6926227Y10804804D01*
X6902428Y10810765D01*
X6879329Y10819030D01*
X6857150Y10829520D01*
X6836107Y10842132D01*
X6816401Y10856747D01*
X6798223Y10873223D01*
X6781747Y10891401D01*
X6767132Y10911107D01*
X6754520Y10932150D01*
X6744030Y10954329D01*
X6735765Y10977428D01*
X6729804Y11001227D01*
X6726204Y11025495D01*
X6725000Y11049999D01*
X6725000Y11950001D01*
X6726204Y11974505D01*
X6729804Y11998773D01*
X6735765Y12022572D01*
X6744030Y12045671D01*
X6754520Y12067850D01*
X6767132Y12088893D01*
X6781747Y12108599D01*
X6798223Y12126777D01*
X6816401Y12143253D01*
X6836107Y12157868D01*
X6857150Y12170480D01*
X6879329Y12180970D01*
X6902428Y12189235D01*
X6926227Y12195196D01*
X6950495Y12198796D01*
X6974999Y12200000D01*
X7625001Y12200000D01*
X7649505Y12198796D01*
X7649505Y12198796D01*
G37*
D14*
G04 #@! TD*
G04 #@! TO.P,C7,2*
G04 #@! TO.N,Net-(C7-Pad2)*
X7300000Y11500000D03*
D10*
G04 #@! TO.N,Net-(C2-Pad1)*
G04 #@! TO.C,R1*
G36*
X25224505Y16323796D02*
X25248773Y16320196D01*
X25272572Y16314235D01*
X25295671Y16305970D01*
X25317850Y16295480D01*
X25338893Y16282868D01*
X25358599Y16268253D01*
X25376777Y16251777D01*
X25393253Y16233599D01*
X25407868Y16213893D01*
X25420480Y16192850D01*
X25430970Y16170671D01*
X25439235Y16147572D01*
X25445196Y16123773D01*
X25448796Y16099505D01*
X25450000Y16075001D01*
X25450000Y15424999D01*
X25448796Y15400495D01*
X25445196Y15376227D01*
X25439235Y15352428D01*
X25430970Y15329329D01*
X25420480Y15307150D01*
X25407868Y15286107D01*
X25393253Y15266401D01*
X25376777Y15248223D01*
X25358599Y15231747D01*
X25338893Y15217132D01*
X25317850Y15204520D01*
X25295671Y15194030D01*
X25272572Y15185765D01*
X25248773Y15179804D01*
X25224505Y15176204D01*
X25200001Y15175000D01*
X24299999Y15175000D01*
X24275495Y15176204D01*
X24251227Y15179804D01*
X24227428Y15185765D01*
X24204329Y15194030D01*
X24182150Y15204520D01*
X24161107Y15217132D01*
X24141401Y15231747D01*
X24123223Y15248223D01*
X24106747Y15266401D01*
X24092132Y15286107D01*
X24079520Y15307150D01*
X24069030Y15329329D01*
X24060765Y15352428D01*
X24054804Y15376227D01*
X24051204Y15400495D01*
X24050000Y15424999D01*
X24050000Y16075001D01*
X24051204Y16099505D01*
X24054804Y16123773D01*
X24060765Y16147572D01*
X24069030Y16170671D01*
X24079520Y16192850D01*
X24092132Y16213893D01*
X24106747Y16233599D01*
X24123223Y16251777D01*
X24141401Y16268253D01*
X24161107Y16282868D01*
X24182150Y16295480D01*
X24204329Y16305970D01*
X24227428Y16314235D01*
X24251227Y16320196D01*
X24275495Y16323796D01*
X24299999Y16325000D01*
X25200001Y16325000D01*
X25224505Y16323796D01*
X25224505Y16323796D01*
G37*
D14*
G04 #@! TD*
G04 #@! TO.P,R1,2*
G04 #@! TO.N,Net-(C2-Pad1)*
X24750000Y15750000D03*
D10*
G04 #@! TO.N,ADC*
G04 #@! TO.C,R1*
G36*
X25224505Y18373796D02*
X25248773Y18370196D01*
X25272572Y18364235D01*
X25295671Y18355970D01*
X25317850Y18345480D01*
X25338893Y18332868D01*
X25358599Y18318253D01*
X25376777Y18301777D01*
X25393253Y18283599D01*
X25407868Y18263893D01*
X25420480Y18242850D01*
X25430970Y18220671D01*
X25439235Y18197572D01*
X25445196Y18173773D01*
X25448796Y18149505D01*
X25450000Y18125001D01*
X25450000Y17474999D01*
X25448796Y17450495D01*
X25445196Y17426227D01*
X25439235Y17402428D01*
X25430970Y17379329D01*
X25420480Y17357150D01*
X25407868Y17336107D01*
X25393253Y17316401D01*
X25376777Y17298223D01*
X25358599Y17281747D01*
X25338893Y17267132D01*
X25317850Y17254520D01*
X25295671Y17244030D01*
X25272572Y17235765D01*
X25248773Y17229804D01*
X25224505Y17226204D01*
X25200001Y17225000D01*
X24299999Y17225000D01*
X24275495Y17226204D01*
X24251227Y17229804D01*
X24227428Y17235765D01*
X24204329Y17244030D01*
X24182150Y17254520D01*
X24161107Y17267132D01*
X24141401Y17281747D01*
X24123223Y17298223D01*
X24106747Y17316401D01*
X24092132Y17336107D01*
X24079520Y17357150D01*
X24069030Y17379329D01*
X24060765Y17402428D01*
X24054804Y17426227D01*
X24051204Y17450495D01*
X24050000Y17474999D01*
X24050000Y18125001D01*
X24051204Y18149505D01*
X24054804Y18173773D01*
X24060765Y18197572D01*
X24069030Y18220671D01*
X24079520Y18242850D01*
X24092132Y18263893D01*
X24106747Y18283599D01*
X24123223Y18301777D01*
X24141401Y18318253D01*
X24161107Y18332868D01*
X24182150Y18345480D01*
X24204329Y18355970D01*
X24227428Y18364235D01*
X24251227Y18370196D01*
X24275495Y18373796D01*
X24299999Y18375000D01*
X25200001Y18375000D01*
X25224505Y18373796D01*
X25224505Y18373796D01*
G37*
D14*
G04 #@! TD*
G04 #@! TO.P,R1,1*
G04 #@! TO.N,ADC*
X24750000Y17800000D03*
D10*
G04 #@! TO.N,GND*
G04 #@! TO.C,R2*
G36*
X22974505Y18348796D02*
X22998773Y18345196D01*
X23022572Y18339235D01*
X23045671Y18330970D01*
X23067850Y18320480D01*
X23088893Y18307868D01*
X23108599Y18293253D01*
X23126777Y18276777D01*
X23143253Y18258599D01*
X23157868Y18238893D01*
X23170480Y18217850D01*
X23180970Y18195671D01*
X23189235Y18172572D01*
X23195196Y18148773D01*
X23198796Y18124505D01*
X23200000Y18100001D01*
X23200000Y17449999D01*
X23198796Y17425495D01*
X23195196Y17401227D01*
X23189235Y17377428D01*
X23180970Y17354329D01*
X23170480Y17332150D01*
X23157868Y17311107D01*
X23143253Y17291401D01*
X23126777Y17273223D01*
X23108599Y17256747D01*
X23088893Y17242132D01*
X23067850Y17229520D01*
X23045671Y17219030D01*
X23022572Y17210765D01*
X22998773Y17204804D01*
X22974505Y17201204D01*
X22950001Y17200000D01*
X22049999Y17200000D01*
X22025495Y17201204D01*
X22001227Y17204804D01*
X21977428Y17210765D01*
X21954329Y17219030D01*
X21932150Y17229520D01*
X21911107Y17242132D01*
X21891401Y17256747D01*
X21873223Y17273223D01*
X21856747Y17291401D01*
X21842132Y17311107D01*
X21829520Y17332150D01*
X21819030Y17354329D01*
X21810765Y17377428D01*
X21804804Y17401227D01*
X21801204Y17425495D01*
X21800000Y17449999D01*
X21800000Y18100001D01*
X21801204Y18124505D01*
X21804804Y18148773D01*
X21810765Y18172572D01*
X21819030Y18195671D01*
X21829520Y18217850D01*
X21842132Y18238893D01*
X21856747Y18258599D01*
X21873223Y18276777D01*
X21891401Y18293253D01*
X21911107Y18307868D01*
X21932150Y18320480D01*
X21954329Y18330970D01*
X21977428Y18339235D01*
X22001227Y18345196D01*
X22025495Y18348796D01*
X22049999Y18350000D01*
X22950001Y18350000D01*
X22974505Y18348796D01*
X22974505Y18348796D01*
G37*
D14*
G04 #@! TD*
G04 #@! TO.P,R2,1*
G04 #@! TO.N,GND*
X22500000Y17775000D03*
D10*
G04 #@! TO.N,ADC*
G04 #@! TO.C,R2*
G36*
X22974505Y16298796D02*
X22998773Y16295196D01*
X23022572Y16289235D01*
X23045671Y16280970D01*
X23067850Y16270480D01*
X23088893Y16257868D01*
X23108599Y16243253D01*
X23126777Y16226777D01*
X23143253Y16208599D01*
X23157868Y16188893D01*
X23170480Y16167850D01*
X23180970Y16145671D01*
X23189235Y16122572D01*
X23195196Y16098773D01*
X23198796Y16074505D01*
X23200000Y16050001D01*
X23200000Y15399999D01*
X23198796Y15375495D01*
X23195196Y15351227D01*
X23189235Y15327428D01*
X23180970Y15304329D01*
X23170480Y15282150D01*
X23157868Y15261107D01*
X23143253Y15241401D01*
X23126777Y15223223D01*
X23108599Y15206747D01*
X23088893Y15192132D01*
X23067850Y15179520D01*
X23045671Y15169030D01*
X23022572Y15160765D01*
X22998773Y15154804D01*
X22974505Y15151204D01*
X22950001Y15150000D01*
X22049999Y15150000D01*
X22025495Y15151204D01*
X22001227Y15154804D01*
X21977428Y15160765D01*
X21954329Y15169030D01*
X21932150Y15179520D01*
X21911107Y15192132D01*
X21891401Y15206747D01*
X21873223Y15223223D01*
X21856747Y15241401D01*
X21842132Y15261107D01*
X21829520Y15282150D01*
X21819030Y15304329D01*
X21810765Y15327428D01*
X21804804Y15351227D01*
X21801204Y15375495D01*
X21800000Y15399999D01*
X21800000Y16050001D01*
X21801204Y16074505D01*
X21804804Y16098773D01*
X21810765Y16122572D01*
X21819030Y16145671D01*
X21829520Y16167850D01*
X21842132Y16188893D01*
X21856747Y16208599D01*
X21873223Y16226777D01*
X21891401Y16243253D01*
X21911107Y16257868D01*
X21932150Y16270480D01*
X21954329Y16280970D01*
X21977428Y16289235D01*
X22001227Y16295196D01*
X22025495Y16298796D01*
X22049999Y16300000D01*
X22950001Y16300000D01*
X22974505Y16298796D01*
X22974505Y16298796D01*
G37*
D14*
G04 #@! TD*
G04 #@! TO.P,R2,2*
G04 #@! TO.N,ADC*
X22500000Y15725000D03*
D10*
G04 #@! TO.N,Net-(R4-Pad1)*
G04 #@! TO.C,R4*
G36*
X3849505Y14198796D02*
X3873773Y14195196D01*
X3897572Y14189235D01*
X3920671Y14180970D01*
X3942850Y14170480D01*
X3963893Y14157868D01*
X3983599Y14143253D01*
X4001777Y14126777D01*
X4018253Y14108599D01*
X4032868Y14088893D01*
X4045480Y14067850D01*
X4055970Y14045671D01*
X4064235Y14022572D01*
X4070196Y13998773D01*
X4073796Y13974505D01*
X4075000Y13950001D01*
X4075000Y13049999D01*
X4073796Y13025495D01*
X4070196Y13001227D01*
X4064235Y12977428D01*
X4055970Y12954329D01*
X4045480Y12932150D01*
X4032868Y12911107D01*
X4018253Y12891401D01*
X4001777Y12873223D01*
X3983599Y12856747D01*
X3963893Y12842132D01*
X3942850Y12829520D01*
X3920671Y12819030D01*
X3897572Y12810765D01*
X3873773Y12804804D01*
X3849505Y12801204D01*
X3825001Y12800000D01*
X3174999Y12800000D01*
X3150495Y12801204D01*
X3126227Y12804804D01*
X3102428Y12810765D01*
X3079329Y12819030D01*
X3057150Y12829520D01*
X3036107Y12842132D01*
X3016401Y12856747D01*
X2998223Y12873223D01*
X2981747Y12891401D01*
X2967132Y12911107D01*
X2954520Y12932150D01*
X2944030Y12954329D01*
X2935765Y12977428D01*
X2929804Y13001227D01*
X2926204Y13025495D01*
X2925000Y13049999D01*
X2925000Y13950001D01*
X2926204Y13974505D01*
X2929804Y13998773D01*
X2935765Y14022572D01*
X2944030Y14045671D01*
X2954520Y14067850D01*
X2967132Y14088893D01*
X2981747Y14108599D01*
X2998223Y14126777D01*
X3016401Y14143253D01*
X3036107Y14157868D01*
X3057150Y14170480D01*
X3079329Y14180970D01*
X3102428Y14189235D01*
X3126227Y14195196D01*
X3150495Y14198796D01*
X3174999Y14200000D01*
X3825001Y14200000D01*
X3849505Y14198796D01*
X3849505Y14198796D01*
G37*
D14*
G04 #@! TD*
G04 #@! TO.P,R4,1*
G04 #@! TO.N,Net-(R4-Pad1)*
X3500000Y13500000D03*
D10*
G04 #@! TO.N,3V3*
G04 #@! TO.C,R4*
G36*
X1799505Y14198796D02*
X1823773Y14195196D01*
X1847572Y14189235D01*
X1870671Y14180970D01*
X1892850Y14170480D01*
X1913893Y14157868D01*
X1933599Y14143253D01*
X1951777Y14126777D01*
X1968253Y14108599D01*
X1982868Y14088893D01*
X1995480Y14067850D01*
X2005970Y14045671D01*
X2014235Y14022572D01*
X2020196Y13998773D01*
X2023796Y13974505D01*
X2025000Y13950001D01*
X2025000Y13049999D01*
X2023796Y13025495D01*
X2020196Y13001227D01*
X2014235Y12977428D01*
X2005970Y12954329D01*
X1995480Y12932150D01*
X1982868Y12911107D01*
X1968253Y12891401D01*
X1951777Y12873223D01*
X1933599Y12856747D01*
X1913893Y12842132D01*
X1892850Y12829520D01*
X1870671Y12819030D01*
X1847572Y12810765D01*
X1823773Y12804804D01*
X1799505Y12801204D01*
X1775001Y12800000D01*
X1124999Y12800000D01*
X1100495Y12801204D01*
X1076227Y12804804D01*
X1052428Y12810765D01*
X1029329Y12819030D01*
X1007150Y12829520D01*
X986107Y12842132D01*
X966401Y12856747D01*
X948223Y12873223D01*
X931747Y12891401D01*
X917132Y12911107D01*
X904520Y12932150D01*
X894030Y12954329D01*
X885765Y12977428D01*
X879804Y13001227D01*
X876204Y13025495D01*
X875000Y13049999D01*
X875000Y13950001D01*
X876204Y13974505D01*
X879804Y13998773D01*
X885765Y14022572D01*
X894030Y14045671D01*
X904520Y14067850D01*
X917132Y14088893D01*
X931747Y14108599D01*
X948223Y14126777D01*
X966401Y14143253D01*
X986107Y14157868D01*
X1007150Y14170480D01*
X1029329Y14180970D01*
X1052428Y14189235D01*
X1076227Y14195196D01*
X1100495Y14198796D01*
X1124999Y14200000D01*
X1775001Y14200000D01*
X1799505Y14198796D01*
X1799505Y14198796D01*
G37*
D14*
G04 #@! TD*
G04 #@! TO.P,R4,2*
G04 #@! TO.N,3V3*
X1450000Y13500000D03*
D10*
G04 #@! TO.N,3V3*
G04 #@! TO.C,R5*
G36*
X1799505Y9698796D02*
X1823773Y9695196D01*
X1847572Y9689235D01*
X1870671Y9680970D01*
X1892850Y9670480D01*
X1913893Y9657868D01*
X1933599Y9643253D01*
X1951777Y9626777D01*
X1968253Y9608599D01*
X1982868Y9588893D01*
X1995480Y9567850D01*
X2005970Y9545671D01*
X2014235Y9522572D01*
X2020196Y9498773D01*
X2023796Y9474505D01*
X2025000Y9450001D01*
X2025000Y8549999D01*
X2023796Y8525495D01*
X2020196Y8501227D01*
X2014235Y8477428D01*
X2005970Y8454329D01*
X1995480Y8432150D01*
X1982868Y8411107D01*
X1968253Y8391401D01*
X1951777Y8373223D01*
X1933599Y8356747D01*
X1913893Y8342132D01*
X1892850Y8329520D01*
X1870671Y8319030D01*
X1847572Y8310765D01*
X1823773Y8304804D01*
X1799505Y8301204D01*
X1775001Y8300000D01*
X1124999Y8300000D01*
X1100495Y8301204D01*
X1076227Y8304804D01*
X1052428Y8310765D01*
X1029329Y8319030D01*
X1007150Y8329520D01*
X986107Y8342132D01*
X966401Y8356747D01*
X948223Y8373223D01*
X931747Y8391401D01*
X917132Y8411107D01*
X904520Y8432150D01*
X894030Y8454329D01*
X885765Y8477428D01*
X879804Y8501227D01*
X876204Y8525495D01*
X875000Y8549999D01*
X875000Y9450001D01*
X876204Y9474505D01*
X879804Y9498773D01*
X885765Y9522572D01*
X894030Y9545671D01*
X904520Y9567850D01*
X917132Y9588893D01*
X931747Y9608599D01*
X948223Y9626777D01*
X966401Y9643253D01*
X986107Y9657868D01*
X1007150Y9670480D01*
X1029329Y9680970D01*
X1052428Y9689235D01*
X1076227Y9695196D01*
X1100495Y9698796D01*
X1124999Y9700000D01*
X1775001Y9700000D01*
X1799505Y9698796D01*
X1799505Y9698796D01*
G37*
D14*
G04 #@! TD*
G04 #@! TO.P,R5,2*
G04 #@! TO.N,3V3*
X1450000Y9000000D03*
D10*
G04 #@! TO.N,Net-(R3-Pad2)*
G04 #@! TO.C,R5*
G36*
X3849505Y9698796D02*
X3873773Y9695196D01*
X3897572Y9689235D01*
X3920671Y9680970D01*
X3942850Y9670480D01*
X3963893Y9657868D01*
X3983599Y9643253D01*
X4001777Y9626777D01*
X4018253Y9608599D01*
X4032868Y9588893D01*
X4045480Y9567850D01*
X4055970Y9545671D01*
X4064235Y9522572D01*
X4070196Y9498773D01*
X4073796Y9474505D01*
X4075000Y9450001D01*
X4075000Y8549999D01*
X4073796Y8525495D01*
X4070196Y8501227D01*
X4064235Y8477428D01*
X4055970Y8454329D01*
X4045480Y8432150D01*
X4032868Y8411107D01*
X4018253Y8391401D01*
X4001777Y8373223D01*
X3983599Y8356747D01*
X3963893Y8342132D01*
X3942850Y8329520D01*
X3920671Y8319030D01*
X3897572Y8310765D01*
X3873773Y8304804D01*
X3849505Y8301204D01*
X3825001Y8300000D01*
X3174999Y8300000D01*
X3150495Y8301204D01*
X3126227Y8304804D01*
X3102428Y8310765D01*
X3079329Y8319030D01*
X3057150Y8329520D01*
X3036107Y8342132D01*
X3016401Y8356747D01*
X2998223Y8373223D01*
X2981747Y8391401D01*
X2967132Y8411107D01*
X2954520Y8432150D01*
X2944030Y8454329D01*
X2935765Y8477428D01*
X2929804Y8501227D01*
X2926204Y8525495D01*
X2925000Y8549999D01*
X2925000Y9450001D01*
X2926204Y9474505D01*
X2929804Y9498773D01*
X2935765Y9522572D01*
X2944030Y9545671D01*
X2954520Y9567850D01*
X2967132Y9588893D01*
X2981747Y9608599D01*
X2998223Y9626777D01*
X3016401Y9643253D01*
X3036107Y9657868D01*
X3057150Y9670480D01*
X3079329Y9680970D01*
X3102428Y9689235D01*
X3126227Y9695196D01*
X3150495Y9698796D01*
X3174999Y9700000D01*
X3825001Y9700000D01*
X3849505Y9698796D01*
X3849505Y9698796D01*
G37*
D14*
G04 #@! TD*
G04 #@! TO.P,R5,1*
G04 #@! TO.N,Net-(R3-Pad2)*
X3500000Y9000000D03*
D10*
G04 #@! TO.N,Net-(C7-Pad2)*
G04 #@! TO.C,R6*
G36*
X3849505Y11948796D02*
X3873773Y11945196D01*
X3897572Y11939235D01*
X3920671Y11930970D01*
X3942850Y11920480D01*
X3963893Y11907868D01*
X3983599Y11893253D01*
X4001777Y11876777D01*
X4018253Y11858599D01*
X4032868Y11838893D01*
X4045480Y11817850D01*
X4055970Y11795671D01*
X4064235Y11772572D01*
X4070196Y11748773D01*
X4073796Y11724505D01*
X4075000Y11700001D01*
X4075000Y10799999D01*
X4073796Y10775495D01*
X4070196Y10751227D01*
X4064235Y10727428D01*
X4055970Y10704329D01*
X4045480Y10682150D01*
X4032868Y10661107D01*
X4018253Y10641401D01*
X4001777Y10623223D01*
X3983599Y10606747D01*
X3963893Y10592132D01*
X3942850Y10579520D01*
X3920671Y10569030D01*
X3897572Y10560765D01*
X3873773Y10554804D01*
X3849505Y10551204D01*
X3825001Y10550000D01*
X3174999Y10550000D01*
X3150495Y10551204D01*
X3126227Y10554804D01*
X3102428Y10560765D01*
X3079329Y10569030D01*
X3057150Y10579520D01*
X3036107Y10592132D01*
X3016401Y10606747D01*
X2998223Y10623223D01*
X2981747Y10641401D01*
X2967132Y10661107D01*
X2954520Y10682150D01*
X2944030Y10704329D01*
X2935765Y10727428D01*
X2929804Y10751227D01*
X2926204Y10775495D01*
X2925000Y10799999D01*
X2925000Y11700001D01*
X2926204Y11724505D01*
X2929804Y11748773D01*
X2935765Y11772572D01*
X2944030Y11795671D01*
X2954520Y11817850D01*
X2967132Y11838893D01*
X2981747Y11858599D01*
X2998223Y11876777D01*
X3016401Y11893253D01*
X3036107Y11907868D01*
X3057150Y11920480D01*
X3079329Y11930970D01*
X3102428Y11939235D01*
X3126227Y11945196D01*
X3150495Y11948796D01*
X3174999Y11950000D01*
X3825001Y11950000D01*
X3849505Y11948796D01*
X3849505Y11948796D01*
G37*
D14*
G04 #@! TD*
G04 #@! TO.P,R6,1*
G04 #@! TO.N,Net-(C7-Pad2)*
X3500000Y11250000D03*
D10*
G04 #@! TO.N,3V3*
G04 #@! TO.C,R6*
G36*
X1799505Y11948796D02*
X1823773Y11945196D01*
X1847572Y11939235D01*
X1870671Y11930970D01*
X1892850Y11920480D01*
X1913893Y11907868D01*
X1933599Y11893253D01*
X1951777Y11876777D01*
X1968253Y11858599D01*
X1982868Y11838893D01*
X1995480Y11817850D01*
X2005970Y11795671D01*
X2014235Y11772572D01*
X2020196Y11748773D01*
X2023796Y11724505D01*
X2025000Y11700001D01*
X2025000Y10799999D01*
X2023796Y10775495D01*
X2020196Y10751227D01*
X2014235Y10727428D01*
X2005970Y10704329D01*
X1995480Y10682150D01*
X1982868Y10661107D01*
X1968253Y10641401D01*
X1951777Y10623223D01*
X1933599Y10606747D01*
X1913893Y10592132D01*
X1892850Y10579520D01*
X1870671Y10569030D01*
X1847572Y10560765D01*
X1823773Y10554804D01*
X1799505Y10551204D01*
X1775001Y10550000D01*
X1124999Y10550000D01*
X1100495Y10551204D01*
X1076227Y10554804D01*
X1052428Y10560765D01*
X1029329Y10569030D01*
X1007150Y10579520D01*
X986107Y10592132D01*
X966401Y10606747D01*
X948223Y10623223D01*
X931747Y10641401D01*
X917132Y10661107D01*
X904520Y10682150D01*
X894030Y10704329D01*
X885765Y10727428D01*
X879804Y10751227D01*
X876204Y10775495D01*
X875000Y10799999D01*
X875000Y11700001D01*
X876204Y11724505D01*
X879804Y11748773D01*
X885765Y11772572D01*
X894030Y11795671D01*
X904520Y11817850D01*
X917132Y11838893D01*
X931747Y11858599D01*
X948223Y11876777D01*
X966401Y11893253D01*
X986107Y11907868D01*
X1007150Y11920480D01*
X1029329Y11930970D01*
X1052428Y11939235D01*
X1076227Y11945196D01*
X1100495Y11948796D01*
X1124999Y11950000D01*
X1775001Y11950000D01*
X1799505Y11948796D01*
X1799505Y11948796D01*
G37*
D14*
G04 #@! TD*
G04 #@! TO.P,R6,2*
G04 #@! TO.N,3V3*
X1450000Y11250000D03*
D10*
G04 #@! TO.N,Net-(R7-Pad2)*
G04 #@! TO.C,R7*
G36*
X14849505Y15698796D02*
X14873773Y15695196D01*
X14897572Y15689235D01*
X14920671Y15680970D01*
X14942850Y15670480D01*
X14963893Y15657868D01*
X14983599Y15643253D01*
X15001777Y15626777D01*
X15018253Y15608599D01*
X15032868Y15588893D01*
X15045480Y15567850D01*
X15055970Y15545671D01*
X15064235Y15522572D01*
X15070196Y15498773D01*
X15073796Y15474505D01*
X15075000Y15450001D01*
X15075000Y14549999D01*
X15073796Y14525495D01*
X15070196Y14501227D01*
X15064235Y14477428D01*
X15055970Y14454329D01*
X15045480Y14432150D01*
X15032868Y14411107D01*
X15018253Y14391401D01*
X15001777Y14373223D01*
X14983599Y14356747D01*
X14963893Y14342132D01*
X14942850Y14329520D01*
X14920671Y14319030D01*
X14897572Y14310765D01*
X14873773Y14304804D01*
X14849505Y14301204D01*
X14825001Y14300000D01*
X14174999Y14300000D01*
X14150495Y14301204D01*
X14126227Y14304804D01*
X14102428Y14310765D01*
X14079329Y14319030D01*
X14057150Y14329520D01*
X14036107Y14342132D01*
X14016401Y14356747D01*
X13998223Y14373223D01*
X13981747Y14391401D01*
X13967132Y14411107D01*
X13954520Y14432150D01*
X13944030Y14454329D01*
X13935765Y14477428D01*
X13929804Y14501227D01*
X13926204Y14525495D01*
X13925000Y14549999D01*
X13925000Y15450001D01*
X13926204Y15474505D01*
X13929804Y15498773D01*
X13935765Y15522572D01*
X13944030Y15545671D01*
X13954520Y15567850D01*
X13967132Y15588893D01*
X13981747Y15608599D01*
X13998223Y15626777D01*
X14016401Y15643253D01*
X14036107Y15657868D01*
X14057150Y15670480D01*
X14079329Y15680970D01*
X14102428Y15689235D01*
X14126227Y15695196D01*
X14150495Y15698796D01*
X14174999Y15700000D01*
X14825001Y15700000D01*
X14849505Y15698796D01*
X14849505Y15698796D01*
G37*
D14*
G04 #@! TD*
G04 #@! TO.P,R7,2*
G04 #@! TO.N,Net-(R7-Pad2)*
X14500000Y15000000D03*
D10*
G04 #@! TO.N,GND*
G04 #@! TO.C,R7*
G36*
X16899505Y15698796D02*
X16923773Y15695196D01*
X16947572Y15689235D01*
X16970671Y15680970D01*
X16992850Y15670480D01*
X17013893Y15657868D01*
X17033599Y15643253D01*
X17051777Y15626777D01*
X17068253Y15608599D01*
X17082868Y15588893D01*
X17095480Y15567850D01*
X17105970Y15545671D01*
X17114235Y15522572D01*
X17120196Y15498773D01*
X17123796Y15474505D01*
X17125000Y15450001D01*
X17125000Y14549999D01*
X17123796Y14525495D01*
X17120196Y14501227D01*
X17114235Y14477428D01*
X17105970Y14454329D01*
X17095480Y14432150D01*
X17082868Y14411107D01*
X17068253Y14391401D01*
X17051777Y14373223D01*
X17033599Y14356747D01*
X17013893Y14342132D01*
X16992850Y14329520D01*
X16970671Y14319030D01*
X16947572Y14310765D01*
X16923773Y14304804D01*
X16899505Y14301204D01*
X16875001Y14300000D01*
X16224999Y14300000D01*
X16200495Y14301204D01*
X16176227Y14304804D01*
X16152428Y14310765D01*
X16129329Y14319030D01*
X16107150Y14329520D01*
X16086107Y14342132D01*
X16066401Y14356747D01*
X16048223Y14373223D01*
X16031747Y14391401D01*
X16017132Y14411107D01*
X16004520Y14432150D01*
X15994030Y14454329D01*
X15985765Y14477428D01*
X15979804Y14501227D01*
X15976204Y14525495D01*
X15975000Y14549999D01*
X15975000Y15450001D01*
X15976204Y15474505D01*
X15979804Y15498773D01*
X15985765Y15522572D01*
X15994030Y15545671D01*
X16004520Y15567850D01*
X16017132Y15588893D01*
X16031747Y15608599D01*
X16048223Y15626777D01*
X16066401Y15643253D01*
X16086107Y15657868D01*
X16107150Y15670480D01*
X16129329Y15680970D01*
X16152428Y15689235D01*
X16176227Y15695196D01*
X16200495Y15698796D01*
X16224999Y15700000D01*
X16875001Y15700000D01*
X16899505Y15698796D01*
X16899505Y15698796D01*
G37*
D14*
G04 #@! TD*
G04 #@! TO.P,R7,1*
G04 #@! TO.N,GND*
X16550000Y15000000D03*
D19*
G04 #@! TO.P,U1,1*
G04 #@! TO.N,Net-(R3-Pad2)*
X2497000Y2421000D03*
D20*
G04 #@! TO.P,U1,2*
G04 #@! TO.N,ADC*
X4497000Y2421000D03*
G04 #@! TO.P,U1,3*
G04 #@! TO.N,Net-(C7-Pad2)*
X6497000Y2421000D03*
G04 #@! TO.P,U1,4*
G04 #@! TO.N,Net-(R3-Pad1)*
X8497000Y2421000D03*
G04 #@! TO.P,U1,5*
G04 #@! TO.N,Net-(JP1-Pad2)*
X10497000Y2421000D03*
G04 #@! TO.P,U1,6*
G04 #@! TO.N,Net-(U1-Pad6)*
X12497000Y2421000D03*
G04 #@! TO.P,U1,7*
G04 #@! TO.N,Net-(U1-Pad7)*
X14497000Y2421000D03*
G04 #@! TO.P,U1,8*
G04 #@! TO.N,3V3*
X16497000Y2421000D03*
G04 #@! TO.P,U1,9*
G04 #@! TO.N,GND*
X16497000Y17821000D03*
G04 #@! TO.P,U1,10*
G04 #@! TO.N,Net-(R7-Pad2)*
X14497000Y17721000D03*
G04 #@! TO.P,U1,11*
G04 #@! TO.N,Net-(U1-Pad11)*
X12497000Y17821000D03*
G04 #@! TO.P,U1,12*
G04 #@! TO.N,Net-(R4-Pad1)*
X10497000Y17821000D03*
G04 #@! TO.P,U1,13*
G04 #@! TO.N,SDA*
X8497000Y17821000D03*
G04 #@! TO.P,U1,14*
G04 #@! TO.N,SCL*
X6497000Y17821000D03*
G04 #@! TO.P,U1,15*
G04 #@! TO.N,Net-(U1-Pad15)*
X4497000Y17821000D03*
G04 #@! TO.P,U1,16*
G04 #@! TO.N,Net-(U1-Pad16)*
X2497000Y17821000D03*
G04 #@! TD*
D21*
G04 #@! TO.P,SW1,3*
G04 #@! TO.N,N/C*
X41650000Y4000000D03*
G04 #@! TO.P,SW1,2*
G04 #@! TO.N,Net-(BT1-Pad1)*
X44850000Y6500000D03*
G04 #@! TO.P,SW1,1*
G04 #@! TO.N,Net-(C2-Pad1)*
X41650000Y9000000D03*
G04 #@! TD*
D22*
G04 #@! TO.N,3V3*
X38000000Y14750000D03*
X1500000Y6250000D03*
X15500000Y7000000D03*
G04 #@! TO.N,ADC*
X5250000Y6500000D03*
X21500000Y14500000D03*
G04 #@! TO.N,SCL*
X30600000Y13900000D03*
X5700000Y14900000D03*
G04 #@! TO.N,SDA*
X8497000Y14921000D03*
X28000000Y16000000D03*
G04 #@! TO.N,Net-(JP1-Pad2)*
X41500000Y12000000D03*
X12600000Y6400000D03*
G04 #@! TO.N,Net-(C2-Pad1)*
X36500000Y9000000D03*
X24750000Y14500000D03*
X27000000Y6500000D03*
G04 #@! TD*
D23*
G04 #@! TO.N,GND*
X27500000Y2750000D02*
X27500000Y3000000D01*
X27250000Y2500000D02*
X27500000Y2750000D01*
X25750000Y2500000D02*
X27250000Y2500000D01*
X25250000Y3500000D02*
X25250000Y3000000D01*
X25250000Y3000000D02*
X25750000Y2500000D01*
D24*
G04 #@! TO.N,3V3*
X1450000Y9000000D02*
X1450000Y11250000D01*
X1450000Y11250000D02*
X1450000Y13500000D01*
X38413000Y15163000D02*
X38413000Y16575000D01*
X38000000Y14750000D02*
X38413000Y15163000D01*
X1450000Y6300000D02*
X1450000Y9000000D01*
X1500000Y6250000D02*
X1450000Y6300000D01*
D23*
X18625000Y3125000D02*
X18500000Y3000000D01*
X16618000Y3000000D02*
X16497000Y3121000D01*
X18500000Y3000000D02*
X16618000Y3000000D01*
D24*
X15500000Y5250000D02*
X15500000Y7000000D01*
X16497000Y3121000D02*
X16497000Y4253000D01*
X16497000Y4253000D02*
X15500000Y5250000D01*
D23*
X18500000Y3000000D02*
X20750000Y3000000D01*
X22850000Y3000000D02*
X23350000Y3500000D01*
X20750000Y3000000D02*
X22850000Y3000000D01*
D24*
G04 #@! TO.N,ADC*
X4497000Y4497000D02*
X4497000Y3121000D01*
X5250000Y5250000D02*
X4497000Y4497000D01*
X5250000Y6500000D02*
X5250000Y5250000D01*
X24575000Y17800000D02*
X22500000Y15725000D01*
X24750000Y17800000D02*
X24575000Y17800000D01*
X20275000Y15725000D02*
X20250000Y15750000D01*
X22500000Y15725000D02*
X20275000Y15725000D01*
X21500000Y14500000D02*
X20250000Y15750000D01*
G04 #@! TO.N,SCL*
X33410000Y17010000D02*
X33420000Y17000000D01*
X6497000Y15697000D02*
X6497000Y17121000D01*
X5700000Y14900000D02*
X6497000Y15697000D01*
X30600000Y13900000D02*
X33275000Y16575000D01*
X33275000Y16575000D02*
X33333000Y16575000D01*
G04 #@! TO.N,SDA*
X8497000Y17121000D02*
X8497000Y14921000D01*
X28575000Y16575000D02*
X30793000Y16575000D01*
X28000000Y16000000D02*
X28575000Y16575000D01*
G04 #@! TO.N,Net-(JP1-Pad2)*
X41500000Y12000000D02*
X42960000Y13460000D01*
X42960000Y13460000D02*
X43250000Y13460000D01*
X12600000Y6400000D02*
X10497000Y4297000D01*
X10497000Y4297000D02*
X10497000Y3121000D01*
D23*
G04 #@! TO.N,Net-(BT1-Pad1)*
X46750000Y8400000D02*
X46750000Y9500000D01*
X44850000Y6500000D02*
X46750000Y8400000D01*
X48950000Y9500000D02*
X46750000Y9500000D01*
D24*
G04 #@! TO.N,Net-(R7-Pad2)*
X14497000Y15003000D02*
X14500000Y15000000D01*
X14497000Y17121000D02*
X14497000Y15003000D01*
G04 #@! TO.N,Net-(C7-Pad2)*
X6497000Y4497000D02*
X7750000Y5750000D01*
X7000000Y11250000D02*
X3750000Y11250000D01*
X6497000Y3121000D02*
X6497000Y4497000D01*
X7250000Y11500000D02*
X7000000Y11250000D01*
X7750000Y5750000D02*
X7750000Y11000000D01*
X7750000Y11000000D02*
X7250000Y11500000D01*
G04 #@! TO.N,Net-(R3-Pad2)*
X3500000Y6000000D02*
X2500000Y5000000D01*
X3500000Y9000000D02*
X3500000Y6000000D01*
X2500000Y5000000D02*
X2500000Y3124000D01*
X2500000Y3124000D02*
X2497000Y3121000D01*
X3750000Y8750000D02*
X3500000Y9000000D01*
X6250000Y8750000D02*
X3750000Y8750000D01*
G04 #@! TO.N,Net-(R4-Pad1)*
X3500000Y13500000D02*
X3750000Y13250000D01*
X9500000Y13250000D02*
X10497000Y14247000D01*
X3750000Y13250000D02*
X9500000Y13250000D01*
X10497000Y14247000D02*
X10497000Y17121000D01*
G04 #@! TO.N,Net-(R3-Pad1)*
X8497000Y4747000D02*
X9250000Y5500000D01*
X8497000Y3121000D02*
X8497000Y4747000D01*
X9250000Y5500000D02*
X9250000Y8750000D01*
G04 #@! TO.N,Net-(C2-Pad1)*
X24750000Y14500000D02*
X24750000Y15750000D01*
D23*
X40900000Y9000000D02*
X41650000Y9000000D01*
X36500000Y9000000D02*
X40900000Y9000000D01*
X27000000Y5500000D02*
X27500000Y5000000D01*
X24300000Y6500000D02*
X27000000Y6500000D01*
X27000000Y6500000D02*
X27000000Y5500000D01*
G04 #@! TO.N,Net-(C4-Pad1)*
X51025000Y9525000D02*
X51000000Y9500000D01*
X51025000Y11500000D02*
X51025000Y9525000D01*
X51025000Y14475000D02*
X51025000Y11500000D01*
X48250000Y16500000D02*
X49000000Y16500000D01*
X49000000Y16500000D02*
X51025000Y14475000D01*
G04 #@! TO.N,Net-(BT1-Pad2)*
X47250000Y11500000D02*
X47250000Y13500000D01*
X48975000Y11500000D02*
X47250000Y11500000D01*
G04 #@! TD*
D25*
G04 #@! TO.N,GND*
G36*
X25423000Y3673000D02*
X25443000Y3673000D01*
X25443000Y3327000D01*
X25423000Y3327000D01*
X25423000Y2004750D01*
X25604750Y1823000D01*
X25794610Y1823000D01*
X26061813Y1933679D01*
X26156628Y2028495D01*
X26183679Y1963188D01*
X26388187Y1758679D01*
X26404312Y1752000D01*
X21543076Y1752000D01*
X21579333Y1759212D01*
X21824459Y1923000D01*
X22579808Y1923000D01*
X22666339Y1865182D01*
X22950000Y1808758D01*
X23750000Y1808758D01*
X24033661Y1865182D01*
X24274137Y2025863D01*
X24302923Y2068944D01*
X24438187Y1933679D01*
X24705390Y1823000D01*
X24895250Y1823000D01*
X25077000Y2004750D01*
X25077000Y3327000D01*
X25057000Y3327000D01*
X25057000Y3673000D01*
X25077000Y3673000D01*
X25077000Y3693000D01*
X25423000Y3693000D01*
X25423000Y3673000D01*
X25423000Y3673000D01*
G37*
X25423000Y3673000D02*
X25443000Y3673000D01*
X25443000Y3327000D01*
X25423000Y3327000D01*
X25423000Y2004750D01*
X25604750Y1823000D01*
X25794610Y1823000D01*
X26061813Y1933679D01*
X26156628Y2028495D01*
X26183679Y1963188D01*
X26388187Y1758679D01*
X26404312Y1752000D01*
X21543076Y1752000D01*
X21579333Y1759212D01*
X21824459Y1923000D01*
X22579808Y1923000D01*
X22666339Y1865182D01*
X22950000Y1808758D01*
X23750000Y1808758D01*
X24033661Y1865182D01*
X24274137Y2025863D01*
X24302923Y2068944D01*
X24438187Y1933679D01*
X24705390Y1823000D01*
X24895250Y1823000D01*
X25077000Y2004750D01*
X25077000Y3327000D01*
X25057000Y3327000D01*
X25057000Y3673000D01*
X25077000Y3673000D01*
X25077000Y3693000D01*
X25423000Y3693000D01*
X25423000Y3673000D01*
G36*
X18823000Y18154750D02*
X19004750Y17973000D01*
X20077000Y17973000D01*
X20077000Y17993000D01*
X20423000Y17993000D01*
X20423000Y17973000D01*
X21229750Y17973000D01*
X21254750Y17948000D01*
X22327000Y17948000D01*
X22327000Y17968000D01*
X22673000Y17968000D01*
X22673000Y17948000D01*
X22693000Y17948000D01*
X22693000Y17602000D01*
X22673000Y17602000D01*
X22673000Y17582000D01*
X22327000Y17582000D01*
X22327000Y17602000D01*
X21520250Y17602000D01*
X21495250Y17627000D01*
X20423000Y17627000D01*
X20423000Y17607000D01*
X20077000Y17607000D01*
X20077000Y17627000D01*
X19004750Y17627000D01*
X18823000Y17445250D01*
X18823000Y17080391D01*
X18933679Y16813188D01*
X19047763Y16699104D01*
X18884212Y16454333D01*
X18808758Y16075001D01*
X18808758Y15424999D01*
X18884212Y15045667D01*
X19099086Y14724086D01*
X19420667Y14509212D01*
X19799999Y14433758D01*
X20023000Y14433758D01*
X20023000Y14206206D01*
X20247860Y13663347D01*
X20663347Y13247860D01*
X21206206Y13023000D01*
X21793794Y13023000D01*
X22336653Y13247860D01*
X22752140Y13663347D01*
X22977000Y14206206D01*
X22977000Y14414128D01*
X23273000Y14473007D01*
X23273000Y14206206D01*
X23497860Y13663347D01*
X23913347Y13247860D01*
X24456206Y13023000D01*
X25043794Y13023000D01*
X25586653Y13247860D01*
X26002140Y13663347D01*
X26227000Y14206206D01*
X26227000Y14793794D01*
X26118021Y15056892D01*
X26191242Y15424999D01*
X26191242Y16075001D01*
X26147722Y16293794D01*
X26523000Y16293794D01*
X26523000Y15706206D01*
X26747860Y15163347D01*
X27163347Y14747860D01*
X27706206Y14523000D01*
X28293794Y14523000D01*
X28836653Y14747860D01*
X29252140Y15163347D01*
X29448822Y15638178D01*
X29692095Y15274095D01*
X29832034Y15180591D01*
X29763347Y15152140D01*
X29347860Y14736653D01*
X29123000Y14193794D01*
X29123000Y13606206D01*
X29347860Y13063347D01*
X29763347Y12647860D01*
X30306206Y12423000D01*
X30893794Y12423000D01*
X31436653Y12647860D01*
X31852140Y13063347D01*
X32077000Y13606206D01*
X32077000Y14066025D01*
X32912670Y14901694D01*
X33333000Y14818085D01*
X33928806Y14936598D01*
X34433905Y15274095D01*
X34610291Y15538076D01*
X34952711Y15154266D01*
X35464793Y14903574D01*
X35700000Y15040920D01*
X35700000Y16402000D01*
X35680000Y16402000D01*
X35680000Y16748000D01*
X35700000Y16748000D01*
X35700000Y18109080D01*
X36046000Y18109080D01*
X36046000Y16748000D01*
X36066000Y16748000D01*
X36066000Y16402000D01*
X36046000Y16402000D01*
X36046000Y15040920D01*
X36281207Y14903574D01*
X36523000Y15021945D01*
X36523000Y14456206D01*
X36747860Y13913347D01*
X37163347Y13497860D01*
X37706206Y13273000D01*
X38293794Y13273000D01*
X38836653Y13497860D01*
X39252140Y13913347D01*
X39477000Y14456206D01*
X39477000Y15043794D01*
X39410285Y15204858D01*
X39513905Y15274095D01*
X39851402Y15779195D01*
X39940000Y16224608D01*
X39940000Y16925393D01*
X39916287Y17044610D01*
X41423000Y17044610D01*
X41423000Y16354750D01*
X41604750Y16173000D01*
X43077000Y16173000D01*
X43077000Y17445250D01*
X43423000Y17445250D01*
X43423000Y16173000D01*
X44895250Y16173000D01*
X45077000Y16354750D01*
X45077000Y17044610D01*
X44966321Y17311813D01*
X44761812Y17516321D01*
X44572808Y17594609D01*
X45173000Y17594609D01*
X45173000Y16854750D01*
X45354750Y16673000D01*
X46127000Y16673000D01*
X46127000Y17995250D01*
X45945250Y18177000D01*
X45755390Y18177000D01*
X45488187Y18066321D01*
X45283679Y17861812D01*
X45173000Y17594609D01*
X44572808Y17594609D01*
X44494609Y17627000D01*
X43604750Y17627000D01*
X43423000Y17445250D01*
X43077000Y17445250D01*
X42895250Y17627000D01*
X42005391Y17627000D01*
X41738188Y17516321D01*
X41533679Y17311813D01*
X41423000Y17044610D01*
X39916287Y17044610D01*
X39851402Y17370806D01*
X39513905Y17875905D01*
X39008805Y18213402D01*
X38413000Y18331915D01*
X37817194Y18213402D01*
X37312095Y17875905D01*
X37135709Y17611924D01*
X36793289Y17995734D01*
X36281207Y18246426D01*
X36046000Y18109080D01*
X35700000Y18109080D01*
X35464793Y18246426D01*
X34952711Y17995734D01*
X34610292Y17611924D01*
X34433905Y17875905D01*
X33928805Y18213402D01*
X33333000Y18331915D01*
X32737194Y18213402D01*
X32232095Y17875905D01*
X32063000Y17622837D01*
X31893905Y17875905D01*
X31388805Y18213402D01*
X30793000Y18331915D01*
X30197194Y18213402D01*
X29692095Y17875905D01*
X29442260Y17502000D01*
X28666300Y17502000D01*
X28575000Y17520161D01*
X28483699Y17502000D01*
X28483698Y17502000D01*
X28314629Y17468370D01*
X28293794Y17477000D01*
X27706206Y17477000D01*
X27163347Y17252140D01*
X26747860Y16836653D01*
X26523000Y16293794D01*
X26147722Y16293794D01*
X26115788Y16454333D01*
X25901525Y16775000D01*
X26115788Y17095667D01*
X26191242Y17474999D01*
X26191242Y18125001D01*
X26117048Y18498000D01*
X44983353Y18498000D01*
X46107235Y18423352D01*
X47195022Y18204015D01*
X47475410Y18107470D01*
X47275863Y17974137D01*
X47247077Y17931056D01*
X47111813Y18066321D01*
X46844610Y18177000D01*
X46654750Y18177000D01*
X46473000Y17995250D01*
X46473000Y16673000D01*
X46493000Y16673000D01*
X46493000Y16327000D01*
X46473000Y16327000D01*
X46473000Y16307000D01*
X46127000Y16307000D01*
X46127000Y16327000D01*
X45354750Y16327000D01*
X45173000Y16145250D01*
X45173000Y15405391D01*
X45283679Y15138188D01*
X45488187Y14933679D01*
X45755390Y14823000D01*
X45945250Y14823000D01*
X46126998Y15004748D01*
X46126998Y14823000D01*
X46224876Y14823000D01*
X46165182Y14733661D01*
X46108758Y14450000D01*
X46108758Y12550000D01*
X46129088Y12447793D01*
X45768287Y12206713D01*
X45474994Y11767770D01*
X45372003Y11250000D01*
X45474994Y10732230D01*
X45735688Y10342075D01*
X45674086Y10300914D01*
X45459212Y9979333D01*
X45383758Y9600001D01*
X45383758Y8899999D01*
X45440688Y8613795D01*
X44853893Y8027000D01*
X44499607Y8027000D01*
X44054194Y7938402D01*
X43549095Y7600905D01*
X43211598Y7095806D01*
X43093085Y6500000D01*
X43211598Y5904194D01*
X43549095Y5399095D01*
X44054194Y5061598D01*
X44499607Y4973000D01*
X45200393Y4973000D01*
X45645806Y5061598D01*
X46150905Y5399095D01*
X46488402Y5904194D01*
X46606915Y6500000D01*
X46568124Y6695016D01*
X47436551Y7563443D01*
X47526473Y7623527D01*
X47586558Y7713450D01*
X47731170Y7929876D01*
X48004333Y7984212D01*
X48237245Y8139839D01*
X48245667Y8134212D01*
X48624999Y8058758D01*
X49275001Y8058758D01*
X49654333Y8134212D01*
X49975000Y8348475D01*
X50295667Y8134212D01*
X50674999Y8058758D01*
X51325001Y8058758D01*
X51704333Y8134212D01*
X52025914Y8349086D01*
X52240788Y8670667D01*
X52316242Y9049999D01*
X52316242Y9950001D01*
X52240788Y10329333D01*
X52139252Y10481292D01*
X52265788Y10670667D01*
X52341242Y11049999D01*
X52341242Y11950001D01*
X52265788Y12329333D01*
X52102000Y12574459D01*
X52102000Y14368934D01*
X52123098Y14475001D01*
X52117636Y14502460D01*
X52308012Y14209307D01*
X52783990Y13206900D01*
X53123214Y12150342D01*
X53319720Y11058206D01*
X53370058Y9949675D01*
X53273343Y8844216D01*
X53031275Y7761266D01*
X52648108Y6719848D01*
X52130566Y5738243D01*
X51487755Y4833720D01*
X50730956Y4022151D01*
X49873471Y3317806D01*
X48930363Y2733055D01*
X47918211Y2278175D01*
X46854782Y1961153D01*
X45753549Y1786736D01*
X44988613Y1752000D01*
X28595688Y1752000D01*
X28611813Y1758679D01*
X28816321Y1963188D01*
X28927000Y2230391D01*
X28927000Y2595250D01*
X28745250Y2777000D01*
X27673000Y2777000D01*
X27673000Y2757000D01*
X27327000Y2757000D01*
X27327000Y2777000D01*
X27307000Y2777000D01*
X27307000Y3123000D01*
X27327000Y3123000D01*
X27327000Y3143000D01*
X27673000Y3143000D01*
X27673000Y3123000D01*
X28745250Y3123000D01*
X28927000Y3304750D01*
X28927000Y3669609D01*
X28816321Y3936812D01*
X28753133Y4000000D01*
X39893085Y4000000D01*
X40011598Y3404194D01*
X40349095Y2899095D01*
X40854194Y2561598D01*
X41299607Y2473000D01*
X42000393Y2473000D01*
X42445806Y2561598D01*
X42950905Y2899095D01*
X43288402Y3404194D01*
X43406915Y4000000D01*
X43288402Y4595806D01*
X42950905Y5100905D01*
X42445806Y5438402D01*
X42000393Y5527000D01*
X41299607Y5527000D01*
X40854194Y5438402D01*
X40349095Y5100905D01*
X40011598Y4595806D01*
X39893085Y4000000D01*
X28753133Y4000000D01*
X28702237Y4050896D01*
X28865788Y4295667D01*
X28941242Y4674999D01*
X28941242Y5325001D01*
X28865788Y5704333D01*
X28650914Y6025914D01*
X28456209Y6156012D01*
X28477000Y6206206D01*
X28477000Y6793794D01*
X28252140Y7336653D01*
X27836653Y7752140D01*
X27293794Y7977000D01*
X26706206Y7977000D01*
X26163347Y7752140D01*
X25988207Y7577000D01*
X25415980Y7577000D01*
X25384818Y7733661D01*
X25224137Y7974137D01*
X24983661Y8134818D01*
X24700000Y8191242D01*
X23900000Y8191242D01*
X23616339Y8134818D01*
X23375863Y7974137D01*
X23215182Y7733661D01*
X23158758Y7450000D01*
X23158758Y5550000D01*
X23215182Y5266339D01*
X23265360Y5191242D01*
X22950000Y5191242D01*
X22666339Y5134818D01*
X22425863Y4974137D01*
X22265182Y4733661D01*
X22208758Y4450000D01*
X22208758Y4077000D01*
X22072042Y4077000D01*
X22177000Y4330391D01*
X22177000Y4695250D01*
X21995250Y4877000D01*
X20923000Y4877000D01*
X20923000Y4857000D01*
X20577000Y4857000D01*
X20577000Y4877000D01*
X18673000Y4877000D01*
X18673000Y4857000D01*
X18327000Y4857000D01*
X18327000Y4877000D01*
X17254750Y4877000D01*
X17218903Y4841153D01*
X17165330Y4921330D01*
X17087927Y4973049D01*
X16427000Y5633975D01*
X16427000Y5769609D01*
X17073000Y5769609D01*
X17073000Y5404750D01*
X17254750Y5223000D01*
X18327000Y5223000D01*
X18327000Y6170250D01*
X18673000Y6170250D01*
X18673000Y5223000D01*
X20577000Y5223000D01*
X20577000Y6170250D01*
X20923000Y6170250D01*
X20923000Y5223000D01*
X21995250Y5223000D01*
X22177000Y5404750D01*
X22177000Y5769609D01*
X22066321Y6036812D01*
X21861813Y6241321D01*
X21594610Y6352000D01*
X21104750Y6352000D01*
X20923000Y6170250D01*
X20577000Y6170250D01*
X20395250Y6352000D01*
X19905390Y6352000D01*
X19638187Y6241321D01*
X19625000Y6228134D01*
X19611813Y6241321D01*
X19344610Y6352000D01*
X18854750Y6352000D01*
X18673000Y6170250D01*
X18327000Y6170250D01*
X18145250Y6352000D01*
X17655390Y6352000D01*
X17388187Y6241321D01*
X17183679Y6036812D01*
X17073000Y5769609D01*
X16427000Y5769609D01*
X16427000Y5838207D01*
X16752140Y6163347D01*
X16977000Y6706206D01*
X16977000Y7293794D01*
X16752140Y7836653D01*
X16336653Y8252140D01*
X15793794Y8477000D01*
X15206206Y8477000D01*
X14663347Y8252140D01*
X14247860Y7836653D01*
X14023000Y7293794D01*
X14023000Y6824161D01*
X13852140Y7236653D01*
X13436653Y7652140D01*
X12893794Y7877000D01*
X12306206Y7877000D01*
X11763347Y7652140D01*
X11347860Y7236653D01*
X11123000Y6693794D01*
X11123000Y6233976D01*
X10147024Y5257999D01*
X10177000Y5408698D01*
X10177000Y5408699D01*
X10195161Y5500000D01*
X10177000Y5591300D01*
X10177000Y7266119D01*
X10413414Y7424086D01*
X10628288Y7745668D01*
X10703742Y8125000D01*
X10703742Y9293794D01*
X35023000Y9293794D01*
X35023000Y8706206D01*
X35247860Y8163347D01*
X35663347Y7747860D01*
X36206206Y7523000D01*
X36793794Y7523000D01*
X37336653Y7747860D01*
X37511793Y7923000D01*
X40333122Y7923000D01*
X40349095Y7899095D01*
X40854194Y7561598D01*
X41299607Y7473000D01*
X42000393Y7473000D01*
X42445806Y7561598D01*
X42950905Y7899095D01*
X43288402Y8404194D01*
X43406915Y9000000D01*
X43288402Y9595806D01*
X42950905Y10100905D01*
X42445806Y10438402D01*
X42000393Y10527000D01*
X41803451Y10527000D01*
X42336653Y10747860D01*
X42752140Y11163347D01*
X42977000Y11706206D01*
X42977000Y11833000D01*
X43610242Y11833000D01*
X44084824Y11927400D01*
X44623001Y12286999D01*
X44982600Y12825176D01*
X45108874Y13460000D01*
X44982600Y14094824D01*
X44731237Y14471014D01*
X44761812Y14483679D01*
X44966321Y14688187D01*
X45077000Y14955390D01*
X45077000Y15645250D01*
X44895250Y15827000D01*
X43423000Y15827000D01*
X43423000Y15807000D01*
X43077000Y15807000D01*
X43077000Y15827000D01*
X41604750Y15827000D01*
X41423000Y15645250D01*
X41423000Y14955390D01*
X41533679Y14688187D01*
X41738188Y14483679D01*
X41768763Y14471014D01*
X41517400Y14094824D01*
X41394508Y13477000D01*
X41206206Y13477000D01*
X40663347Y13252140D01*
X40247860Y12836653D01*
X40023000Y12293794D01*
X40023000Y11706206D01*
X40247860Y11163347D01*
X40663347Y10747860D01*
X41206206Y10523000D01*
X41279498Y10523000D01*
X40854194Y10438402D01*
X40349095Y10100905D01*
X40333122Y10077000D01*
X37511793Y10077000D01*
X37336653Y10252140D01*
X36793794Y10477000D01*
X36206206Y10477000D01*
X35663347Y10252140D01*
X35247860Y9836653D01*
X35023000Y9293794D01*
X10703742Y9293794D01*
X10703742Y9375000D01*
X10628288Y9754332D01*
X10413414Y10075914D01*
X10284538Y10162026D01*
X10336812Y10183679D01*
X10541321Y10388187D01*
X10652000Y10655390D01*
X10652000Y11145250D01*
X10470250Y11327000D01*
X9523000Y11327000D01*
X9523000Y11307000D01*
X9177000Y11307000D01*
X9177000Y11327000D01*
X9157000Y11327000D01*
X9157000Y11673000D01*
X9177000Y11673000D01*
X9177000Y11693000D01*
X9523000Y11693000D01*
X9523000Y11673000D01*
X10470250Y11673000D01*
X10652000Y11854750D01*
X10652000Y12344610D01*
X10541321Y12611813D01*
X10357054Y12796079D01*
X11087928Y13526952D01*
X11165330Y13578670D01*
X11370215Y13885303D01*
X11424000Y14155698D01*
X11424000Y14155699D01*
X11442161Y14247000D01*
X11424000Y14338300D01*
X11424000Y16209816D01*
X11497000Y16319069D01*
X11576336Y16200335D01*
X11998741Y15918093D01*
X12497000Y15818983D01*
X12995260Y15918093D01*
X13417665Y16200335D01*
X13463591Y16269069D01*
X13521411Y16182536D01*
X13474086Y16150914D01*
X13259212Y15829333D01*
X13183758Y15450001D01*
X13183758Y14549999D01*
X13259212Y14170667D01*
X13474086Y13849086D01*
X13795667Y13634212D01*
X14174999Y13558758D01*
X14825001Y13558758D01*
X15204333Y13634212D01*
X15449104Y13797763D01*
X15563188Y13683679D01*
X15830391Y13573000D01*
X16195250Y13573000D01*
X16377000Y13754750D01*
X16377000Y14827000D01*
X16723000Y14827000D01*
X16723000Y13754750D01*
X16904750Y13573000D01*
X17269609Y13573000D01*
X17536812Y13683679D01*
X17741321Y13888187D01*
X17852000Y14155390D01*
X17852000Y14645250D01*
X17670250Y14827000D01*
X16723000Y14827000D01*
X16377000Y14827000D01*
X16357000Y14827000D01*
X16357000Y15173000D01*
X16377000Y15173000D01*
X16377000Y16245250D01*
X16324000Y16298250D01*
X16324000Y17648000D01*
X16670000Y17648000D01*
X16670000Y16039499D01*
X16723000Y16001308D01*
X16723000Y15173000D01*
X17670250Y15173000D01*
X17852000Y15354750D01*
X17852000Y15844610D01*
X17741321Y16111813D01*
X17536812Y16316321D01*
X17489805Y16335792D01*
X17610590Y16472482D01*
X17774000Y16948000D01*
X17774000Y17648000D01*
X16670000Y17648000D01*
X16324000Y17648000D01*
X16304000Y17648000D01*
X16304000Y17994000D01*
X16324000Y17994000D01*
X16324000Y18014000D01*
X16670000Y18014000D01*
X16670000Y17994000D01*
X17774000Y17994000D01*
X17774000Y18498000D01*
X18823000Y18498000D01*
X18823000Y18154750D01*
X18823000Y18154750D01*
G37*
X18823000Y18154750D02*
X19004750Y17973000D01*
X20077000Y17973000D01*
X20077000Y17993000D01*
X20423000Y17993000D01*
X20423000Y17973000D01*
X21229750Y17973000D01*
X21254750Y17948000D01*
X22327000Y17948000D01*
X22327000Y17968000D01*
X22673000Y17968000D01*
X22673000Y17948000D01*
X22693000Y17948000D01*
X22693000Y17602000D01*
X22673000Y17602000D01*
X22673000Y17582000D01*
X22327000Y17582000D01*
X22327000Y17602000D01*
X21520250Y17602000D01*
X21495250Y17627000D01*
X20423000Y17627000D01*
X20423000Y17607000D01*
X20077000Y17607000D01*
X20077000Y17627000D01*
X19004750Y17627000D01*
X18823000Y17445250D01*
X18823000Y17080391D01*
X18933679Y16813188D01*
X19047763Y16699104D01*
X18884212Y16454333D01*
X18808758Y16075001D01*
X18808758Y15424999D01*
X18884212Y15045667D01*
X19099086Y14724086D01*
X19420667Y14509212D01*
X19799999Y14433758D01*
X20023000Y14433758D01*
X20023000Y14206206D01*
X20247860Y13663347D01*
X20663347Y13247860D01*
X21206206Y13023000D01*
X21793794Y13023000D01*
X22336653Y13247860D01*
X22752140Y13663347D01*
X22977000Y14206206D01*
X22977000Y14414128D01*
X23273000Y14473007D01*
X23273000Y14206206D01*
X23497860Y13663347D01*
X23913347Y13247860D01*
X24456206Y13023000D01*
X25043794Y13023000D01*
X25586653Y13247860D01*
X26002140Y13663347D01*
X26227000Y14206206D01*
X26227000Y14793794D01*
X26118021Y15056892D01*
X26191242Y15424999D01*
X26191242Y16075001D01*
X26147722Y16293794D01*
X26523000Y16293794D01*
X26523000Y15706206D01*
X26747860Y15163347D01*
X27163347Y14747860D01*
X27706206Y14523000D01*
X28293794Y14523000D01*
X28836653Y14747860D01*
X29252140Y15163347D01*
X29448822Y15638178D01*
X29692095Y15274095D01*
X29832034Y15180591D01*
X29763347Y15152140D01*
X29347860Y14736653D01*
X29123000Y14193794D01*
X29123000Y13606206D01*
X29347860Y13063347D01*
X29763347Y12647860D01*
X30306206Y12423000D01*
X30893794Y12423000D01*
X31436653Y12647860D01*
X31852140Y13063347D01*
X32077000Y13606206D01*
X32077000Y14066025D01*
X32912670Y14901694D01*
X33333000Y14818085D01*
X33928806Y14936598D01*
X34433905Y15274095D01*
X34610291Y15538076D01*
X34952711Y15154266D01*
X35464793Y14903574D01*
X35700000Y15040920D01*
X35700000Y16402000D01*
X35680000Y16402000D01*
X35680000Y16748000D01*
X35700000Y16748000D01*
X35700000Y18109080D01*
X36046000Y18109080D01*
X36046000Y16748000D01*
X36066000Y16748000D01*
X36066000Y16402000D01*
X36046000Y16402000D01*
X36046000Y15040920D01*
X36281207Y14903574D01*
X36523000Y15021945D01*
X36523000Y14456206D01*
X36747860Y13913347D01*
X37163347Y13497860D01*
X37706206Y13273000D01*
X38293794Y13273000D01*
X38836653Y13497860D01*
X39252140Y13913347D01*
X39477000Y14456206D01*
X39477000Y15043794D01*
X39410285Y15204858D01*
X39513905Y15274095D01*
X39851402Y15779195D01*
X39940000Y16224608D01*
X39940000Y16925393D01*
X39916287Y17044610D01*
X41423000Y17044610D01*
X41423000Y16354750D01*
X41604750Y16173000D01*
X43077000Y16173000D01*
X43077000Y17445250D01*
X43423000Y17445250D01*
X43423000Y16173000D01*
X44895250Y16173000D01*
X45077000Y16354750D01*
X45077000Y17044610D01*
X44966321Y17311813D01*
X44761812Y17516321D01*
X44572808Y17594609D01*
X45173000Y17594609D01*
X45173000Y16854750D01*
X45354750Y16673000D01*
X46127000Y16673000D01*
X46127000Y17995250D01*
X45945250Y18177000D01*
X45755390Y18177000D01*
X45488187Y18066321D01*
X45283679Y17861812D01*
X45173000Y17594609D01*
X44572808Y17594609D01*
X44494609Y17627000D01*
X43604750Y17627000D01*
X43423000Y17445250D01*
X43077000Y17445250D01*
X42895250Y17627000D01*
X42005391Y17627000D01*
X41738188Y17516321D01*
X41533679Y17311813D01*
X41423000Y17044610D01*
X39916287Y17044610D01*
X39851402Y17370806D01*
X39513905Y17875905D01*
X39008805Y18213402D01*
X38413000Y18331915D01*
X37817194Y18213402D01*
X37312095Y17875905D01*
X37135709Y17611924D01*
X36793289Y17995734D01*
X36281207Y18246426D01*
X36046000Y18109080D01*
X35700000Y18109080D01*
X35464793Y18246426D01*
X34952711Y17995734D01*
X34610292Y17611924D01*
X34433905Y17875905D01*
X33928805Y18213402D01*
X33333000Y18331915D01*
X32737194Y18213402D01*
X32232095Y17875905D01*
X32063000Y17622837D01*
X31893905Y17875905D01*
X31388805Y18213402D01*
X30793000Y18331915D01*
X30197194Y18213402D01*
X29692095Y17875905D01*
X29442260Y17502000D01*
X28666300Y17502000D01*
X28575000Y17520161D01*
X28483699Y17502000D01*
X28483698Y17502000D01*
X28314629Y17468370D01*
X28293794Y17477000D01*
X27706206Y17477000D01*
X27163347Y17252140D01*
X26747860Y16836653D01*
X26523000Y16293794D01*
X26147722Y16293794D01*
X26115788Y16454333D01*
X25901525Y16775000D01*
X26115788Y17095667D01*
X26191242Y17474999D01*
X26191242Y18125001D01*
X26117048Y18498000D01*
X44983353Y18498000D01*
X46107235Y18423352D01*
X47195022Y18204015D01*
X47475410Y18107470D01*
X47275863Y17974137D01*
X47247077Y17931056D01*
X47111813Y18066321D01*
X46844610Y18177000D01*
X46654750Y18177000D01*
X46473000Y17995250D01*
X46473000Y16673000D01*
X46493000Y16673000D01*
X46493000Y16327000D01*
X46473000Y16327000D01*
X46473000Y16307000D01*
X46127000Y16307000D01*
X46127000Y16327000D01*
X45354750Y16327000D01*
X45173000Y16145250D01*
X45173000Y15405391D01*
X45283679Y15138188D01*
X45488187Y14933679D01*
X45755390Y14823000D01*
X45945250Y14823000D01*
X46126998Y15004748D01*
X46126998Y14823000D01*
X46224876Y14823000D01*
X46165182Y14733661D01*
X46108758Y14450000D01*
X46108758Y12550000D01*
X46129088Y12447793D01*
X45768287Y12206713D01*
X45474994Y11767770D01*
X45372003Y11250000D01*
X45474994Y10732230D01*
X45735688Y10342075D01*
X45674086Y10300914D01*
X45459212Y9979333D01*
X45383758Y9600001D01*
X45383758Y8899999D01*
X45440688Y8613795D01*
X44853893Y8027000D01*
X44499607Y8027000D01*
X44054194Y7938402D01*
X43549095Y7600905D01*
X43211598Y7095806D01*
X43093085Y6500000D01*
X43211598Y5904194D01*
X43549095Y5399095D01*
X44054194Y5061598D01*
X44499607Y4973000D01*
X45200393Y4973000D01*
X45645806Y5061598D01*
X46150905Y5399095D01*
X46488402Y5904194D01*
X46606915Y6500000D01*
X46568124Y6695016D01*
X47436551Y7563443D01*
X47526473Y7623527D01*
X47586558Y7713450D01*
X47731170Y7929876D01*
X48004333Y7984212D01*
X48237245Y8139839D01*
X48245667Y8134212D01*
X48624999Y8058758D01*
X49275001Y8058758D01*
X49654333Y8134212D01*
X49975000Y8348475D01*
X50295667Y8134212D01*
X50674999Y8058758D01*
X51325001Y8058758D01*
X51704333Y8134212D01*
X52025914Y8349086D01*
X52240788Y8670667D01*
X52316242Y9049999D01*
X52316242Y9950001D01*
X52240788Y10329333D01*
X52139252Y10481292D01*
X52265788Y10670667D01*
X52341242Y11049999D01*
X52341242Y11950001D01*
X52265788Y12329333D01*
X52102000Y12574459D01*
X52102000Y14368934D01*
X52123098Y14475001D01*
X52117636Y14502460D01*
X52308012Y14209307D01*
X52783990Y13206900D01*
X53123214Y12150342D01*
X53319720Y11058206D01*
X53370058Y9949675D01*
X53273343Y8844216D01*
X53031275Y7761266D01*
X52648108Y6719848D01*
X52130566Y5738243D01*
X51487755Y4833720D01*
X50730956Y4022151D01*
X49873471Y3317806D01*
X48930363Y2733055D01*
X47918211Y2278175D01*
X46854782Y1961153D01*
X45753549Y1786736D01*
X44988613Y1752000D01*
X28595688Y1752000D01*
X28611813Y1758679D01*
X28816321Y1963188D01*
X28927000Y2230391D01*
X28927000Y2595250D01*
X28745250Y2777000D01*
X27673000Y2777000D01*
X27673000Y2757000D01*
X27327000Y2757000D01*
X27327000Y2777000D01*
X27307000Y2777000D01*
X27307000Y3123000D01*
X27327000Y3123000D01*
X27327000Y3143000D01*
X27673000Y3143000D01*
X27673000Y3123000D01*
X28745250Y3123000D01*
X28927000Y3304750D01*
X28927000Y3669609D01*
X28816321Y3936812D01*
X28753133Y4000000D01*
X39893085Y4000000D01*
X40011598Y3404194D01*
X40349095Y2899095D01*
X40854194Y2561598D01*
X41299607Y2473000D01*
X42000393Y2473000D01*
X42445806Y2561598D01*
X42950905Y2899095D01*
X43288402Y3404194D01*
X43406915Y4000000D01*
X43288402Y4595806D01*
X42950905Y5100905D01*
X42445806Y5438402D01*
X42000393Y5527000D01*
X41299607Y5527000D01*
X40854194Y5438402D01*
X40349095Y5100905D01*
X40011598Y4595806D01*
X39893085Y4000000D01*
X28753133Y4000000D01*
X28702237Y4050896D01*
X28865788Y4295667D01*
X28941242Y4674999D01*
X28941242Y5325001D01*
X28865788Y5704333D01*
X28650914Y6025914D01*
X28456209Y6156012D01*
X28477000Y6206206D01*
X28477000Y6793794D01*
X28252140Y7336653D01*
X27836653Y7752140D01*
X27293794Y7977000D01*
X26706206Y7977000D01*
X26163347Y7752140D01*
X25988207Y7577000D01*
X25415980Y7577000D01*
X25384818Y7733661D01*
X25224137Y7974137D01*
X24983661Y8134818D01*
X24700000Y8191242D01*
X23900000Y8191242D01*
X23616339Y8134818D01*
X23375863Y7974137D01*
X23215182Y7733661D01*
X23158758Y7450000D01*
X23158758Y5550000D01*
X23215182Y5266339D01*
X23265360Y5191242D01*
X22950000Y5191242D01*
X22666339Y5134818D01*
X22425863Y4974137D01*
X22265182Y4733661D01*
X22208758Y4450000D01*
X22208758Y4077000D01*
X22072042Y4077000D01*
X22177000Y4330391D01*
X22177000Y4695250D01*
X21995250Y4877000D01*
X20923000Y4877000D01*
X20923000Y4857000D01*
X20577000Y4857000D01*
X20577000Y4877000D01*
X18673000Y4877000D01*
X18673000Y4857000D01*
X18327000Y4857000D01*
X18327000Y4877000D01*
X17254750Y4877000D01*
X17218903Y4841153D01*
X17165330Y4921330D01*
X17087927Y4973049D01*
X16427000Y5633975D01*
X16427000Y5769609D01*
X17073000Y5769609D01*
X17073000Y5404750D01*
X17254750Y5223000D01*
X18327000Y5223000D01*
X18327000Y6170250D01*
X18673000Y6170250D01*
X18673000Y5223000D01*
X20577000Y5223000D01*
X20577000Y6170250D01*
X20923000Y6170250D01*
X20923000Y5223000D01*
X21995250Y5223000D01*
X22177000Y5404750D01*
X22177000Y5769609D01*
X22066321Y6036812D01*
X21861813Y6241321D01*
X21594610Y6352000D01*
X21104750Y6352000D01*
X20923000Y6170250D01*
X20577000Y6170250D01*
X20395250Y6352000D01*
X19905390Y6352000D01*
X19638187Y6241321D01*
X19625000Y6228134D01*
X19611813Y6241321D01*
X19344610Y6352000D01*
X18854750Y6352000D01*
X18673000Y6170250D01*
X18327000Y6170250D01*
X18145250Y6352000D01*
X17655390Y6352000D01*
X17388187Y6241321D01*
X17183679Y6036812D01*
X17073000Y5769609D01*
X16427000Y5769609D01*
X16427000Y5838207D01*
X16752140Y6163347D01*
X16977000Y6706206D01*
X16977000Y7293794D01*
X16752140Y7836653D01*
X16336653Y8252140D01*
X15793794Y8477000D01*
X15206206Y8477000D01*
X14663347Y8252140D01*
X14247860Y7836653D01*
X14023000Y7293794D01*
X14023000Y6824161D01*
X13852140Y7236653D01*
X13436653Y7652140D01*
X12893794Y7877000D01*
X12306206Y7877000D01*
X11763347Y7652140D01*
X11347860Y7236653D01*
X11123000Y6693794D01*
X11123000Y6233976D01*
X10147024Y5257999D01*
X10177000Y5408698D01*
X10177000Y5408699D01*
X10195161Y5500000D01*
X10177000Y5591300D01*
X10177000Y7266119D01*
X10413414Y7424086D01*
X10628288Y7745668D01*
X10703742Y8125000D01*
X10703742Y9293794D01*
X35023000Y9293794D01*
X35023000Y8706206D01*
X35247860Y8163347D01*
X35663347Y7747860D01*
X36206206Y7523000D01*
X36793794Y7523000D01*
X37336653Y7747860D01*
X37511793Y7923000D01*
X40333122Y7923000D01*
X40349095Y7899095D01*
X40854194Y7561598D01*
X41299607Y7473000D01*
X42000393Y7473000D01*
X42445806Y7561598D01*
X42950905Y7899095D01*
X43288402Y8404194D01*
X43406915Y9000000D01*
X43288402Y9595806D01*
X42950905Y10100905D01*
X42445806Y10438402D01*
X42000393Y10527000D01*
X41803451Y10527000D01*
X42336653Y10747860D01*
X42752140Y11163347D01*
X42977000Y11706206D01*
X42977000Y11833000D01*
X43610242Y11833000D01*
X44084824Y11927400D01*
X44623001Y12286999D01*
X44982600Y12825176D01*
X45108874Y13460000D01*
X44982600Y14094824D01*
X44731237Y14471014D01*
X44761812Y14483679D01*
X44966321Y14688187D01*
X45077000Y14955390D01*
X45077000Y15645250D01*
X44895250Y15827000D01*
X43423000Y15827000D01*
X43423000Y15807000D01*
X43077000Y15807000D01*
X43077000Y15827000D01*
X41604750Y15827000D01*
X41423000Y15645250D01*
X41423000Y14955390D01*
X41533679Y14688187D01*
X41738188Y14483679D01*
X41768763Y14471014D01*
X41517400Y14094824D01*
X41394508Y13477000D01*
X41206206Y13477000D01*
X40663347Y13252140D01*
X40247860Y12836653D01*
X40023000Y12293794D01*
X40023000Y11706206D01*
X40247860Y11163347D01*
X40663347Y10747860D01*
X41206206Y10523000D01*
X41279498Y10523000D01*
X40854194Y10438402D01*
X40349095Y10100905D01*
X40333122Y10077000D01*
X37511793Y10077000D01*
X37336653Y10252140D01*
X36793794Y10477000D01*
X36206206Y10477000D01*
X35663347Y10252140D01*
X35247860Y9836653D01*
X35023000Y9293794D01*
X10703742Y9293794D01*
X10703742Y9375000D01*
X10628288Y9754332D01*
X10413414Y10075914D01*
X10284538Y10162026D01*
X10336812Y10183679D01*
X10541321Y10388187D01*
X10652000Y10655390D01*
X10652000Y11145250D01*
X10470250Y11327000D01*
X9523000Y11327000D01*
X9523000Y11307000D01*
X9177000Y11307000D01*
X9177000Y11327000D01*
X9157000Y11327000D01*
X9157000Y11673000D01*
X9177000Y11673000D01*
X9177000Y11693000D01*
X9523000Y11693000D01*
X9523000Y11673000D01*
X10470250Y11673000D01*
X10652000Y11854750D01*
X10652000Y12344610D01*
X10541321Y12611813D01*
X10357054Y12796079D01*
X11087928Y13526952D01*
X11165330Y13578670D01*
X11370215Y13885303D01*
X11424000Y14155698D01*
X11424000Y14155699D01*
X11442161Y14247000D01*
X11424000Y14338300D01*
X11424000Y16209816D01*
X11497000Y16319069D01*
X11576336Y16200335D01*
X11998741Y15918093D01*
X12497000Y15818983D01*
X12995260Y15918093D01*
X13417665Y16200335D01*
X13463591Y16269069D01*
X13521411Y16182536D01*
X13474086Y16150914D01*
X13259212Y15829333D01*
X13183758Y15450001D01*
X13183758Y14549999D01*
X13259212Y14170667D01*
X13474086Y13849086D01*
X13795667Y13634212D01*
X14174999Y13558758D01*
X14825001Y13558758D01*
X15204333Y13634212D01*
X15449104Y13797763D01*
X15563188Y13683679D01*
X15830391Y13573000D01*
X16195250Y13573000D01*
X16377000Y13754750D01*
X16377000Y14827000D01*
X16723000Y14827000D01*
X16723000Y13754750D01*
X16904750Y13573000D01*
X17269609Y13573000D01*
X17536812Y13683679D01*
X17741321Y13888187D01*
X17852000Y14155390D01*
X17852000Y14645250D01*
X17670250Y14827000D01*
X16723000Y14827000D01*
X16377000Y14827000D01*
X16357000Y14827000D01*
X16357000Y15173000D01*
X16377000Y15173000D01*
X16377000Y16245250D01*
X16324000Y16298250D01*
X16324000Y17648000D01*
X16670000Y17648000D01*
X16670000Y16039499D01*
X16723000Y16001308D01*
X16723000Y15173000D01*
X17670250Y15173000D01*
X17852000Y15354750D01*
X17852000Y15844610D01*
X17741321Y16111813D01*
X17536812Y16316321D01*
X17489805Y16335792D01*
X17610590Y16472482D01*
X17774000Y16948000D01*
X17774000Y17648000D01*
X16670000Y17648000D01*
X16324000Y17648000D01*
X16304000Y17648000D01*
X16304000Y17994000D01*
X16324000Y17994000D01*
X16324000Y18014000D01*
X16670000Y18014000D01*
X16670000Y17994000D01*
X17774000Y17994000D01*
X17774000Y18498000D01*
X18823000Y18498000D01*
X18823000Y18154750D01*
G04 #@! TD*
M02*
