G04 #@! TF.GenerationSoftware,KiCad,Pcbnew,5.0.2-bee76a0~70~ubuntu18.04.1*
G04 #@! TF.CreationDate,2020-04-04T21:44:00-04:00*
G04 #@! TF.ProjectId,weeSpindel,77656553-7069-46e6-9465-6c2e6b696361,rev?*
G04 #@! TF.SameCoordinates,PX56c8cc0PY6dac2c0*
G04 #@! TF.FileFunction,Copper,L1,Top*
G04 #@! TF.FilePolarity,Positive*
%FSLAX46Y46*%
G04 Gerber Fmt 4.6, Leading zero omitted, Abs format (unit mm)*
G04 Created by KiCad (PCBNEW 5.0.2-bee76a0~70~ubuntu18.04.1) date Sat 04 Apr 2020 09:44:00 PM EDT*
%MOMM*%
%LPD*%
G01*
G04 APERTURE LIST*
G04 #@! TA.AperFunction,ComponentPad*
%ADD10R,1.700000X1.700000*%
G04 #@! TD*
G04 #@! TA.AperFunction,ComponentPad*
%ADD11O,1.700000X1.700000*%
G04 #@! TD*
G04 #@! TA.AperFunction,ComponentPad*
%ADD12R,1.100000X2.500000*%
G04 #@! TD*
G04 #@! TA.AperFunction,ComponentPad*
%ADD13O,1.100000X2.500000*%
G04 #@! TD*
G04 #@! TA.AperFunction,ComponentPad*
%ADD14C,1.500000*%
G04 #@! TD*
G04 #@! TA.AperFunction,ComponentPad*
%ADD15R,1.500000X1.500000*%
G04 #@! TD*
G04 #@! TA.AperFunction,ComponentPad*
%ADD16O,2.200000X1.800000*%
G04 #@! TD*
G04 #@! TA.AperFunction,ComponentPad*
%ADD17R,2.200000X1.800000*%
G04 #@! TD*
G04 #@! TA.AperFunction,ComponentPad*
%ADD18R,2.000000X12.000000*%
G04 #@! TD*
G04 #@! TA.AperFunction,ComponentPad*
%ADD19O,2.000000X1.600000*%
G04 #@! TD*
G04 #@! TA.AperFunction,ViaPad*
%ADD20C,1.500000*%
G04 #@! TD*
G04 #@! TA.AperFunction,Conductor*
%ADD21C,0.400000*%
G04 #@! TD*
G04 APERTURE END LIST*
D10*
G04 #@! TO.P,J2,1*
G04 #@! TO.N,3V3*
X39497000Y17721000D03*
D11*
G04 #@! TO.P,J2,2*
G04 #@! TO.N,GND*
X36957000Y17721000D03*
G04 #@! TO.P,J2,3*
G04 #@! TO.N,SCL*
X34417000Y17721000D03*
G04 #@! TO.P,J2,4*
G04 #@! TO.N,SDA*
X31877000Y17721000D03*
G04 #@! TO.P,J2,5*
G04 #@! TO.N,N/C*
X29337000Y17721000D03*
G04 #@! TO.P,J2,6*
X26797000Y17721000D03*
G04 #@! TO.P,J2,7*
X24257000Y17721000D03*
G04 #@! TO.P,J2,8*
G04 #@! TO.N,GPIO15*
X21717000Y17721000D03*
G04 #@! TD*
D12*
G04 #@! TO.P,U1,1*
G04 #@! TO.N,RST*
X2497000Y2421000D03*
D13*
G04 #@! TO.P,U1,2*
G04 #@! TO.N,ADC*
X4497000Y2421000D03*
G04 #@! TO.P,U1,3*
G04 #@! TO.N,EN*
X6497000Y2421000D03*
G04 #@! TO.P,U1,4*
G04 #@! TO.N,GPIO16*
X8497000Y2421000D03*
G04 #@! TO.P,U1,5*
G04 #@! TO.N,Net-(JP1-Pad2)*
X10497000Y2421000D03*
G04 #@! TO.P,U1,6*
G04 #@! TO.N,DQ*
X12497000Y2421000D03*
G04 #@! TO.P,U1,7*
G04 #@! TO.N,N/C*
X14497000Y2421000D03*
G04 #@! TO.P,U1,8*
G04 #@! TO.N,3V3*
X16497000Y2421000D03*
G04 #@! TO.P,U1,9*
G04 #@! TO.N,GND*
X16497000Y17821000D03*
G04 #@! TO.P,U1,10*
G04 #@! TO.N,GPIO15*
X14497000Y17721000D03*
G04 #@! TO.P,U1,11*
G04 #@! TO.N,N/C*
X12497000Y17821000D03*
G04 #@! TO.P,U1,12*
G04 #@! TO.N,GPIO0*
X10497000Y17821000D03*
G04 #@! TO.P,U1,13*
G04 #@! TO.N,SDA*
X8497000Y17821000D03*
G04 #@! TO.P,U1,14*
G04 #@! TO.N,SCL*
X6497000Y17821000D03*
G04 #@! TO.P,U1,15*
G04 #@! TO.N,N/C*
X4497000Y17821000D03*
G04 #@! TO.P,U1,16*
X2497000Y17821000D03*
G04 #@! TD*
D14*
G04 #@! TO.P,U3,2*
G04 #@! TO.N,DQ*
X111000000Y9860000D03*
G04 #@! TO.P,U3,3*
G04 #@! TO.N,3V3*
X111000000Y7320000D03*
D15*
G04 #@! TO.P,U3,1*
G04 #@! TO.N,GND*
X111000000Y12400000D03*
G04 #@! TD*
D16*
G04 #@! TO.P,JP1,2*
G04 #@! TO.N,Net-(JP1-Pad2)*
X43000000Y12660000D03*
D17*
G04 #@! TO.P,JP1,1*
G04 #@! TO.N,GND*
X43000000Y15200000D03*
G04 #@! TD*
D18*
G04 #@! TO.P,BT1,1*
G04 #@! TO.N,Net-(BT1-Pad1)*
X46200000Y10000000D03*
G04 #@! TO.P,BT1,2*
G04 #@! TO.N,GND*
X106200000Y10000000D03*
G04 #@! TD*
D19*
G04 #@! TO.P,SW1,3*
G04 #@! TO.N,N/C*
X41600000Y3300000D03*
G04 #@! TO.P,SW1,2*
G04 #@! TO.N,Net-(BT1-Pad1)*
X44800000Y5800000D03*
G04 #@! TO.P,SW1,1*
G04 #@! TO.N,VBAT*
X41600000Y8300000D03*
G04 #@! TD*
D20*
G04 #@! TO.N,3V3*
X4697000Y10721000D03*
X16497000Y5721000D03*
X38600000Y15600000D03*
X38500000Y9000000D03*
X39000000Y2100000D03*
G04 #@! TO.N,VBAT*
X36500000Y10500000D03*
X28600000Y11700000D03*
G04 #@! TO.N,ADC*
X4497000Y5121000D03*
X19397000Y10421000D03*
G04 #@! TO.N,SCL*
X34497000Y15121000D03*
X5700000Y14900000D03*
G04 #@! TO.N,SDA*
X31897000Y15121000D03*
X8497000Y14921000D03*
G04 #@! TO.N,GPIO16*
X8497000Y5121000D03*
X2200000Y11500000D03*
G04 #@! TO.N,Net-(JP1-Pad2)*
X13300000Y6800000D03*
X43000000Y10900000D03*
G04 #@! TD*
D21*
G04 #@! TO.N,3V3*
X38600000Y9100000D02*
X38600000Y15600000D01*
X38500000Y9000000D02*
X38600000Y9100000D01*
X111000000Y6300000D02*
X111000000Y7320000D01*
X105900000Y1200000D02*
X111000000Y6300000D01*
X39000000Y2100000D02*
X39900000Y1200000D01*
X39900000Y1200000D02*
X105900000Y1200000D01*
X6379000Y10721000D02*
X4697000Y10721000D01*
X11900000Y5200000D02*
X6379000Y10721000D01*
X16497000Y5721000D02*
X15976000Y5200000D01*
X15976000Y5200000D02*
X11900000Y5200000D01*
G04 #@! TO.N,VBAT*
X35400000Y11600000D02*
X36500000Y10500000D01*
X28600000Y11700000D02*
X28700000Y11600000D01*
X28700000Y11600000D02*
X35400000Y11600000D01*
G04 #@! TO.N,ADC*
X18018000Y11800000D02*
X19397000Y10421000D01*
X6618000Y11800000D02*
X18018000Y11800000D01*
X2679000Y5121000D02*
X697000Y7103000D01*
X4497000Y5121000D02*
X2679000Y5121000D01*
X697000Y7103000D02*
X697000Y12297000D01*
X697000Y12297000D02*
X1721000Y13321000D01*
X5097000Y13321000D02*
X6618000Y11800000D01*
X1721000Y13321000D02*
X5097000Y13321000D01*
G04 #@! TO.N,SCL*
X34497000Y14097000D02*
X34497000Y15121000D01*
X30100000Y13100000D02*
X33500000Y13100000D01*
X5700000Y14900000D02*
X5700000Y14200000D01*
X33500000Y13100000D02*
X34497000Y14097000D01*
X5700000Y14200000D02*
X6900000Y13000000D01*
X6900000Y13000000D02*
X10600000Y13000000D01*
X10600000Y13000000D02*
X11200000Y13600000D01*
X11200000Y13600000D02*
X29600000Y13600000D01*
X29600000Y13600000D02*
X30100000Y13100000D01*
G04 #@! TO.N,SDA*
X31776000Y15000000D02*
X31897000Y15121000D01*
X8497000Y14921000D02*
X8576000Y15000000D01*
X8576000Y15000000D02*
X31776000Y15000000D01*
G04 #@! TO.N,GPIO16*
X2200000Y10600000D02*
X7679000Y5121000D01*
X7679000Y5121000D02*
X8497000Y5121000D01*
X2200000Y11500000D02*
X2200000Y10600000D01*
G04 #@! TO.N,Net-(JP1-Pad2)*
X43700000Y10200000D02*
X43700000Y7500000D01*
X43000000Y10900000D02*
X43700000Y10200000D01*
X14100000Y7600000D02*
X13300000Y6800000D01*
X43700000Y7500000D02*
X42100000Y5900000D01*
X42100000Y5900000D02*
X39000000Y5900000D01*
X39000000Y5900000D02*
X37300000Y7600000D01*
X37300000Y7600000D02*
X14100000Y7600000D01*
G04 #@! TD*
M02*
