G04 #@! TF.GenerationSoftware,KiCad,Pcbnew,5.0.2-bee76a0~70~ubuntu18.04.1*
G04 #@! TF.CreationDate,2020-06-14T22:01:23-04:00*
G04 #@! TF.ProjectId,weeSpindel,77656553-7069-46e6-9465-6c2e6b696361,rev?*
G04 #@! TF.SameCoordinates,PX5699308PY6c663e8*
G04 #@! TF.FileFunction,Copper,L1,Top*
G04 #@! TF.FilePolarity,Positive*
%FSLAX46Y46*%
G04 Gerber Fmt 4.6, Leading zero omitted, Abs format (unit mm)*
G04 Created by KiCad (PCBNEW 5.0.2-bee76a0~70~ubuntu18.04.1) date Sun 14 Jun 2020 10:01:23 PM EDT*
%MOMM*%
%LPD*%
G01*
G04 APERTURE LIST*
G04 #@! TA.AperFunction,ComponentPad*
%ADD10O,1.400000X2.000000*%
G04 #@! TD*
G04 #@! TA.AperFunction,ComponentPad*
%ADD11C,1.400000*%
G04 #@! TD*
G04 #@! TA.AperFunction,Conductor*
%ADD12C,0.050000*%
G04 #@! TD*
G04 #@! TA.AperFunction,ComponentPad*
%ADD13C,1.200000*%
G04 #@! TD*
G04 #@! TA.AperFunction,ComponentPad*
%ADD14O,1.750000X1.200000*%
G04 #@! TD*
G04 #@! TA.AperFunction,ComponentPad*
%ADD15O,2.200000X1.800000*%
G04 #@! TD*
G04 #@! TA.AperFunction,ComponentPad*
%ADD16R,2.200000X1.800000*%
G04 #@! TD*
G04 #@! TA.AperFunction,ComponentPad*
%ADD17O,1.600000X2.000000*%
G04 #@! TD*
G04 #@! TA.AperFunction,ComponentPad*
%ADD18R,1.100000X2.500000*%
G04 #@! TD*
G04 #@! TA.AperFunction,ComponentPad*
%ADD19O,1.100000X2.500000*%
G04 #@! TD*
G04 #@! TA.AperFunction,ComponentPad*
%ADD20O,2.000000X1.600000*%
G04 #@! TD*
G04 #@! TA.AperFunction,ViaPad*
%ADD21C,1.000000*%
G04 #@! TD*
G04 #@! TA.AperFunction,ViaPad*
%ADD22C,1.500000*%
G04 #@! TD*
G04 #@! TA.AperFunction,Conductor*
%ADD23C,0.400000*%
G04 #@! TD*
G04 #@! TA.AperFunction,Conductor*
%ADD24C,0.700000*%
G04 #@! TD*
G04 #@! TA.AperFunction,Conductor*
%ADD25C,0.254000*%
G04 #@! TD*
G04 APERTURE END LIST*
D10*
G04 #@! TO.P,J2,6*
G04 #@! TO.N,GND*
X26358000Y15557000D03*
D11*
X25158000Y12877000D03*
X20308000Y12877000D03*
D10*
X19108000Y15557000D03*
G04 #@! TD*
D12*
G04 #@! TO.N,Net-(BT1-Pad1)*
G04 #@! TO.C,BT1*
G36*
X47844505Y8513796D02*
X47868773Y8510196D01*
X47892572Y8504235D01*
X47915671Y8495970D01*
X47937850Y8485480D01*
X47958893Y8472868D01*
X47978599Y8458253D01*
X47996777Y8441777D01*
X48013253Y8423599D01*
X48027868Y8403893D01*
X48040480Y8382850D01*
X48050970Y8360671D01*
X48059235Y8337572D01*
X48065196Y8313773D01*
X48068796Y8289505D01*
X48070000Y8265001D01*
X48070000Y7564999D01*
X48068796Y7540495D01*
X48065196Y7516227D01*
X48059235Y7492428D01*
X48050970Y7469329D01*
X48040480Y7447150D01*
X48027868Y7426107D01*
X48013253Y7406401D01*
X47996777Y7388223D01*
X47978599Y7371747D01*
X47958893Y7357132D01*
X47937850Y7344520D01*
X47915671Y7334030D01*
X47892572Y7325765D01*
X47868773Y7319804D01*
X47844505Y7316204D01*
X47820001Y7315000D01*
X46569999Y7315000D01*
X46545495Y7316204D01*
X46521227Y7319804D01*
X46497428Y7325765D01*
X46474329Y7334030D01*
X46452150Y7344520D01*
X46431107Y7357132D01*
X46411401Y7371747D01*
X46393223Y7388223D01*
X46376747Y7406401D01*
X46362132Y7426107D01*
X46349520Y7447150D01*
X46339030Y7469329D01*
X46330765Y7492428D01*
X46324804Y7516227D01*
X46321204Y7540495D01*
X46320000Y7564999D01*
X46320000Y8265001D01*
X46321204Y8289505D01*
X46324804Y8313773D01*
X46330765Y8337572D01*
X46339030Y8360671D01*
X46349520Y8382850D01*
X46362132Y8403893D01*
X46376747Y8423599D01*
X46393223Y8441777D01*
X46411401Y8458253D01*
X46431107Y8472868D01*
X46452150Y8485480D01*
X46474329Y8495970D01*
X46497428Y8504235D01*
X46521227Y8510196D01*
X46545495Y8513796D01*
X46569999Y8515000D01*
X47820001Y8515000D01*
X47844505Y8513796D01*
X47844505Y8513796D01*
G37*
D13*
G04 #@! TD*
G04 #@! TO.P,BT1,1*
G04 #@! TO.N,Net-(BT1-Pad1)*
X47195000Y7915000D03*
D14*
G04 #@! TO.P,BT1,2*
G04 #@! TO.N,Net-(BT1-Pad2)*
X47195000Y9915000D03*
G04 #@! TD*
D15*
G04 #@! TO.P,JP1,2*
G04 #@! TO.N,Net-(JP1-Pad2)*
X43445000Y12125000D03*
D16*
G04 #@! TO.P,JP1,1*
G04 #@! TO.N,GND*
X43445000Y14665000D03*
G04 #@! TD*
D17*
G04 #@! TO.P,J1,4*
G04 #@! TO.N,SDA*
X30988000Y15240000D03*
G04 #@! TO.P,J1,3*
G04 #@! TO.N,SCL*
X33528000Y15240000D03*
G04 #@! TO.P,J1,2*
G04 #@! TO.N,GND*
X36068000Y15240000D03*
G04 #@! TO.P,J1,1*
G04 #@! TO.N,3V3*
X38608000Y15240000D03*
G04 #@! TD*
D18*
G04 #@! TO.P,U1,1*
G04 #@! TO.N,Net-(R3-Pad2)*
X2692000Y1086000D03*
D19*
G04 #@! TO.P,U1,2*
G04 #@! TO.N,ADC*
X4692000Y1086000D03*
G04 #@! TO.P,U1,3*
G04 #@! TO.N,Net-(R6-Pad1)*
X6692000Y1086000D03*
G04 #@! TO.P,U1,4*
G04 #@! TO.N,Net-(R3-Pad1)*
X8692000Y1086000D03*
G04 #@! TO.P,U1,5*
G04 #@! TO.N,Net-(JP1-Pad2)*
X10692000Y1086000D03*
G04 #@! TO.P,U1,6*
G04 #@! TO.N,Net-(U1-Pad6)*
X12692000Y1086000D03*
G04 #@! TO.P,U1,7*
G04 #@! TO.N,Net-(U1-Pad7)*
X14692000Y1086000D03*
G04 #@! TO.P,U1,8*
G04 #@! TO.N,3V3*
X16692000Y1086000D03*
G04 #@! TO.P,U1,9*
G04 #@! TO.N,GND*
X16692000Y16486000D03*
G04 #@! TO.P,U1,10*
G04 #@! TO.N,Net-(R7-Pad2)*
X14692000Y16386000D03*
G04 #@! TO.P,U1,11*
G04 #@! TO.N,Net-(U1-Pad11)*
X12692000Y16486000D03*
G04 #@! TO.P,U1,12*
G04 #@! TO.N,Net-(R4-Pad1)*
X10692000Y16486000D03*
G04 #@! TO.P,U1,13*
G04 #@! TO.N,SDA*
X8692000Y16486000D03*
G04 #@! TO.P,U1,14*
G04 #@! TO.N,SCL*
X6692000Y16486000D03*
G04 #@! TO.P,U1,15*
G04 #@! TO.N,eRX*
X4692000Y16486000D03*
G04 #@! TO.P,U1,16*
G04 #@! TO.N,eTX*
X2692000Y16486000D03*
G04 #@! TD*
D20*
G04 #@! TO.P,SW1,3*
G04 #@! TO.N,N/C*
X41845000Y2665000D03*
G04 #@! TO.P,SW1,2*
G04 #@! TO.N,Net-(F1-Pad1)*
X45045000Y5165000D03*
G04 #@! TO.P,SW1,1*
G04 #@! TO.N,+5V*
X41845000Y7665000D03*
G04 #@! TD*
D21*
G04 #@! TO.N,GND*
X20955000Y5461000D03*
X23241000Y7493000D03*
X29083000Y8509000D03*
D22*
G04 #@! TO.N,3V3*
X38195000Y13415000D03*
X15367000Y4953000D03*
X23368000Y3556000D03*
X7493000Y5842000D03*
X1651000Y6604000D03*
G04 #@! TO.N,ADC*
X3937000Y3683000D03*
X35179000Y3683000D03*
G04 #@! TO.N,SCL*
X33401000Y13081000D03*
X6731000Y13589000D03*
G04 #@! TO.N,SDA*
X8692000Y13586000D03*
X29210000Y15240000D03*
G04 #@! TO.N,Net-(JP1-Pad2)*
X41695000Y10665000D03*
X10668000Y5969000D03*
G04 #@! TO.N,+5V*
X36695000Y7665000D03*
G04 #@! TO.N,eTX*
X1651000Y14605000D03*
X13970000Y9144000D03*
G04 #@! TO.N,+5V*
X29083000Y6477000D03*
G04 #@! TO.N,eRX*
X4318000Y13970000D03*
X16256000Y7874000D03*
G04 #@! TD*
D23*
G04 #@! TO.N,3V3*
X22987000Y3556000D02*
X28575000Y3556000D01*
X38495000Y13115000D02*
X38195000Y13415000D01*
X38495000Y6865000D02*
X38495000Y13115000D01*
X37726000Y6096000D02*
X38495000Y6865000D01*
X28575000Y3556000D02*
X31115000Y6096000D01*
X31115000Y6096000D02*
X37726000Y6096000D01*
X14843010Y4429010D02*
X15367000Y4953000D01*
X7493000Y5842000D02*
X8905990Y4429010D01*
X8905990Y4429010D02*
X14843010Y4429010D01*
X6985000Y6350000D02*
X7493000Y5842000D01*
X1651000Y6604000D02*
X1905000Y6350000D01*
X1905000Y6350000D02*
X6985000Y6350000D01*
G04 #@! TO.N,ADC*
X4318000Y3683000D02*
X4445000Y3556000D01*
X4445000Y3429000D02*
X4191000Y3683000D01*
X17907000Y3429000D02*
X4445000Y3429000D01*
X20320000Y1016000D02*
X17907000Y3429000D01*
X4191000Y3683000D02*
X4318000Y3683000D01*
X35179000Y3683000D02*
X35179000Y3175000D01*
X35179000Y3175000D02*
X33020000Y1016000D01*
X33020000Y1016000D02*
X20320000Y1016000D01*
G04 #@! TO.N,SCL*
X20320000Y8636000D02*
X26924000Y8636000D01*
X26924000Y8636000D02*
X31369000Y13081000D01*
X7747000Y12192000D02*
X11176000Y12192000D01*
X6731000Y13589000D02*
X6731000Y13208000D01*
X11176000Y12192000D02*
X11938000Y12954000D01*
X11938000Y12954000D02*
X16002000Y12954000D01*
X31369000Y13081000D02*
X33401000Y13081000D01*
X6731000Y13208000D02*
X7747000Y12192000D01*
X16002000Y12954000D02*
X20320000Y8636000D01*
G04 #@! TO.N,SDA*
X16637000Y14097000D02*
X9203000Y14097000D01*
X29210000Y15240000D02*
X29210000Y13208000D01*
X29210000Y13208000D02*
X26035000Y10033000D01*
X9203000Y14097000D02*
X8692000Y13586000D01*
X26035000Y10033000D02*
X20701000Y10033000D01*
X20701000Y10033000D02*
X16637000Y14097000D01*
G04 #@! TO.N,Net-(JP1-Pad2)*
X39495000Y9665000D02*
X40495000Y10665000D01*
X39495000Y5965000D02*
X39495000Y9665000D01*
X38610000Y5080000D02*
X39495000Y5965000D01*
X31877000Y5080000D02*
X38610000Y5080000D01*
X28956000Y2159000D02*
X31877000Y5080000D01*
X11049000Y5588000D02*
X13716000Y5588000D01*
X10668000Y5969000D02*
X11049000Y5588000D01*
X13716000Y5588000D02*
X14605000Y6477000D01*
X14605000Y6477000D02*
X16891000Y6477000D01*
X40495000Y10665000D02*
X41695000Y10665000D01*
X21209000Y2159000D02*
X28956000Y2159000D01*
X16891000Y6477000D02*
X21209000Y2159000D01*
G04 #@! TO.N,eTX*
X13970000Y9144000D02*
X13335000Y9779000D01*
X1651000Y11557000D02*
X1651000Y14605000D01*
X3429000Y9779000D02*
X1651000Y11557000D01*
X13335000Y9779000D02*
X3429000Y9779000D01*
D24*
G04 #@! TO.N,+5V*
X29083000Y6477000D02*
X29591000Y6477000D01*
X30779000Y7665000D02*
X36695000Y7665000D01*
X29591000Y6477000D02*
X30779000Y7665000D01*
D23*
G04 #@! TO.N,eRX*
X4318000Y11938000D02*
X4318000Y13970000D01*
X5207000Y11049000D02*
X4318000Y11938000D01*
X15113000Y11049000D02*
X5207000Y11049000D01*
X16256000Y7874000D02*
X16256000Y9906000D01*
X16256000Y9906000D02*
X15113000Y11049000D01*
G04 #@! TD*
D25*
G04 #@! TO.N,GND*
G36*
X25411978Y16943022D02*
X25068387Y16498327D01*
X24921128Y15955995D01*
X25105082Y15730000D01*
X26185000Y15730000D01*
X26185000Y15750000D01*
X26531000Y15750000D01*
X26531000Y15730000D01*
X27610918Y15730000D01*
X27794872Y15955995D01*
X27647613Y16498327D01*
X27304022Y16943022D01*
X26920055Y17163000D01*
X44178353Y17163000D01*
X45302235Y17088352D01*
X46390022Y16869015D01*
X47439234Y16507742D01*
X48431464Y16010872D01*
X49349252Y15387143D01*
X50176488Y14647508D01*
X50898636Y13804964D01*
X51503012Y12874307D01*
X51978990Y11871900D01*
X52318214Y10815342D01*
X52514720Y9723206D01*
X52565058Y8614675D01*
X52468343Y7509216D01*
X52226275Y6426266D01*
X51843108Y5384848D01*
X51325566Y4403243D01*
X50682755Y3498720D01*
X49925956Y2687151D01*
X49068471Y1982806D01*
X48125363Y1398055D01*
X47113211Y943175D01*
X46049782Y626153D01*
X44948549Y451736D01*
X44183613Y417000D01*
X33432097Y417000D01*
X33544137Y491863D01*
X33584696Y552564D01*
X35441755Y2409622D01*
X35902362Y2600412D01*
X35966950Y2665000D01*
X40292003Y2665000D01*
X40394994Y2147230D01*
X40688287Y1708287D01*
X41127230Y1414994D01*
X41514304Y1338000D01*
X42175696Y1338000D01*
X42562770Y1414994D01*
X43001713Y1708287D01*
X43295006Y2147230D01*
X43397997Y2665000D01*
X43295006Y3182770D01*
X43001713Y3621713D01*
X42562770Y3915006D01*
X42175696Y3992000D01*
X41514304Y3992000D01*
X41127230Y3915006D01*
X40688287Y3621713D01*
X40394994Y3182770D01*
X40292003Y2665000D01*
X35966950Y2665000D01*
X36261588Y2959638D01*
X36456000Y3428989D01*
X36456000Y3937011D01*
X36283691Y4353000D01*
X38538405Y4353000D01*
X38610000Y4338759D01*
X38681595Y4353000D01*
X38681599Y4353000D01*
X38893661Y4395182D01*
X39134137Y4555863D01*
X39174696Y4616564D01*
X39723132Y5165000D01*
X43492003Y5165000D01*
X43594994Y4647230D01*
X43888287Y4208287D01*
X44327230Y3914994D01*
X44714304Y3838000D01*
X45375696Y3838000D01*
X45762770Y3914994D01*
X46201713Y4208287D01*
X46495006Y4647230D01*
X46597997Y5165000D01*
X46495006Y5682770D01*
X46201713Y6121713D01*
X45762770Y6415006D01*
X45375696Y6492000D01*
X44714304Y6492000D01*
X44327230Y6415006D01*
X43888287Y6121713D01*
X43594994Y5682770D01*
X43492003Y5165000D01*
X39723132Y5165000D01*
X39958440Y5400307D01*
X40019136Y5440863D01*
X40059692Y5501559D01*
X40059694Y5501561D01*
X40179818Y5681339D01*
X40186511Y5714989D01*
X40222000Y5893401D01*
X40222000Y5893404D01*
X40236241Y5964999D01*
X40222000Y6036594D01*
X40222000Y7665000D01*
X40292003Y7665000D01*
X40394994Y7147230D01*
X40688287Y6708287D01*
X41127230Y6414994D01*
X41514304Y6338000D01*
X42175696Y6338000D01*
X42562770Y6414994D01*
X43001713Y6708287D01*
X43295006Y7147230D01*
X43397997Y7665000D01*
X43295006Y8182770D01*
X43001713Y8621713D01*
X42562770Y8915006D01*
X42175696Y8992000D01*
X41514304Y8992000D01*
X41127230Y8915006D01*
X40688287Y8621713D01*
X40394994Y8182770D01*
X40292003Y7665000D01*
X40222000Y7665000D01*
X40222000Y9363868D01*
X40706092Y9847958D01*
X40971638Y9582412D01*
X41440989Y9388000D01*
X41949011Y9388000D01*
X42418362Y9582412D01*
X42750950Y9915000D01*
X45770921Y9915000D01*
X45858389Y9475267D01*
X46107478Y9102478D01*
X46271423Y8992934D01*
X46268704Y8992393D01*
X46013278Y8821722D01*
X45842607Y8566296D01*
X45782676Y8265001D01*
X45782676Y7564999D01*
X45842607Y7263704D01*
X46013278Y7008278D01*
X46268704Y6837607D01*
X46569999Y6777676D01*
X47820001Y6777676D01*
X48121296Y6837607D01*
X48376722Y7008278D01*
X48547393Y7263704D01*
X48607324Y7564999D01*
X48607324Y8265001D01*
X48547393Y8566296D01*
X48376722Y8821722D01*
X48121296Y8992393D01*
X48118577Y8992934D01*
X48282522Y9102478D01*
X48531611Y9475267D01*
X48619079Y9915000D01*
X48531611Y10354733D01*
X48282522Y10727522D01*
X47909733Y10976611D01*
X47580999Y11042000D01*
X46809001Y11042000D01*
X46480267Y10976611D01*
X46107478Y10727522D01*
X45858389Y10354733D01*
X45770921Y9915000D01*
X42750950Y9915000D01*
X42777588Y9941638D01*
X42972000Y10410989D01*
X42972000Y10724347D01*
X43104456Y10698000D01*
X43785544Y10698000D01*
X44201788Y10780796D01*
X44673809Y11096191D01*
X44989204Y11568212D01*
X45099956Y12125000D01*
X44989204Y12681788D01*
X44737841Y13057978D01*
X44956812Y13148679D01*
X45161321Y13353187D01*
X45272000Y13620390D01*
X45272000Y14310250D01*
X45090250Y14492000D01*
X43618000Y14492000D01*
X43618000Y14472000D01*
X43272000Y14472000D01*
X43272000Y14492000D01*
X41799750Y14492000D01*
X41618000Y14310250D01*
X41618000Y13620390D01*
X41728679Y13353187D01*
X41933188Y13148679D01*
X42152159Y13057978D01*
X41900796Y12681788D01*
X41790044Y12125000D01*
X41826445Y11942000D01*
X41440989Y11942000D01*
X40971638Y11747588D01*
X40616050Y11392000D01*
X40566595Y11392000D01*
X40495000Y11406241D01*
X40423405Y11392000D01*
X40423401Y11392000D01*
X40211339Y11349818D01*
X40031561Y11229695D01*
X40031558Y11229692D01*
X39970863Y11189137D01*
X39930307Y11128441D01*
X39222000Y10420133D01*
X39222000Y12636050D01*
X39277588Y12691638D01*
X39472000Y13160989D01*
X39472000Y13669011D01*
X39357697Y13944963D01*
X39564713Y14083287D01*
X39858006Y14522231D01*
X39935000Y14909305D01*
X39935000Y15570696D01*
X39907369Y15709610D01*
X41618000Y15709610D01*
X41618000Y15019750D01*
X41799750Y14838000D01*
X43272000Y14838000D01*
X43272000Y16110250D01*
X43618000Y16110250D01*
X43618000Y14838000D01*
X45090250Y14838000D01*
X45272000Y15019750D01*
X45272000Y15709610D01*
X45161321Y15976813D01*
X44956812Y16181321D01*
X44689609Y16292000D01*
X43799750Y16292000D01*
X43618000Y16110250D01*
X43272000Y16110250D01*
X43090250Y16292000D01*
X42200391Y16292000D01*
X41933188Y16181321D01*
X41728679Y15976813D01*
X41618000Y15709610D01*
X39907369Y15709610D01*
X39858006Y15957770D01*
X39564712Y16396713D01*
X39125769Y16690006D01*
X38608000Y16792997D01*
X38090230Y16690006D01*
X37651287Y16396712D01*
X37435106Y16073175D01*
X37385391Y16215632D01*
X36988289Y16660734D01*
X36476207Y16911426D01*
X36241000Y16774080D01*
X36241000Y15413000D01*
X36261000Y15413000D01*
X36261000Y15067000D01*
X36241000Y15067000D01*
X36241000Y13705920D01*
X36476207Y13568574D01*
X36978190Y13814322D01*
X36918000Y13669011D01*
X36918000Y13160989D01*
X37112412Y12691638D01*
X37471638Y12332412D01*
X37768001Y12209654D01*
X37768000Y8397950D01*
X37418362Y8747588D01*
X36949011Y8942000D01*
X36440989Y8942000D01*
X35971638Y8747588D01*
X35766050Y8542000D01*
X30865370Y8542000D01*
X30779000Y8559180D01*
X30692630Y8542000D01*
X30692625Y8542000D01*
X30436812Y8491116D01*
X30436810Y8491115D01*
X30436811Y8491115D01*
X30219943Y8346209D01*
X30219940Y8346206D01*
X30146719Y8297281D01*
X30097794Y8224060D01*
X29542584Y7668849D01*
X29337011Y7754000D01*
X28828989Y7754000D01*
X28359638Y7559588D01*
X28000412Y7200362D01*
X27806000Y6731011D01*
X27806000Y6222989D01*
X28000412Y5753638D01*
X28359638Y5394412D01*
X28828989Y5200000D01*
X29190868Y5200000D01*
X28273868Y4283000D01*
X24446950Y4283000D01*
X24091362Y4638588D01*
X23622011Y4833000D01*
X23113989Y4833000D01*
X22644638Y4638588D01*
X22285412Y4279362D01*
X22091000Y3810011D01*
X22091000Y3301989D01*
X22263309Y2886000D01*
X21510133Y2886000D01*
X17455696Y6940436D01*
X17415137Y7001137D01*
X17279630Y7091680D01*
X17338588Y7150638D01*
X17533000Y7619989D01*
X17533000Y8128011D01*
X17338588Y8597362D01*
X16983000Y8952950D01*
X16983000Y9834407D01*
X16997241Y9906001D01*
X16983000Y9977595D01*
X16983000Y9977599D01*
X16940818Y10189661D01*
X16780137Y10430137D01*
X16719438Y10470695D01*
X15677696Y11512436D01*
X15637137Y11573137D01*
X15396661Y11733818D01*
X15184599Y11776000D01*
X15184595Y11776000D01*
X15113000Y11790241D01*
X15041405Y11776000D01*
X11788132Y11776000D01*
X12239133Y12227000D01*
X15700868Y12227000D01*
X19755306Y8172561D01*
X19795863Y8111863D01*
X20036339Y7951182D01*
X20248401Y7909000D01*
X20248405Y7909000D01*
X20319999Y7894759D01*
X20391593Y7909000D01*
X26852405Y7909000D01*
X26924000Y7894759D01*
X26995595Y7909000D01*
X26995599Y7909000D01*
X27207661Y7951182D01*
X27448137Y8111863D01*
X27488696Y8172564D01*
X31670133Y12354000D01*
X32322050Y12354000D01*
X32677638Y11998412D01*
X33146989Y11804000D01*
X33655011Y11804000D01*
X34124362Y11998412D01*
X34483588Y12357638D01*
X34678000Y12826989D01*
X34678000Y13335011D01*
X34483588Y13804362D01*
X34316835Y13971115D01*
X34484713Y14083287D01*
X34700894Y14406825D01*
X34750609Y14264368D01*
X35147711Y13819266D01*
X35659793Y13568574D01*
X35895000Y13705920D01*
X35895000Y15067000D01*
X35875000Y15067000D01*
X35875000Y15413000D01*
X35895000Y15413000D01*
X35895000Y16774080D01*
X35659793Y16911426D01*
X35147711Y16660734D01*
X34750609Y16215632D01*
X34700894Y16073175D01*
X34484712Y16396713D01*
X34045769Y16690006D01*
X33528000Y16792997D01*
X33010230Y16690006D01*
X32571287Y16396712D01*
X32277994Y15957769D01*
X32258000Y15857253D01*
X32238006Y15957770D01*
X31944712Y16396713D01*
X31505769Y16690006D01*
X30988000Y16792997D01*
X30470230Y16690006D01*
X30031287Y16396712D01*
X29962374Y16293576D01*
X29933362Y16322588D01*
X29464011Y16517000D01*
X28955989Y16517000D01*
X28486638Y16322588D01*
X28127412Y15963362D01*
X27933000Y15494011D01*
X27933000Y14985989D01*
X28127412Y14516638D01*
X28483001Y14161049D01*
X28483001Y13509134D01*
X25733868Y10760000D01*
X21002133Y10760000D01*
X20316057Y11446076D01*
X20704862Y11477214D01*
X21017175Y11606579D01*
X21077614Y11862727D01*
X24388386Y11862727D01*
X24448825Y11606579D01*
X24988977Y11431894D01*
X25554862Y11477214D01*
X25867175Y11606579D01*
X25927614Y11862727D01*
X25158000Y12632341D01*
X24388386Y11862727D01*
X21077614Y11862727D01*
X20308000Y12632341D01*
X20293858Y12618199D01*
X20049199Y12862858D01*
X20063341Y12877000D01*
X20552659Y12877000D01*
X21322273Y12107386D01*
X21578421Y12167825D01*
X21753106Y12707977D01*
X21726033Y13046023D01*
X23712894Y13046023D01*
X23758214Y12480138D01*
X23887579Y12167825D01*
X24143727Y12107386D01*
X24913341Y12877000D01*
X25402659Y12877000D01*
X26172273Y12107386D01*
X26428421Y12167825D01*
X26603106Y12707977D01*
X26557786Y13273862D01*
X26428421Y13586175D01*
X26172273Y13646614D01*
X25402659Y12877000D01*
X24913341Y12877000D01*
X24143727Y13646614D01*
X23887579Y13586175D01*
X23712894Y13046023D01*
X21726033Y13046023D01*
X21707786Y13273862D01*
X21578421Y13586175D01*
X21322273Y13646614D01*
X20552659Y12877000D01*
X20063341Y12877000D01*
X19293727Y13646614D01*
X19037579Y13586175D01*
X18862894Y13046023D01*
X18875673Y12886459D01*
X17201696Y14560436D01*
X17166026Y14613820D01*
X17472646Y14760695D01*
X17706997Y15025906D01*
X17818387Y14615673D01*
X18161978Y14170978D01*
X18649592Y13891620D01*
X18715545Y13885028D01*
X18935000Y14023826D01*
X18935000Y15384000D01*
X19281000Y15384000D01*
X19281000Y14023826D01*
X19500455Y13885028D01*
X19540617Y13889042D01*
X20308000Y13121659D01*
X21077614Y13891273D01*
X24388386Y13891273D01*
X25158000Y13121659D01*
X25925383Y13889042D01*
X25965545Y13885028D01*
X26185000Y14023826D01*
X26185000Y15384000D01*
X26531000Y15384000D01*
X26531000Y14023826D01*
X26750455Y13885028D01*
X26816408Y13891620D01*
X27304022Y14170978D01*
X27647613Y14615673D01*
X27794872Y15158005D01*
X27610918Y15384000D01*
X26531000Y15384000D01*
X26185000Y15384000D01*
X25105082Y15384000D01*
X24921128Y15158005D01*
X25068387Y14615673D01*
X25297064Y14319707D01*
X24761138Y14276786D01*
X24448825Y14147421D01*
X24388386Y13891273D01*
X21077614Y13891273D01*
X21017175Y14147421D01*
X20477023Y14322106D01*
X20150591Y14295963D01*
X20397613Y14615673D01*
X20544872Y15158005D01*
X20360918Y15384000D01*
X19281000Y15384000D01*
X18935000Y15384000D01*
X18915000Y15384000D01*
X18915000Y15730000D01*
X18935000Y15730000D01*
X18935000Y15750000D01*
X19281000Y15750000D01*
X19281000Y15730000D01*
X20360918Y15730000D01*
X20544872Y15955995D01*
X20397613Y16498327D01*
X20054022Y16943022D01*
X19670055Y17163000D01*
X25795945Y17163000D01*
X25411978Y16943022D01*
X25411978Y16943022D01*
G37*
X25411978Y16943022D02*
X25068387Y16498327D01*
X24921128Y15955995D01*
X25105082Y15730000D01*
X26185000Y15730000D01*
X26185000Y15750000D01*
X26531000Y15750000D01*
X26531000Y15730000D01*
X27610918Y15730000D01*
X27794872Y15955995D01*
X27647613Y16498327D01*
X27304022Y16943022D01*
X26920055Y17163000D01*
X44178353Y17163000D01*
X45302235Y17088352D01*
X46390022Y16869015D01*
X47439234Y16507742D01*
X48431464Y16010872D01*
X49349252Y15387143D01*
X50176488Y14647508D01*
X50898636Y13804964D01*
X51503012Y12874307D01*
X51978990Y11871900D01*
X52318214Y10815342D01*
X52514720Y9723206D01*
X52565058Y8614675D01*
X52468343Y7509216D01*
X52226275Y6426266D01*
X51843108Y5384848D01*
X51325566Y4403243D01*
X50682755Y3498720D01*
X49925956Y2687151D01*
X49068471Y1982806D01*
X48125363Y1398055D01*
X47113211Y943175D01*
X46049782Y626153D01*
X44948549Y451736D01*
X44183613Y417000D01*
X33432097Y417000D01*
X33544137Y491863D01*
X33584696Y552564D01*
X35441755Y2409622D01*
X35902362Y2600412D01*
X35966950Y2665000D01*
X40292003Y2665000D01*
X40394994Y2147230D01*
X40688287Y1708287D01*
X41127230Y1414994D01*
X41514304Y1338000D01*
X42175696Y1338000D01*
X42562770Y1414994D01*
X43001713Y1708287D01*
X43295006Y2147230D01*
X43397997Y2665000D01*
X43295006Y3182770D01*
X43001713Y3621713D01*
X42562770Y3915006D01*
X42175696Y3992000D01*
X41514304Y3992000D01*
X41127230Y3915006D01*
X40688287Y3621713D01*
X40394994Y3182770D01*
X40292003Y2665000D01*
X35966950Y2665000D01*
X36261588Y2959638D01*
X36456000Y3428989D01*
X36456000Y3937011D01*
X36283691Y4353000D01*
X38538405Y4353000D01*
X38610000Y4338759D01*
X38681595Y4353000D01*
X38681599Y4353000D01*
X38893661Y4395182D01*
X39134137Y4555863D01*
X39174696Y4616564D01*
X39723132Y5165000D01*
X43492003Y5165000D01*
X43594994Y4647230D01*
X43888287Y4208287D01*
X44327230Y3914994D01*
X44714304Y3838000D01*
X45375696Y3838000D01*
X45762770Y3914994D01*
X46201713Y4208287D01*
X46495006Y4647230D01*
X46597997Y5165000D01*
X46495006Y5682770D01*
X46201713Y6121713D01*
X45762770Y6415006D01*
X45375696Y6492000D01*
X44714304Y6492000D01*
X44327230Y6415006D01*
X43888287Y6121713D01*
X43594994Y5682770D01*
X43492003Y5165000D01*
X39723132Y5165000D01*
X39958440Y5400307D01*
X40019136Y5440863D01*
X40059692Y5501559D01*
X40059694Y5501561D01*
X40179818Y5681339D01*
X40186511Y5714989D01*
X40222000Y5893401D01*
X40222000Y5893404D01*
X40236241Y5964999D01*
X40222000Y6036594D01*
X40222000Y7665000D01*
X40292003Y7665000D01*
X40394994Y7147230D01*
X40688287Y6708287D01*
X41127230Y6414994D01*
X41514304Y6338000D01*
X42175696Y6338000D01*
X42562770Y6414994D01*
X43001713Y6708287D01*
X43295006Y7147230D01*
X43397997Y7665000D01*
X43295006Y8182770D01*
X43001713Y8621713D01*
X42562770Y8915006D01*
X42175696Y8992000D01*
X41514304Y8992000D01*
X41127230Y8915006D01*
X40688287Y8621713D01*
X40394994Y8182770D01*
X40292003Y7665000D01*
X40222000Y7665000D01*
X40222000Y9363868D01*
X40706092Y9847958D01*
X40971638Y9582412D01*
X41440989Y9388000D01*
X41949011Y9388000D01*
X42418362Y9582412D01*
X42750950Y9915000D01*
X45770921Y9915000D01*
X45858389Y9475267D01*
X46107478Y9102478D01*
X46271423Y8992934D01*
X46268704Y8992393D01*
X46013278Y8821722D01*
X45842607Y8566296D01*
X45782676Y8265001D01*
X45782676Y7564999D01*
X45842607Y7263704D01*
X46013278Y7008278D01*
X46268704Y6837607D01*
X46569999Y6777676D01*
X47820001Y6777676D01*
X48121296Y6837607D01*
X48376722Y7008278D01*
X48547393Y7263704D01*
X48607324Y7564999D01*
X48607324Y8265001D01*
X48547393Y8566296D01*
X48376722Y8821722D01*
X48121296Y8992393D01*
X48118577Y8992934D01*
X48282522Y9102478D01*
X48531611Y9475267D01*
X48619079Y9915000D01*
X48531611Y10354733D01*
X48282522Y10727522D01*
X47909733Y10976611D01*
X47580999Y11042000D01*
X46809001Y11042000D01*
X46480267Y10976611D01*
X46107478Y10727522D01*
X45858389Y10354733D01*
X45770921Y9915000D01*
X42750950Y9915000D01*
X42777588Y9941638D01*
X42972000Y10410989D01*
X42972000Y10724347D01*
X43104456Y10698000D01*
X43785544Y10698000D01*
X44201788Y10780796D01*
X44673809Y11096191D01*
X44989204Y11568212D01*
X45099956Y12125000D01*
X44989204Y12681788D01*
X44737841Y13057978D01*
X44956812Y13148679D01*
X45161321Y13353187D01*
X45272000Y13620390D01*
X45272000Y14310250D01*
X45090250Y14492000D01*
X43618000Y14492000D01*
X43618000Y14472000D01*
X43272000Y14472000D01*
X43272000Y14492000D01*
X41799750Y14492000D01*
X41618000Y14310250D01*
X41618000Y13620390D01*
X41728679Y13353187D01*
X41933188Y13148679D01*
X42152159Y13057978D01*
X41900796Y12681788D01*
X41790044Y12125000D01*
X41826445Y11942000D01*
X41440989Y11942000D01*
X40971638Y11747588D01*
X40616050Y11392000D01*
X40566595Y11392000D01*
X40495000Y11406241D01*
X40423405Y11392000D01*
X40423401Y11392000D01*
X40211339Y11349818D01*
X40031561Y11229695D01*
X40031558Y11229692D01*
X39970863Y11189137D01*
X39930307Y11128441D01*
X39222000Y10420133D01*
X39222000Y12636050D01*
X39277588Y12691638D01*
X39472000Y13160989D01*
X39472000Y13669011D01*
X39357697Y13944963D01*
X39564713Y14083287D01*
X39858006Y14522231D01*
X39935000Y14909305D01*
X39935000Y15570696D01*
X39907369Y15709610D01*
X41618000Y15709610D01*
X41618000Y15019750D01*
X41799750Y14838000D01*
X43272000Y14838000D01*
X43272000Y16110250D01*
X43618000Y16110250D01*
X43618000Y14838000D01*
X45090250Y14838000D01*
X45272000Y15019750D01*
X45272000Y15709610D01*
X45161321Y15976813D01*
X44956812Y16181321D01*
X44689609Y16292000D01*
X43799750Y16292000D01*
X43618000Y16110250D01*
X43272000Y16110250D01*
X43090250Y16292000D01*
X42200391Y16292000D01*
X41933188Y16181321D01*
X41728679Y15976813D01*
X41618000Y15709610D01*
X39907369Y15709610D01*
X39858006Y15957770D01*
X39564712Y16396713D01*
X39125769Y16690006D01*
X38608000Y16792997D01*
X38090230Y16690006D01*
X37651287Y16396712D01*
X37435106Y16073175D01*
X37385391Y16215632D01*
X36988289Y16660734D01*
X36476207Y16911426D01*
X36241000Y16774080D01*
X36241000Y15413000D01*
X36261000Y15413000D01*
X36261000Y15067000D01*
X36241000Y15067000D01*
X36241000Y13705920D01*
X36476207Y13568574D01*
X36978190Y13814322D01*
X36918000Y13669011D01*
X36918000Y13160989D01*
X37112412Y12691638D01*
X37471638Y12332412D01*
X37768001Y12209654D01*
X37768000Y8397950D01*
X37418362Y8747588D01*
X36949011Y8942000D01*
X36440989Y8942000D01*
X35971638Y8747588D01*
X35766050Y8542000D01*
X30865370Y8542000D01*
X30779000Y8559180D01*
X30692630Y8542000D01*
X30692625Y8542000D01*
X30436812Y8491116D01*
X30436810Y8491115D01*
X30436811Y8491115D01*
X30219943Y8346209D01*
X30219940Y8346206D01*
X30146719Y8297281D01*
X30097794Y8224060D01*
X29542584Y7668849D01*
X29337011Y7754000D01*
X28828989Y7754000D01*
X28359638Y7559588D01*
X28000412Y7200362D01*
X27806000Y6731011D01*
X27806000Y6222989D01*
X28000412Y5753638D01*
X28359638Y5394412D01*
X28828989Y5200000D01*
X29190868Y5200000D01*
X28273868Y4283000D01*
X24446950Y4283000D01*
X24091362Y4638588D01*
X23622011Y4833000D01*
X23113989Y4833000D01*
X22644638Y4638588D01*
X22285412Y4279362D01*
X22091000Y3810011D01*
X22091000Y3301989D01*
X22263309Y2886000D01*
X21510133Y2886000D01*
X17455696Y6940436D01*
X17415137Y7001137D01*
X17279630Y7091680D01*
X17338588Y7150638D01*
X17533000Y7619989D01*
X17533000Y8128011D01*
X17338588Y8597362D01*
X16983000Y8952950D01*
X16983000Y9834407D01*
X16997241Y9906001D01*
X16983000Y9977595D01*
X16983000Y9977599D01*
X16940818Y10189661D01*
X16780137Y10430137D01*
X16719438Y10470695D01*
X15677696Y11512436D01*
X15637137Y11573137D01*
X15396661Y11733818D01*
X15184599Y11776000D01*
X15184595Y11776000D01*
X15113000Y11790241D01*
X15041405Y11776000D01*
X11788132Y11776000D01*
X12239133Y12227000D01*
X15700868Y12227000D01*
X19755306Y8172561D01*
X19795863Y8111863D01*
X20036339Y7951182D01*
X20248401Y7909000D01*
X20248405Y7909000D01*
X20319999Y7894759D01*
X20391593Y7909000D01*
X26852405Y7909000D01*
X26924000Y7894759D01*
X26995595Y7909000D01*
X26995599Y7909000D01*
X27207661Y7951182D01*
X27448137Y8111863D01*
X27488696Y8172564D01*
X31670133Y12354000D01*
X32322050Y12354000D01*
X32677638Y11998412D01*
X33146989Y11804000D01*
X33655011Y11804000D01*
X34124362Y11998412D01*
X34483588Y12357638D01*
X34678000Y12826989D01*
X34678000Y13335011D01*
X34483588Y13804362D01*
X34316835Y13971115D01*
X34484713Y14083287D01*
X34700894Y14406825D01*
X34750609Y14264368D01*
X35147711Y13819266D01*
X35659793Y13568574D01*
X35895000Y13705920D01*
X35895000Y15067000D01*
X35875000Y15067000D01*
X35875000Y15413000D01*
X35895000Y15413000D01*
X35895000Y16774080D01*
X35659793Y16911426D01*
X35147711Y16660734D01*
X34750609Y16215632D01*
X34700894Y16073175D01*
X34484712Y16396713D01*
X34045769Y16690006D01*
X33528000Y16792997D01*
X33010230Y16690006D01*
X32571287Y16396712D01*
X32277994Y15957769D01*
X32258000Y15857253D01*
X32238006Y15957770D01*
X31944712Y16396713D01*
X31505769Y16690006D01*
X30988000Y16792997D01*
X30470230Y16690006D01*
X30031287Y16396712D01*
X29962374Y16293576D01*
X29933362Y16322588D01*
X29464011Y16517000D01*
X28955989Y16517000D01*
X28486638Y16322588D01*
X28127412Y15963362D01*
X27933000Y15494011D01*
X27933000Y14985989D01*
X28127412Y14516638D01*
X28483001Y14161049D01*
X28483001Y13509134D01*
X25733868Y10760000D01*
X21002133Y10760000D01*
X20316057Y11446076D01*
X20704862Y11477214D01*
X21017175Y11606579D01*
X21077614Y11862727D01*
X24388386Y11862727D01*
X24448825Y11606579D01*
X24988977Y11431894D01*
X25554862Y11477214D01*
X25867175Y11606579D01*
X25927614Y11862727D01*
X25158000Y12632341D01*
X24388386Y11862727D01*
X21077614Y11862727D01*
X20308000Y12632341D01*
X20293858Y12618199D01*
X20049199Y12862858D01*
X20063341Y12877000D01*
X20552659Y12877000D01*
X21322273Y12107386D01*
X21578421Y12167825D01*
X21753106Y12707977D01*
X21726033Y13046023D01*
X23712894Y13046023D01*
X23758214Y12480138D01*
X23887579Y12167825D01*
X24143727Y12107386D01*
X24913341Y12877000D01*
X25402659Y12877000D01*
X26172273Y12107386D01*
X26428421Y12167825D01*
X26603106Y12707977D01*
X26557786Y13273862D01*
X26428421Y13586175D01*
X26172273Y13646614D01*
X25402659Y12877000D01*
X24913341Y12877000D01*
X24143727Y13646614D01*
X23887579Y13586175D01*
X23712894Y13046023D01*
X21726033Y13046023D01*
X21707786Y13273862D01*
X21578421Y13586175D01*
X21322273Y13646614D01*
X20552659Y12877000D01*
X20063341Y12877000D01*
X19293727Y13646614D01*
X19037579Y13586175D01*
X18862894Y13046023D01*
X18875673Y12886459D01*
X17201696Y14560436D01*
X17166026Y14613820D01*
X17472646Y14760695D01*
X17706997Y15025906D01*
X17818387Y14615673D01*
X18161978Y14170978D01*
X18649592Y13891620D01*
X18715545Y13885028D01*
X18935000Y14023826D01*
X18935000Y15384000D01*
X19281000Y15384000D01*
X19281000Y14023826D01*
X19500455Y13885028D01*
X19540617Y13889042D01*
X20308000Y13121659D01*
X21077614Y13891273D01*
X24388386Y13891273D01*
X25158000Y13121659D01*
X25925383Y13889042D01*
X25965545Y13885028D01*
X26185000Y14023826D01*
X26185000Y15384000D01*
X26531000Y15384000D01*
X26531000Y14023826D01*
X26750455Y13885028D01*
X26816408Y13891620D01*
X27304022Y14170978D01*
X27647613Y14615673D01*
X27794872Y15158005D01*
X27610918Y15384000D01*
X26531000Y15384000D01*
X26185000Y15384000D01*
X25105082Y15384000D01*
X24921128Y15158005D01*
X25068387Y14615673D01*
X25297064Y14319707D01*
X24761138Y14276786D01*
X24448825Y14147421D01*
X24388386Y13891273D01*
X21077614Y13891273D01*
X21017175Y14147421D01*
X20477023Y14322106D01*
X20150591Y14295963D01*
X20397613Y14615673D01*
X20544872Y15158005D01*
X20360918Y15384000D01*
X19281000Y15384000D01*
X18935000Y15384000D01*
X18915000Y15384000D01*
X18915000Y15730000D01*
X18935000Y15730000D01*
X18935000Y15750000D01*
X19281000Y15750000D01*
X19281000Y15730000D01*
X20360918Y15730000D01*
X20544872Y15955995D01*
X20397613Y16498327D01*
X20054022Y16943022D01*
X19670055Y17163000D01*
X25795945Y17163000D01*
X25411978Y16943022D01*
G36*
X16865000Y16659000D02*
X16885000Y16659000D01*
X16885000Y16313000D01*
X16865000Y16313000D01*
X16865000Y16293000D01*
X16519000Y16293000D01*
X16519000Y16313000D01*
X16499000Y16313000D01*
X16499000Y16659000D01*
X16519000Y16659000D01*
X16519000Y16679000D01*
X16865000Y16679000D01*
X16865000Y16659000D01*
X16865000Y16659000D01*
G37*
X16865000Y16659000D02*
X16885000Y16659000D01*
X16885000Y16313000D01*
X16865000Y16313000D01*
X16865000Y16293000D01*
X16519000Y16293000D01*
X16519000Y16313000D01*
X16499000Y16313000D01*
X16499000Y16659000D01*
X16519000Y16659000D01*
X16519000Y16679000D01*
X16865000Y16679000D01*
X16865000Y16659000D01*
G04 #@! TD*
M02*
