G04 #@! TF.GenerationSoftware,KiCad,Pcbnew,5.0.2-bee76a0~70~ubuntu18.04.1*
G04 #@! TF.CreationDate,2020-04-19T15:07:52-04:00*
G04 #@! TF.ProjectId,weeSpindel,77656553-7069-46e6-9465-6c2e6b696361,rev?*
G04 #@! TF.SameCoordinates,PX56c8cc0PY6dac2c0*
G04 #@! TF.FileFunction,Copper,L1,Top*
G04 #@! TF.FilePolarity,Positive*
%FSLAX46Y46*%
G04 Gerber Fmt 4.6, Leading zero omitted, Abs format (unit mm)*
G04 Created by KiCad (PCBNEW 5.0.2-bee76a0~70~ubuntu18.04.1) date Sun 19 Apr 2020 03:07:52 PM EDT*
%MOMM*%
%LPD*%
G01*
G04 APERTURE LIST*
G04 #@! TA.AperFunction,ComponentPad*
%ADD10C,1.000000*%
G04 #@! TD*
G04 #@! TA.AperFunction,ComponentPad*
%ADD11R,2.000000X10.000000*%
G04 #@! TD*
G04 #@! TA.AperFunction,ComponentPad*
%ADD12O,2.200000X1.800000*%
G04 #@! TD*
G04 #@! TA.AperFunction,ComponentPad*
%ADD13R,2.200000X1.800000*%
G04 #@! TD*
G04 #@! TA.AperFunction,ComponentPad*
%ADD14O,1.600000X2.000000*%
G04 #@! TD*
G04 #@! TA.AperFunction,ComponentPad*
%ADD15R,1.100000X2.500000*%
G04 #@! TD*
G04 #@! TA.AperFunction,ComponentPad*
%ADD16O,1.100000X2.500000*%
G04 #@! TD*
G04 #@! TA.AperFunction,ComponentPad*
%ADD17O,2.000000X1.600000*%
G04 #@! TD*
G04 #@! TA.AperFunction,ViaPad*
%ADD18C,1.500000*%
G04 #@! TD*
G04 #@! TA.AperFunction,Conductor*
%ADD19C,0.700000*%
G04 #@! TD*
G04 #@! TA.AperFunction,Conductor*
%ADD20C,0.400000*%
G04 #@! TD*
G04 #@! TA.AperFunction,Conductor*
%ADD21C,0.254000*%
G04 #@! TD*
G04 APERTURE END LIST*
D10*
G04 #@! TO.P,BT1,2*
G04 #@! TO.N,GND*
X102500000Y9000000D03*
X102500000Y9500000D03*
X102500000Y11000000D03*
X102500000Y10500000D03*
G04 #@! TO.P,BT1,1*
G04 #@! TO.N,Net-(BT1-Pad1)*
X46500000Y10500000D03*
X46500000Y9500000D03*
X46500000Y9000000D03*
X46500000Y11000000D03*
D11*
G04 #@! TO.P,BT1,2*
G04 #@! TO.N,GND*
X102500000Y10000000D03*
G04 #@! TO.P,BT1,1*
G04 #@! TO.N,Net-(BT1-Pad1)*
X46500000Y10000000D03*
G04 #@! TD*
D12*
G04 #@! TO.P,JP1,2*
G04 #@! TO.N,Net-(JP1-Pad2)*
X43250000Y13460000D03*
D13*
G04 #@! TO.P,JP1,1*
G04 #@! TO.N,GND*
X43250000Y16000000D03*
G04 #@! TD*
D14*
G04 #@! TO.P,J1,4*
G04 #@! TO.N,SDA*
X30793000Y16575000D03*
G04 #@! TO.P,J1,3*
G04 #@! TO.N,SCL*
X33333000Y16575000D03*
G04 #@! TO.P,J1,2*
G04 #@! TO.N,GND*
X35873000Y16575000D03*
G04 #@! TO.P,J1,1*
G04 #@! TO.N,3V3*
X38413000Y16575000D03*
G04 #@! TD*
D15*
G04 #@! TO.P,U1,1*
G04 #@! TO.N,Net-(R3-Pad2)*
X2497000Y2421000D03*
D16*
G04 #@! TO.P,U1,2*
G04 #@! TO.N,ADC*
X4497000Y2421000D03*
G04 #@! TO.P,U1,3*
G04 #@! TO.N,Net-(C7-Pad2)*
X6497000Y2421000D03*
G04 #@! TO.P,U1,4*
G04 #@! TO.N,Net-(R3-Pad1)*
X8497000Y2421000D03*
G04 #@! TO.P,U1,5*
G04 #@! TO.N,Net-(JP1-Pad2)*
X10497000Y2421000D03*
G04 #@! TO.P,U1,6*
G04 #@! TO.N,Net-(U1-Pad6)*
X12497000Y2421000D03*
G04 #@! TO.P,U1,7*
G04 #@! TO.N,Net-(U1-Pad7)*
X14497000Y2421000D03*
G04 #@! TO.P,U1,8*
G04 #@! TO.N,3V3*
X16497000Y2421000D03*
G04 #@! TO.P,U1,9*
G04 #@! TO.N,GND*
X16497000Y17821000D03*
G04 #@! TO.P,U1,10*
G04 #@! TO.N,Net-(R7-Pad2)*
X14497000Y17721000D03*
G04 #@! TO.P,U1,11*
G04 #@! TO.N,Net-(U1-Pad11)*
X12497000Y17821000D03*
G04 #@! TO.P,U1,12*
G04 #@! TO.N,Net-(R4-Pad1)*
X10497000Y17821000D03*
G04 #@! TO.P,U1,13*
G04 #@! TO.N,SDA*
X8497000Y17821000D03*
G04 #@! TO.P,U1,14*
G04 #@! TO.N,SCL*
X6497000Y17821000D03*
G04 #@! TO.P,U1,15*
G04 #@! TO.N,Net-(U1-Pad15)*
X4497000Y17821000D03*
G04 #@! TO.P,U1,16*
G04 #@! TO.N,Net-(U1-Pad16)*
X2497000Y17821000D03*
G04 #@! TD*
D17*
G04 #@! TO.P,SW1,3*
G04 #@! TO.N,N/C*
X41650000Y4000000D03*
G04 #@! TO.P,SW1,2*
G04 #@! TO.N,Net-(BT1-Pad1)*
X44850000Y6500000D03*
G04 #@! TO.P,SW1,1*
G04 #@! TO.N,Net-(C2-Pad1)*
X41650000Y9000000D03*
G04 #@! TD*
D18*
G04 #@! TO.N,GND*
X46000000Y17500000D03*
G04 #@! TO.N,3V3*
X16497000Y5721000D03*
X39000000Y8200000D03*
X38000000Y14750000D03*
X27700000Y8700000D03*
X29200000Y3000000D03*
X1500000Y6250000D03*
G04 #@! TO.N,ADC*
X19400000Y12200000D03*
X5250000Y6500000D03*
G04 #@! TO.N,SCL*
X30600000Y13900000D03*
X5700000Y14900000D03*
G04 #@! TO.N,SDA*
X8497000Y14921000D03*
X28000000Y16000000D03*
G04 #@! TO.N,Net-(JP1-Pad2)*
X41500000Y12000000D03*
X12750000Y8000000D03*
G04 #@! TO.N,Net-(C2-Pad1)*
X37250000Y11250000D03*
X25250000Y12000000D03*
G04 #@! TD*
D19*
G04 #@! TO.N,GND*
X102500000Y10000000D02*
X105000000Y10000000D01*
D20*
G04 #@! TO.N,3V3*
X39000000Y13750000D02*
X39000000Y8200000D01*
X38000000Y14750000D02*
X39000000Y13750000D01*
D19*
X29100000Y3100000D02*
X29200000Y3000000D01*
X27700000Y8700000D02*
X29100000Y7300000D01*
X29100000Y7300000D02*
X29100000Y3100000D01*
D20*
X14971000Y5721000D02*
X14000000Y4750000D01*
X16497000Y5721000D02*
X14971000Y5721000D01*
X14000000Y4750000D02*
X3000000Y4750000D01*
X3000000Y4750000D02*
X1500000Y6250000D01*
G04 #@! TO.N,ADC*
X11750000Y12500000D02*
X5750000Y6500000D01*
X5750000Y6500000D02*
X5250000Y6500000D01*
X19100000Y12500000D02*
X11750000Y12500000D01*
X19400000Y12200000D02*
X19100000Y12500000D01*
G04 #@! TO.N,SCL*
X10350000Y12750000D02*
X6500000Y12750000D01*
X6500000Y12750000D02*
X5700000Y13550000D01*
X5700000Y13550000D02*
X5700000Y14900000D01*
X11200000Y13600000D02*
X10350000Y12750000D01*
X30300000Y13600000D02*
X11200000Y13600000D01*
X30600000Y13900000D02*
X30300000Y13600000D01*
G04 #@! TO.N,SDA*
X8668000Y14750000D02*
X8497000Y14921000D01*
X26750000Y14750000D02*
X8668000Y14750000D01*
X28000000Y16000000D02*
X26750000Y14750000D01*
G04 #@! TO.N,Net-(JP1-Pad2)*
X34600000Y10400000D02*
X38500000Y6500000D01*
X38500000Y6500000D02*
X42000000Y6500000D01*
X15150000Y10400000D02*
X34600000Y10400000D01*
X42600000Y12000000D02*
X41500000Y12000000D01*
X12750000Y8000000D02*
X15150000Y10400000D01*
X44000000Y8500000D02*
X44000000Y10600000D01*
X42000000Y6500000D02*
X44000000Y8500000D01*
X44000000Y10600000D02*
X42600000Y12000000D01*
G04 #@! TO.N,Net-(C2-Pad1)*
X25250000Y12000000D02*
X36500000Y12000000D01*
X36500000Y12000000D02*
X37250000Y11250000D01*
G04 #@! TD*
D21*
G04 #@! TO.N,GND*
G36*
X100107235Y18423352D02*
X101195022Y18204015D01*
X102244234Y17842742D01*
X103236464Y17345872D01*
X104154252Y16722143D01*
X104981488Y15982508D01*
X105703636Y15139964D01*
X106308012Y14209307D01*
X106783990Y13206900D01*
X107123214Y12150342D01*
X107319720Y11058206D01*
X107370058Y9949675D01*
X107273343Y8844216D01*
X107031275Y7761266D01*
X106648108Y6719848D01*
X106130566Y5738243D01*
X105487755Y4833720D01*
X104730956Y4022151D01*
X103873471Y3317806D01*
X102930363Y2733055D01*
X101918211Y2278175D01*
X100854782Y1961153D01*
X99753549Y1786736D01*
X98988613Y1752000D01*
X30040793Y1752000D01*
X30452140Y2163347D01*
X30677000Y2706206D01*
X30677000Y3293794D01*
X30452140Y3836653D01*
X30288793Y4000000D01*
X39893085Y4000000D01*
X40011598Y3404194D01*
X40349095Y2899095D01*
X40854194Y2561598D01*
X41299607Y2473000D01*
X42000393Y2473000D01*
X42445806Y2561598D01*
X42950905Y2899095D01*
X43288402Y3404194D01*
X43406915Y4000000D01*
X43288402Y4595806D01*
X42950905Y5100905D01*
X42445806Y5438402D01*
X42000393Y5527000D01*
X41299607Y5527000D01*
X40854194Y5438402D01*
X40349095Y5100905D01*
X40011598Y4595806D01*
X39893085Y4000000D01*
X30288793Y4000000D01*
X30177000Y4111793D01*
X30177000Y7193934D01*
X30198098Y7300000D01*
X30177000Y7406067D01*
X30177000Y7406072D01*
X30114511Y7720224D01*
X29963713Y7945909D01*
X29936558Y7986550D01*
X29936557Y7986551D01*
X29876473Y8076473D01*
X29786551Y8136557D01*
X29177000Y8746108D01*
X29177000Y8993794D01*
X28978506Y9473000D01*
X34216025Y9473000D01*
X37779951Y5909073D01*
X37831670Y5831670D01*
X38138303Y5626785D01*
X38408698Y5573000D01*
X38408699Y5573000D01*
X38500000Y5554839D01*
X38591300Y5573000D01*
X41908700Y5573000D01*
X42000000Y5554839D01*
X42091300Y5573000D01*
X42091302Y5573000D01*
X42361697Y5626785D01*
X42668330Y5831670D01*
X42720051Y5909075D01*
X43129235Y6318260D01*
X43211598Y5904194D01*
X43549095Y5399095D01*
X44054194Y5061598D01*
X44350921Y5002575D01*
X44350921Y5000000D01*
X44438389Y4560267D01*
X44687478Y4187478D01*
X45060267Y3938389D01*
X45500000Y3850921D01*
X47148691Y3850921D01*
X47294375Y3753577D01*
X47500000Y3712676D01*
X47551902Y3723000D01*
X101448098Y3723000D01*
X101500000Y3712676D01*
X101705625Y3753577D01*
X101879945Y3870055D01*
X101996423Y4044375D01*
X102027000Y4198097D01*
X102027000Y4198098D01*
X102037324Y4250000D01*
X102032749Y4273000D01*
X102145250Y4273000D01*
X102327000Y4454750D01*
X102327000Y7770524D01*
X102378977Y7754830D01*
X102673000Y7784170D01*
X102673000Y4454750D01*
X102854750Y4273000D01*
X103644609Y4273000D01*
X103911812Y4383679D01*
X104116321Y4588187D01*
X104227000Y4855390D01*
X104227000Y9645250D01*
X104045250Y9827000D01*
X103700463Y9827000D01*
X103696701Y9864695D01*
X103634921Y10013845D01*
X103682977Y10173000D01*
X104045250Y10173000D01*
X104227000Y10354750D01*
X104227000Y15144610D01*
X104116321Y15411813D01*
X103911812Y15616321D01*
X103644609Y15727000D01*
X102854750Y15727000D01*
X102673000Y15545250D01*
X102673000Y12229476D01*
X102621023Y12245170D01*
X102327000Y12215830D01*
X102327000Y15545250D01*
X102145250Y15727000D01*
X102032749Y15727000D01*
X102037324Y15750000D01*
X102018942Y15842416D01*
X101996423Y15955625D01*
X101879945Y16129945D01*
X101815509Y16173000D01*
X101705625Y16246423D01*
X101551903Y16277000D01*
X101551902Y16277000D01*
X101500000Y16287324D01*
X101448097Y16277000D01*
X47551903Y16277000D01*
X47500000Y16287324D01*
X47448098Y16277000D01*
X47448097Y16277000D01*
X47294375Y16246423D01*
X47148691Y16149079D01*
X45500000Y16149079D01*
X45077000Y16064939D01*
X45077000Y16173002D01*
X44895252Y16173002D01*
X45077000Y16354750D01*
X45077000Y17044610D01*
X44966321Y17311813D01*
X44761812Y17516321D01*
X44494609Y17627000D01*
X43604750Y17627000D01*
X43423000Y17445250D01*
X43423000Y16173000D01*
X43443000Y16173000D01*
X43443000Y15827000D01*
X43423000Y15827000D01*
X43423000Y15807000D01*
X43077000Y15807000D01*
X43077000Y15827000D01*
X41604750Y15827000D01*
X41423000Y15645250D01*
X41423000Y14955390D01*
X41533679Y14688187D01*
X41738188Y14483679D01*
X41768763Y14471014D01*
X41517400Y14094824D01*
X41394508Y13477000D01*
X41206206Y13477000D01*
X40663347Y13252140D01*
X40247860Y12836653D01*
X40023000Y12293794D01*
X40023000Y11706206D01*
X40247860Y11163347D01*
X40663347Y10747860D01*
X41206206Y10523000D01*
X41279498Y10523000D01*
X40854194Y10438402D01*
X40349095Y10100905D01*
X40011598Y9595806D01*
X39958737Y9330056D01*
X39927000Y9361793D01*
X39927000Y13658699D01*
X39945161Y13750000D01*
X39919942Y13876785D01*
X39873215Y14111697D01*
X39668330Y14418330D01*
X39590928Y14470048D01*
X39477000Y14583976D01*
X39477000Y15043794D01*
X39410285Y15204858D01*
X39513905Y15274095D01*
X39851402Y15779195D01*
X39940000Y16224608D01*
X39940000Y16925393D01*
X39916287Y17044610D01*
X41423000Y17044610D01*
X41423000Y16354750D01*
X41604750Y16173000D01*
X43077000Y16173000D01*
X43077000Y17445250D01*
X42895250Y17627000D01*
X42005391Y17627000D01*
X41738188Y17516321D01*
X41533679Y17311813D01*
X41423000Y17044610D01*
X39916287Y17044610D01*
X39851402Y17370806D01*
X39513905Y17875905D01*
X39008805Y18213402D01*
X38413000Y18331915D01*
X37817194Y18213402D01*
X37312095Y17875905D01*
X37135709Y17611924D01*
X36793289Y17995734D01*
X36281207Y18246426D01*
X36046000Y18109080D01*
X36046000Y16748000D01*
X36066000Y16748000D01*
X36066000Y16402000D01*
X36046000Y16402000D01*
X36046000Y15040920D01*
X36281207Y14903574D01*
X36523000Y15021945D01*
X36523000Y14456206D01*
X36747860Y13913347D01*
X37163347Y13497860D01*
X37706206Y13273000D01*
X38073000Y13273000D01*
X38073000Y12507795D01*
X37543794Y12727000D01*
X37080524Y12727000D01*
X36861697Y12873215D01*
X36591302Y12927000D01*
X36591300Y12927000D01*
X36500000Y12945161D01*
X36408700Y12927000D01*
X31715793Y12927000D01*
X31852140Y13063347D01*
X32077000Y13606206D01*
X32077000Y14193794D01*
X31852140Y14736653D01*
X31546696Y15042097D01*
X31893905Y15274095D01*
X32063000Y15527163D01*
X32232095Y15274095D01*
X32737195Y14936598D01*
X33333000Y14818085D01*
X33928806Y14936598D01*
X34433905Y15274095D01*
X34610291Y15538076D01*
X34952711Y15154266D01*
X35464793Y14903574D01*
X35700000Y15040920D01*
X35700000Y16402000D01*
X35680000Y16402000D01*
X35680000Y16748000D01*
X35700000Y16748000D01*
X35700000Y18109080D01*
X35464793Y18246426D01*
X34952711Y17995734D01*
X34610292Y17611924D01*
X34433905Y17875905D01*
X33928805Y18213402D01*
X33333000Y18331915D01*
X32737194Y18213402D01*
X32232095Y17875905D01*
X32063000Y17622837D01*
X31893905Y17875905D01*
X31388805Y18213402D01*
X30793000Y18331915D01*
X30197194Y18213402D01*
X29692095Y17875905D01*
X29354598Y17370805D01*
X29266000Y16925392D01*
X29266000Y16803192D01*
X29252140Y16836653D01*
X28836653Y17252140D01*
X28293794Y17477000D01*
X27706206Y17477000D01*
X27163347Y17252140D01*
X26747860Y16836653D01*
X26523000Y16293794D01*
X26523000Y15833975D01*
X26366025Y15677000D01*
X9782548Y15677000D01*
X9749140Y15757653D01*
X9351001Y16155792D01*
X9417665Y16200335D01*
X9497000Y16319069D01*
X9576336Y16200335D01*
X9998741Y15918093D01*
X10497000Y15818983D01*
X10995260Y15918093D01*
X11417665Y16200335D01*
X11497000Y16319069D01*
X11576336Y16200335D01*
X11998741Y15918093D01*
X12497000Y15818983D01*
X12995260Y15918093D01*
X13417665Y16200335D01*
X13463591Y16269069D01*
X13576336Y16100335D01*
X13998741Y15818093D01*
X14497000Y15718983D01*
X14995260Y15818093D01*
X15417665Y16100335D01*
X15544508Y16290170D01*
X15716354Y16095695D01*
X16128205Y15898413D01*
X16324000Y16039499D01*
X16324000Y17648000D01*
X16670000Y17648000D01*
X16670000Y16039499D01*
X16865795Y15898413D01*
X17277646Y16095695D01*
X17610590Y16472482D01*
X17774000Y16948000D01*
X17774000Y17648000D01*
X16670000Y17648000D01*
X16324000Y17648000D01*
X16304000Y17648000D01*
X16304000Y17994000D01*
X16324000Y17994000D01*
X16324000Y18014000D01*
X16670000Y18014000D01*
X16670000Y17994000D01*
X17774000Y17994000D01*
X17774000Y18498000D01*
X98983353Y18498000D01*
X100107235Y18423352D01*
X100107235Y18423352D01*
G37*
X100107235Y18423352D02*
X101195022Y18204015D01*
X102244234Y17842742D01*
X103236464Y17345872D01*
X104154252Y16722143D01*
X104981488Y15982508D01*
X105703636Y15139964D01*
X106308012Y14209307D01*
X106783990Y13206900D01*
X107123214Y12150342D01*
X107319720Y11058206D01*
X107370058Y9949675D01*
X107273343Y8844216D01*
X107031275Y7761266D01*
X106648108Y6719848D01*
X106130566Y5738243D01*
X105487755Y4833720D01*
X104730956Y4022151D01*
X103873471Y3317806D01*
X102930363Y2733055D01*
X101918211Y2278175D01*
X100854782Y1961153D01*
X99753549Y1786736D01*
X98988613Y1752000D01*
X30040793Y1752000D01*
X30452140Y2163347D01*
X30677000Y2706206D01*
X30677000Y3293794D01*
X30452140Y3836653D01*
X30288793Y4000000D01*
X39893085Y4000000D01*
X40011598Y3404194D01*
X40349095Y2899095D01*
X40854194Y2561598D01*
X41299607Y2473000D01*
X42000393Y2473000D01*
X42445806Y2561598D01*
X42950905Y2899095D01*
X43288402Y3404194D01*
X43406915Y4000000D01*
X43288402Y4595806D01*
X42950905Y5100905D01*
X42445806Y5438402D01*
X42000393Y5527000D01*
X41299607Y5527000D01*
X40854194Y5438402D01*
X40349095Y5100905D01*
X40011598Y4595806D01*
X39893085Y4000000D01*
X30288793Y4000000D01*
X30177000Y4111793D01*
X30177000Y7193934D01*
X30198098Y7300000D01*
X30177000Y7406067D01*
X30177000Y7406072D01*
X30114511Y7720224D01*
X29963713Y7945909D01*
X29936558Y7986550D01*
X29936557Y7986551D01*
X29876473Y8076473D01*
X29786551Y8136557D01*
X29177000Y8746108D01*
X29177000Y8993794D01*
X28978506Y9473000D01*
X34216025Y9473000D01*
X37779951Y5909073D01*
X37831670Y5831670D01*
X38138303Y5626785D01*
X38408698Y5573000D01*
X38408699Y5573000D01*
X38500000Y5554839D01*
X38591300Y5573000D01*
X41908700Y5573000D01*
X42000000Y5554839D01*
X42091300Y5573000D01*
X42091302Y5573000D01*
X42361697Y5626785D01*
X42668330Y5831670D01*
X42720051Y5909075D01*
X43129235Y6318260D01*
X43211598Y5904194D01*
X43549095Y5399095D01*
X44054194Y5061598D01*
X44350921Y5002575D01*
X44350921Y5000000D01*
X44438389Y4560267D01*
X44687478Y4187478D01*
X45060267Y3938389D01*
X45500000Y3850921D01*
X47148691Y3850921D01*
X47294375Y3753577D01*
X47500000Y3712676D01*
X47551902Y3723000D01*
X101448098Y3723000D01*
X101500000Y3712676D01*
X101705625Y3753577D01*
X101879945Y3870055D01*
X101996423Y4044375D01*
X102027000Y4198097D01*
X102027000Y4198098D01*
X102037324Y4250000D01*
X102032749Y4273000D01*
X102145250Y4273000D01*
X102327000Y4454750D01*
X102327000Y7770524D01*
X102378977Y7754830D01*
X102673000Y7784170D01*
X102673000Y4454750D01*
X102854750Y4273000D01*
X103644609Y4273000D01*
X103911812Y4383679D01*
X104116321Y4588187D01*
X104227000Y4855390D01*
X104227000Y9645250D01*
X104045250Y9827000D01*
X103700463Y9827000D01*
X103696701Y9864695D01*
X103634921Y10013845D01*
X103682977Y10173000D01*
X104045250Y10173000D01*
X104227000Y10354750D01*
X104227000Y15144610D01*
X104116321Y15411813D01*
X103911812Y15616321D01*
X103644609Y15727000D01*
X102854750Y15727000D01*
X102673000Y15545250D01*
X102673000Y12229476D01*
X102621023Y12245170D01*
X102327000Y12215830D01*
X102327000Y15545250D01*
X102145250Y15727000D01*
X102032749Y15727000D01*
X102037324Y15750000D01*
X102018942Y15842416D01*
X101996423Y15955625D01*
X101879945Y16129945D01*
X101815509Y16173000D01*
X101705625Y16246423D01*
X101551903Y16277000D01*
X101551902Y16277000D01*
X101500000Y16287324D01*
X101448097Y16277000D01*
X47551903Y16277000D01*
X47500000Y16287324D01*
X47448098Y16277000D01*
X47448097Y16277000D01*
X47294375Y16246423D01*
X47148691Y16149079D01*
X45500000Y16149079D01*
X45077000Y16064939D01*
X45077000Y16173002D01*
X44895252Y16173002D01*
X45077000Y16354750D01*
X45077000Y17044610D01*
X44966321Y17311813D01*
X44761812Y17516321D01*
X44494609Y17627000D01*
X43604750Y17627000D01*
X43423000Y17445250D01*
X43423000Y16173000D01*
X43443000Y16173000D01*
X43443000Y15827000D01*
X43423000Y15827000D01*
X43423000Y15807000D01*
X43077000Y15807000D01*
X43077000Y15827000D01*
X41604750Y15827000D01*
X41423000Y15645250D01*
X41423000Y14955390D01*
X41533679Y14688187D01*
X41738188Y14483679D01*
X41768763Y14471014D01*
X41517400Y14094824D01*
X41394508Y13477000D01*
X41206206Y13477000D01*
X40663347Y13252140D01*
X40247860Y12836653D01*
X40023000Y12293794D01*
X40023000Y11706206D01*
X40247860Y11163347D01*
X40663347Y10747860D01*
X41206206Y10523000D01*
X41279498Y10523000D01*
X40854194Y10438402D01*
X40349095Y10100905D01*
X40011598Y9595806D01*
X39958737Y9330056D01*
X39927000Y9361793D01*
X39927000Y13658699D01*
X39945161Y13750000D01*
X39919942Y13876785D01*
X39873215Y14111697D01*
X39668330Y14418330D01*
X39590928Y14470048D01*
X39477000Y14583976D01*
X39477000Y15043794D01*
X39410285Y15204858D01*
X39513905Y15274095D01*
X39851402Y15779195D01*
X39940000Y16224608D01*
X39940000Y16925393D01*
X39916287Y17044610D01*
X41423000Y17044610D01*
X41423000Y16354750D01*
X41604750Y16173000D01*
X43077000Y16173000D01*
X43077000Y17445250D01*
X42895250Y17627000D01*
X42005391Y17627000D01*
X41738188Y17516321D01*
X41533679Y17311813D01*
X41423000Y17044610D01*
X39916287Y17044610D01*
X39851402Y17370806D01*
X39513905Y17875905D01*
X39008805Y18213402D01*
X38413000Y18331915D01*
X37817194Y18213402D01*
X37312095Y17875905D01*
X37135709Y17611924D01*
X36793289Y17995734D01*
X36281207Y18246426D01*
X36046000Y18109080D01*
X36046000Y16748000D01*
X36066000Y16748000D01*
X36066000Y16402000D01*
X36046000Y16402000D01*
X36046000Y15040920D01*
X36281207Y14903574D01*
X36523000Y15021945D01*
X36523000Y14456206D01*
X36747860Y13913347D01*
X37163347Y13497860D01*
X37706206Y13273000D01*
X38073000Y13273000D01*
X38073000Y12507795D01*
X37543794Y12727000D01*
X37080524Y12727000D01*
X36861697Y12873215D01*
X36591302Y12927000D01*
X36591300Y12927000D01*
X36500000Y12945161D01*
X36408700Y12927000D01*
X31715793Y12927000D01*
X31852140Y13063347D01*
X32077000Y13606206D01*
X32077000Y14193794D01*
X31852140Y14736653D01*
X31546696Y15042097D01*
X31893905Y15274095D01*
X32063000Y15527163D01*
X32232095Y15274095D01*
X32737195Y14936598D01*
X33333000Y14818085D01*
X33928806Y14936598D01*
X34433905Y15274095D01*
X34610291Y15538076D01*
X34952711Y15154266D01*
X35464793Y14903574D01*
X35700000Y15040920D01*
X35700000Y16402000D01*
X35680000Y16402000D01*
X35680000Y16748000D01*
X35700000Y16748000D01*
X35700000Y18109080D01*
X35464793Y18246426D01*
X34952711Y17995734D01*
X34610292Y17611924D01*
X34433905Y17875905D01*
X33928805Y18213402D01*
X33333000Y18331915D01*
X32737194Y18213402D01*
X32232095Y17875905D01*
X32063000Y17622837D01*
X31893905Y17875905D01*
X31388805Y18213402D01*
X30793000Y18331915D01*
X30197194Y18213402D01*
X29692095Y17875905D01*
X29354598Y17370805D01*
X29266000Y16925392D01*
X29266000Y16803192D01*
X29252140Y16836653D01*
X28836653Y17252140D01*
X28293794Y17477000D01*
X27706206Y17477000D01*
X27163347Y17252140D01*
X26747860Y16836653D01*
X26523000Y16293794D01*
X26523000Y15833975D01*
X26366025Y15677000D01*
X9782548Y15677000D01*
X9749140Y15757653D01*
X9351001Y16155792D01*
X9417665Y16200335D01*
X9497000Y16319069D01*
X9576336Y16200335D01*
X9998741Y15918093D01*
X10497000Y15818983D01*
X10995260Y15918093D01*
X11417665Y16200335D01*
X11497000Y16319069D01*
X11576336Y16200335D01*
X11998741Y15918093D01*
X12497000Y15818983D01*
X12995260Y15918093D01*
X13417665Y16200335D01*
X13463591Y16269069D01*
X13576336Y16100335D01*
X13998741Y15818093D01*
X14497000Y15718983D01*
X14995260Y15818093D01*
X15417665Y16100335D01*
X15544508Y16290170D01*
X15716354Y16095695D01*
X16128205Y15898413D01*
X16324000Y16039499D01*
X16324000Y17648000D01*
X16670000Y17648000D01*
X16670000Y16039499D01*
X16865795Y15898413D01*
X17277646Y16095695D01*
X17610590Y16472482D01*
X17774000Y16948000D01*
X17774000Y17648000D01*
X16670000Y17648000D01*
X16324000Y17648000D01*
X16304000Y17648000D01*
X16304000Y17994000D01*
X16324000Y17994000D01*
X16324000Y18014000D01*
X16670000Y18014000D01*
X16670000Y17994000D01*
X17774000Y17994000D01*
X17774000Y18498000D01*
X98983353Y18498000D01*
X100107235Y18423352D01*
G36*
X102494659Y9250000D02*
X102485858Y9241199D01*
X102477057Y9250000D01*
X102485858Y9258801D01*
X102494659Y9250000D01*
X102494659Y9250000D01*
G37*
X102494659Y9250000D02*
X102485858Y9241199D01*
X102477057Y9250000D01*
X102485858Y9258801D01*
X102494659Y9250000D01*
G36*
X102522943Y9250000D02*
X102514142Y9241199D01*
X102505341Y9250000D01*
X102514142Y9258801D01*
X102522943Y9250000D01*
X102522943Y9250000D01*
G37*
X102522943Y9250000D02*
X102514142Y9241199D01*
X102505341Y9250000D01*
X102514142Y9258801D01*
X102522943Y9250000D01*
G36*
X102494659Y10750000D02*
X102485858Y10741199D01*
X102477057Y10750000D01*
X102485858Y10758801D01*
X102494659Y10750000D01*
X102494659Y10750000D01*
G37*
X102494659Y10750000D02*
X102485858Y10741199D01*
X102477057Y10750000D01*
X102485858Y10758801D01*
X102494659Y10750000D01*
G36*
X102522943Y10750000D02*
X102514142Y10741199D01*
X102505341Y10750000D01*
X102514142Y10758801D01*
X102522943Y10750000D01*
X102522943Y10750000D01*
G37*
X102522943Y10750000D02*
X102514142Y10741199D01*
X102505341Y10750000D01*
X102514142Y10758801D01*
X102522943Y10750000D01*
G04 #@! TD*
M02*
