G04 #@! TF.GenerationSoftware,KiCad,Pcbnew,5.0.2-bee76a0~70~ubuntu18.04.1*
G04 #@! TF.CreationDate,2020-04-11T17:04:52-04:00*
G04 #@! TF.ProjectId,weeSpindel,77656553-7069-46e6-9465-6c2e6b696361,rev?*
G04 #@! TF.SameCoordinates,PX56c8cc0PY6dac2c0*
G04 #@! TF.FileFunction,Drawing*
%FSLAX46Y46*%
G04 Gerber Fmt 4.6, Leading zero omitted, Abs format (unit mm)*
G04 Created by KiCad (PCBNEW 5.0.2-bee76a0~70~ubuntu18.04.1) date Sat 11 Apr 2020 05:04:52 PM EDT*
%MOMM*%
%LPD*%
G01*
G04 APERTURE LIST*
%ADD10C,0.300000*%
G04 APERTURE END LIST*
D10*
X21928571Y5917858D02*
X21785714Y5846429D01*
X21500000Y5846429D01*
X21357142Y5917858D01*
X21285714Y5989286D01*
X21214285Y6132143D01*
X21214285Y6560715D01*
X21285714Y6703572D01*
X21357142Y6775000D01*
X21500000Y6846429D01*
X21785714Y6846429D01*
X21928571Y6775000D01*
X22571428Y6846429D02*
X22571428Y5346429D01*
X22571428Y6775000D02*
X22714285Y6846429D01*
X23000000Y6846429D01*
X23142857Y6775000D01*
X23214285Y6703572D01*
X23285714Y6560715D01*
X23285714Y6132143D01*
X23214285Y5989286D01*
X23142857Y5917858D01*
X23000000Y5846429D01*
X22714285Y5846429D01*
X22571428Y5917858D01*
X24500000Y5917858D02*
X24357142Y5846429D01*
X24071428Y5846429D01*
X23928571Y5917858D01*
X23857142Y6060715D01*
X23857142Y6632143D01*
X23928571Y6775000D01*
X24071428Y6846429D01*
X24357142Y6846429D01*
X24500000Y6775000D01*
X24571428Y6632143D01*
X24571428Y6489286D01*
X23857142Y6346429D01*
X25214285Y5846429D02*
X25214285Y6846429D01*
X25214285Y6560715D02*
X25285714Y6703572D01*
X25357142Y6775000D01*
X25500000Y6846429D01*
X25642857Y6846429D01*
X26142857Y5846429D02*
X26142857Y6846429D01*
X26142857Y7346429D02*
X26071428Y7275000D01*
X26142857Y7203572D01*
X26214285Y7275000D01*
X26142857Y7346429D01*
X26142857Y7203572D01*
X27071428Y5846429D02*
X26928571Y5917858D01*
X26857142Y5989286D01*
X26785714Y6132143D01*
X26785714Y6560715D01*
X26857142Y6703572D01*
X26928571Y6775000D01*
X27071428Y6846429D01*
X27285714Y6846429D01*
X27428571Y6775000D01*
X27500000Y6703572D01*
X27571428Y6560715D01*
X27571428Y6132143D01*
X27500000Y5989286D01*
X27428571Y5917858D01*
X27285714Y5846429D01*
X27071428Y5846429D01*
X28857142Y5846429D02*
X28857142Y7346429D01*
X28857142Y5917858D02*
X28714285Y5846429D01*
X28428571Y5846429D01*
X28285714Y5917858D01*
X28214285Y5989286D01*
X28142857Y6132143D01*
X28142857Y6560715D01*
X28214285Y6703572D01*
X28285714Y6775000D01*
X28428571Y6846429D01*
X28714285Y6846429D01*
X28857142Y6775000D01*
X30642857Y7203572D02*
X30714285Y7275000D01*
X30857142Y7346429D01*
X31214285Y7346429D01*
X31357142Y7275000D01*
X31428571Y7203572D01*
X31500000Y7060715D01*
X31500000Y6917858D01*
X31428571Y6703572D01*
X30571428Y5846429D01*
X31500000Y5846429D01*
X32428571Y7346429D02*
X32571428Y7346429D01*
X32714285Y7275000D01*
X32785714Y7203572D01*
X32857142Y7060715D01*
X32928571Y6775000D01*
X32928571Y6417858D01*
X32857142Y6132143D01*
X32785714Y5989286D01*
X32714285Y5917858D01*
X32571428Y5846429D01*
X32428571Y5846429D01*
X32285714Y5917858D01*
X32214285Y5989286D01*
X32142857Y6132143D01*
X32071428Y6417858D01*
X32071428Y6775000D01*
X32142857Y7060715D01*
X32214285Y7203572D01*
X32285714Y7275000D01*
X32428571Y7346429D01*
X33500000Y7203572D02*
X33571428Y7275000D01*
X33714285Y7346429D01*
X34071428Y7346429D01*
X34214285Y7275000D01*
X34285714Y7203572D01*
X34357142Y7060715D01*
X34357142Y6917858D01*
X34285714Y6703572D01*
X33428571Y5846429D01*
X34357142Y5846429D01*
X35285714Y7346429D02*
X35428571Y7346429D01*
X35571428Y7275000D01*
X35642857Y7203572D01*
X35714285Y7060715D01*
X35785714Y6775000D01*
X35785714Y6417858D01*
X35714285Y6132143D01*
X35642857Y5989286D01*
X35571428Y5917858D01*
X35428571Y5846429D01*
X35285714Y5846429D01*
X35142857Y5917858D01*
X35071428Y5989286D01*
X35000000Y6132143D01*
X34928571Y6417858D01*
X34928571Y6775000D01*
X35000000Y7060715D01*
X35071428Y7203572D01*
X35142857Y7275000D01*
X35285714Y7346429D01*
X19571428Y4296429D02*
X19857142Y3296429D01*
X20142857Y4010715D01*
X20428571Y3296429D01*
X20714285Y4296429D01*
X21857142Y3367858D02*
X21714285Y3296429D01*
X21428571Y3296429D01*
X21285714Y3367858D01*
X21214285Y3510715D01*
X21214285Y4082143D01*
X21285714Y4225000D01*
X21428571Y4296429D01*
X21714285Y4296429D01*
X21857142Y4225000D01*
X21928571Y4082143D01*
X21928571Y3939286D01*
X21214285Y3796429D01*
X23142857Y3367858D02*
X23000000Y3296429D01*
X22714285Y3296429D01*
X22571428Y3367858D01*
X22500000Y3510715D01*
X22500000Y4082143D01*
X22571428Y4225000D01*
X22714285Y4296429D01*
X23000000Y4296429D01*
X23142857Y4225000D01*
X23214285Y4082143D01*
X23214285Y3939286D01*
X22500000Y3796429D01*
X23785714Y3367858D02*
X24000000Y3296429D01*
X24357142Y3296429D01*
X24500000Y3367858D01*
X24571428Y3439286D01*
X24642857Y3582143D01*
X24642857Y3725000D01*
X24571428Y3867858D01*
X24500000Y3939286D01*
X24357142Y4010715D01*
X24071428Y4082143D01*
X23928571Y4153572D01*
X23857142Y4225000D01*
X23785714Y4367858D01*
X23785714Y4510715D01*
X23857142Y4653572D01*
X23928571Y4725000D01*
X24071428Y4796429D01*
X24428571Y4796429D01*
X24642857Y4725000D01*
X25285714Y4296429D02*
X25285714Y2796429D01*
X25285714Y4225000D02*
X25428571Y4296429D01*
X25714285Y4296429D01*
X25857142Y4225000D01*
X25928571Y4153572D01*
X26000000Y4010715D01*
X26000000Y3582143D01*
X25928571Y3439286D01*
X25857142Y3367858D01*
X25714285Y3296429D01*
X25428571Y3296429D01*
X25285714Y3367858D01*
X26642857Y3296429D02*
X26642857Y4296429D01*
X26642857Y4796429D02*
X26571428Y4725000D01*
X26642857Y4653572D01*
X26714285Y4725000D01*
X26642857Y4796429D01*
X26642857Y4653572D01*
X27357142Y4296429D02*
X27357142Y3296429D01*
X27357142Y4153572D02*
X27428571Y4225000D01*
X27571428Y4296429D01*
X27785714Y4296429D01*
X27928571Y4225000D01*
X28000000Y4082143D01*
X28000000Y3296429D01*
X29357142Y3296429D02*
X29357142Y4796429D01*
X29357142Y3367858D02*
X29214285Y3296429D01*
X28928571Y3296429D01*
X28785714Y3367858D01*
X28714285Y3439286D01*
X28642857Y3582143D01*
X28642857Y4010715D01*
X28714285Y4153572D01*
X28785714Y4225000D01*
X28928571Y4296429D01*
X29214285Y4296429D01*
X29357142Y4225000D01*
X30642857Y3367858D02*
X30500000Y3296429D01*
X30214285Y3296429D01*
X30071428Y3367858D01*
X30000000Y3510715D01*
X30000000Y4082143D01*
X30071428Y4225000D01*
X30214285Y4296429D01*
X30500000Y4296429D01*
X30642857Y4225000D01*
X30714285Y4082143D01*
X30714285Y3939286D01*
X30000000Y3796429D01*
X31571428Y3296429D02*
X31428571Y3367858D01*
X31357142Y3510715D01*
X31357142Y4796429D01*
X33142857Y4296429D02*
X33500000Y3296429D01*
X33857142Y4296429D01*
X35214285Y3296429D02*
X34357142Y3296429D01*
X34785714Y3296429D02*
X34785714Y4796429D01*
X34642857Y4582143D01*
X34500000Y4439286D01*
X34357142Y4367858D01*
X35857142Y3439286D02*
X35928571Y3367858D01*
X35857142Y3296429D01*
X35785714Y3367858D01*
X35857142Y3439286D01*
X35857142Y3296429D01*
X37357142Y3296429D02*
X36500000Y3296429D01*
X36928571Y3296429D02*
X36928571Y4796429D01*
X36785714Y4582143D01*
X36642857Y4439286D01*
X36500000Y4367858D01*
M02*
