M48
;DRILL file {KiCad 5.0.2-bee76a0~70~ubuntu18.04.1} date Sat 11 Apr 2020 05:04:55 PM EDT
;FORMAT={-:-/ absolute / metric / decimal}
FMAT,2
METRIC,TZ
T1C0.600
T2C0.650
T3C0.800
T4C1.000
%
G90
G05
T1
X1.5Y6.25
X5.7Y14.9
X6.Y6.25
X8.497Y14.921
X12.75Y8.
X16.497Y5.721
X21.25Y11.5
X23.25Y11.5
X28.Y17.5
X33.5Y13.75
X36.5Y10.5
X38.5Y14.25
X39.Y8.2
X43.Y10.9
T2
X2.497Y17.121
X2.497Y3.121
X4.497Y17.121
X4.497Y3.121
X6.497Y17.121
X6.497Y3.121
X8.497Y17.121
X8.497Y3.121
X10.497Y17.121
X10.497Y3.121
X12.497Y17.121
X12.497Y3.121
X14.497Y17.121
X14.497Y3.121
X16.497Y17.121
X16.497Y3.121
T3
X41.6Y8.3
X41.6Y3.3
X44.8Y5.8
T4
X43.Y15.2
X43.Y12.66
X30.87Y17.55
X33.41Y17.55
X35.95Y17.55
X38.49Y17.55
T4
X46.2Y9.2G85X46.2Y10.8
G05
X106.2Y9.2G85X106.2Y10.8
G05
T0
M30
