G04 #@! TF.GenerationSoftware,KiCad,Pcbnew,5.0.2-bee76a0~70~ubuntu18.04.1*
G04 #@! TF.CreationDate,2020-04-19T20:32:39-04:00*
G04 #@! TF.ProjectId,weeSpindel,77656553-7069-46e6-9465-6c2e6b696361,rev?*
G04 #@! TF.SameCoordinates,PX56c8cc0PY6dac2c0*
G04 #@! TF.FileFunction,Copper,L2,Bot*
G04 #@! TF.FilePolarity,Positive*
%FSLAX46Y46*%
G04 Gerber Fmt 4.6, Leading zero omitted, Abs format (unit mm)*
G04 Created by KiCad (PCBNEW 5.0.2-bee76a0~70~ubuntu18.04.1) date Sun 19 Apr 2020 08:32:39 PM EDT*
%MOMM*%
%LPD*%
G01*
G04 APERTURE LIST*
G04 #@! TA.AperFunction,ComponentPad*
%ADD10C,1.000000*%
G04 #@! TD*
G04 #@! TA.AperFunction,ComponentPad*
%ADD11R,2.000000X10.000000*%
G04 #@! TD*
G04 #@! TA.AperFunction,SMDPad,CuDef*
%ADD12C,0.500000*%
G04 #@! TD*
G04 #@! TA.AperFunction,Conductor*
%ADD13C,0.050000*%
G04 #@! TD*
G04 #@! TA.AperFunction,SMDPad,CuDef*
%ADD14R,1.000000X1.500000*%
G04 #@! TD*
G04 #@! TA.AperFunction,SMDPad,CuDef*
%ADD15R,0.900000X0.800000*%
G04 #@! TD*
G04 #@! TA.AperFunction,ComponentPad*
%ADD16O,2.200000X1.800000*%
G04 #@! TD*
G04 #@! TA.AperFunction,ComponentPad*
%ADD17R,2.200000X1.800000*%
G04 #@! TD*
G04 #@! TA.AperFunction,ComponentPad*
%ADD18O,1.600000X2.000000*%
G04 #@! TD*
G04 #@! TA.AperFunction,SMDPad,CuDef*
%ADD19C,1.425000*%
G04 #@! TD*
G04 #@! TA.AperFunction,SMDPad,CuDef*
%ADD20C,1.150000*%
G04 #@! TD*
G04 #@! TA.AperFunction,SMDPad,CuDef*
%ADD21R,0.980000X3.400000*%
G04 #@! TD*
G04 #@! TA.AperFunction,ComponentPad*
%ADD22R,1.100000X2.500000*%
G04 #@! TD*
G04 #@! TA.AperFunction,ComponentPad*
%ADD23O,1.100000X2.500000*%
G04 #@! TD*
G04 #@! TA.AperFunction,SMDPad,CuDef*
%ADD24C,1.500000*%
G04 #@! TD*
G04 #@! TA.AperFunction,SMDPad,CuDef*
%ADD25R,0.650000X1.060000*%
G04 #@! TD*
G04 #@! TA.AperFunction,ComponentPad*
%ADD26O,2.000000X1.600000*%
G04 #@! TD*
G04 #@! TA.AperFunction,ViaPad*
%ADD27C,1.500000*%
G04 #@! TD*
G04 #@! TA.AperFunction,Conductor*
%ADD28C,0.700000*%
G04 #@! TD*
G04 #@! TA.AperFunction,Conductor*
%ADD29C,0.400000*%
G04 #@! TD*
G04 #@! TA.AperFunction,Conductor*
%ADD30C,0.254000*%
G04 #@! TD*
G04 APERTURE END LIST*
D10*
G04 #@! TO.P,BT1,2*
G04 #@! TO.N,GND*
X100000000Y9000000D03*
X100000000Y9500000D03*
X100000000Y11000000D03*
X100000000Y10500000D03*
G04 #@! TO.P,BT1,1*
G04 #@! TO.N,Net-(BT1-Pad1)*
X46000000Y10500000D03*
X46000000Y9500000D03*
X46000000Y9000000D03*
X46000000Y11000000D03*
D11*
G04 #@! TO.P,BT1,2*
G04 #@! TO.N,GND*
X100000000Y10000000D03*
G04 #@! TO.P,BT1,1*
G04 #@! TO.N,Net-(BT1-Pad1)*
X46000000Y10000000D03*
G04 #@! TD*
D12*
G04 #@! TO.P,JP2,1*
G04 #@! TO.N,Net-(JP2-Pad1)*
X36600000Y8750000D03*
D13*
G04 #@! TD*
G04 #@! TO.N,Net-(JP2-Pad1)*
G04 #@! TO.C,JP2*
G36*
X36050000Y8450000D02*
X35700000Y8450000D01*
X35700000Y9050000D01*
X36050000Y9050000D01*
X36050000Y9500000D01*
X36600000Y9500000D01*
X36600000Y9499398D01*
X36624534Y9499398D01*
X36673365Y9494588D01*
X36721490Y9485016D01*
X36768445Y9470772D01*
X36813778Y9451995D01*
X36857051Y9428864D01*
X36897850Y9401604D01*
X36935779Y9370476D01*
X36970476Y9335779D01*
X37001604Y9297850D01*
X37028864Y9257051D01*
X37051995Y9213778D01*
X37070772Y9168445D01*
X37085016Y9121490D01*
X37094588Y9073365D01*
X37099398Y9024534D01*
X37099398Y9000000D01*
X37100000Y9000000D01*
X37100000Y8500000D01*
X37099398Y8500000D01*
X37099398Y8475466D01*
X37094588Y8426635D01*
X37085016Y8378510D01*
X37070772Y8331555D01*
X37051995Y8286222D01*
X37028864Y8242949D01*
X37001604Y8202150D01*
X36970476Y8164221D01*
X36935779Y8129524D01*
X36897850Y8098396D01*
X36857051Y8071136D01*
X36813778Y8048005D01*
X36768445Y8029228D01*
X36721490Y8014984D01*
X36673365Y8005412D01*
X36624534Y8000602D01*
X36600000Y8000602D01*
X36600000Y8000000D01*
X36050000Y8000000D01*
X36050000Y8450000D01*
X36050000Y8450000D01*
G37*
D12*
G04 #@! TO.P,JP2,3*
G04 #@! TO.N,Net-(JP2-Pad3)*
X34000000Y8750000D03*
D13*
G04 #@! TD*
G04 #@! TO.N,Net-(JP2-Pad3)*
G04 #@! TO.C,JP2*
G36*
X34000000Y8000602D02*
X33975466Y8000602D01*
X33926635Y8005412D01*
X33878510Y8014984D01*
X33831555Y8029228D01*
X33786222Y8048005D01*
X33742949Y8071136D01*
X33702150Y8098396D01*
X33664221Y8129524D01*
X33629524Y8164221D01*
X33598396Y8202150D01*
X33571136Y8242949D01*
X33548005Y8286222D01*
X33529228Y8331555D01*
X33514984Y8378510D01*
X33505412Y8426635D01*
X33500602Y8475466D01*
X33500602Y8500000D01*
X33500000Y8500000D01*
X33500000Y9000000D01*
X33500602Y9000000D01*
X33500602Y9024534D01*
X33505412Y9073365D01*
X33514984Y9121490D01*
X33529228Y9168445D01*
X33548005Y9213778D01*
X33571136Y9257051D01*
X33598396Y9297850D01*
X33629524Y9335779D01*
X33664221Y9370476D01*
X33702150Y9401604D01*
X33742949Y9428864D01*
X33786222Y9451995D01*
X33831555Y9470772D01*
X33878510Y9485016D01*
X33926635Y9494588D01*
X33975466Y9499398D01*
X34000000Y9499398D01*
X34000000Y9500000D01*
X34550000Y9500000D01*
X34550000Y8000000D01*
X34000000Y8000000D01*
X34000000Y8000602D01*
X34000000Y8000602D01*
G37*
D14*
G04 #@! TO.P,JP2,2*
G04 #@! TO.N,Net-(C2-Pad1)*
X35300000Y8750000D03*
G04 #@! TD*
D15*
G04 #@! TO.P,U3,1*
G04 #@! TO.N,GND*
X29750000Y8550000D03*
G04 #@! TO.P,U3,2*
G04 #@! TO.N,3V3*
X29750000Y10450000D03*
G04 #@! TO.P,U3,3*
G04 #@! TO.N,Net-(JP2-Pad3)*
X31750000Y9500000D03*
G04 #@! TD*
D16*
G04 #@! TO.P,JP1,2*
G04 #@! TO.N,Net-(JP1-Pad2)*
X43250000Y13460000D03*
D17*
G04 #@! TO.P,JP1,1*
G04 #@! TO.N,GND*
X43250000Y16000000D03*
G04 #@! TD*
D18*
G04 #@! TO.P,J1,4*
G04 #@! TO.N,SDA*
X30793000Y16575000D03*
G04 #@! TO.P,J1,3*
G04 #@! TO.N,SCL*
X33333000Y16575000D03*
G04 #@! TO.P,J1,2*
G04 #@! TO.N,GND*
X35873000Y16575000D03*
G04 #@! TO.P,J1,1*
G04 #@! TO.N,3V3*
X38413000Y16575000D03*
G04 #@! TD*
D13*
G04 #@! TO.N,Net-(R3-Pad1)*
G04 #@! TO.C,R3*
G36*
X9737004Y9623796D02*
X9761273Y9620196D01*
X9785071Y9614235D01*
X9808171Y9605970D01*
X9830349Y9595480D01*
X9851393Y9582867D01*
X9871098Y9568253D01*
X9889277Y9551777D01*
X9905753Y9533598D01*
X9920367Y9513893D01*
X9932980Y9492849D01*
X9943470Y9470671D01*
X9951735Y9447571D01*
X9957696Y9423773D01*
X9961296Y9399504D01*
X9962500Y9375000D01*
X9962500Y8125000D01*
X9961296Y8100496D01*
X9957696Y8076227D01*
X9951735Y8052429D01*
X9943470Y8029329D01*
X9932980Y8007151D01*
X9920367Y7986107D01*
X9905753Y7966402D01*
X9889277Y7948223D01*
X9871098Y7931747D01*
X9851393Y7917133D01*
X9830349Y7904520D01*
X9808171Y7894030D01*
X9785071Y7885765D01*
X9761273Y7879804D01*
X9737004Y7876204D01*
X9712500Y7875000D01*
X8787500Y7875000D01*
X8762996Y7876204D01*
X8738727Y7879804D01*
X8714929Y7885765D01*
X8691829Y7894030D01*
X8669651Y7904520D01*
X8648607Y7917133D01*
X8628902Y7931747D01*
X8610723Y7948223D01*
X8594247Y7966402D01*
X8579633Y7986107D01*
X8567020Y8007151D01*
X8556530Y8029329D01*
X8548265Y8052429D01*
X8542304Y8076227D01*
X8538704Y8100496D01*
X8537500Y8125000D01*
X8537500Y9375000D01*
X8538704Y9399504D01*
X8542304Y9423773D01*
X8548265Y9447571D01*
X8556530Y9470671D01*
X8567020Y9492849D01*
X8579633Y9513893D01*
X8594247Y9533598D01*
X8610723Y9551777D01*
X8628902Y9568253D01*
X8648607Y9582867D01*
X8669651Y9595480D01*
X8691829Y9605970D01*
X8714929Y9614235D01*
X8738727Y9620196D01*
X8762996Y9623796D01*
X8787500Y9625000D01*
X9712500Y9625000D01*
X9737004Y9623796D01*
X9737004Y9623796D01*
G37*
D19*
G04 #@! TD*
G04 #@! TO.P,R3,1*
G04 #@! TO.N,Net-(R3-Pad1)*
X9250000Y8750000D03*
D13*
G04 #@! TO.N,Net-(R3-Pad2)*
G04 #@! TO.C,R3*
G36*
X6762004Y9623796D02*
X6786273Y9620196D01*
X6810071Y9614235D01*
X6833171Y9605970D01*
X6855349Y9595480D01*
X6876393Y9582867D01*
X6896098Y9568253D01*
X6914277Y9551777D01*
X6930753Y9533598D01*
X6945367Y9513893D01*
X6957980Y9492849D01*
X6968470Y9470671D01*
X6976735Y9447571D01*
X6982696Y9423773D01*
X6986296Y9399504D01*
X6987500Y9375000D01*
X6987500Y8125000D01*
X6986296Y8100496D01*
X6982696Y8076227D01*
X6976735Y8052429D01*
X6968470Y8029329D01*
X6957980Y8007151D01*
X6945367Y7986107D01*
X6930753Y7966402D01*
X6914277Y7948223D01*
X6896098Y7931747D01*
X6876393Y7917133D01*
X6855349Y7904520D01*
X6833171Y7894030D01*
X6810071Y7885765D01*
X6786273Y7879804D01*
X6762004Y7876204D01*
X6737500Y7875000D01*
X5812500Y7875000D01*
X5787996Y7876204D01*
X5763727Y7879804D01*
X5739929Y7885765D01*
X5716829Y7894030D01*
X5694651Y7904520D01*
X5673607Y7917133D01*
X5653902Y7931747D01*
X5635723Y7948223D01*
X5619247Y7966402D01*
X5604633Y7986107D01*
X5592020Y8007151D01*
X5581530Y8029329D01*
X5573265Y8052429D01*
X5567304Y8076227D01*
X5563704Y8100496D01*
X5562500Y8125000D01*
X5562500Y9375000D01*
X5563704Y9399504D01*
X5567304Y9423773D01*
X5573265Y9447571D01*
X5581530Y9470671D01*
X5592020Y9492849D01*
X5604633Y9513893D01*
X5619247Y9533598D01*
X5635723Y9551777D01*
X5653902Y9568253D01*
X5673607Y9582867D01*
X5694651Y9595480D01*
X5716829Y9605970D01*
X5739929Y9614235D01*
X5763727Y9620196D01*
X5787996Y9623796D01*
X5812500Y9625000D01*
X6737500Y9625000D01*
X6762004Y9623796D01*
X6762004Y9623796D01*
G37*
D19*
G04 #@! TD*
G04 #@! TO.P,R3,2*
G04 #@! TO.N,Net-(R3-Pad2)*
X6275000Y8750000D03*
D13*
G04 #@! TO.N,3V3*
G04 #@! TO.C,C1*
G36*
X20224505Y3573796D02*
X20248773Y3570196D01*
X20272572Y3564235D01*
X20295671Y3555970D01*
X20317850Y3545480D01*
X20338893Y3532868D01*
X20358599Y3518253D01*
X20376777Y3501777D01*
X20393253Y3483599D01*
X20407868Y3463893D01*
X20420480Y3442850D01*
X20430970Y3420671D01*
X20439235Y3397572D01*
X20445196Y3373773D01*
X20448796Y3349505D01*
X20450000Y3325001D01*
X20450000Y2674999D01*
X20448796Y2650495D01*
X20445196Y2626227D01*
X20439235Y2602428D01*
X20430970Y2579329D01*
X20420480Y2557150D01*
X20407868Y2536107D01*
X20393253Y2516401D01*
X20376777Y2498223D01*
X20358599Y2481747D01*
X20338893Y2467132D01*
X20317850Y2454520D01*
X20295671Y2444030D01*
X20272572Y2435765D01*
X20248773Y2429804D01*
X20224505Y2426204D01*
X20200001Y2425000D01*
X19299999Y2425000D01*
X19275495Y2426204D01*
X19251227Y2429804D01*
X19227428Y2435765D01*
X19204329Y2444030D01*
X19182150Y2454520D01*
X19161107Y2467132D01*
X19141401Y2481747D01*
X19123223Y2498223D01*
X19106747Y2516401D01*
X19092132Y2536107D01*
X19079520Y2557150D01*
X19069030Y2579329D01*
X19060765Y2602428D01*
X19054804Y2626227D01*
X19051204Y2650495D01*
X19050000Y2674999D01*
X19050000Y3325001D01*
X19051204Y3349505D01*
X19054804Y3373773D01*
X19060765Y3397572D01*
X19069030Y3420671D01*
X19079520Y3442850D01*
X19092132Y3463893D01*
X19106747Y3483599D01*
X19123223Y3501777D01*
X19141401Y3518253D01*
X19161107Y3532868D01*
X19182150Y3545480D01*
X19204329Y3555970D01*
X19227428Y3564235D01*
X19251227Y3570196D01*
X19275495Y3573796D01*
X19299999Y3575000D01*
X20200001Y3575000D01*
X20224505Y3573796D01*
X20224505Y3573796D01*
G37*
D20*
G04 #@! TD*
G04 #@! TO.P,C1,2*
G04 #@! TO.N,3V3*
X19750000Y3000000D03*
D13*
G04 #@! TO.N,GND*
G04 #@! TO.C,C1*
G36*
X20224505Y5623796D02*
X20248773Y5620196D01*
X20272572Y5614235D01*
X20295671Y5605970D01*
X20317850Y5595480D01*
X20338893Y5582868D01*
X20358599Y5568253D01*
X20376777Y5551777D01*
X20393253Y5533599D01*
X20407868Y5513893D01*
X20420480Y5492850D01*
X20430970Y5470671D01*
X20439235Y5447572D01*
X20445196Y5423773D01*
X20448796Y5399505D01*
X20450000Y5375001D01*
X20450000Y4724999D01*
X20448796Y4700495D01*
X20445196Y4676227D01*
X20439235Y4652428D01*
X20430970Y4629329D01*
X20420480Y4607150D01*
X20407868Y4586107D01*
X20393253Y4566401D01*
X20376777Y4548223D01*
X20358599Y4531747D01*
X20338893Y4517132D01*
X20317850Y4504520D01*
X20295671Y4494030D01*
X20272572Y4485765D01*
X20248773Y4479804D01*
X20224505Y4476204D01*
X20200001Y4475000D01*
X19299999Y4475000D01*
X19275495Y4476204D01*
X19251227Y4479804D01*
X19227428Y4485765D01*
X19204329Y4494030D01*
X19182150Y4504520D01*
X19161107Y4517132D01*
X19141401Y4531747D01*
X19123223Y4548223D01*
X19106747Y4566401D01*
X19092132Y4586107D01*
X19079520Y4607150D01*
X19069030Y4629329D01*
X19060765Y4652428D01*
X19054804Y4676227D01*
X19051204Y4700495D01*
X19050000Y4724999D01*
X19050000Y5375001D01*
X19051204Y5399505D01*
X19054804Y5423773D01*
X19060765Y5447572D01*
X19069030Y5470671D01*
X19079520Y5492850D01*
X19092132Y5513893D01*
X19106747Y5533599D01*
X19123223Y5551777D01*
X19141401Y5568253D01*
X19161107Y5582868D01*
X19182150Y5595480D01*
X19204329Y5605970D01*
X19227428Y5614235D01*
X19251227Y5620196D01*
X19275495Y5623796D01*
X19299999Y5625000D01*
X20200001Y5625000D01*
X20224505Y5623796D01*
X20224505Y5623796D01*
G37*
D20*
G04 #@! TD*
G04 #@! TO.P,C1,1*
G04 #@! TO.N,GND*
X19750000Y5050000D03*
D13*
G04 #@! TO.N,GND*
G04 #@! TO.C,C2*
G36*
X35724505Y13123796D02*
X35748773Y13120196D01*
X35772572Y13114235D01*
X35795671Y13105970D01*
X35817850Y13095480D01*
X35838893Y13082868D01*
X35858599Y13068253D01*
X35876777Y13051777D01*
X35893253Y13033599D01*
X35907868Y13013893D01*
X35920480Y12992850D01*
X35930970Y12970671D01*
X35939235Y12947572D01*
X35945196Y12923773D01*
X35948796Y12899505D01*
X35950000Y12875001D01*
X35950000Y12224999D01*
X35948796Y12200495D01*
X35945196Y12176227D01*
X35939235Y12152428D01*
X35930970Y12129329D01*
X35920480Y12107150D01*
X35907868Y12086107D01*
X35893253Y12066401D01*
X35876777Y12048223D01*
X35858599Y12031747D01*
X35838893Y12017132D01*
X35817850Y12004520D01*
X35795671Y11994030D01*
X35772572Y11985765D01*
X35748773Y11979804D01*
X35724505Y11976204D01*
X35700001Y11975000D01*
X34799999Y11975000D01*
X34775495Y11976204D01*
X34751227Y11979804D01*
X34727428Y11985765D01*
X34704329Y11994030D01*
X34682150Y12004520D01*
X34661107Y12017132D01*
X34641401Y12031747D01*
X34623223Y12048223D01*
X34606747Y12066401D01*
X34592132Y12086107D01*
X34579520Y12107150D01*
X34569030Y12129329D01*
X34560765Y12152428D01*
X34554804Y12176227D01*
X34551204Y12200495D01*
X34550000Y12224999D01*
X34550000Y12875001D01*
X34551204Y12899505D01*
X34554804Y12923773D01*
X34560765Y12947572D01*
X34569030Y12970671D01*
X34579520Y12992850D01*
X34592132Y13013893D01*
X34606747Y13033599D01*
X34623223Y13051777D01*
X34641401Y13068253D01*
X34661107Y13082868D01*
X34682150Y13095480D01*
X34704329Y13105970D01*
X34727428Y13114235D01*
X34751227Y13120196D01*
X34775495Y13123796D01*
X34799999Y13125000D01*
X35700001Y13125000D01*
X35724505Y13123796D01*
X35724505Y13123796D01*
G37*
D20*
G04 #@! TD*
G04 #@! TO.P,C2,2*
G04 #@! TO.N,GND*
X35250000Y12550000D03*
D13*
G04 #@! TO.N,Net-(C2-Pad1)*
G04 #@! TO.C,C2*
G36*
X35724505Y11073796D02*
X35748773Y11070196D01*
X35772572Y11064235D01*
X35795671Y11055970D01*
X35817850Y11045480D01*
X35838893Y11032868D01*
X35858599Y11018253D01*
X35876777Y11001777D01*
X35893253Y10983599D01*
X35907868Y10963893D01*
X35920480Y10942850D01*
X35930970Y10920671D01*
X35939235Y10897572D01*
X35945196Y10873773D01*
X35948796Y10849505D01*
X35950000Y10825001D01*
X35950000Y10174999D01*
X35948796Y10150495D01*
X35945196Y10126227D01*
X35939235Y10102428D01*
X35930970Y10079329D01*
X35920480Y10057150D01*
X35907868Y10036107D01*
X35893253Y10016401D01*
X35876777Y9998223D01*
X35858599Y9981747D01*
X35838893Y9967132D01*
X35817850Y9954520D01*
X35795671Y9944030D01*
X35772572Y9935765D01*
X35748773Y9929804D01*
X35724505Y9926204D01*
X35700001Y9925000D01*
X34799999Y9925000D01*
X34775495Y9926204D01*
X34751227Y9929804D01*
X34727428Y9935765D01*
X34704329Y9944030D01*
X34682150Y9954520D01*
X34661107Y9967132D01*
X34641401Y9981747D01*
X34623223Y9998223D01*
X34606747Y10016401D01*
X34592132Y10036107D01*
X34579520Y10057150D01*
X34569030Y10079329D01*
X34560765Y10102428D01*
X34554804Y10126227D01*
X34551204Y10150495D01*
X34550000Y10174999D01*
X34550000Y10825001D01*
X34551204Y10849505D01*
X34554804Y10873773D01*
X34560765Y10897572D01*
X34569030Y10920671D01*
X34579520Y10942850D01*
X34592132Y10963893D01*
X34606747Y10983599D01*
X34623223Y11001777D01*
X34641401Y11018253D01*
X34661107Y11032868D01*
X34682150Y11045480D01*
X34704329Y11055970D01*
X34727428Y11064235D01*
X34751227Y11070196D01*
X34775495Y11073796D01*
X34799999Y11075000D01*
X35700001Y11075000D01*
X35724505Y11073796D01*
X35724505Y11073796D01*
G37*
D20*
G04 #@! TD*
G04 #@! TO.P,C2,1*
G04 #@! TO.N,Net-(C2-Pad1)*
X35250000Y10500000D03*
D13*
G04 #@! TO.N,3V3*
G04 #@! TO.C,C3*
G36*
X28074505Y3573796D02*
X28098773Y3570196D01*
X28122572Y3564235D01*
X28145671Y3555970D01*
X28167850Y3545480D01*
X28188893Y3532868D01*
X28208599Y3518253D01*
X28226777Y3501777D01*
X28243253Y3483599D01*
X28257868Y3463893D01*
X28270480Y3442850D01*
X28280970Y3420671D01*
X28289235Y3397572D01*
X28295196Y3373773D01*
X28298796Y3349505D01*
X28300000Y3325001D01*
X28300000Y2674999D01*
X28298796Y2650495D01*
X28295196Y2626227D01*
X28289235Y2602428D01*
X28280970Y2579329D01*
X28270480Y2557150D01*
X28257868Y2536107D01*
X28243253Y2516401D01*
X28226777Y2498223D01*
X28208599Y2481747D01*
X28188893Y2467132D01*
X28167850Y2454520D01*
X28145671Y2444030D01*
X28122572Y2435765D01*
X28098773Y2429804D01*
X28074505Y2426204D01*
X28050001Y2425000D01*
X27149999Y2425000D01*
X27125495Y2426204D01*
X27101227Y2429804D01*
X27077428Y2435765D01*
X27054329Y2444030D01*
X27032150Y2454520D01*
X27011107Y2467132D01*
X26991401Y2481747D01*
X26973223Y2498223D01*
X26956747Y2516401D01*
X26942132Y2536107D01*
X26929520Y2557150D01*
X26919030Y2579329D01*
X26910765Y2602428D01*
X26904804Y2626227D01*
X26901204Y2650495D01*
X26900000Y2674999D01*
X26900000Y3325001D01*
X26901204Y3349505D01*
X26904804Y3373773D01*
X26910765Y3397572D01*
X26919030Y3420671D01*
X26929520Y3442850D01*
X26942132Y3463893D01*
X26956747Y3483599D01*
X26973223Y3501777D01*
X26991401Y3518253D01*
X27011107Y3532868D01*
X27032150Y3545480D01*
X27054329Y3555970D01*
X27077428Y3564235D01*
X27101227Y3570196D01*
X27125495Y3573796D01*
X27149999Y3575000D01*
X28050001Y3575000D01*
X28074505Y3573796D01*
X28074505Y3573796D01*
G37*
D20*
G04 #@! TD*
G04 #@! TO.P,C3,1*
G04 #@! TO.N,3V3*
X27600000Y3000000D03*
D13*
G04 #@! TO.N,GND*
G04 #@! TO.C,C3*
G36*
X28074505Y5623796D02*
X28098773Y5620196D01*
X28122572Y5614235D01*
X28145671Y5605970D01*
X28167850Y5595480D01*
X28188893Y5582868D01*
X28208599Y5568253D01*
X28226777Y5551777D01*
X28243253Y5533599D01*
X28257868Y5513893D01*
X28270480Y5492850D01*
X28280970Y5470671D01*
X28289235Y5447572D01*
X28295196Y5423773D01*
X28298796Y5399505D01*
X28300000Y5375001D01*
X28300000Y4724999D01*
X28298796Y4700495D01*
X28295196Y4676227D01*
X28289235Y4652428D01*
X28280970Y4629329D01*
X28270480Y4607150D01*
X28257868Y4586107D01*
X28243253Y4566401D01*
X28226777Y4548223D01*
X28208599Y4531747D01*
X28188893Y4517132D01*
X28167850Y4504520D01*
X28145671Y4494030D01*
X28122572Y4485765D01*
X28098773Y4479804D01*
X28074505Y4476204D01*
X28050001Y4475000D01*
X27149999Y4475000D01*
X27125495Y4476204D01*
X27101227Y4479804D01*
X27077428Y4485765D01*
X27054329Y4494030D01*
X27032150Y4504520D01*
X27011107Y4517132D01*
X26991401Y4531747D01*
X26973223Y4548223D01*
X26956747Y4566401D01*
X26942132Y4586107D01*
X26929520Y4607150D01*
X26919030Y4629329D01*
X26910765Y4652428D01*
X26904804Y4676227D01*
X26901204Y4700495D01*
X26900000Y4724999D01*
X26900000Y5375001D01*
X26901204Y5399505D01*
X26904804Y5423773D01*
X26910765Y5447572D01*
X26919030Y5470671D01*
X26929520Y5492850D01*
X26942132Y5513893D01*
X26956747Y5533599D01*
X26973223Y5551777D01*
X26991401Y5568253D01*
X27011107Y5582868D01*
X27032150Y5595480D01*
X27054329Y5605970D01*
X27077428Y5614235D01*
X27101227Y5620196D01*
X27125495Y5623796D01*
X27149999Y5625000D01*
X28050001Y5625000D01*
X28074505Y5623796D01*
X28074505Y5623796D01*
G37*
D20*
G04 #@! TD*
G04 #@! TO.P,C3,2*
G04 #@! TO.N,GND*
X27600000Y5050000D03*
D13*
G04 #@! TO.N,3V3*
G04 #@! TO.C,C4*
G36*
X25874505Y3573796D02*
X25898773Y3570196D01*
X25922572Y3564235D01*
X25945671Y3555970D01*
X25967850Y3545480D01*
X25988893Y3532868D01*
X26008599Y3518253D01*
X26026777Y3501777D01*
X26043253Y3483599D01*
X26057868Y3463893D01*
X26070480Y3442850D01*
X26080970Y3420671D01*
X26089235Y3397572D01*
X26095196Y3373773D01*
X26098796Y3349505D01*
X26100000Y3325001D01*
X26100000Y2674999D01*
X26098796Y2650495D01*
X26095196Y2626227D01*
X26089235Y2602428D01*
X26080970Y2579329D01*
X26070480Y2557150D01*
X26057868Y2536107D01*
X26043253Y2516401D01*
X26026777Y2498223D01*
X26008599Y2481747D01*
X25988893Y2467132D01*
X25967850Y2454520D01*
X25945671Y2444030D01*
X25922572Y2435765D01*
X25898773Y2429804D01*
X25874505Y2426204D01*
X25850001Y2425000D01*
X24949999Y2425000D01*
X24925495Y2426204D01*
X24901227Y2429804D01*
X24877428Y2435765D01*
X24854329Y2444030D01*
X24832150Y2454520D01*
X24811107Y2467132D01*
X24791401Y2481747D01*
X24773223Y2498223D01*
X24756747Y2516401D01*
X24742132Y2536107D01*
X24729520Y2557150D01*
X24719030Y2579329D01*
X24710765Y2602428D01*
X24704804Y2626227D01*
X24701204Y2650495D01*
X24700000Y2674999D01*
X24700000Y3325001D01*
X24701204Y3349505D01*
X24704804Y3373773D01*
X24710765Y3397572D01*
X24719030Y3420671D01*
X24729520Y3442850D01*
X24742132Y3463893D01*
X24756747Y3483599D01*
X24773223Y3501777D01*
X24791401Y3518253D01*
X24811107Y3532868D01*
X24832150Y3545480D01*
X24854329Y3555970D01*
X24877428Y3564235D01*
X24901227Y3570196D01*
X24925495Y3573796D01*
X24949999Y3575000D01*
X25850001Y3575000D01*
X25874505Y3573796D01*
X25874505Y3573796D01*
G37*
D20*
G04 #@! TD*
G04 #@! TO.P,C4,1*
G04 #@! TO.N,3V3*
X25400000Y3000000D03*
D13*
G04 #@! TO.N,GND*
G04 #@! TO.C,C4*
G36*
X25874505Y5623796D02*
X25898773Y5620196D01*
X25922572Y5614235D01*
X25945671Y5605970D01*
X25967850Y5595480D01*
X25988893Y5582868D01*
X26008599Y5568253D01*
X26026777Y5551777D01*
X26043253Y5533599D01*
X26057868Y5513893D01*
X26070480Y5492850D01*
X26080970Y5470671D01*
X26089235Y5447572D01*
X26095196Y5423773D01*
X26098796Y5399505D01*
X26100000Y5375001D01*
X26100000Y4724999D01*
X26098796Y4700495D01*
X26095196Y4676227D01*
X26089235Y4652428D01*
X26080970Y4629329D01*
X26070480Y4607150D01*
X26057868Y4586107D01*
X26043253Y4566401D01*
X26026777Y4548223D01*
X26008599Y4531747D01*
X25988893Y4517132D01*
X25967850Y4504520D01*
X25945671Y4494030D01*
X25922572Y4485765D01*
X25898773Y4479804D01*
X25874505Y4476204D01*
X25850001Y4475000D01*
X24949999Y4475000D01*
X24925495Y4476204D01*
X24901227Y4479804D01*
X24877428Y4485765D01*
X24854329Y4494030D01*
X24832150Y4504520D01*
X24811107Y4517132D01*
X24791401Y4531747D01*
X24773223Y4548223D01*
X24756747Y4566401D01*
X24742132Y4586107D01*
X24729520Y4607150D01*
X24719030Y4629329D01*
X24710765Y4652428D01*
X24704804Y4676227D01*
X24701204Y4700495D01*
X24700000Y4724999D01*
X24700000Y5375001D01*
X24701204Y5399505D01*
X24704804Y5423773D01*
X24710765Y5447572D01*
X24719030Y5470671D01*
X24729520Y5492850D01*
X24742132Y5513893D01*
X24756747Y5533599D01*
X24773223Y5551777D01*
X24791401Y5568253D01*
X24811107Y5582868D01*
X24832150Y5595480D01*
X24854329Y5605970D01*
X24877428Y5614235D01*
X24901227Y5620196D01*
X24925495Y5623796D01*
X24949999Y5625000D01*
X25850001Y5625000D01*
X25874505Y5623796D01*
X25874505Y5623796D01*
G37*
D20*
G04 #@! TD*
G04 #@! TO.P,C4,2*
G04 #@! TO.N,GND*
X25400000Y5050000D03*
D13*
G04 #@! TO.N,GND*
G04 #@! TO.C,C6*
G36*
X21724505Y18348796D02*
X21748773Y18345196D01*
X21772572Y18339235D01*
X21795671Y18330970D01*
X21817850Y18320480D01*
X21838893Y18307868D01*
X21858599Y18293253D01*
X21876777Y18276777D01*
X21893253Y18258599D01*
X21907868Y18238893D01*
X21920480Y18217850D01*
X21930970Y18195671D01*
X21939235Y18172572D01*
X21945196Y18148773D01*
X21948796Y18124505D01*
X21950000Y18100001D01*
X21950000Y17449999D01*
X21948796Y17425495D01*
X21945196Y17401227D01*
X21939235Y17377428D01*
X21930970Y17354329D01*
X21920480Y17332150D01*
X21907868Y17311107D01*
X21893253Y17291401D01*
X21876777Y17273223D01*
X21858599Y17256747D01*
X21838893Y17242132D01*
X21817850Y17229520D01*
X21795671Y17219030D01*
X21772572Y17210765D01*
X21748773Y17204804D01*
X21724505Y17201204D01*
X21700001Y17200000D01*
X20799999Y17200000D01*
X20775495Y17201204D01*
X20751227Y17204804D01*
X20727428Y17210765D01*
X20704329Y17219030D01*
X20682150Y17229520D01*
X20661107Y17242132D01*
X20641401Y17256747D01*
X20623223Y17273223D01*
X20606747Y17291401D01*
X20592132Y17311107D01*
X20579520Y17332150D01*
X20569030Y17354329D01*
X20560765Y17377428D01*
X20554804Y17401227D01*
X20551204Y17425495D01*
X20550000Y17449999D01*
X20550000Y18100001D01*
X20551204Y18124505D01*
X20554804Y18148773D01*
X20560765Y18172572D01*
X20569030Y18195671D01*
X20579520Y18217850D01*
X20592132Y18238893D01*
X20606747Y18258599D01*
X20623223Y18276777D01*
X20641401Y18293253D01*
X20661107Y18307868D01*
X20682150Y18320480D01*
X20704329Y18330970D01*
X20727428Y18339235D01*
X20751227Y18345196D01*
X20775495Y18348796D01*
X20799999Y18350000D01*
X21700001Y18350000D01*
X21724505Y18348796D01*
X21724505Y18348796D01*
G37*
D20*
G04 #@! TD*
G04 #@! TO.P,C6,2*
G04 #@! TO.N,GND*
X21250000Y17775000D03*
D13*
G04 #@! TO.N,ADC*
G04 #@! TO.C,C6*
G36*
X21724505Y16298796D02*
X21748773Y16295196D01*
X21772572Y16289235D01*
X21795671Y16280970D01*
X21817850Y16270480D01*
X21838893Y16257868D01*
X21858599Y16243253D01*
X21876777Y16226777D01*
X21893253Y16208599D01*
X21907868Y16188893D01*
X21920480Y16167850D01*
X21930970Y16145671D01*
X21939235Y16122572D01*
X21945196Y16098773D01*
X21948796Y16074505D01*
X21950000Y16050001D01*
X21950000Y15399999D01*
X21948796Y15375495D01*
X21945196Y15351227D01*
X21939235Y15327428D01*
X21930970Y15304329D01*
X21920480Y15282150D01*
X21907868Y15261107D01*
X21893253Y15241401D01*
X21876777Y15223223D01*
X21858599Y15206747D01*
X21838893Y15192132D01*
X21817850Y15179520D01*
X21795671Y15169030D01*
X21772572Y15160765D01*
X21748773Y15154804D01*
X21724505Y15151204D01*
X21700001Y15150000D01*
X20799999Y15150000D01*
X20775495Y15151204D01*
X20751227Y15154804D01*
X20727428Y15160765D01*
X20704329Y15169030D01*
X20682150Y15179520D01*
X20661107Y15192132D01*
X20641401Y15206747D01*
X20623223Y15223223D01*
X20606747Y15241401D01*
X20592132Y15261107D01*
X20579520Y15282150D01*
X20569030Y15304329D01*
X20560765Y15327428D01*
X20554804Y15351227D01*
X20551204Y15375495D01*
X20550000Y15399999D01*
X20550000Y16050001D01*
X20551204Y16074505D01*
X20554804Y16098773D01*
X20560765Y16122572D01*
X20569030Y16145671D01*
X20579520Y16167850D01*
X20592132Y16188893D01*
X20606747Y16208599D01*
X20623223Y16226777D01*
X20641401Y16243253D01*
X20661107Y16257868D01*
X20682150Y16270480D01*
X20704329Y16280970D01*
X20727428Y16289235D01*
X20751227Y16295196D01*
X20775495Y16298796D01*
X20799999Y16300000D01*
X21700001Y16300000D01*
X21724505Y16298796D01*
X21724505Y16298796D01*
G37*
D20*
G04 #@! TD*
G04 #@! TO.P,C6,1*
G04 #@! TO.N,ADC*
X21250000Y15725000D03*
D13*
G04 #@! TO.N,GND*
G04 #@! TO.C,C7*
G36*
X9699505Y12198796D02*
X9723773Y12195196D01*
X9747572Y12189235D01*
X9770671Y12180970D01*
X9792850Y12170480D01*
X9813893Y12157868D01*
X9833599Y12143253D01*
X9851777Y12126777D01*
X9868253Y12108599D01*
X9882868Y12088893D01*
X9895480Y12067850D01*
X9905970Y12045671D01*
X9914235Y12022572D01*
X9920196Y11998773D01*
X9923796Y11974505D01*
X9925000Y11950001D01*
X9925000Y11049999D01*
X9923796Y11025495D01*
X9920196Y11001227D01*
X9914235Y10977428D01*
X9905970Y10954329D01*
X9895480Y10932150D01*
X9882868Y10911107D01*
X9868253Y10891401D01*
X9851777Y10873223D01*
X9833599Y10856747D01*
X9813893Y10842132D01*
X9792850Y10829520D01*
X9770671Y10819030D01*
X9747572Y10810765D01*
X9723773Y10804804D01*
X9699505Y10801204D01*
X9675001Y10800000D01*
X9024999Y10800000D01*
X9000495Y10801204D01*
X8976227Y10804804D01*
X8952428Y10810765D01*
X8929329Y10819030D01*
X8907150Y10829520D01*
X8886107Y10842132D01*
X8866401Y10856747D01*
X8848223Y10873223D01*
X8831747Y10891401D01*
X8817132Y10911107D01*
X8804520Y10932150D01*
X8794030Y10954329D01*
X8785765Y10977428D01*
X8779804Y11001227D01*
X8776204Y11025495D01*
X8775000Y11049999D01*
X8775000Y11950001D01*
X8776204Y11974505D01*
X8779804Y11998773D01*
X8785765Y12022572D01*
X8794030Y12045671D01*
X8804520Y12067850D01*
X8817132Y12088893D01*
X8831747Y12108599D01*
X8848223Y12126777D01*
X8866401Y12143253D01*
X8886107Y12157868D01*
X8907150Y12170480D01*
X8929329Y12180970D01*
X8952428Y12189235D01*
X8976227Y12195196D01*
X9000495Y12198796D01*
X9024999Y12200000D01*
X9675001Y12200000D01*
X9699505Y12198796D01*
X9699505Y12198796D01*
G37*
D20*
G04 #@! TD*
G04 #@! TO.P,C7,1*
G04 #@! TO.N,GND*
X9350000Y11500000D03*
D13*
G04 #@! TO.N,Net-(C7-Pad2)*
G04 #@! TO.C,C7*
G36*
X7649505Y12198796D02*
X7673773Y12195196D01*
X7697572Y12189235D01*
X7720671Y12180970D01*
X7742850Y12170480D01*
X7763893Y12157868D01*
X7783599Y12143253D01*
X7801777Y12126777D01*
X7818253Y12108599D01*
X7832868Y12088893D01*
X7845480Y12067850D01*
X7855970Y12045671D01*
X7864235Y12022572D01*
X7870196Y11998773D01*
X7873796Y11974505D01*
X7875000Y11950001D01*
X7875000Y11049999D01*
X7873796Y11025495D01*
X7870196Y11001227D01*
X7864235Y10977428D01*
X7855970Y10954329D01*
X7845480Y10932150D01*
X7832868Y10911107D01*
X7818253Y10891401D01*
X7801777Y10873223D01*
X7783599Y10856747D01*
X7763893Y10842132D01*
X7742850Y10829520D01*
X7720671Y10819030D01*
X7697572Y10810765D01*
X7673773Y10804804D01*
X7649505Y10801204D01*
X7625001Y10800000D01*
X6974999Y10800000D01*
X6950495Y10801204D01*
X6926227Y10804804D01*
X6902428Y10810765D01*
X6879329Y10819030D01*
X6857150Y10829520D01*
X6836107Y10842132D01*
X6816401Y10856747D01*
X6798223Y10873223D01*
X6781747Y10891401D01*
X6767132Y10911107D01*
X6754520Y10932150D01*
X6744030Y10954329D01*
X6735765Y10977428D01*
X6729804Y11001227D01*
X6726204Y11025495D01*
X6725000Y11049999D01*
X6725000Y11950001D01*
X6726204Y11974505D01*
X6729804Y11998773D01*
X6735765Y12022572D01*
X6744030Y12045671D01*
X6754520Y12067850D01*
X6767132Y12088893D01*
X6781747Y12108599D01*
X6798223Y12126777D01*
X6816401Y12143253D01*
X6836107Y12157868D01*
X6857150Y12170480D01*
X6879329Y12180970D01*
X6902428Y12189235D01*
X6926227Y12195196D01*
X6950495Y12198796D01*
X6974999Y12200000D01*
X7625001Y12200000D01*
X7649505Y12198796D01*
X7649505Y12198796D01*
G37*
D20*
G04 #@! TD*
G04 #@! TO.P,C7,2*
G04 #@! TO.N,Net-(C7-Pad2)*
X7300000Y11500000D03*
D21*
G04 #@! TO.P,L1,1*
G04 #@! TO.N,Net-(JP2-Pad1)*
X36667000Y5250000D03*
G04 #@! TO.P,L1,2*
G04 #@! TO.N,Net-(L1-Pad2)*
X34297000Y5250000D03*
G04 #@! TD*
D13*
G04 #@! TO.N,Net-(C2-Pad1)*
G04 #@! TO.C,R1*
G36*
X23649505Y14198796D02*
X23673773Y14195196D01*
X23697572Y14189235D01*
X23720671Y14180970D01*
X23742850Y14170480D01*
X23763893Y14157868D01*
X23783599Y14143253D01*
X23801777Y14126777D01*
X23818253Y14108599D01*
X23832868Y14088893D01*
X23845480Y14067850D01*
X23855970Y14045671D01*
X23864235Y14022572D01*
X23870196Y13998773D01*
X23873796Y13974505D01*
X23875000Y13950001D01*
X23875000Y13049999D01*
X23873796Y13025495D01*
X23870196Y13001227D01*
X23864235Y12977428D01*
X23855970Y12954329D01*
X23845480Y12932150D01*
X23832868Y12911107D01*
X23818253Y12891401D01*
X23801777Y12873223D01*
X23783599Y12856747D01*
X23763893Y12842132D01*
X23742850Y12829520D01*
X23720671Y12819030D01*
X23697572Y12810765D01*
X23673773Y12804804D01*
X23649505Y12801204D01*
X23625001Y12800000D01*
X22974999Y12800000D01*
X22950495Y12801204D01*
X22926227Y12804804D01*
X22902428Y12810765D01*
X22879329Y12819030D01*
X22857150Y12829520D01*
X22836107Y12842132D01*
X22816401Y12856747D01*
X22798223Y12873223D01*
X22781747Y12891401D01*
X22767132Y12911107D01*
X22754520Y12932150D01*
X22744030Y12954329D01*
X22735765Y12977428D01*
X22729804Y13001227D01*
X22726204Y13025495D01*
X22725000Y13049999D01*
X22725000Y13950001D01*
X22726204Y13974505D01*
X22729804Y13998773D01*
X22735765Y14022572D01*
X22744030Y14045671D01*
X22754520Y14067850D01*
X22767132Y14088893D01*
X22781747Y14108599D01*
X22798223Y14126777D01*
X22816401Y14143253D01*
X22836107Y14157868D01*
X22857150Y14170480D01*
X22879329Y14180970D01*
X22902428Y14189235D01*
X22926227Y14195196D01*
X22950495Y14198796D01*
X22974999Y14200000D01*
X23625001Y14200000D01*
X23649505Y14198796D01*
X23649505Y14198796D01*
G37*
D20*
G04 #@! TD*
G04 #@! TO.P,R1,2*
G04 #@! TO.N,Net-(C2-Pad1)*
X23300000Y13500000D03*
D13*
G04 #@! TO.N,ADC*
G04 #@! TO.C,R1*
G36*
X21599505Y14198796D02*
X21623773Y14195196D01*
X21647572Y14189235D01*
X21670671Y14180970D01*
X21692850Y14170480D01*
X21713893Y14157868D01*
X21733599Y14143253D01*
X21751777Y14126777D01*
X21768253Y14108599D01*
X21782868Y14088893D01*
X21795480Y14067850D01*
X21805970Y14045671D01*
X21814235Y14022572D01*
X21820196Y13998773D01*
X21823796Y13974505D01*
X21825000Y13950001D01*
X21825000Y13049999D01*
X21823796Y13025495D01*
X21820196Y13001227D01*
X21814235Y12977428D01*
X21805970Y12954329D01*
X21795480Y12932150D01*
X21782868Y12911107D01*
X21768253Y12891401D01*
X21751777Y12873223D01*
X21733599Y12856747D01*
X21713893Y12842132D01*
X21692850Y12829520D01*
X21670671Y12819030D01*
X21647572Y12810765D01*
X21623773Y12804804D01*
X21599505Y12801204D01*
X21575001Y12800000D01*
X20924999Y12800000D01*
X20900495Y12801204D01*
X20876227Y12804804D01*
X20852428Y12810765D01*
X20829329Y12819030D01*
X20807150Y12829520D01*
X20786107Y12842132D01*
X20766401Y12856747D01*
X20748223Y12873223D01*
X20731747Y12891401D01*
X20717132Y12911107D01*
X20704520Y12932150D01*
X20694030Y12954329D01*
X20685765Y12977428D01*
X20679804Y13001227D01*
X20676204Y13025495D01*
X20675000Y13049999D01*
X20675000Y13950001D01*
X20676204Y13974505D01*
X20679804Y13998773D01*
X20685765Y14022572D01*
X20694030Y14045671D01*
X20704520Y14067850D01*
X20717132Y14088893D01*
X20731747Y14108599D01*
X20748223Y14126777D01*
X20766401Y14143253D01*
X20786107Y14157868D01*
X20807150Y14170480D01*
X20829329Y14180970D01*
X20852428Y14189235D01*
X20876227Y14195196D01*
X20900495Y14198796D01*
X20924999Y14200000D01*
X21575001Y14200000D01*
X21599505Y14198796D01*
X21599505Y14198796D01*
G37*
D20*
G04 #@! TD*
G04 #@! TO.P,R1,1*
G04 #@! TO.N,ADC*
X21250000Y13500000D03*
D13*
G04 #@! TO.N,GND*
G04 #@! TO.C,R2*
G36*
X23974505Y18348796D02*
X23998773Y18345196D01*
X24022572Y18339235D01*
X24045671Y18330970D01*
X24067850Y18320480D01*
X24088893Y18307868D01*
X24108599Y18293253D01*
X24126777Y18276777D01*
X24143253Y18258599D01*
X24157868Y18238893D01*
X24170480Y18217850D01*
X24180970Y18195671D01*
X24189235Y18172572D01*
X24195196Y18148773D01*
X24198796Y18124505D01*
X24200000Y18100001D01*
X24200000Y17449999D01*
X24198796Y17425495D01*
X24195196Y17401227D01*
X24189235Y17377428D01*
X24180970Y17354329D01*
X24170480Y17332150D01*
X24157868Y17311107D01*
X24143253Y17291401D01*
X24126777Y17273223D01*
X24108599Y17256747D01*
X24088893Y17242132D01*
X24067850Y17229520D01*
X24045671Y17219030D01*
X24022572Y17210765D01*
X23998773Y17204804D01*
X23974505Y17201204D01*
X23950001Y17200000D01*
X23049999Y17200000D01*
X23025495Y17201204D01*
X23001227Y17204804D01*
X22977428Y17210765D01*
X22954329Y17219030D01*
X22932150Y17229520D01*
X22911107Y17242132D01*
X22891401Y17256747D01*
X22873223Y17273223D01*
X22856747Y17291401D01*
X22842132Y17311107D01*
X22829520Y17332150D01*
X22819030Y17354329D01*
X22810765Y17377428D01*
X22804804Y17401227D01*
X22801204Y17425495D01*
X22800000Y17449999D01*
X22800000Y18100001D01*
X22801204Y18124505D01*
X22804804Y18148773D01*
X22810765Y18172572D01*
X22819030Y18195671D01*
X22829520Y18217850D01*
X22842132Y18238893D01*
X22856747Y18258599D01*
X22873223Y18276777D01*
X22891401Y18293253D01*
X22911107Y18307868D01*
X22932150Y18320480D01*
X22954329Y18330970D01*
X22977428Y18339235D01*
X23001227Y18345196D01*
X23025495Y18348796D01*
X23049999Y18350000D01*
X23950001Y18350000D01*
X23974505Y18348796D01*
X23974505Y18348796D01*
G37*
D20*
G04 #@! TD*
G04 #@! TO.P,R2,1*
G04 #@! TO.N,GND*
X23500000Y17775000D03*
D13*
G04 #@! TO.N,ADC*
G04 #@! TO.C,R2*
G36*
X23974505Y16298796D02*
X23998773Y16295196D01*
X24022572Y16289235D01*
X24045671Y16280970D01*
X24067850Y16270480D01*
X24088893Y16257868D01*
X24108599Y16243253D01*
X24126777Y16226777D01*
X24143253Y16208599D01*
X24157868Y16188893D01*
X24170480Y16167850D01*
X24180970Y16145671D01*
X24189235Y16122572D01*
X24195196Y16098773D01*
X24198796Y16074505D01*
X24200000Y16050001D01*
X24200000Y15399999D01*
X24198796Y15375495D01*
X24195196Y15351227D01*
X24189235Y15327428D01*
X24180970Y15304329D01*
X24170480Y15282150D01*
X24157868Y15261107D01*
X24143253Y15241401D01*
X24126777Y15223223D01*
X24108599Y15206747D01*
X24088893Y15192132D01*
X24067850Y15179520D01*
X24045671Y15169030D01*
X24022572Y15160765D01*
X23998773Y15154804D01*
X23974505Y15151204D01*
X23950001Y15150000D01*
X23049999Y15150000D01*
X23025495Y15151204D01*
X23001227Y15154804D01*
X22977428Y15160765D01*
X22954329Y15169030D01*
X22932150Y15179520D01*
X22911107Y15192132D01*
X22891401Y15206747D01*
X22873223Y15223223D01*
X22856747Y15241401D01*
X22842132Y15261107D01*
X22829520Y15282150D01*
X22819030Y15304329D01*
X22810765Y15327428D01*
X22804804Y15351227D01*
X22801204Y15375495D01*
X22800000Y15399999D01*
X22800000Y16050001D01*
X22801204Y16074505D01*
X22804804Y16098773D01*
X22810765Y16122572D01*
X22819030Y16145671D01*
X22829520Y16167850D01*
X22842132Y16188893D01*
X22856747Y16208599D01*
X22873223Y16226777D01*
X22891401Y16243253D01*
X22911107Y16257868D01*
X22932150Y16270480D01*
X22954329Y16280970D01*
X22977428Y16289235D01*
X23001227Y16295196D01*
X23025495Y16298796D01*
X23049999Y16300000D01*
X23950001Y16300000D01*
X23974505Y16298796D01*
X23974505Y16298796D01*
G37*
D20*
G04 #@! TD*
G04 #@! TO.P,R2,2*
G04 #@! TO.N,ADC*
X23500000Y15725000D03*
D13*
G04 #@! TO.N,Net-(R4-Pad1)*
G04 #@! TO.C,R4*
G36*
X3849505Y14198796D02*
X3873773Y14195196D01*
X3897572Y14189235D01*
X3920671Y14180970D01*
X3942850Y14170480D01*
X3963893Y14157868D01*
X3983599Y14143253D01*
X4001777Y14126777D01*
X4018253Y14108599D01*
X4032868Y14088893D01*
X4045480Y14067850D01*
X4055970Y14045671D01*
X4064235Y14022572D01*
X4070196Y13998773D01*
X4073796Y13974505D01*
X4075000Y13950001D01*
X4075000Y13049999D01*
X4073796Y13025495D01*
X4070196Y13001227D01*
X4064235Y12977428D01*
X4055970Y12954329D01*
X4045480Y12932150D01*
X4032868Y12911107D01*
X4018253Y12891401D01*
X4001777Y12873223D01*
X3983599Y12856747D01*
X3963893Y12842132D01*
X3942850Y12829520D01*
X3920671Y12819030D01*
X3897572Y12810765D01*
X3873773Y12804804D01*
X3849505Y12801204D01*
X3825001Y12800000D01*
X3174999Y12800000D01*
X3150495Y12801204D01*
X3126227Y12804804D01*
X3102428Y12810765D01*
X3079329Y12819030D01*
X3057150Y12829520D01*
X3036107Y12842132D01*
X3016401Y12856747D01*
X2998223Y12873223D01*
X2981747Y12891401D01*
X2967132Y12911107D01*
X2954520Y12932150D01*
X2944030Y12954329D01*
X2935765Y12977428D01*
X2929804Y13001227D01*
X2926204Y13025495D01*
X2925000Y13049999D01*
X2925000Y13950001D01*
X2926204Y13974505D01*
X2929804Y13998773D01*
X2935765Y14022572D01*
X2944030Y14045671D01*
X2954520Y14067850D01*
X2967132Y14088893D01*
X2981747Y14108599D01*
X2998223Y14126777D01*
X3016401Y14143253D01*
X3036107Y14157868D01*
X3057150Y14170480D01*
X3079329Y14180970D01*
X3102428Y14189235D01*
X3126227Y14195196D01*
X3150495Y14198796D01*
X3174999Y14200000D01*
X3825001Y14200000D01*
X3849505Y14198796D01*
X3849505Y14198796D01*
G37*
D20*
G04 #@! TD*
G04 #@! TO.P,R4,1*
G04 #@! TO.N,Net-(R4-Pad1)*
X3500000Y13500000D03*
D13*
G04 #@! TO.N,3V3*
G04 #@! TO.C,R4*
G36*
X1799505Y14198796D02*
X1823773Y14195196D01*
X1847572Y14189235D01*
X1870671Y14180970D01*
X1892850Y14170480D01*
X1913893Y14157868D01*
X1933599Y14143253D01*
X1951777Y14126777D01*
X1968253Y14108599D01*
X1982868Y14088893D01*
X1995480Y14067850D01*
X2005970Y14045671D01*
X2014235Y14022572D01*
X2020196Y13998773D01*
X2023796Y13974505D01*
X2025000Y13950001D01*
X2025000Y13049999D01*
X2023796Y13025495D01*
X2020196Y13001227D01*
X2014235Y12977428D01*
X2005970Y12954329D01*
X1995480Y12932150D01*
X1982868Y12911107D01*
X1968253Y12891401D01*
X1951777Y12873223D01*
X1933599Y12856747D01*
X1913893Y12842132D01*
X1892850Y12829520D01*
X1870671Y12819030D01*
X1847572Y12810765D01*
X1823773Y12804804D01*
X1799505Y12801204D01*
X1775001Y12800000D01*
X1124999Y12800000D01*
X1100495Y12801204D01*
X1076227Y12804804D01*
X1052428Y12810765D01*
X1029329Y12819030D01*
X1007150Y12829520D01*
X986107Y12842132D01*
X966401Y12856747D01*
X948223Y12873223D01*
X931747Y12891401D01*
X917132Y12911107D01*
X904520Y12932150D01*
X894030Y12954329D01*
X885765Y12977428D01*
X879804Y13001227D01*
X876204Y13025495D01*
X875000Y13049999D01*
X875000Y13950001D01*
X876204Y13974505D01*
X879804Y13998773D01*
X885765Y14022572D01*
X894030Y14045671D01*
X904520Y14067850D01*
X917132Y14088893D01*
X931747Y14108599D01*
X948223Y14126777D01*
X966401Y14143253D01*
X986107Y14157868D01*
X1007150Y14170480D01*
X1029329Y14180970D01*
X1052428Y14189235D01*
X1076227Y14195196D01*
X1100495Y14198796D01*
X1124999Y14200000D01*
X1775001Y14200000D01*
X1799505Y14198796D01*
X1799505Y14198796D01*
G37*
D20*
G04 #@! TD*
G04 #@! TO.P,R4,2*
G04 #@! TO.N,3V3*
X1450000Y13500000D03*
D13*
G04 #@! TO.N,3V3*
G04 #@! TO.C,R5*
G36*
X1799505Y9698796D02*
X1823773Y9695196D01*
X1847572Y9689235D01*
X1870671Y9680970D01*
X1892850Y9670480D01*
X1913893Y9657868D01*
X1933599Y9643253D01*
X1951777Y9626777D01*
X1968253Y9608599D01*
X1982868Y9588893D01*
X1995480Y9567850D01*
X2005970Y9545671D01*
X2014235Y9522572D01*
X2020196Y9498773D01*
X2023796Y9474505D01*
X2025000Y9450001D01*
X2025000Y8549999D01*
X2023796Y8525495D01*
X2020196Y8501227D01*
X2014235Y8477428D01*
X2005970Y8454329D01*
X1995480Y8432150D01*
X1982868Y8411107D01*
X1968253Y8391401D01*
X1951777Y8373223D01*
X1933599Y8356747D01*
X1913893Y8342132D01*
X1892850Y8329520D01*
X1870671Y8319030D01*
X1847572Y8310765D01*
X1823773Y8304804D01*
X1799505Y8301204D01*
X1775001Y8300000D01*
X1124999Y8300000D01*
X1100495Y8301204D01*
X1076227Y8304804D01*
X1052428Y8310765D01*
X1029329Y8319030D01*
X1007150Y8329520D01*
X986107Y8342132D01*
X966401Y8356747D01*
X948223Y8373223D01*
X931747Y8391401D01*
X917132Y8411107D01*
X904520Y8432150D01*
X894030Y8454329D01*
X885765Y8477428D01*
X879804Y8501227D01*
X876204Y8525495D01*
X875000Y8549999D01*
X875000Y9450001D01*
X876204Y9474505D01*
X879804Y9498773D01*
X885765Y9522572D01*
X894030Y9545671D01*
X904520Y9567850D01*
X917132Y9588893D01*
X931747Y9608599D01*
X948223Y9626777D01*
X966401Y9643253D01*
X986107Y9657868D01*
X1007150Y9670480D01*
X1029329Y9680970D01*
X1052428Y9689235D01*
X1076227Y9695196D01*
X1100495Y9698796D01*
X1124999Y9700000D01*
X1775001Y9700000D01*
X1799505Y9698796D01*
X1799505Y9698796D01*
G37*
D20*
G04 #@! TD*
G04 #@! TO.P,R5,2*
G04 #@! TO.N,3V3*
X1450000Y9000000D03*
D13*
G04 #@! TO.N,Net-(R3-Pad2)*
G04 #@! TO.C,R5*
G36*
X3849505Y9698796D02*
X3873773Y9695196D01*
X3897572Y9689235D01*
X3920671Y9680970D01*
X3942850Y9670480D01*
X3963893Y9657868D01*
X3983599Y9643253D01*
X4001777Y9626777D01*
X4018253Y9608599D01*
X4032868Y9588893D01*
X4045480Y9567850D01*
X4055970Y9545671D01*
X4064235Y9522572D01*
X4070196Y9498773D01*
X4073796Y9474505D01*
X4075000Y9450001D01*
X4075000Y8549999D01*
X4073796Y8525495D01*
X4070196Y8501227D01*
X4064235Y8477428D01*
X4055970Y8454329D01*
X4045480Y8432150D01*
X4032868Y8411107D01*
X4018253Y8391401D01*
X4001777Y8373223D01*
X3983599Y8356747D01*
X3963893Y8342132D01*
X3942850Y8329520D01*
X3920671Y8319030D01*
X3897572Y8310765D01*
X3873773Y8304804D01*
X3849505Y8301204D01*
X3825001Y8300000D01*
X3174999Y8300000D01*
X3150495Y8301204D01*
X3126227Y8304804D01*
X3102428Y8310765D01*
X3079329Y8319030D01*
X3057150Y8329520D01*
X3036107Y8342132D01*
X3016401Y8356747D01*
X2998223Y8373223D01*
X2981747Y8391401D01*
X2967132Y8411107D01*
X2954520Y8432150D01*
X2944030Y8454329D01*
X2935765Y8477428D01*
X2929804Y8501227D01*
X2926204Y8525495D01*
X2925000Y8549999D01*
X2925000Y9450001D01*
X2926204Y9474505D01*
X2929804Y9498773D01*
X2935765Y9522572D01*
X2944030Y9545671D01*
X2954520Y9567850D01*
X2967132Y9588893D01*
X2981747Y9608599D01*
X2998223Y9626777D01*
X3016401Y9643253D01*
X3036107Y9657868D01*
X3057150Y9670480D01*
X3079329Y9680970D01*
X3102428Y9689235D01*
X3126227Y9695196D01*
X3150495Y9698796D01*
X3174999Y9700000D01*
X3825001Y9700000D01*
X3849505Y9698796D01*
X3849505Y9698796D01*
G37*
D20*
G04 #@! TD*
G04 #@! TO.P,R5,1*
G04 #@! TO.N,Net-(R3-Pad2)*
X3500000Y9000000D03*
D13*
G04 #@! TO.N,Net-(C7-Pad2)*
G04 #@! TO.C,R6*
G36*
X3849505Y11948796D02*
X3873773Y11945196D01*
X3897572Y11939235D01*
X3920671Y11930970D01*
X3942850Y11920480D01*
X3963893Y11907868D01*
X3983599Y11893253D01*
X4001777Y11876777D01*
X4018253Y11858599D01*
X4032868Y11838893D01*
X4045480Y11817850D01*
X4055970Y11795671D01*
X4064235Y11772572D01*
X4070196Y11748773D01*
X4073796Y11724505D01*
X4075000Y11700001D01*
X4075000Y10799999D01*
X4073796Y10775495D01*
X4070196Y10751227D01*
X4064235Y10727428D01*
X4055970Y10704329D01*
X4045480Y10682150D01*
X4032868Y10661107D01*
X4018253Y10641401D01*
X4001777Y10623223D01*
X3983599Y10606747D01*
X3963893Y10592132D01*
X3942850Y10579520D01*
X3920671Y10569030D01*
X3897572Y10560765D01*
X3873773Y10554804D01*
X3849505Y10551204D01*
X3825001Y10550000D01*
X3174999Y10550000D01*
X3150495Y10551204D01*
X3126227Y10554804D01*
X3102428Y10560765D01*
X3079329Y10569030D01*
X3057150Y10579520D01*
X3036107Y10592132D01*
X3016401Y10606747D01*
X2998223Y10623223D01*
X2981747Y10641401D01*
X2967132Y10661107D01*
X2954520Y10682150D01*
X2944030Y10704329D01*
X2935765Y10727428D01*
X2929804Y10751227D01*
X2926204Y10775495D01*
X2925000Y10799999D01*
X2925000Y11700001D01*
X2926204Y11724505D01*
X2929804Y11748773D01*
X2935765Y11772572D01*
X2944030Y11795671D01*
X2954520Y11817850D01*
X2967132Y11838893D01*
X2981747Y11858599D01*
X2998223Y11876777D01*
X3016401Y11893253D01*
X3036107Y11907868D01*
X3057150Y11920480D01*
X3079329Y11930970D01*
X3102428Y11939235D01*
X3126227Y11945196D01*
X3150495Y11948796D01*
X3174999Y11950000D01*
X3825001Y11950000D01*
X3849505Y11948796D01*
X3849505Y11948796D01*
G37*
D20*
G04 #@! TD*
G04 #@! TO.P,R6,1*
G04 #@! TO.N,Net-(C7-Pad2)*
X3500000Y11250000D03*
D13*
G04 #@! TO.N,3V3*
G04 #@! TO.C,R6*
G36*
X1799505Y11948796D02*
X1823773Y11945196D01*
X1847572Y11939235D01*
X1870671Y11930970D01*
X1892850Y11920480D01*
X1913893Y11907868D01*
X1933599Y11893253D01*
X1951777Y11876777D01*
X1968253Y11858599D01*
X1982868Y11838893D01*
X1995480Y11817850D01*
X2005970Y11795671D01*
X2014235Y11772572D01*
X2020196Y11748773D01*
X2023796Y11724505D01*
X2025000Y11700001D01*
X2025000Y10799999D01*
X2023796Y10775495D01*
X2020196Y10751227D01*
X2014235Y10727428D01*
X2005970Y10704329D01*
X1995480Y10682150D01*
X1982868Y10661107D01*
X1968253Y10641401D01*
X1951777Y10623223D01*
X1933599Y10606747D01*
X1913893Y10592132D01*
X1892850Y10579520D01*
X1870671Y10569030D01*
X1847572Y10560765D01*
X1823773Y10554804D01*
X1799505Y10551204D01*
X1775001Y10550000D01*
X1124999Y10550000D01*
X1100495Y10551204D01*
X1076227Y10554804D01*
X1052428Y10560765D01*
X1029329Y10569030D01*
X1007150Y10579520D01*
X986107Y10592132D01*
X966401Y10606747D01*
X948223Y10623223D01*
X931747Y10641401D01*
X917132Y10661107D01*
X904520Y10682150D01*
X894030Y10704329D01*
X885765Y10727428D01*
X879804Y10751227D01*
X876204Y10775495D01*
X875000Y10799999D01*
X875000Y11700001D01*
X876204Y11724505D01*
X879804Y11748773D01*
X885765Y11772572D01*
X894030Y11795671D01*
X904520Y11817850D01*
X917132Y11838893D01*
X931747Y11858599D01*
X948223Y11876777D01*
X966401Y11893253D01*
X986107Y11907868D01*
X1007150Y11920480D01*
X1029329Y11930970D01*
X1052428Y11939235D01*
X1076227Y11945196D01*
X1100495Y11948796D01*
X1124999Y11950000D01*
X1775001Y11950000D01*
X1799505Y11948796D01*
X1799505Y11948796D01*
G37*
D20*
G04 #@! TD*
G04 #@! TO.P,R6,2*
G04 #@! TO.N,3V3*
X1450000Y11250000D03*
D13*
G04 #@! TO.N,Net-(R7-Pad2)*
G04 #@! TO.C,R7*
G36*
X14849505Y15698796D02*
X14873773Y15695196D01*
X14897572Y15689235D01*
X14920671Y15680970D01*
X14942850Y15670480D01*
X14963893Y15657868D01*
X14983599Y15643253D01*
X15001777Y15626777D01*
X15018253Y15608599D01*
X15032868Y15588893D01*
X15045480Y15567850D01*
X15055970Y15545671D01*
X15064235Y15522572D01*
X15070196Y15498773D01*
X15073796Y15474505D01*
X15075000Y15450001D01*
X15075000Y14549999D01*
X15073796Y14525495D01*
X15070196Y14501227D01*
X15064235Y14477428D01*
X15055970Y14454329D01*
X15045480Y14432150D01*
X15032868Y14411107D01*
X15018253Y14391401D01*
X15001777Y14373223D01*
X14983599Y14356747D01*
X14963893Y14342132D01*
X14942850Y14329520D01*
X14920671Y14319030D01*
X14897572Y14310765D01*
X14873773Y14304804D01*
X14849505Y14301204D01*
X14825001Y14300000D01*
X14174999Y14300000D01*
X14150495Y14301204D01*
X14126227Y14304804D01*
X14102428Y14310765D01*
X14079329Y14319030D01*
X14057150Y14329520D01*
X14036107Y14342132D01*
X14016401Y14356747D01*
X13998223Y14373223D01*
X13981747Y14391401D01*
X13967132Y14411107D01*
X13954520Y14432150D01*
X13944030Y14454329D01*
X13935765Y14477428D01*
X13929804Y14501227D01*
X13926204Y14525495D01*
X13925000Y14549999D01*
X13925000Y15450001D01*
X13926204Y15474505D01*
X13929804Y15498773D01*
X13935765Y15522572D01*
X13944030Y15545671D01*
X13954520Y15567850D01*
X13967132Y15588893D01*
X13981747Y15608599D01*
X13998223Y15626777D01*
X14016401Y15643253D01*
X14036107Y15657868D01*
X14057150Y15670480D01*
X14079329Y15680970D01*
X14102428Y15689235D01*
X14126227Y15695196D01*
X14150495Y15698796D01*
X14174999Y15700000D01*
X14825001Y15700000D01*
X14849505Y15698796D01*
X14849505Y15698796D01*
G37*
D20*
G04 #@! TD*
G04 #@! TO.P,R7,2*
G04 #@! TO.N,Net-(R7-Pad2)*
X14500000Y15000000D03*
D13*
G04 #@! TO.N,GND*
G04 #@! TO.C,R7*
G36*
X16899505Y15698796D02*
X16923773Y15695196D01*
X16947572Y15689235D01*
X16970671Y15680970D01*
X16992850Y15670480D01*
X17013893Y15657868D01*
X17033599Y15643253D01*
X17051777Y15626777D01*
X17068253Y15608599D01*
X17082868Y15588893D01*
X17095480Y15567850D01*
X17105970Y15545671D01*
X17114235Y15522572D01*
X17120196Y15498773D01*
X17123796Y15474505D01*
X17125000Y15450001D01*
X17125000Y14549999D01*
X17123796Y14525495D01*
X17120196Y14501227D01*
X17114235Y14477428D01*
X17105970Y14454329D01*
X17095480Y14432150D01*
X17082868Y14411107D01*
X17068253Y14391401D01*
X17051777Y14373223D01*
X17033599Y14356747D01*
X17013893Y14342132D01*
X16992850Y14329520D01*
X16970671Y14319030D01*
X16947572Y14310765D01*
X16923773Y14304804D01*
X16899505Y14301204D01*
X16875001Y14300000D01*
X16224999Y14300000D01*
X16200495Y14301204D01*
X16176227Y14304804D01*
X16152428Y14310765D01*
X16129329Y14319030D01*
X16107150Y14329520D01*
X16086107Y14342132D01*
X16066401Y14356747D01*
X16048223Y14373223D01*
X16031747Y14391401D01*
X16017132Y14411107D01*
X16004520Y14432150D01*
X15994030Y14454329D01*
X15985765Y14477428D01*
X15979804Y14501227D01*
X15976204Y14525495D01*
X15975000Y14549999D01*
X15975000Y15450001D01*
X15976204Y15474505D01*
X15979804Y15498773D01*
X15985765Y15522572D01*
X15994030Y15545671D01*
X16004520Y15567850D01*
X16017132Y15588893D01*
X16031747Y15608599D01*
X16048223Y15626777D01*
X16066401Y15643253D01*
X16086107Y15657868D01*
X16107150Y15670480D01*
X16129329Y15680970D01*
X16152428Y15689235D01*
X16176227Y15695196D01*
X16200495Y15698796D01*
X16224999Y15700000D01*
X16875001Y15700000D01*
X16899505Y15698796D01*
X16899505Y15698796D01*
G37*
D20*
G04 #@! TD*
G04 #@! TO.P,R7,1*
G04 #@! TO.N,GND*
X16550000Y15000000D03*
D22*
G04 #@! TO.P,U1,1*
G04 #@! TO.N,Net-(R3-Pad2)*
X2497000Y2421000D03*
D23*
G04 #@! TO.P,U1,2*
G04 #@! TO.N,ADC*
X4497000Y2421000D03*
G04 #@! TO.P,U1,3*
G04 #@! TO.N,Net-(C7-Pad2)*
X6497000Y2421000D03*
G04 #@! TO.P,U1,4*
G04 #@! TO.N,Net-(R3-Pad1)*
X8497000Y2421000D03*
G04 #@! TO.P,U1,5*
G04 #@! TO.N,Net-(JP1-Pad2)*
X10497000Y2421000D03*
G04 #@! TO.P,U1,6*
G04 #@! TO.N,Net-(U1-Pad6)*
X12497000Y2421000D03*
G04 #@! TO.P,U1,7*
G04 #@! TO.N,Net-(U1-Pad7)*
X14497000Y2421000D03*
G04 #@! TO.P,U1,8*
G04 #@! TO.N,3V3*
X16497000Y2421000D03*
G04 #@! TO.P,U1,9*
G04 #@! TO.N,GND*
X16497000Y17821000D03*
G04 #@! TO.P,U1,10*
G04 #@! TO.N,Net-(R7-Pad2)*
X14497000Y17721000D03*
G04 #@! TO.P,U1,11*
G04 #@! TO.N,Net-(U1-Pad11)*
X12497000Y17821000D03*
G04 #@! TO.P,U1,12*
G04 #@! TO.N,Net-(R4-Pad1)*
X10497000Y17821000D03*
G04 #@! TO.P,U1,13*
G04 #@! TO.N,SDA*
X8497000Y17821000D03*
G04 #@! TO.P,U1,14*
G04 #@! TO.N,SCL*
X6497000Y17821000D03*
G04 #@! TO.P,U1,15*
G04 #@! TO.N,Net-(U1-Pad15)*
X4497000Y17821000D03*
G04 #@! TO.P,U1,16*
G04 #@! TO.N,Net-(U1-Pad16)*
X2497000Y17821000D03*
G04 #@! TD*
D13*
G04 #@! TO.N,3V3*
G04 #@! TO.C,C5*
G36*
X23549504Y3873796D02*
X23573773Y3870196D01*
X23597571Y3864235D01*
X23620671Y3855970D01*
X23642849Y3845480D01*
X23663893Y3832867D01*
X23683598Y3818253D01*
X23701777Y3801777D01*
X23718253Y3783598D01*
X23732867Y3763893D01*
X23745480Y3742849D01*
X23755970Y3720671D01*
X23764235Y3697571D01*
X23770196Y3673773D01*
X23773796Y3649504D01*
X23775000Y3625000D01*
X23775000Y2625000D01*
X23773796Y2600496D01*
X23770196Y2576227D01*
X23764235Y2552429D01*
X23755970Y2529329D01*
X23745480Y2507151D01*
X23732867Y2486107D01*
X23718253Y2466402D01*
X23701777Y2448223D01*
X23683598Y2431747D01*
X23663893Y2417133D01*
X23642849Y2404520D01*
X23620671Y2394030D01*
X23597571Y2385765D01*
X23573773Y2379804D01*
X23549504Y2376204D01*
X23525000Y2375000D01*
X21675000Y2375000D01*
X21650496Y2376204D01*
X21626227Y2379804D01*
X21602429Y2385765D01*
X21579329Y2394030D01*
X21557151Y2404520D01*
X21536107Y2417133D01*
X21516402Y2431747D01*
X21498223Y2448223D01*
X21481747Y2466402D01*
X21467133Y2486107D01*
X21454520Y2507151D01*
X21444030Y2529329D01*
X21435765Y2552429D01*
X21429804Y2576227D01*
X21426204Y2600496D01*
X21425000Y2625000D01*
X21425000Y3625000D01*
X21426204Y3649504D01*
X21429804Y3673773D01*
X21435765Y3697571D01*
X21444030Y3720671D01*
X21454520Y3742849D01*
X21467133Y3763893D01*
X21481747Y3783598D01*
X21498223Y3801777D01*
X21516402Y3818253D01*
X21536107Y3832867D01*
X21557151Y3845480D01*
X21579329Y3855970D01*
X21602429Y3864235D01*
X21626227Y3870196D01*
X21650496Y3873796D01*
X21675000Y3875000D01*
X23525000Y3875000D01*
X23549504Y3873796D01*
X23549504Y3873796D01*
G37*
D24*
G04 #@! TD*
G04 #@! TO.P,C5,1*
G04 #@! TO.N,3V3*
X22600000Y3125000D03*
D13*
G04 #@! TO.N,GND*
G04 #@! TO.C,C5*
G36*
X23549504Y7123796D02*
X23573773Y7120196D01*
X23597571Y7114235D01*
X23620671Y7105970D01*
X23642849Y7095480D01*
X23663893Y7082867D01*
X23683598Y7068253D01*
X23701777Y7051777D01*
X23718253Y7033598D01*
X23732867Y7013893D01*
X23745480Y6992849D01*
X23755970Y6970671D01*
X23764235Y6947571D01*
X23770196Y6923773D01*
X23773796Y6899504D01*
X23775000Y6875000D01*
X23775000Y5875000D01*
X23773796Y5850496D01*
X23770196Y5826227D01*
X23764235Y5802429D01*
X23755970Y5779329D01*
X23745480Y5757151D01*
X23732867Y5736107D01*
X23718253Y5716402D01*
X23701777Y5698223D01*
X23683598Y5681747D01*
X23663893Y5667133D01*
X23642849Y5654520D01*
X23620671Y5644030D01*
X23597571Y5635765D01*
X23573773Y5629804D01*
X23549504Y5626204D01*
X23525000Y5625000D01*
X21675000Y5625000D01*
X21650496Y5626204D01*
X21626227Y5629804D01*
X21602429Y5635765D01*
X21579329Y5644030D01*
X21557151Y5654520D01*
X21536107Y5667133D01*
X21516402Y5681747D01*
X21498223Y5698223D01*
X21481747Y5716402D01*
X21467133Y5736107D01*
X21454520Y5757151D01*
X21444030Y5779329D01*
X21435765Y5802429D01*
X21429804Y5826227D01*
X21426204Y5850496D01*
X21425000Y5875000D01*
X21425000Y6875000D01*
X21426204Y6899504D01*
X21429804Y6923773D01*
X21435765Y6947571D01*
X21444030Y6970671D01*
X21454520Y6992849D01*
X21467133Y7013893D01*
X21481747Y7033598D01*
X21498223Y7051777D01*
X21516402Y7068253D01*
X21536107Y7082867D01*
X21557151Y7095480D01*
X21579329Y7105970D01*
X21602429Y7114235D01*
X21626227Y7120196D01*
X21650496Y7123796D01*
X21675000Y7125000D01*
X23525000Y7125000D01*
X23549504Y7123796D01*
X23549504Y7123796D01*
G37*
D24*
G04 #@! TD*
G04 #@! TO.P,C5,2*
G04 #@! TO.N,GND*
X22600000Y6375000D03*
D25*
G04 #@! TO.P,U2,1*
G04 #@! TO.N,3V3*
X31700000Y4650000D03*
G04 #@! TO.P,U2,2*
X30750000Y4650000D03*
G04 #@! TO.P,U2,3*
G04 #@! TO.N,Net-(U2-Pad3)*
X29800000Y4650000D03*
G04 #@! TO.P,U2,4*
G04 #@! TO.N,GND*
X29800000Y6850000D03*
G04 #@! TO.P,U2,5*
G04 #@! TO.N,Net-(L1-Pad2)*
X31700000Y6850000D03*
G04 #@! TD*
D26*
G04 #@! TO.P,SW1,3*
G04 #@! TO.N,N/C*
X41650000Y4000000D03*
G04 #@! TO.P,SW1,2*
G04 #@! TO.N,Net-(BT1-Pad1)*
X44850000Y6500000D03*
G04 #@! TO.P,SW1,1*
G04 #@! TO.N,Net-(C2-Pad1)*
X41650000Y9000000D03*
G04 #@! TD*
D27*
G04 #@! TO.N,GND*
X46000000Y17500000D03*
G04 #@! TO.N,3V3*
X16497000Y5721000D03*
X39000000Y8200000D03*
X38000000Y14750000D03*
X27700000Y8700000D03*
X29200000Y3000000D03*
X1500000Y6250000D03*
G04 #@! TO.N,ADC*
X19400000Y12200000D03*
X5250000Y6500000D03*
G04 #@! TO.N,SCL*
X30600000Y13900000D03*
X5700000Y14900000D03*
G04 #@! TO.N,SDA*
X8497000Y14921000D03*
X28000000Y16000000D03*
G04 #@! TO.N,Net-(JP1-Pad2)*
X41500000Y12000000D03*
X12750000Y8000000D03*
G04 #@! TO.N,Net-(C2-Pad1)*
X37250000Y11250000D03*
X25250000Y12000000D03*
G04 #@! TD*
D28*
G04 #@! TO.N,GND*
X100500000Y10000000D02*
X104500000Y10000000D01*
X100000000Y10500000D02*
X100500000Y10000000D01*
G04 #@! TO.N,3V3*
X16497000Y5721000D02*
X16497000Y3121000D01*
D29*
X16176000Y5400000D02*
X16497000Y5721000D01*
X1450000Y9000000D02*
X1450000Y11250000D01*
X1450000Y11250000D02*
X1450000Y13500000D01*
D28*
X16618000Y3000000D02*
X16497000Y3121000D01*
X27500000Y3000000D02*
X16618000Y3000000D01*
D29*
X31700000Y4650000D02*
X30925001Y4650000D01*
X31750000Y3750000D02*
X31750000Y4500000D01*
X33000000Y2500000D02*
X31750000Y3750000D01*
X38000000Y2500000D02*
X33000000Y2500000D01*
X39350000Y3850000D02*
X38000000Y2500000D01*
X39000000Y8200000D02*
X39350000Y7850000D01*
X39350000Y7850000D02*
X39350000Y3850000D01*
D28*
X31750000Y3500000D02*
X31750000Y4500000D01*
X27750000Y3000000D02*
X29200000Y3000000D01*
X31250000Y3000000D02*
X31750000Y3500000D01*
D29*
X38413000Y15163000D02*
X38413000Y16575000D01*
X38000000Y14750000D02*
X38413000Y15163000D01*
D28*
X16500000Y5724000D02*
X16497000Y5721000D01*
X29200000Y10450000D02*
X29750000Y10450000D01*
X27700000Y8950000D02*
X29200000Y10450000D01*
X27700000Y8700000D02*
X27700000Y8950000D01*
X29200000Y3000000D02*
X31250000Y3000000D01*
D29*
X1500000Y6250000D02*
X1450000Y6300000D01*
X1450000Y6300000D02*
X1450000Y9000000D01*
G04 #@! TO.N,ADC*
X23500000Y15725000D02*
X21250000Y15725000D01*
X21250000Y15725000D02*
X21250000Y13500000D01*
X20550000Y12800000D02*
X21250000Y13500000D01*
X20200000Y12800000D02*
X20550000Y12800000D01*
X19400000Y12200000D02*
X19600000Y12200000D01*
X19600000Y12200000D02*
X20200000Y12800000D01*
X4497000Y4497000D02*
X4497000Y3121000D01*
X5250000Y5250000D02*
X4497000Y4497000D01*
X5250000Y6500000D02*
X5250000Y5250000D01*
G04 #@! TO.N,SCL*
X33410000Y17010000D02*
X33420000Y17000000D01*
X6497000Y15697000D02*
X6497000Y17121000D01*
X5700000Y14900000D02*
X6497000Y15697000D01*
X30600000Y13900000D02*
X33275000Y16575000D01*
X33275000Y16575000D02*
X33333000Y16575000D01*
G04 #@! TO.N,SDA*
X8497000Y17121000D02*
X8497000Y14921000D01*
X28575000Y16575000D02*
X30793000Y16575000D01*
X28000000Y16000000D02*
X28575000Y16575000D01*
D28*
G04 #@! TO.N,Net-(L1-Pad2)*
X34297000Y5953000D02*
X34297000Y4721000D01*
X33000000Y7250000D02*
X34297000Y5953000D01*
X31750000Y6750000D02*
X32250000Y7250000D01*
X32250000Y7250000D02*
X33000000Y7250000D01*
D29*
G04 #@! TO.N,Net-(JP1-Pad2)*
X41500000Y12000000D02*
X42960000Y13460000D01*
X42960000Y13460000D02*
X43250000Y13460000D01*
X10497000Y5747000D02*
X10497000Y3121000D01*
X12750000Y8000000D02*
X10497000Y5747000D01*
D28*
G04 #@! TO.N,Net-(BT1-Pad1)*
X46500000Y8150000D02*
X46500000Y10000000D01*
X44850000Y6500000D02*
X46500000Y8150000D01*
D29*
G04 #@! TO.N,Net-(R7-Pad2)*
X14497000Y15003000D02*
X14500000Y15000000D01*
X14497000Y17121000D02*
X14497000Y15003000D01*
G04 #@! TO.N,Net-(C7-Pad2)*
X6497000Y4497000D02*
X7750000Y5750000D01*
X7000000Y11250000D02*
X3750000Y11250000D01*
X6497000Y3121000D02*
X6497000Y4497000D01*
X7250000Y11500000D02*
X7000000Y11250000D01*
X7750000Y5750000D02*
X7750000Y11000000D01*
X7750000Y11000000D02*
X7250000Y11500000D01*
G04 #@! TO.N,Net-(R3-Pad2)*
X3500000Y6000000D02*
X2500000Y5000000D01*
X3500000Y9000000D02*
X3500000Y6000000D01*
X2500000Y5000000D02*
X2500000Y3124000D01*
X2500000Y3124000D02*
X2497000Y3121000D01*
X3750000Y8750000D02*
X3500000Y9000000D01*
X6250000Y8750000D02*
X3750000Y8750000D01*
G04 #@! TO.N,Net-(R3-Pad1)*
X8497000Y4747000D02*
X9250000Y5500000D01*
X8497000Y3121000D02*
X8497000Y4747000D01*
X9250000Y5500000D02*
X9250000Y8750000D01*
G04 #@! TO.N,Net-(R4-Pad1)*
X3500000Y13500000D02*
X3750000Y13250000D01*
D28*
G04 #@! TO.N,Net-(C2-Pad1)*
X35250000Y10500000D02*
X35250000Y9000010D01*
X36500000Y10500000D02*
X35250000Y10500000D01*
X37250000Y11250000D02*
X38650000Y11250000D01*
X37250000Y11250000D02*
X36500000Y10500000D01*
X38650000Y11250000D02*
X40900000Y9000000D01*
X40900000Y9000000D02*
X41650000Y9000000D01*
D29*
X23250000Y13250000D02*
X23250000Y13500000D01*
X24500000Y12000000D02*
X23250000Y13250000D01*
X25250000Y12000000D02*
X24500000Y12000000D01*
G04 #@! TO.N,Net-(R4-Pad1)*
X9500000Y13250000D02*
X10497000Y14247000D01*
X3750000Y13250000D02*
X9500000Y13250000D01*
X10497000Y14247000D02*
X10497000Y17121000D01*
G04 #@! TO.N,Net-(C2-Pad1)*
X35300000Y8750000D02*
X36750000Y8750000D01*
D28*
G04 #@! TO.N,Net-(JP2-Pad3)*
X32450000Y8800000D02*
X31750000Y9500000D01*
X33900000Y8800000D02*
X32450000Y8800000D01*
G04 #@! TO.N,Net-(JP2-Pad1)*
X36667000Y5333000D02*
X36750000Y5250000D01*
X36700000Y8700000D02*
X36667000Y8667000D01*
X36667000Y8667000D02*
X36667000Y5333000D01*
G04 #@! TD*
D30*
G04 #@! TO.N,GND*
G36*
X19823000Y18494609D02*
X19823000Y18129750D01*
X20004750Y17948000D01*
X21077000Y17948000D01*
X21077000Y17968000D01*
X21423000Y17968000D01*
X21423000Y17948000D01*
X23327000Y17948000D01*
X23327000Y17968000D01*
X23673000Y17968000D01*
X23673000Y17948000D01*
X24745250Y17948000D01*
X24927000Y18129750D01*
X24927000Y18494609D01*
X24925595Y18498000D01*
X96983353Y18498000D01*
X98107235Y18423352D01*
X99195022Y18204015D01*
X100244234Y17842742D01*
X101236464Y17345872D01*
X102154252Y16722143D01*
X102981488Y15982508D01*
X103703636Y15139964D01*
X104308012Y14209307D01*
X104783990Y13206900D01*
X105123214Y12150342D01*
X105319720Y11058206D01*
X105370058Y9949675D01*
X105273343Y8844216D01*
X105031275Y7761266D01*
X104648108Y6719848D01*
X104130566Y5738243D01*
X103487755Y4833720D01*
X102730956Y4022151D01*
X101873471Y3317806D01*
X100930363Y2733055D01*
X99918211Y2278175D01*
X98854782Y1961153D01*
X97753549Y1786736D01*
X96988613Y1752000D01*
X38549095Y1752000D01*
X38668330Y1831670D01*
X38720050Y1909075D01*
X39940927Y3129951D01*
X40018330Y3181670D01*
X40089307Y3287895D01*
X40349095Y2899095D01*
X40854194Y2561598D01*
X41299607Y2473000D01*
X42000393Y2473000D01*
X42445806Y2561598D01*
X42950905Y2899095D01*
X43288402Y3404194D01*
X43406915Y4000000D01*
X43288402Y4595806D01*
X42950905Y5100905D01*
X42445806Y5438402D01*
X42000393Y5527000D01*
X41299607Y5527000D01*
X40854194Y5438402D01*
X40349095Y5100905D01*
X40277000Y4993007D01*
X40277000Y7423364D01*
X40446967Y7833699D01*
X40854194Y7561598D01*
X41299607Y7473000D01*
X42000393Y7473000D01*
X42445806Y7561598D01*
X42950905Y7899095D01*
X43288402Y8404194D01*
X43406915Y9000000D01*
X43288402Y9595806D01*
X42950905Y10100905D01*
X42445806Y10438402D01*
X42000393Y10527000D01*
X41803451Y10527000D01*
X42336653Y10747860D01*
X42752140Y11163347D01*
X42977000Y11706206D01*
X42977000Y11833000D01*
X43610242Y11833000D01*
X44084824Y11927400D01*
X44258758Y12043619D01*
X44258758Y7979092D01*
X44054194Y7938402D01*
X43549095Y7600905D01*
X43211598Y7095806D01*
X43093085Y6500000D01*
X43211598Y5904194D01*
X43549095Y5399095D01*
X44054194Y5061598D01*
X44258758Y5020908D01*
X44258758Y5000000D01*
X44315182Y4716339D01*
X44475863Y4475863D01*
X44716339Y4315182D01*
X45000000Y4258758D01*
X46964418Y4258758D01*
X46962676Y4250000D01*
X47003577Y4044375D01*
X47070294Y3944527D01*
X47120055Y3870055D01*
X47294375Y3753577D01*
X47500000Y3712676D01*
X47551902Y3723000D01*
X98448098Y3723000D01*
X98500000Y3712676D01*
X98705625Y3753577D01*
X98879945Y3870055D01*
X98996423Y4044375D01*
X99027000Y4198097D01*
X99027000Y4198098D01*
X99037324Y4250000D01*
X99032749Y4273000D01*
X99645250Y4273000D01*
X99827000Y4454750D01*
X99827000Y7770524D01*
X99878977Y7754830D01*
X100173000Y7784170D01*
X100173000Y4454750D01*
X100354750Y4273000D01*
X101144609Y4273000D01*
X101411812Y4383679D01*
X101616321Y4588187D01*
X101727000Y4855390D01*
X101727000Y9645250D01*
X101545250Y9827000D01*
X101200463Y9827000D01*
X101196701Y9864695D01*
X101134921Y10013845D01*
X101182977Y10173000D01*
X101545250Y10173000D01*
X101727000Y10354750D01*
X101727000Y15144610D01*
X101616321Y15411813D01*
X101411812Y15616321D01*
X101144609Y15727000D01*
X100354750Y15727000D01*
X100173000Y15545250D01*
X100173000Y12229476D01*
X100121023Y12245170D01*
X99827000Y12215830D01*
X99827000Y15545250D01*
X99645250Y15727000D01*
X99032749Y15727000D01*
X99037324Y15750000D01*
X99018942Y15842416D01*
X98996423Y15955625D01*
X98879945Y16129945D01*
X98815509Y16173000D01*
X98705625Y16246423D01*
X98551903Y16277000D01*
X98551902Y16277000D01*
X98500000Y16287324D01*
X98448097Y16277000D01*
X47551903Y16277000D01*
X47500000Y16287324D01*
X47448098Y16277000D01*
X47448097Y16277000D01*
X47294375Y16246423D01*
X47120055Y16129945D01*
X47003577Y15955625D01*
X46962676Y15750000D01*
X46964418Y15741242D01*
X45000000Y15741242D01*
X44984159Y15738091D01*
X44895250Y15827000D01*
X43423000Y15827000D01*
X43423000Y15807000D01*
X43077000Y15807000D01*
X43077000Y15827000D01*
X41604750Y15827000D01*
X41423000Y15645250D01*
X41423000Y14955390D01*
X41533679Y14688187D01*
X41738188Y14483679D01*
X41768763Y14471014D01*
X41517400Y14094824D01*
X41394508Y13477000D01*
X41206206Y13477000D01*
X40663347Y13252140D01*
X40247860Y12836653D01*
X40023000Y12293794D01*
X40023000Y11706206D01*
X40239445Y11183662D01*
X39486559Y11936548D01*
X39426473Y12026473D01*
X39070224Y12264511D01*
X38756072Y12327000D01*
X38756066Y12327000D01*
X38650000Y12348098D01*
X38543934Y12327000D01*
X38261793Y12327000D01*
X38086653Y12502140D01*
X37543794Y12727000D01*
X36956206Y12727000D01*
X36677000Y12611349D01*
X36677000Y12723002D01*
X36495252Y12723002D01*
X36677000Y12904750D01*
X36677000Y13269609D01*
X36566321Y13536812D01*
X36361813Y13741321D01*
X36094610Y13852000D01*
X35604750Y13852000D01*
X35423000Y13670250D01*
X35423000Y12723000D01*
X35443000Y12723000D01*
X35443000Y12377000D01*
X35423000Y12377000D01*
X35423000Y12357000D01*
X35077000Y12357000D01*
X35077000Y12377000D01*
X34004750Y12377000D01*
X33823000Y12195250D01*
X33823000Y11830391D01*
X33933679Y11563188D01*
X34047763Y11449104D01*
X33884212Y11204333D01*
X33808758Y10825001D01*
X33808758Y10224826D01*
X33806382Y10224592D01*
X33710249Y10205470D01*
X33571200Y10163291D01*
X33480644Y10125782D01*
X33352489Y10057282D01*
X33270990Y10002826D01*
X33158665Y9910643D01*
X33125022Y9877000D01*
X32941242Y9877000D01*
X32941242Y9900000D01*
X32884818Y10183661D01*
X32724137Y10424137D01*
X32483661Y10584818D01*
X32200000Y10641242D01*
X31300000Y10641242D01*
X31016339Y10584818D01*
X30941242Y10534640D01*
X30941242Y10850000D01*
X30884818Y11133661D01*
X30724137Y11374137D01*
X30483661Y11534818D01*
X30200000Y11591242D01*
X29300000Y11591242D01*
X29016339Y11534818D01*
X28966790Y11501711D01*
X28779776Y11464511D01*
X28423527Y11226473D01*
X28363443Y11136551D01*
X27402257Y10175364D01*
X26863347Y9952140D01*
X26447860Y9536653D01*
X26223000Y8993794D01*
X26223000Y8406206D01*
X26447860Y7863347D01*
X26863347Y7447860D01*
X27406206Y7223000D01*
X27993794Y7223000D01*
X28536653Y7447860D01*
X28755330Y7666537D01*
X28791716Y7630150D01*
X28748000Y7524609D01*
X28748000Y7204750D01*
X28929750Y7023000D01*
X29637500Y7023000D01*
X29637500Y7925250D01*
X29577000Y7985750D01*
X29577000Y8377000D01*
X29557000Y8377000D01*
X29557000Y8723000D01*
X29577000Y8723000D01*
X29577000Y8743000D01*
X29923000Y8743000D01*
X29923000Y8723000D01*
X29943000Y8723000D01*
X29943000Y8377000D01*
X29923000Y8377000D01*
X29923000Y7604750D01*
X29962500Y7565250D01*
X29962500Y7023000D01*
X29993000Y7023000D01*
X29993000Y6677000D01*
X29962500Y6677000D01*
X29962500Y6657000D01*
X29637500Y6657000D01*
X29637500Y6677000D01*
X28929750Y6677000D01*
X28748000Y6495250D01*
X28748000Y6205134D01*
X28711813Y6241321D01*
X28444610Y6352000D01*
X27954750Y6352000D01*
X27773000Y6170250D01*
X27773000Y5223000D01*
X27793000Y5223000D01*
X27793000Y4877000D01*
X27773000Y4877000D01*
X27773000Y4857000D01*
X27427000Y4857000D01*
X27427000Y4877000D01*
X25573000Y4877000D01*
X25573000Y4857000D01*
X25227000Y4857000D01*
X25227000Y4877000D01*
X25207000Y4877000D01*
X25207000Y5223000D01*
X25227000Y5223000D01*
X25227000Y6170250D01*
X25573000Y6170250D01*
X25573000Y5223000D01*
X27427000Y5223000D01*
X27427000Y6170250D01*
X27245250Y6352000D01*
X26755390Y6352000D01*
X26500000Y6246214D01*
X26244610Y6352000D01*
X25754750Y6352000D01*
X25573000Y6170250D01*
X25227000Y6170250D01*
X25045250Y6352000D01*
X24555390Y6352000D01*
X24288187Y6241321D01*
X24248866Y6202000D01*
X22773000Y6202000D01*
X22773000Y5079750D01*
X22954750Y4898000D01*
X23919610Y4898000D01*
X23973000Y4920115D01*
X23973000Y4876998D01*
X24154748Y4876998D01*
X23973000Y4695250D01*
X23973000Y4494906D01*
X23904332Y4540788D01*
X23525000Y4616242D01*
X21675000Y4616242D01*
X21295668Y4540788D01*
X21177000Y4461497D01*
X21177000Y4695250D01*
X20995252Y4876998D01*
X21177000Y4876998D01*
X21177000Y4940825D01*
X21280390Y4898000D01*
X22245250Y4898000D01*
X22427000Y5079750D01*
X22427000Y6202000D01*
X20901134Y6202000D01*
X20861813Y6241321D01*
X20594610Y6352000D01*
X20104750Y6352000D01*
X19923000Y6170250D01*
X19923000Y5223000D01*
X19943000Y5223000D01*
X19943000Y4877000D01*
X19923000Y4877000D01*
X19923000Y4857000D01*
X19577000Y4857000D01*
X19577000Y4877000D01*
X18504750Y4877000D01*
X18323000Y4695250D01*
X18323000Y4330391D01*
X18427958Y4077000D01*
X17574000Y4077000D01*
X17574000Y4709207D01*
X17749140Y4884347D01*
X17974000Y5427206D01*
X17974000Y5769609D01*
X18323000Y5769609D01*
X18323000Y5404750D01*
X18504750Y5223000D01*
X19577000Y5223000D01*
X19577000Y6170250D01*
X19395250Y6352000D01*
X18905390Y6352000D01*
X18638187Y6241321D01*
X18433679Y6036812D01*
X18323000Y5769609D01*
X17974000Y5769609D01*
X17974000Y6014794D01*
X17749140Y6557653D01*
X17333653Y6973140D01*
X16790794Y7198000D01*
X16203206Y7198000D01*
X15660347Y6973140D01*
X15244860Y6557653D01*
X15020000Y6014794D01*
X15020000Y5427206D01*
X15244860Y4884347D01*
X15420000Y4709207D01*
X15420001Y4038169D01*
X15417665Y4041665D01*
X14995259Y4323907D01*
X14497000Y4423017D01*
X13998740Y4323907D01*
X13576335Y4041665D01*
X13497000Y3922932D01*
X13417665Y4041665D01*
X12995259Y4323907D01*
X12497000Y4423017D01*
X11998740Y4323907D01*
X11576335Y4041665D01*
X11497000Y3922932D01*
X11424000Y4032184D01*
X11424000Y5363025D01*
X12583976Y6523000D01*
X13043794Y6523000D01*
X13586653Y6747860D01*
X14002140Y7163347D01*
X14046155Y7269609D01*
X20698000Y7269609D01*
X20698000Y6729750D01*
X20879750Y6548000D01*
X22427000Y6548000D01*
X22427000Y7670250D01*
X22773000Y7670250D01*
X22773000Y6548000D01*
X24320250Y6548000D01*
X24502000Y6729750D01*
X24502000Y7269609D01*
X24391321Y7536812D01*
X24186813Y7741321D01*
X23919610Y7852000D01*
X22954750Y7852000D01*
X22773000Y7670250D01*
X22427000Y7670250D01*
X22245250Y7852000D01*
X21280390Y7852000D01*
X21013187Y7741321D01*
X20808679Y7536812D01*
X20698000Y7269609D01*
X14046155Y7269609D01*
X14227000Y7706206D01*
X14227000Y8293794D01*
X14002140Y8836653D01*
X13586653Y9252140D01*
X13043794Y9477000D01*
X12456206Y9477000D01*
X11913347Y9252140D01*
X11497860Y8836653D01*
X11273000Y8293794D01*
X11273000Y7833976D01*
X10177000Y6737975D01*
X10177000Y7266119D01*
X10413414Y7424086D01*
X10628288Y7745668D01*
X10703742Y8125000D01*
X10703742Y9375000D01*
X10628288Y9754332D01*
X10413414Y10075914D01*
X10284538Y10162026D01*
X10336812Y10183679D01*
X10541321Y10388187D01*
X10652000Y10655390D01*
X10652000Y11145250D01*
X10470250Y11327000D01*
X9523000Y11327000D01*
X9523000Y11307000D01*
X9177000Y11307000D01*
X9177000Y11327000D01*
X9157000Y11327000D01*
X9157000Y11673000D01*
X9177000Y11673000D01*
X9177000Y11693000D01*
X9523000Y11693000D01*
X9523000Y11673000D01*
X10470250Y11673000D01*
X10652000Y11854750D01*
X10652000Y12344610D01*
X10590207Y12493794D01*
X17923000Y12493794D01*
X17923000Y11906206D01*
X18147860Y11363347D01*
X18563347Y10947860D01*
X19106206Y10723000D01*
X19693794Y10723000D01*
X20236653Y10947860D01*
X20652140Y11363347D01*
X20877000Y11906206D01*
X20877000Y11919883D01*
X20911697Y11926785D01*
X21109209Y12058758D01*
X21575001Y12058758D01*
X21954333Y12134212D01*
X22275000Y12348475D01*
X22595667Y12134212D01*
X22974999Y12058758D01*
X23130267Y12058758D01*
X23779951Y11409073D01*
X23831670Y11331670D01*
X23965055Y11242545D01*
X23997860Y11163347D01*
X24413347Y10747860D01*
X24956206Y10523000D01*
X25543794Y10523000D01*
X26086653Y10747860D01*
X26502140Y11163347D01*
X26727000Y11706206D01*
X26727000Y12293794D01*
X26502140Y12836653D01*
X26086653Y13252140D01*
X25543794Y13477000D01*
X24956206Y13477000D01*
X24616242Y13336182D01*
X24616242Y13950001D01*
X24540788Y14329333D01*
X24403976Y14534087D01*
X24650914Y14699086D01*
X24865788Y15020667D01*
X24941242Y15399999D01*
X24941242Y16050001D01*
X24892749Y16293794D01*
X26523000Y16293794D01*
X26523000Y15706206D01*
X26747860Y15163347D01*
X27163347Y14747860D01*
X27706206Y14523000D01*
X28293794Y14523000D01*
X28836653Y14747860D01*
X29252140Y15163347D01*
X29448822Y15638178D01*
X29692095Y15274095D01*
X29832034Y15180591D01*
X29763347Y15152140D01*
X29347860Y14736653D01*
X29123000Y14193794D01*
X29123000Y13606206D01*
X29347860Y13063347D01*
X29763347Y12647860D01*
X30306206Y12423000D01*
X30893794Y12423000D01*
X31436653Y12647860D01*
X31852140Y13063347D01*
X31937576Y13269609D01*
X33823000Y13269609D01*
X33823000Y12904750D01*
X34004750Y12723000D01*
X35077000Y12723000D01*
X35077000Y13670250D01*
X34895250Y13852000D01*
X34405390Y13852000D01*
X34138187Y13741321D01*
X33933679Y13536812D01*
X33823000Y13269609D01*
X31937576Y13269609D01*
X32077000Y13606206D01*
X32077000Y14066025D01*
X32912670Y14901694D01*
X33333000Y14818085D01*
X33928806Y14936598D01*
X34433905Y15274095D01*
X34610291Y15538076D01*
X34952711Y15154266D01*
X35464793Y14903574D01*
X35700000Y15040920D01*
X35700000Y16402000D01*
X35680000Y16402000D01*
X35680000Y16748000D01*
X35700000Y16748000D01*
X35700000Y18109080D01*
X36046000Y18109080D01*
X36046000Y16748000D01*
X36066000Y16748000D01*
X36066000Y16402000D01*
X36046000Y16402000D01*
X36046000Y15040920D01*
X36281207Y14903574D01*
X36523000Y15021945D01*
X36523000Y14456206D01*
X36747860Y13913347D01*
X37163347Y13497860D01*
X37706206Y13273000D01*
X38293794Y13273000D01*
X38836653Y13497860D01*
X39252140Y13913347D01*
X39477000Y14456206D01*
X39477000Y15043794D01*
X39410285Y15204858D01*
X39513905Y15274095D01*
X39851402Y15779195D01*
X39940000Y16224608D01*
X39940000Y16925393D01*
X39916287Y17044610D01*
X41423000Y17044610D01*
X41423000Y16354750D01*
X41604750Y16173000D01*
X43077000Y16173000D01*
X43077000Y17445250D01*
X43423000Y17445250D01*
X43423000Y16173000D01*
X44895250Y16173000D01*
X45077000Y16354750D01*
X45077000Y17044610D01*
X44966321Y17311813D01*
X44761812Y17516321D01*
X44494609Y17627000D01*
X43604750Y17627000D01*
X43423000Y17445250D01*
X43077000Y17445250D01*
X42895250Y17627000D01*
X42005391Y17627000D01*
X41738188Y17516321D01*
X41533679Y17311813D01*
X41423000Y17044610D01*
X39916287Y17044610D01*
X39851402Y17370806D01*
X39513905Y17875905D01*
X39008805Y18213402D01*
X38413000Y18331915D01*
X37817194Y18213402D01*
X37312095Y17875905D01*
X37135709Y17611924D01*
X36793289Y17995734D01*
X36281207Y18246426D01*
X36046000Y18109080D01*
X35700000Y18109080D01*
X35464793Y18246426D01*
X34952711Y17995734D01*
X34610292Y17611924D01*
X34433905Y17875905D01*
X33928805Y18213402D01*
X33333000Y18331915D01*
X32737194Y18213402D01*
X32232095Y17875905D01*
X32063000Y17622837D01*
X31893905Y17875905D01*
X31388805Y18213402D01*
X30793000Y18331915D01*
X30197194Y18213402D01*
X29692095Y17875905D01*
X29442260Y17502000D01*
X28666300Y17502000D01*
X28575000Y17520161D01*
X28483699Y17502000D01*
X28483698Y17502000D01*
X28314629Y17468370D01*
X28293794Y17477000D01*
X27706206Y17477000D01*
X27163347Y17252140D01*
X26747860Y16836653D01*
X26523000Y16293794D01*
X24892749Y16293794D01*
X24865788Y16429333D01*
X24702237Y16674104D01*
X24816321Y16788188D01*
X24927000Y17055391D01*
X24927000Y17420250D01*
X24745250Y17602000D01*
X23673000Y17602000D01*
X23673000Y17582000D01*
X23327000Y17582000D01*
X23327000Y17602000D01*
X21423000Y17602000D01*
X21423000Y17582000D01*
X21077000Y17582000D01*
X21077000Y17602000D01*
X20004750Y17602000D01*
X19823000Y17420250D01*
X19823000Y17055391D01*
X19933679Y16788188D01*
X20047763Y16674104D01*
X19884212Y16429333D01*
X19808758Y16050001D01*
X19808758Y15399999D01*
X19884212Y15020667D01*
X20099086Y14699086D01*
X20207756Y14626475D01*
X20009212Y14329333D01*
X19933758Y13950001D01*
X19933758Y13692202D01*
X19838303Y13673215D01*
X19786499Y13638600D01*
X19693794Y13677000D01*
X19106206Y13677000D01*
X18563347Y13452140D01*
X18147860Y13036653D01*
X17923000Y12493794D01*
X10590207Y12493794D01*
X10541321Y12611813D01*
X10357054Y12796079D01*
X11087928Y13526952D01*
X11165330Y13578670D01*
X11370215Y13885303D01*
X11424000Y14155698D01*
X11424000Y14155699D01*
X11442161Y14247000D01*
X11424000Y14338300D01*
X11424000Y16209816D01*
X11497000Y16319069D01*
X11576336Y16200335D01*
X11998741Y15918093D01*
X12497000Y15818983D01*
X12995260Y15918093D01*
X13417665Y16200335D01*
X13463591Y16269069D01*
X13521411Y16182536D01*
X13474086Y16150914D01*
X13259212Y15829333D01*
X13183758Y15450001D01*
X13183758Y14549999D01*
X13259212Y14170667D01*
X13474086Y13849086D01*
X13795667Y13634212D01*
X14174999Y13558758D01*
X14825001Y13558758D01*
X15204333Y13634212D01*
X15449104Y13797763D01*
X15563188Y13683679D01*
X15830391Y13573000D01*
X16195250Y13573000D01*
X16377000Y13754750D01*
X16377000Y14827000D01*
X16723000Y14827000D01*
X16723000Y13754750D01*
X16904750Y13573000D01*
X17269609Y13573000D01*
X17536812Y13683679D01*
X17741321Y13888187D01*
X17852000Y14155390D01*
X17852000Y14645250D01*
X17670250Y14827000D01*
X16723000Y14827000D01*
X16377000Y14827000D01*
X16357000Y14827000D01*
X16357000Y15173000D01*
X16377000Y15173000D01*
X16377000Y16245250D01*
X16324000Y16298250D01*
X16324000Y17648000D01*
X16670000Y17648000D01*
X16670000Y16039499D01*
X16723000Y16001308D01*
X16723000Y15173000D01*
X17670250Y15173000D01*
X17852000Y15354750D01*
X17852000Y15844610D01*
X17741321Y16111813D01*
X17536812Y16316321D01*
X17489805Y16335792D01*
X17610590Y16472482D01*
X17774000Y16948000D01*
X17774000Y17648000D01*
X16670000Y17648000D01*
X16324000Y17648000D01*
X16304000Y17648000D01*
X16304000Y17994000D01*
X16324000Y17994000D01*
X16324000Y18014000D01*
X16670000Y18014000D01*
X16670000Y17994000D01*
X17774000Y17994000D01*
X17774000Y18498000D01*
X19824405Y18498000D01*
X19823000Y18494609D01*
X19823000Y18494609D01*
G37*
X19823000Y18494609D02*
X19823000Y18129750D01*
X20004750Y17948000D01*
X21077000Y17948000D01*
X21077000Y17968000D01*
X21423000Y17968000D01*
X21423000Y17948000D01*
X23327000Y17948000D01*
X23327000Y17968000D01*
X23673000Y17968000D01*
X23673000Y17948000D01*
X24745250Y17948000D01*
X24927000Y18129750D01*
X24927000Y18494609D01*
X24925595Y18498000D01*
X96983353Y18498000D01*
X98107235Y18423352D01*
X99195022Y18204015D01*
X100244234Y17842742D01*
X101236464Y17345872D01*
X102154252Y16722143D01*
X102981488Y15982508D01*
X103703636Y15139964D01*
X104308012Y14209307D01*
X104783990Y13206900D01*
X105123214Y12150342D01*
X105319720Y11058206D01*
X105370058Y9949675D01*
X105273343Y8844216D01*
X105031275Y7761266D01*
X104648108Y6719848D01*
X104130566Y5738243D01*
X103487755Y4833720D01*
X102730956Y4022151D01*
X101873471Y3317806D01*
X100930363Y2733055D01*
X99918211Y2278175D01*
X98854782Y1961153D01*
X97753549Y1786736D01*
X96988613Y1752000D01*
X38549095Y1752000D01*
X38668330Y1831670D01*
X38720050Y1909075D01*
X39940927Y3129951D01*
X40018330Y3181670D01*
X40089307Y3287895D01*
X40349095Y2899095D01*
X40854194Y2561598D01*
X41299607Y2473000D01*
X42000393Y2473000D01*
X42445806Y2561598D01*
X42950905Y2899095D01*
X43288402Y3404194D01*
X43406915Y4000000D01*
X43288402Y4595806D01*
X42950905Y5100905D01*
X42445806Y5438402D01*
X42000393Y5527000D01*
X41299607Y5527000D01*
X40854194Y5438402D01*
X40349095Y5100905D01*
X40277000Y4993007D01*
X40277000Y7423364D01*
X40446967Y7833699D01*
X40854194Y7561598D01*
X41299607Y7473000D01*
X42000393Y7473000D01*
X42445806Y7561598D01*
X42950905Y7899095D01*
X43288402Y8404194D01*
X43406915Y9000000D01*
X43288402Y9595806D01*
X42950905Y10100905D01*
X42445806Y10438402D01*
X42000393Y10527000D01*
X41803451Y10527000D01*
X42336653Y10747860D01*
X42752140Y11163347D01*
X42977000Y11706206D01*
X42977000Y11833000D01*
X43610242Y11833000D01*
X44084824Y11927400D01*
X44258758Y12043619D01*
X44258758Y7979092D01*
X44054194Y7938402D01*
X43549095Y7600905D01*
X43211598Y7095806D01*
X43093085Y6500000D01*
X43211598Y5904194D01*
X43549095Y5399095D01*
X44054194Y5061598D01*
X44258758Y5020908D01*
X44258758Y5000000D01*
X44315182Y4716339D01*
X44475863Y4475863D01*
X44716339Y4315182D01*
X45000000Y4258758D01*
X46964418Y4258758D01*
X46962676Y4250000D01*
X47003577Y4044375D01*
X47070294Y3944527D01*
X47120055Y3870055D01*
X47294375Y3753577D01*
X47500000Y3712676D01*
X47551902Y3723000D01*
X98448098Y3723000D01*
X98500000Y3712676D01*
X98705625Y3753577D01*
X98879945Y3870055D01*
X98996423Y4044375D01*
X99027000Y4198097D01*
X99027000Y4198098D01*
X99037324Y4250000D01*
X99032749Y4273000D01*
X99645250Y4273000D01*
X99827000Y4454750D01*
X99827000Y7770524D01*
X99878977Y7754830D01*
X100173000Y7784170D01*
X100173000Y4454750D01*
X100354750Y4273000D01*
X101144609Y4273000D01*
X101411812Y4383679D01*
X101616321Y4588187D01*
X101727000Y4855390D01*
X101727000Y9645250D01*
X101545250Y9827000D01*
X101200463Y9827000D01*
X101196701Y9864695D01*
X101134921Y10013845D01*
X101182977Y10173000D01*
X101545250Y10173000D01*
X101727000Y10354750D01*
X101727000Y15144610D01*
X101616321Y15411813D01*
X101411812Y15616321D01*
X101144609Y15727000D01*
X100354750Y15727000D01*
X100173000Y15545250D01*
X100173000Y12229476D01*
X100121023Y12245170D01*
X99827000Y12215830D01*
X99827000Y15545250D01*
X99645250Y15727000D01*
X99032749Y15727000D01*
X99037324Y15750000D01*
X99018942Y15842416D01*
X98996423Y15955625D01*
X98879945Y16129945D01*
X98815509Y16173000D01*
X98705625Y16246423D01*
X98551903Y16277000D01*
X98551902Y16277000D01*
X98500000Y16287324D01*
X98448097Y16277000D01*
X47551903Y16277000D01*
X47500000Y16287324D01*
X47448098Y16277000D01*
X47448097Y16277000D01*
X47294375Y16246423D01*
X47120055Y16129945D01*
X47003577Y15955625D01*
X46962676Y15750000D01*
X46964418Y15741242D01*
X45000000Y15741242D01*
X44984159Y15738091D01*
X44895250Y15827000D01*
X43423000Y15827000D01*
X43423000Y15807000D01*
X43077000Y15807000D01*
X43077000Y15827000D01*
X41604750Y15827000D01*
X41423000Y15645250D01*
X41423000Y14955390D01*
X41533679Y14688187D01*
X41738188Y14483679D01*
X41768763Y14471014D01*
X41517400Y14094824D01*
X41394508Y13477000D01*
X41206206Y13477000D01*
X40663347Y13252140D01*
X40247860Y12836653D01*
X40023000Y12293794D01*
X40023000Y11706206D01*
X40239445Y11183662D01*
X39486559Y11936548D01*
X39426473Y12026473D01*
X39070224Y12264511D01*
X38756072Y12327000D01*
X38756066Y12327000D01*
X38650000Y12348098D01*
X38543934Y12327000D01*
X38261793Y12327000D01*
X38086653Y12502140D01*
X37543794Y12727000D01*
X36956206Y12727000D01*
X36677000Y12611349D01*
X36677000Y12723002D01*
X36495252Y12723002D01*
X36677000Y12904750D01*
X36677000Y13269609D01*
X36566321Y13536812D01*
X36361813Y13741321D01*
X36094610Y13852000D01*
X35604750Y13852000D01*
X35423000Y13670250D01*
X35423000Y12723000D01*
X35443000Y12723000D01*
X35443000Y12377000D01*
X35423000Y12377000D01*
X35423000Y12357000D01*
X35077000Y12357000D01*
X35077000Y12377000D01*
X34004750Y12377000D01*
X33823000Y12195250D01*
X33823000Y11830391D01*
X33933679Y11563188D01*
X34047763Y11449104D01*
X33884212Y11204333D01*
X33808758Y10825001D01*
X33808758Y10224826D01*
X33806382Y10224592D01*
X33710249Y10205470D01*
X33571200Y10163291D01*
X33480644Y10125782D01*
X33352489Y10057282D01*
X33270990Y10002826D01*
X33158665Y9910643D01*
X33125022Y9877000D01*
X32941242Y9877000D01*
X32941242Y9900000D01*
X32884818Y10183661D01*
X32724137Y10424137D01*
X32483661Y10584818D01*
X32200000Y10641242D01*
X31300000Y10641242D01*
X31016339Y10584818D01*
X30941242Y10534640D01*
X30941242Y10850000D01*
X30884818Y11133661D01*
X30724137Y11374137D01*
X30483661Y11534818D01*
X30200000Y11591242D01*
X29300000Y11591242D01*
X29016339Y11534818D01*
X28966790Y11501711D01*
X28779776Y11464511D01*
X28423527Y11226473D01*
X28363443Y11136551D01*
X27402257Y10175364D01*
X26863347Y9952140D01*
X26447860Y9536653D01*
X26223000Y8993794D01*
X26223000Y8406206D01*
X26447860Y7863347D01*
X26863347Y7447860D01*
X27406206Y7223000D01*
X27993794Y7223000D01*
X28536653Y7447860D01*
X28755330Y7666537D01*
X28791716Y7630150D01*
X28748000Y7524609D01*
X28748000Y7204750D01*
X28929750Y7023000D01*
X29637500Y7023000D01*
X29637500Y7925250D01*
X29577000Y7985750D01*
X29577000Y8377000D01*
X29557000Y8377000D01*
X29557000Y8723000D01*
X29577000Y8723000D01*
X29577000Y8743000D01*
X29923000Y8743000D01*
X29923000Y8723000D01*
X29943000Y8723000D01*
X29943000Y8377000D01*
X29923000Y8377000D01*
X29923000Y7604750D01*
X29962500Y7565250D01*
X29962500Y7023000D01*
X29993000Y7023000D01*
X29993000Y6677000D01*
X29962500Y6677000D01*
X29962500Y6657000D01*
X29637500Y6657000D01*
X29637500Y6677000D01*
X28929750Y6677000D01*
X28748000Y6495250D01*
X28748000Y6205134D01*
X28711813Y6241321D01*
X28444610Y6352000D01*
X27954750Y6352000D01*
X27773000Y6170250D01*
X27773000Y5223000D01*
X27793000Y5223000D01*
X27793000Y4877000D01*
X27773000Y4877000D01*
X27773000Y4857000D01*
X27427000Y4857000D01*
X27427000Y4877000D01*
X25573000Y4877000D01*
X25573000Y4857000D01*
X25227000Y4857000D01*
X25227000Y4877000D01*
X25207000Y4877000D01*
X25207000Y5223000D01*
X25227000Y5223000D01*
X25227000Y6170250D01*
X25573000Y6170250D01*
X25573000Y5223000D01*
X27427000Y5223000D01*
X27427000Y6170250D01*
X27245250Y6352000D01*
X26755390Y6352000D01*
X26500000Y6246214D01*
X26244610Y6352000D01*
X25754750Y6352000D01*
X25573000Y6170250D01*
X25227000Y6170250D01*
X25045250Y6352000D01*
X24555390Y6352000D01*
X24288187Y6241321D01*
X24248866Y6202000D01*
X22773000Y6202000D01*
X22773000Y5079750D01*
X22954750Y4898000D01*
X23919610Y4898000D01*
X23973000Y4920115D01*
X23973000Y4876998D01*
X24154748Y4876998D01*
X23973000Y4695250D01*
X23973000Y4494906D01*
X23904332Y4540788D01*
X23525000Y4616242D01*
X21675000Y4616242D01*
X21295668Y4540788D01*
X21177000Y4461497D01*
X21177000Y4695250D01*
X20995252Y4876998D01*
X21177000Y4876998D01*
X21177000Y4940825D01*
X21280390Y4898000D01*
X22245250Y4898000D01*
X22427000Y5079750D01*
X22427000Y6202000D01*
X20901134Y6202000D01*
X20861813Y6241321D01*
X20594610Y6352000D01*
X20104750Y6352000D01*
X19923000Y6170250D01*
X19923000Y5223000D01*
X19943000Y5223000D01*
X19943000Y4877000D01*
X19923000Y4877000D01*
X19923000Y4857000D01*
X19577000Y4857000D01*
X19577000Y4877000D01*
X18504750Y4877000D01*
X18323000Y4695250D01*
X18323000Y4330391D01*
X18427958Y4077000D01*
X17574000Y4077000D01*
X17574000Y4709207D01*
X17749140Y4884347D01*
X17974000Y5427206D01*
X17974000Y5769609D01*
X18323000Y5769609D01*
X18323000Y5404750D01*
X18504750Y5223000D01*
X19577000Y5223000D01*
X19577000Y6170250D01*
X19395250Y6352000D01*
X18905390Y6352000D01*
X18638187Y6241321D01*
X18433679Y6036812D01*
X18323000Y5769609D01*
X17974000Y5769609D01*
X17974000Y6014794D01*
X17749140Y6557653D01*
X17333653Y6973140D01*
X16790794Y7198000D01*
X16203206Y7198000D01*
X15660347Y6973140D01*
X15244860Y6557653D01*
X15020000Y6014794D01*
X15020000Y5427206D01*
X15244860Y4884347D01*
X15420000Y4709207D01*
X15420001Y4038169D01*
X15417665Y4041665D01*
X14995259Y4323907D01*
X14497000Y4423017D01*
X13998740Y4323907D01*
X13576335Y4041665D01*
X13497000Y3922932D01*
X13417665Y4041665D01*
X12995259Y4323907D01*
X12497000Y4423017D01*
X11998740Y4323907D01*
X11576335Y4041665D01*
X11497000Y3922932D01*
X11424000Y4032184D01*
X11424000Y5363025D01*
X12583976Y6523000D01*
X13043794Y6523000D01*
X13586653Y6747860D01*
X14002140Y7163347D01*
X14046155Y7269609D01*
X20698000Y7269609D01*
X20698000Y6729750D01*
X20879750Y6548000D01*
X22427000Y6548000D01*
X22427000Y7670250D01*
X22773000Y7670250D01*
X22773000Y6548000D01*
X24320250Y6548000D01*
X24502000Y6729750D01*
X24502000Y7269609D01*
X24391321Y7536812D01*
X24186813Y7741321D01*
X23919610Y7852000D01*
X22954750Y7852000D01*
X22773000Y7670250D01*
X22427000Y7670250D01*
X22245250Y7852000D01*
X21280390Y7852000D01*
X21013187Y7741321D01*
X20808679Y7536812D01*
X20698000Y7269609D01*
X14046155Y7269609D01*
X14227000Y7706206D01*
X14227000Y8293794D01*
X14002140Y8836653D01*
X13586653Y9252140D01*
X13043794Y9477000D01*
X12456206Y9477000D01*
X11913347Y9252140D01*
X11497860Y8836653D01*
X11273000Y8293794D01*
X11273000Y7833976D01*
X10177000Y6737975D01*
X10177000Y7266119D01*
X10413414Y7424086D01*
X10628288Y7745668D01*
X10703742Y8125000D01*
X10703742Y9375000D01*
X10628288Y9754332D01*
X10413414Y10075914D01*
X10284538Y10162026D01*
X10336812Y10183679D01*
X10541321Y10388187D01*
X10652000Y10655390D01*
X10652000Y11145250D01*
X10470250Y11327000D01*
X9523000Y11327000D01*
X9523000Y11307000D01*
X9177000Y11307000D01*
X9177000Y11327000D01*
X9157000Y11327000D01*
X9157000Y11673000D01*
X9177000Y11673000D01*
X9177000Y11693000D01*
X9523000Y11693000D01*
X9523000Y11673000D01*
X10470250Y11673000D01*
X10652000Y11854750D01*
X10652000Y12344610D01*
X10590207Y12493794D01*
X17923000Y12493794D01*
X17923000Y11906206D01*
X18147860Y11363347D01*
X18563347Y10947860D01*
X19106206Y10723000D01*
X19693794Y10723000D01*
X20236653Y10947860D01*
X20652140Y11363347D01*
X20877000Y11906206D01*
X20877000Y11919883D01*
X20911697Y11926785D01*
X21109209Y12058758D01*
X21575001Y12058758D01*
X21954333Y12134212D01*
X22275000Y12348475D01*
X22595667Y12134212D01*
X22974999Y12058758D01*
X23130267Y12058758D01*
X23779951Y11409073D01*
X23831670Y11331670D01*
X23965055Y11242545D01*
X23997860Y11163347D01*
X24413347Y10747860D01*
X24956206Y10523000D01*
X25543794Y10523000D01*
X26086653Y10747860D01*
X26502140Y11163347D01*
X26727000Y11706206D01*
X26727000Y12293794D01*
X26502140Y12836653D01*
X26086653Y13252140D01*
X25543794Y13477000D01*
X24956206Y13477000D01*
X24616242Y13336182D01*
X24616242Y13950001D01*
X24540788Y14329333D01*
X24403976Y14534087D01*
X24650914Y14699086D01*
X24865788Y15020667D01*
X24941242Y15399999D01*
X24941242Y16050001D01*
X24892749Y16293794D01*
X26523000Y16293794D01*
X26523000Y15706206D01*
X26747860Y15163347D01*
X27163347Y14747860D01*
X27706206Y14523000D01*
X28293794Y14523000D01*
X28836653Y14747860D01*
X29252140Y15163347D01*
X29448822Y15638178D01*
X29692095Y15274095D01*
X29832034Y15180591D01*
X29763347Y15152140D01*
X29347860Y14736653D01*
X29123000Y14193794D01*
X29123000Y13606206D01*
X29347860Y13063347D01*
X29763347Y12647860D01*
X30306206Y12423000D01*
X30893794Y12423000D01*
X31436653Y12647860D01*
X31852140Y13063347D01*
X31937576Y13269609D01*
X33823000Y13269609D01*
X33823000Y12904750D01*
X34004750Y12723000D01*
X35077000Y12723000D01*
X35077000Y13670250D01*
X34895250Y13852000D01*
X34405390Y13852000D01*
X34138187Y13741321D01*
X33933679Y13536812D01*
X33823000Y13269609D01*
X31937576Y13269609D01*
X32077000Y13606206D01*
X32077000Y14066025D01*
X32912670Y14901694D01*
X33333000Y14818085D01*
X33928806Y14936598D01*
X34433905Y15274095D01*
X34610291Y15538076D01*
X34952711Y15154266D01*
X35464793Y14903574D01*
X35700000Y15040920D01*
X35700000Y16402000D01*
X35680000Y16402000D01*
X35680000Y16748000D01*
X35700000Y16748000D01*
X35700000Y18109080D01*
X36046000Y18109080D01*
X36046000Y16748000D01*
X36066000Y16748000D01*
X36066000Y16402000D01*
X36046000Y16402000D01*
X36046000Y15040920D01*
X36281207Y14903574D01*
X36523000Y15021945D01*
X36523000Y14456206D01*
X36747860Y13913347D01*
X37163347Y13497860D01*
X37706206Y13273000D01*
X38293794Y13273000D01*
X38836653Y13497860D01*
X39252140Y13913347D01*
X39477000Y14456206D01*
X39477000Y15043794D01*
X39410285Y15204858D01*
X39513905Y15274095D01*
X39851402Y15779195D01*
X39940000Y16224608D01*
X39940000Y16925393D01*
X39916287Y17044610D01*
X41423000Y17044610D01*
X41423000Y16354750D01*
X41604750Y16173000D01*
X43077000Y16173000D01*
X43077000Y17445250D01*
X43423000Y17445250D01*
X43423000Y16173000D01*
X44895250Y16173000D01*
X45077000Y16354750D01*
X45077000Y17044610D01*
X44966321Y17311813D01*
X44761812Y17516321D01*
X44494609Y17627000D01*
X43604750Y17627000D01*
X43423000Y17445250D01*
X43077000Y17445250D01*
X42895250Y17627000D01*
X42005391Y17627000D01*
X41738188Y17516321D01*
X41533679Y17311813D01*
X41423000Y17044610D01*
X39916287Y17044610D01*
X39851402Y17370806D01*
X39513905Y17875905D01*
X39008805Y18213402D01*
X38413000Y18331915D01*
X37817194Y18213402D01*
X37312095Y17875905D01*
X37135709Y17611924D01*
X36793289Y17995734D01*
X36281207Y18246426D01*
X36046000Y18109080D01*
X35700000Y18109080D01*
X35464793Y18246426D01*
X34952711Y17995734D01*
X34610292Y17611924D01*
X34433905Y17875905D01*
X33928805Y18213402D01*
X33333000Y18331915D01*
X32737194Y18213402D01*
X32232095Y17875905D01*
X32063000Y17622837D01*
X31893905Y17875905D01*
X31388805Y18213402D01*
X30793000Y18331915D01*
X30197194Y18213402D01*
X29692095Y17875905D01*
X29442260Y17502000D01*
X28666300Y17502000D01*
X28575000Y17520161D01*
X28483699Y17502000D01*
X28483698Y17502000D01*
X28314629Y17468370D01*
X28293794Y17477000D01*
X27706206Y17477000D01*
X27163347Y17252140D01*
X26747860Y16836653D01*
X26523000Y16293794D01*
X24892749Y16293794D01*
X24865788Y16429333D01*
X24702237Y16674104D01*
X24816321Y16788188D01*
X24927000Y17055391D01*
X24927000Y17420250D01*
X24745250Y17602000D01*
X23673000Y17602000D01*
X23673000Y17582000D01*
X23327000Y17582000D01*
X23327000Y17602000D01*
X21423000Y17602000D01*
X21423000Y17582000D01*
X21077000Y17582000D01*
X21077000Y17602000D01*
X20004750Y17602000D01*
X19823000Y17420250D01*
X19823000Y17055391D01*
X19933679Y16788188D01*
X20047763Y16674104D01*
X19884212Y16429333D01*
X19808758Y16050001D01*
X19808758Y15399999D01*
X19884212Y15020667D01*
X20099086Y14699086D01*
X20207756Y14626475D01*
X20009212Y14329333D01*
X19933758Y13950001D01*
X19933758Y13692202D01*
X19838303Y13673215D01*
X19786499Y13638600D01*
X19693794Y13677000D01*
X19106206Y13677000D01*
X18563347Y13452140D01*
X18147860Y13036653D01*
X17923000Y12493794D01*
X10590207Y12493794D01*
X10541321Y12611813D01*
X10357054Y12796079D01*
X11087928Y13526952D01*
X11165330Y13578670D01*
X11370215Y13885303D01*
X11424000Y14155698D01*
X11424000Y14155699D01*
X11442161Y14247000D01*
X11424000Y14338300D01*
X11424000Y16209816D01*
X11497000Y16319069D01*
X11576336Y16200335D01*
X11998741Y15918093D01*
X12497000Y15818983D01*
X12995260Y15918093D01*
X13417665Y16200335D01*
X13463591Y16269069D01*
X13521411Y16182536D01*
X13474086Y16150914D01*
X13259212Y15829333D01*
X13183758Y15450001D01*
X13183758Y14549999D01*
X13259212Y14170667D01*
X13474086Y13849086D01*
X13795667Y13634212D01*
X14174999Y13558758D01*
X14825001Y13558758D01*
X15204333Y13634212D01*
X15449104Y13797763D01*
X15563188Y13683679D01*
X15830391Y13573000D01*
X16195250Y13573000D01*
X16377000Y13754750D01*
X16377000Y14827000D01*
X16723000Y14827000D01*
X16723000Y13754750D01*
X16904750Y13573000D01*
X17269609Y13573000D01*
X17536812Y13683679D01*
X17741321Y13888187D01*
X17852000Y14155390D01*
X17852000Y14645250D01*
X17670250Y14827000D01*
X16723000Y14827000D01*
X16377000Y14827000D01*
X16357000Y14827000D01*
X16357000Y15173000D01*
X16377000Y15173000D01*
X16377000Y16245250D01*
X16324000Y16298250D01*
X16324000Y17648000D01*
X16670000Y17648000D01*
X16670000Y16039499D01*
X16723000Y16001308D01*
X16723000Y15173000D01*
X17670250Y15173000D01*
X17852000Y15354750D01*
X17852000Y15844610D01*
X17741321Y16111813D01*
X17536812Y16316321D01*
X17489805Y16335792D01*
X17610590Y16472482D01*
X17774000Y16948000D01*
X17774000Y17648000D01*
X16670000Y17648000D01*
X16324000Y17648000D01*
X16304000Y17648000D01*
X16304000Y17994000D01*
X16324000Y17994000D01*
X16324000Y18014000D01*
X16670000Y18014000D01*
X16670000Y17994000D01*
X17774000Y17994000D01*
X17774000Y18498000D01*
X19824405Y18498000D01*
X19823000Y18494609D01*
G36*
X99994659Y9250000D02*
X99985858Y9241199D01*
X99977057Y9250000D01*
X99985858Y9258801D01*
X99994659Y9250000D01*
X99994659Y9250000D01*
G37*
X99994659Y9250000D02*
X99985858Y9241199D01*
X99977057Y9250000D01*
X99985858Y9258801D01*
X99994659Y9250000D01*
G36*
X100022943Y9250000D02*
X100014142Y9241199D01*
X100005341Y9250000D01*
X100014142Y9258801D01*
X100022943Y9250000D01*
X100022943Y9250000D01*
G37*
X100022943Y9250000D02*
X100014142Y9241199D01*
X100005341Y9250000D01*
X100014142Y9258801D01*
X100022943Y9250000D01*
G36*
X99994659Y10750000D02*
X99985858Y10741199D01*
X99977057Y10750000D01*
X99985858Y10758801D01*
X99994659Y10750000D01*
X99994659Y10750000D01*
G37*
X99994659Y10750000D02*
X99985858Y10741199D01*
X99977057Y10750000D01*
X99985858Y10758801D01*
X99994659Y10750000D01*
G36*
X100022943Y10750000D02*
X100014142Y10741199D01*
X100005341Y10750000D01*
X100014142Y10758801D01*
X100022943Y10750000D01*
X100022943Y10750000D01*
G37*
X100022943Y10750000D02*
X100014142Y10741199D01*
X100005341Y10750000D01*
X100014142Y10758801D01*
X100022943Y10750000D01*
G04 #@! TD*
M02*
