G04 #@! TF.GenerationSoftware,KiCad,Pcbnew,5.0.2-bee76a0~70~ubuntu18.04.1*
G04 #@! TF.CreationDate,2020-04-11T17:04:52-04:00*
G04 #@! TF.ProjectId,weeSpindel,77656553-7069-46e6-9465-6c2e6b696361,rev?*
G04 #@! TF.SameCoordinates,PX56c8cc0PY6dac2c0*
G04 #@! TF.FileFunction,Copper,L2,Bot*
G04 #@! TF.FilePolarity,Positive*
%FSLAX46Y46*%
G04 Gerber Fmt 4.6, Leading zero omitted, Abs format (unit mm)*
G04 Created by KiCad (PCBNEW 5.0.2-bee76a0~70~ubuntu18.04.1) date Sat 11 Apr 2020 05:04:52 PM EDT*
%MOMM*%
%LPD*%
G01*
G04 APERTURE LIST*
G04 #@! TA.AperFunction,Conductor*
%ADD10C,0.050000*%
G04 #@! TD*
G04 #@! TA.AperFunction,SMDPad,CuDef*
%ADD11C,1.425000*%
G04 #@! TD*
G04 #@! TA.AperFunction,ComponentPad*
%ADD12O,1.800000X2.200000*%
G04 #@! TD*
G04 #@! TA.AperFunction,ComponentPad*
%ADD13R,1.700000X1.900000*%
G04 #@! TD*
G04 #@! TA.AperFunction,ComponentPad*
%ADD14R,2.000000X11.500000*%
G04 #@! TD*
G04 #@! TA.AperFunction,SMDPad,CuDef*
%ADD15C,1.150000*%
G04 #@! TD*
G04 #@! TA.AperFunction,SMDPad,CuDef*
%ADD16R,0.980000X3.400000*%
G04 #@! TD*
G04 #@! TA.AperFunction,ComponentPad*
%ADD17R,1.100000X2.500000*%
G04 #@! TD*
G04 #@! TA.AperFunction,ComponentPad*
%ADD18O,1.100000X2.500000*%
G04 #@! TD*
G04 #@! TA.AperFunction,SMDPad,CuDef*
%ADD19C,1.500000*%
G04 #@! TD*
G04 #@! TA.AperFunction,SMDPad,CuDef*
%ADD20R,0.650000X1.060000*%
G04 #@! TD*
G04 #@! TA.AperFunction,ComponentPad*
%ADD21O,2.200000X1.800000*%
G04 #@! TD*
G04 #@! TA.AperFunction,ComponentPad*
%ADD22R,2.200000X1.800000*%
G04 #@! TD*
G04 #@! TA.AperFunction,ComponentPad*
%ADD23O,2.000000X1.600000*%
G04 #@! TD*
G04 #@! TA.AperFunction,ViaPad*
%ADD24C,1.500000*%
G04 #@! TD*
G04 #@! TA.AperFunction,Conductor*
%ADD25C,0.700000*%
G04 #@! TD*
G04 #@! TA.AperFunction,Conductor*
%ADD26C,0.400000*%
G04 #@! TD*
G04 #@! TA.AperFunction,Conductor*
%ADD27C,0.254000*%
G04 #@! TD*
G04 APERTURE END LIST*
D10*
G04 #@! TO.N,Net-(R3-Pad1)*
G04 #@! TO.C,R3*
G36*
X9737004Y9623796D02*
X9761273Y9620196D01*
X9785071Y9614235D01*
X9808171Y9605970D01*
X9830349Y9595480D01*
X9851393Y9582867D01*
X9871098Y9568253D01*
X9889277Y9551777D01*
X9905753Y9533598D01*
X9920367Y9513893D01*
X9932980Y9492849D01*
X9943470Y9470671D01*
X9951735Y9447571D01*
X9957696Y9423773D01*
X9961296Y9399504D01*
X9962500Y9375000D01*
X9962500Y8125000D01*
X9961296Y8100496D01*
X9957696Y8076227D01*
X9951735Y8052429D01*
X9943470Y8029329D01*
X9932980Y8007151D01*
X9920367Y7986107D01*
X9905753Y7966402D01*
X9889277Y7948223D01*
X9871098Y7931747D01*
X9851393Y7917133D01*
X9830349Y7904520D01*
X9808171Y7894030D01*
X9785071Y7885765D01*
X9761273Y7879804D01*
X9737004Y7876204D01*
X9712500Y7875000D01*
X8787500Y7875000D01*
X8762996Y7876204D01*
X8738727Y7879804D01*
X8714929Y7885765D01*
X8691829Y7894030D01*
X8669651Y7904520D01*
X8648607Y7917133D01*
X8628902Y7931747D01*
X8610723Y7948223D01*
X8594247Y7966402D01*
X8579633Y7986107D01*
X8567020Y8007151D01*
X8556530Y8029329D01*
X8548265Y8052429D01*
X8542304Y8076227D01*
X8538704Y8100496D01*
X8537500Y8125000D01*
X8537500Y9375000D01*
X8538704Y9399504D01*
X8542304Y9423773D01*
X8548265Y9447571D01*
X8556530Y9470671D01*
X8567020Y9492849D01*
X8579633Y9513893D01*
X8594247Y9533598D01*
X8610723Y9551777D01*
X8628902Y9568253D01*
X8648607Y9582867D01*
X8669651Y9595480D01*
X8691829Y9605970D01*
X8714929Y9614235D01*
X8738727Y9620196D01*
X8762996Y9623796D01*
X8787500Y9625000D01*
X9712500Y9625000D01*
X9737004Y9623796D01*
X9737004Y9623796D01*
G37*
D11*
G04 #@! TD*
G04 #@! TO.P,R3,1*
G04 #@! TO.N,Net-(R3-Pad1)*
X9250000Y8750000D03*
D10*
G04 #@! TO.N,Net-(R3-Pad2)*
G04 #@! TO.C,R3*
G36*
X6762004Y9623796D02*
X6786273Y9620196D01*
X6810071Y9614235D01*
X6833171Y9605970D01*
X6855349Y9595480D01*
X6876393Y9582867D01*
X6896098Y9568253D01*
X6914277Y9551777D01*
X6930753Y9533598D01*
X6945367Y9513893D01*
X6957980Y9492849D01*
X6968470Y9470671D01*
X6976735Y9447571D01*
X6982696Y9423773D01*
X6986296Y9399504D01*
X6987500Y9375000D01*
X6987500Y8125000D01*
X6986296Y8100496D01*
X6982696Y8076227D01*
X6976735Y8052429D01*
X6968470Y8029329D01*
X6957980Y8007151D01*
X6945367Y7986107D01*
X6930753Y7966402D01*
X6914277Y7948223D01*
X6896098Y7931747D01*
X6876393Y7917133D01*
X6855349Y7904520D01*
X6833171Y7894030D01*
X6810071Y7885765D01*
X6786273Y7879804D01*
X6762004Y7876204D01*
X6737500Y7875000D01*
X5812500Y7875000D01*
X5787996Y7876204D01*
X5763727Y7879804D01*
X5739929Y7885765D01*
X5716829Y7894030D01*
X5694651Y7904520D01*
X5673607Y7917133D01*
X5653902Y7931747D01*
X5635723Y7948223D01*
X5619247Y7966402D01*
X5604633Y7986107D01*
X5592020Y8007151D01*
X5581530Y8029329D01*
X5573265Y8052429D01*
X5567304Y8076227D01*
X5563704Y8100496D01*
X5562500Y8125000D01*
X5562500Y9375000D01*
X5563704Y9399504D01*
X5567304Y9423773D01*
X5573265Y9447571D01*
X5581530Y9470671D01*
X5592020Y9492849D01*
X5604633Y9513893D01*
X5619247Y9533598D01*
X5635723Y9551777D01*
X5653902Y9568253D01*
X5673607Y9582867D01*
X5694651Y9595480D01*
X5716829Y9605970D01*
X5739929Y9614235D01*
X5763727Y9620196D01*
X5787996Y9623796D01*
X5812500Y9625000D01*
X6737500Y9625000D01*
X6762004Y9623796D01*
X6762004Y9623796D01*
G37*
D11*
G04 #@! TD*
G04 #@! TO.P,R3,2*
G04 #@! TO.N,Net-(R3-Pad2)*
X6275000Y8750000D03*
D12*
G04 #@! TO.P,J1,4*
G04 #@! TO.N,SDA*
X30870000Y17550000D03*
G04 #@! TO.P,J1,3*
G04 #@! TO.N,SCL*
X33410000Y17550000D03*
G04 #@! TO.P,J1,2*
G04 #@! TO.N,GND*
X35950000Y17550000D03*
D13*
G04 #@! TO.P,J1,1*
G04 #@! TO.N,3V3*
X38490000Y17550000D03*
G04 #@! TD*
D14*
G04 #@! TO.P,BT1,2*
G04 #@! TO.N,GND*
X106200000Y10000000D03*
G04 #@! TO.P,BT1,1*
G04 #@! TO.N,Net-(BT1-Pad1)*
X46200000Y10000000D03*
G04 #@! TD*
D10*
G04 #@! TO.N,3V3*
G04 #@! TO.C,C1*
G36*
X20171505Y2603795D02*
X20195773Y2600195D01*
X20219572Y2594234D01*
X20242671Y2585969D01*
X20264850Y2575479D01*
X20285893Y2562867D01*
X20305599Y2548252D01*
X20323777Y2531776D01*
X20340253Y2513598D01*
X20354868Y2493892D01*
X20367480Y2472849D01*
X20377970Y2450670D01*
X20386235Y2427571D01*
X20392196Y2403772D01*
X20395796Y2379504D01*
X20397000Y2355000D01*
X20397000Y1704998D01*
X20395796Y1680494D01*
X20392196Y1656226D01*
X20386235Y1632427D01*
X20377970Y1609328D01*
X20367480Y1587149D01*
X20354868Y1566106D01*
X20340253Y1546400D01*
X20323777Y1528222D01*
X20305599Y1511746D01*
X20285893Y1497131D01*
X20264850Y1484519D01*
X20242671Y1474029D01*
X20219572Y1465764D01*
X20195773Y1459803D01*
X20171505Y1456203D01*
X20147001Y1454999D01*
X19246999Y1454999D01*
X19222495Y1456203D01*
X19198227Y1459803D01*
X19174428Y1465764D01*
X19151329Y1474029D01*
X19129150Y1484519D01*
X19108107Y1497131D01*
X19088401Y1511746D01*
X19070223Y1528222D01*
X19053747Y1546400D01*
X19039132Y1566106D01*
X19026520Y1587149D01*
X19016030Y1609328D01*
X19007765Y1632427D01*
X19001804Y1656226D01*
X18998204Y1680494D01*
X18997000Y1704998D01*
X18997000Y2355000D01*
X18998204Y2379504D01*
X19001804Y2403772D01*
X19007765Y2427571D01*
X19016030Y2450670D01*
X19026520Y2472849D01*
X19039132Y2493892D01*
X19053747Y2513598D01*
X19070223Y2531776D01*
X19088401Y2548252D01*
X19108107Y2562867D01*
X19129150Y2575479D01*
X19151329Y2585969D01*
X19174428Y2594234D01*
X19198227Y2600195D01*
X19222495Y2603795D01*
X19246999Y2604999D01*
X20147001Y2604999D01*
X20171505Y2603795D01*
X20171505Y2603795D01*
G37*
D15*
G04 #@! TD*
G04 #@! TO.P,C1,2*
G04 #@! TO.N,3V3*
X19697000Y2029999D03*
D10*
G04 #@! TO.N,GND*
G04 #@! TO.C,C1*
G36*
X20171505Y4653795D02*
X20195773Y4650195D01*
X20219572Y4644234D01*
X20242671Y4635969D01*
X20264850Y4625479D01*
X20285893Y4612867D01*
X20305599Y4598252D01*
X20323777Y4581776D01*
X20340253Y4563598D01*
X20354868Y4543892D01*
X20367480Y4522849D01*
X20377970Y4500670D01*
X20386235Y4477571D01*
X20392196Y4453772D01*
X20395796Y4429504D01*
X20397000Y4405000D01*
X20397000Y3754998D01*
X20395796Y3730494D01*
X20392196Y3706226D01*
X20386235Y3682427D01*
X20377970Y3659328D01*
X20367480Y3637149D01*
X20354868Y3616106D01*
X20340253Y3596400D01*
X20323777Y3578222D01*
X20305599Y3561746D01*
X20285893Y3547131D01*
X20264850Y3534519D01*
X20242671Y3524029D01*
X20219572Y3515764D01*
X20195773Y3509803D01*
X20171505Y3506203D01*
X20147001Y3504999D01*
X19246999Y3504999D01*
X19222495Y3506203D01*
X19198227Y3509803D01*
X19174428Y3515764D01*
X19151329Y3524029D01*
X19129150Y3534519D01*
X19108107Y3547131D01*
X19088401Y3561746D01*
X19070223Y3578222D01*
X19053747Y3596400D01*
X19039132Y3616106D01*
X19026520Y3637149D01*
X19016030Y3659328D01*
X19007765Y3682427D01*
X19001804Y3706226D01*
X18998204Y3730494D01*
X18997000Y3754998D01*
X18997000Y4405000D01*
X18998204Y4429504D01*
X19001804Y4453772D01*
X19007765Y4477571D01*
X19016030Y4500670D01*
X19026520Y4522849D01*
X19039132Y4543892D01*
X19053747Y4563598D01*
X19070223Y4581776D01*
X19088401Y4598252D01*
X19108107Y4612867D01*
X19129150Y4625479D01*
X19151329Y4635969D01*
X19174428Y4644234D01*
X19198227Y4650195D01*
X19222495Y4653795D01*
X19246999Y4654999D01*
X20147001Y4654999D01*
X20171505Y4653795D01*
X20171505Y4653795D01*
G37*
D15*
G04 #@! TD*
G04 #@! TO.P,C1,1*
G04 #@! TO.N,GND*
X19697000Y4079999D03*
D10*
G04 #@! TO.N,GND*
G04 #@! TO.C,C2*
G36*
X34924505Y8898796D02*
X34948773Y8895196D01*
X34972572Y8889235D01*
X34995671Y8880970D01*
X35017850Y8870480D01*
X35038893Y8857868D01*
X35058599Y8843253D01*
X35076777Y8826777D01*
X35093253Y8808599D01*
X35107868Y8788893D01*
X35120480Y8767850D01*
X35130970Y8745671D01*
X35139235Y8722572D01*
X35145196Y8698773D01*
X35148796Y8674505D01*
X35150000Y8650001D01*
X35150000Y7749999D01*
X35148796Y7725495D01*
X35145196Y7701227D01*
X35139235Y7677428D01*
X35130970Y7654329D01*
X35120480Y7632150D01*
X35107868Y7611107D01*
X35093253Y7591401D01*
X35076777Y7573223D01*
X35058599Y7556747D01*
X35038893Y7542132D01*
X35017850Y7529520D01*
X34995671Y7519030D01*
X34972572Y7510765D01*
X34948773Y7504804D01*
X34924505Y7501204D01*
X34900001Y7500000D01*
X34249999Y7500000D01*
X34225495Y7501204D01*
X34201227Y7504804D01*
X34177428Y7510765D01*
X34154329Y7519030D01*
X34132150Y7529520D01*
X34111107Y7542132D01*
X34091401Y7556747D01*
X34073223Y7573223D01*
X34056747Y7591401D01*
X34042132Y7611107D01*
X34029520Y7632150D01*
X34019030Y7654329D01*
X34010765Y7677428D01*
X34004804Y7701227D01*
X34001204Y7725495D01*
X34000000Y7749999D01*
X34000000Y8650001D01*
X34001204Y8674505D01*
X34004804Y8698773D01*
X34010765Y8722572D01*
X34019030Y8745671D01*
X34029520Y8767850D01*
X34042132Y8788893D01*
X34056747Y8808599D01*
X34073223Y8826777D01*
X34091401Y8843253D01*
X34111107Y8857868D01*
X34132150Y8870480D01*
X34154329Y8880970D01*
X34177428Y8889235D01*
X34201227Y8895196D01*
X34225495Y8898796D01*
X34249999Y8900000D01*
X34900001Y8900000D01*
X34924505Y8898796D01*
X34924505Y8898796D01*
G37*
D15*
G04 #@! TD*
G04 #@! TO.P,C2,2*
G04 #@! TO.N,GND*
X34575000Y8200000D03*
D10*
G04 #@! TO.N,Net-(C2-Pad1)*
G04 #@! TO.C,C2*
G36*
X36974505Y8898796D02*
X36998773Y8895196D01*
X37022572Y8889235D01*
X37045671Y8880970D01*
X37067850Y8870480D01*
X37088893Y8857868D01*
X37108599Y8843253D01*
X37126777Y8826777D01*
X37143253Y8808599D01*
X37157868Y8788893D01*
X37170480Y8767850D01*
X37180970Y8745671D01*
X37189235Y8722572D01*
X37195196Y8698773D01*
X37198796Y8674505D01*
X37200000Y8650001D01*
X37200000Y7749999D01*
X37198796Y7725495D01*
X37195196Y7701227D01*
X37189235Y7677428D01*
X37180970Y7654329D01*
X37170480Y7632150D01*
X37157868Y7611107D01*
X37143253Y7591401D01*
X37126777Y7573223D01*
X37108599Y7556747D01*
X37088893Y7542132D01*
X37067850Y7529520D01*
X37045671Y7519030D01*
X37022572Y7510765D01*
X36998773Y7504804D01*
X36974505Y7501204D01*
X36950001Y7500000D01*
X36299999Y7500000D01*
X36275495Y7501204D01*
X36251227Y7504804D01*
X36227428Y7510765D01*
X36204329Y7519030D01*
X36182150Y7529520D01*
X36161107Y7542132D01*
X36141401Y7556747D01*
X36123223Y7573223D01*
X36106747Y7591401D01*
X36092132Y7611107D01*
X36079520Y7632150D01*
X36069030Y7654329D01*
X36060765Y7677428D01*
X36054804Y7701227D01*
X36051204Y7725495D01*
X36050000Y7749999D01*
X36050000Y8650001D01*
X36051204Y8674505D01*
X36054804Y8698773D01*
X36060765Y8722572D01*
X36069030Y8745671D01*
X36079520Y8767850D01*
X36092132Y8788893D01*
X36106747Y8808599D01*
X36123223Y8826777D01*
X36141401Y8843253D01*
X36161107Y8857868D01*
X36182150Y8870480D01*
X36204329Y8880970D01*
X36227428Y8889235D01*
X36251227Y8895196D01*
X36275495Y8898796D01*
X36299999Y8900000D01*
X36950001Y8900000D01*
X36974505Y8898796D01*
X36974505Y8898796D01*
G37*
D15*
G04 #@! TD*
G04 #@! TO.P,C2,1*
G04 #@! TO.N,Net-(C2-Pad1)*
X36625000Y8200000D03*
D10*
G04 #@! TO.N,3V3*
G04 #@! TO.C,C3*
G36*
X28074505Y2603795D02*
X28098773Y2600195D01*
X28122572Y2594234D01*
X28145671Y2585969D01*
X28167850Y2575479D01*
X28188893Y2562867D01*
X28208599Y2548252D01*
X28226777Y2531776D01*
X28243253Y2513598D01*
X28257868Y2493892D01*
X28270480Y2472849D01*
X28280970Y2450670D01*
X28289235Y2427571D01*
X28295196Y2403772D01*
X28298796Y2379504D01*
X28300000Y2355000D01*
X28300000Y1704998D01*
X28298796Y1680494D01*
X28295196Y1656226D01*
X28289235Y1632427D01*
X28280970Y1609328D01*
X28270480Y1587149D01*
X28257868Y1566106D01*
X28243253Y1546400D01*
X28226777Y1528222D01*
X28208599Y1511746D01*
X28188893Y1497131D01*
X28167850Y1484519D01*
X28145671Y1474029D01*
X28122572Y1465764D01*
X28098773Y1459803D01*
X28074505Y1456203D01*
X28050001Y1454999D01*
X27149999Y1454999D01*
X27125495Y1456203D01*
X27101227Y1459803D01*
X27077428Y1465764D01*
X27054329Y1474029D01*
X27032150Y1484519D01*
X27011107Y1497131D01*
X26991401Y1511746D01*
X26973223Y1528222D01*
X26956747Y1546400D01*
X26942132Y1566106D01*
X26929520Y1587149D01*
X26919030Y1609328D01*
X26910765Y1632427D01*
X26904804Y1656226D01*
X26901204Y1680494D01*
X26900000Y1704998D01*
X26900000Y2355000D01*
X26901204Y2379504D01*
X26904804Y2403772D01*
X26910765Y2427571D01*
X26919030Y2450670D01*
X26929520Y2472849D01*
X26942132Y2493892D01*
X26956747Y2513598D01*
X26973223Y2531776D01*
X26991401Y2548252D01*
X27011107Y2562867D01*
X27032150Y2575479D01*
X27054329Y2585969D01*
X27077428Y2594234D01*
X27101227Y2600195D01*
X27125495Y2603795D01*
X27149999Y2604999D01*
X28050001Y2604999D01*
X28074505Y2603795D01*
X28074505Y2603795D01*
G37*
D15*
G04 #@! TD*
G04 #@! TO.P,C3,1*
G04 #@! TO.N,3V3*
X27600000Y2029999D03*
D10*
G04 #@! TO.N,GND*
G04 #@! TO.C,C3*
G36*
X28074505Y4653795D02*
X28098773Y4650195D01*
X28122572Y4644234D01*
X28145671Y4635969D01*
X28167850Y4625479D01*
X28188893Y4612867D01*
X28208599Y4598252D01*
X28226777Y4581776D01*
X28243253Y4563598D01*
X28257868Y4543892D01*
X28270480Y4522849D01*
X28280970Y4500670D01*
X28289235Y4477571D01*
X28295196Y4453772D01*
X28298796Y4429504D01*
X28300000Y4405000D01*
X28300000Y3754998D01*
X28298796Y3730494D01*
X28295196Y3706226D01*
X28289235Y3682427D01*
X28280970Y3659328D01*
X28270480Y3637149D01*
X28257868Y3616106D01*
X28243253Y3596400D01*
X28226777Y3578222D01*
X28208599Y3561746D01*
X28188893Y3547131D01*
X28167850Y3534519D01*
X28145671Y3524029D01*
X28122572Y3515764D01*
X28098773Y3509803D01*
X28074505Y3506203D01*
X28050001Y3504999D01*
X27149999Y3504999D01*
X27125495Y3506203D01*
X27101227Y3509803D01*
X27077428Y3515764D01*
X27054329Y3524029D01*
X27032150Y3534519D01*
X27011107Y3547131D01*
X26991401Y3561746D01*
X26973223Y3578222D01*
X26956747Y3596400D01*
X26942132Y3616106D01*
X26929520Y3637149D01*
X26919030Y3659328D01*
X26910765Y3682427D01*
X26904804Y3706226D01*
X26901204Y3730494D01*
X26900000Y3754998D01*
X26900000Y4405000D01*
X26901204Y4429504D01*
X26904804Y4453772D01*
X26910765Y4477571D01*
X26919030Y4500670D01*
X26929520Y4522849D01*
X26942132Y4543892D01*
X26956747Y4563598D01*
X26973223Y4581776D01*
X26991401Y4598252D01*
X27011107Y4612867D01*
X27032150Y4625479D01*
X27054329Y4635969D01*
X27077428Y4644234D01*
X27101227Y4650195D01*
X27125495Y4653795D01*
X27149999Y4654999D01*
X28050001Y4654999D01*
X28074505Y4653795D01*
X28074505Y4653795D01*
G37*
D15*
G04 #@! TD*
G04 #@! TO.P,C3,2*
G04 #@! TO.N,GND*
X27600000Y4079999D03*
D10*
G04 #@! TO.N,3V3*
G04 #@! TO.C,C4*
G36*
X25874505Y2603795D02*
X25898773Y2600195D01*
X25922572Y2594234D01*
X25945671Y2585969D01*
X25967850Y2575479D01*
X25988893Y2562867D01*
X26008599Y2548252D01*
X26026777Y2531776D01*
X26043253Y2513598D01*
X26057868Y2493892D01*
X26070480Y2472849D01*
X26080970Y2450670D01*
X26089235Y2427571D01*
X26095196Y2403772D01*
X26098796Y2379504D01*
X26100000Y2355000D01*
X26100000Y1704998D01*
X26098796Y1680494D01*
X26095196Y1656226D01*
X26089235Y1632427D01*
X26080970Y1609328D01*
X26070480Y1587149D01*
X26057868Y1566106D01*
X26043253Y1546400D01*
X26026777Y1528222D01*
X26008599Y1511746D01*
X25988893Y1497131D01*
X25967850Y1484519D01*
X25945671Y1474029D01*
X25922572Y1465764D01*
X25898773Y1459803D01*
X25874505Y1456203D01*
X25850001Y1454999D01*
X24949999Y1454999D01*
X24925495Y1456203D01*
X24901227Y1459803D01*
X24877428Y1465764D01*
X24854329Y1474029D01*
X24832150Y1484519D01*
X24811107Y1497131D01*
X24791401Y1511746D01*
X24773223Y1528222D01*
X24756747Y1546400D01*
X24742132Y1566106D01*
X24729520Y1587149D01*
X24719030Y1609328D01*
X24710765Y1632427D01*
X24704804Y1656226D01*
X24701204Y1680494D01*
X24700000Y1704998D01*
X24700000Y2355000D01*
X24701204Y2379504D01*
X24704804Y2403772D01*
X24710765Y2427571D01*
X24719030Y2450670D01*
X24729520Y2472849D01*
X24742132Y2493892D01*
X24756747Y2513598D01*
X24773223Y2531776D01*
X24791401Y2548252D01*
X24811107Y2562867D01*
X24832150Y2575479D01*
X24854329Y2585969D01*
X24877428Y2594234D01*
X24901227Y2600195D01*
X24925495Y2603795D01*
X24949999Y2604999D01*
X25850001Y2604999D01*
X25874505Y2603795D01*
X25874505Y2603795D01*
G37*
D15*
G04 #@! TD*
G04 #@! TO.P,C4,1*
G04 #@! TO.N,3V3*
X25400000Y2029999D03*
D10*
G04 #@! TO.N,GND*
G04 #@! TO.C,C4*
G36*
X25874505Y4653795D02*
X25898773Y4650195D01*
X25922572Y4644234D01*
X25945671Y4635969D01*
X25967850Y4625479D01*
X25988893Y4612867D01*
X26008599Y4598252D01*
X26026777Y4581776D01*
X26043253Y4563598D01*
X26057868Y4543892D01*
X26070480Y4522849D01*
X26080970Y4500670D01*
X26089235Y4477571D01*
X26095196Y4453772D01*
X26098796Y4429504D01*
X26100000Y4405000D01*
X26100000Y3754998D01*
X26098796Y3730494D01*
X26095196Y3706226D01*
X26089235Y3682427D01*
X26080970Y3659328D01*
X26070480Y3637149D01*
X26057868Y3616106D01*
X26043253Y3596400D01*
X26026777Y3578222D01*
X26008599Y3561746D01*
X25988893Y3547131D01*
X25967850Y3534519D01*
X25945671Y3524029D01*
X25922572Y3515764D01*
X25898773Y3509803D01*
X25874505Y3506203D01*
X25850001Y3504999D01*
X24949999Y3504999D01*
X24925495Y3506203D01*
X24901227Y3509803D01*
X24877428Y3515764D01*
X24854329Y3524029D01*
X24832150Y3534519D01*
X24811107Y3547131D01*
X24791401Y3561746D01*
X24773223Y3578222D01*
X24756747Y3596400D01*
X24742132Y3616106D01*
X24729520Y3637149D01*
X24719030Y3659328D01*
X24710765Y3682427D01*
X24704804Y3706226D01*
X24701204Y3730494D01*
X24700000Y3754998D01*
X24700000Y4405000D01*
X24701204Y4429504D01*
X24704804Y4453772D01*
X24710765Y4477571D01*
X24719030Y4500670D01*
X24729520Y4522849D01*
X24742132Y4543892D01*
X24756747Y4563598D01*
X24773223Y4581776D01*
X24791401Y4598252D01*
X24811107Y4612867D01*
X24832150Y4625479D01*
X24854329Y4635969D01*
X24877428Y4644234D01*
X24901227Y4650195D01*
X24925495Y4653795D01*
X24949999Y4654999D01*
X25850001Y4654999D01*
X25874505Y4653795D01*
X25874505Y4653795D01*
G37*
D15*
G04 #@! TD*
G04 #@! TO.P,C4,2*
G04 #@! TO.N,GND*
X25400000Y4079999D03*
D10*
G04 #@! TO.N,GND*
G04 #@! TO.C,C6*
G36*
X21724505Y18348796D02*
X21748773Y18345196D01*
X21772572Y18339235D01*
X21795671Y18330970D01*
X21817850Y18320480D01*
X21838893Y18307868D01*
X21858599Y18293253D01*
X21876777Y18276777D01*
X21893253Y18258599D01*
X21907868Y18238893D01*
X21920480Y18217850D01*
X21930970Y18195671D01*
X21939235Y18172572D01*
X21945196Y18148773D01*
X21948796Y18124505D01*
X21950000Y18100001D01*
X21950000Y17449999D01*
X21948796Y17425495D01*
X21945196Y17401227D01*
X21939235Y17377428D01*
X21930970Y17354329D01*
X21920480Y17332150D01*
X21907868Y17311107D01*
X21893253Y17291401D01*
X21876777Y17273223D01*
X21858599Y17256747D01*
X21838893Y17242132D01*
X21817850Y17229520D01*
X21795671Y17219030D01*
X21772572Y17210765D01*
X21748773Y17204804D01*
X21724505Y17201204D01*
X21700001Y17200000D01*
X20799999Y17200000D01*
X20775495Y17201204D01*
X20751227Y17204804D01*
X20727428Y17210765D01*
X20704329Y17219030D01*
X20682150Y17229520D01*
X20661107Y17242132D01*
X20641401Y17256747D01*
X20623223Y17273223D01*
X20606747Y17291401D01*
X20592132Y17311107D01*
X20579520Y17332150D01*
X20569030Y17354329D01*
X20560765Y17377428D01*
X20554804Y17401227D01*
X20551204Y17425495D01*
X20550000Y17449999D01*
X20550000Y18100001D01*
X20551204Y18124505D01*
X20554804Y18148773D01*
X20560765Y18172572D01*
X20569030Y18195671D01*
X20579520Y18217850D01*
X20592132Y18238893D01*
X20606747Y18258599D01*
X20623223Y18276777D01*
X20641401Y18293253D01*
X20661107Y18307868D01*
X20682150Y18320480D01*
X20704329Y18330970D01*
X20727428Y18339235D01*
X20751227Y18345196D01*
X20775495Y18348796D01*
X20799999Y18350000D01*
X21700001Y18350000D01*
X21724505Y18348796D01*
X21724505Y18348796D01*
G37*
D15*
G04 #@! TD*
G04 #@! TO.P,C6,2*
G04 #@! TO.N,GND*
X21250000Y17775000D03*
D10*
G04 #@! TO.N,ADC*
G04 #@! TO.C,C6*
G36*
X21724505Y16298796D02*
X21748773Y16295196D01*
X21772572Y16289235D01*
X21795671Y16280970D01*
X21817850Y16270480D01*
X21838893Y16257868D01*
X21858599Y16243253D01*
X21876777Y16226777D01*
X21893253Y16208599D01*
X21907868Y16188893D01*
X21920480Y16167850D01*
X21930970Y16145671D01*
X21939235Y16122572D01*
X21945196Y16098773D01*
X21948796Y16074505D01*
X21950000Y16050001D01*
X21950000Y15399999D01*
X21948796Y15375495D01*
X21945196Y15351227D01*
X21939235Y15327428D01*
X21930970Y15304329D01*
X21920480Y15282150D01*
X21907868Y15261107D01*
X21893253Y15241401D01*
X21876777Y15223223D01*
X21858599Y15206747D01*
X21838893Y15192132D01*
X21817850Y15179520D01*
X21795671Y15169030D01*
X21772572Y15160765D01*
X21748773Y15154804D01*
X21724505Y15151204D01*
X21700001Y15150000D01*
X20799999Y15150000D01*
X20775495Y15151204D01*
X20751227Y15154804D01*
X20727428Y15160765D01*
X20704329Y15169030D01*
X20682150Y15179520D01*
X20661107Y15192132D01*
X20641401Y15206747D01*
X20623223Y15223223D01*
X20606747Y15241401D01*
X20592132Y15261107D01*
X20579520Y15282150D01*
X20569030Y15304329D01*
X20560765Y15327428D01*
X20554804Y15351227D01*
X20551204Y15375495D01*
X20550000Y15399999D01*
X20550000Y16050001D01*
X20551204Y16074505D01*
X20554804Y16098773D01*
X20560765Y16122572D01*
X20569030Y16145671D01*
X20579520Y16167850D01*
X20592132Y16188893D01*
X20606747Y16208599D01*
X20623223Y16226777D01*
X20641401Y16243253D01*
X20661107Y16257868D01*
X20682150Y16270480D01*
X20704329Y16280970D01*
X20727428Y16289235D01*
X20751227Y16295196D01*
X20775495Y16298796D01*
X20799999Y16300000D01*
X21700001Y16300000D01*
X21724505Y16298796D01*
X21724505Y16298796D01*
G37*
D15*
G04 #@! TD*
G04 #@! TO.P,C6,1*
G04 #@! TO.N,ADC*
X21250000Y15725000D03*
D10*
G04 #@! TO.N,GND*
G04 #@! TO.C,C7*
G36*
X9699505Y11948796D02*
X9723773Y11945196D01*
X9747572Y11939235D01*
X9770671Y11930970D01*
X9792850Y11920480D01*
X9813893Y11907868D01*
X9833599Y11893253D01*
X9851777Y11876777D01*
X9868253Y11858599D01*
X9882868Y11838893D01*
X9895480Y11817850D01*
X9905970Y11795671D01*
X9914235Y11772572D01*
X9920196Y11748773D01*
X9923796Y11724505D01*
X9925000Y11700001D01*
X9925000Y10799999D01*
X9923796Y10775495D01*
X9920196Y10751227D01*
X9914235Y10727428D01*
X9905970Y10704329D01*
X9895480Y10682150D01*
X9882868Y10661107D01*
X9868253Y10641401D01*
X9851777Y10623223D01*
X9833599Y10606747D01*
X9813893Y10592132D01*
X9792850Y10579520D01*
X9770671Y10569030D01*
X9747572Y10560765D01*
X9723773Y10554804D01*
X9699505Y10551204D01*
X9675001Y10550000D01*
X9024999Y10550000D01*
X9000495Y10551204D01*
X8976227Y10554804D01*
X8952428Y10560765D01*
X8929329Y10569030D01*
X8907150Y10579520D01*
X8886107Y10592132D01*
X8866401Y10606747D01*
X8848223Y10623223D01*
X8831747Y10641401D01*
X8817132Y10661107D01*
X8804520Y10682150D01*
X8794030Y10704329D01*
X8785765Y10727428D01*
X8779804Y10751227D01*
X8776204Y10775495D01*
X8775000Y10799999D01*
X8775000Y11700001D01*
X8776204Y11724505D01*
X8779804Y11748773D01*
X8785765Y11772572D01*
X8794030Y11795671D01*
X8804520Y11817850D01*
X8817132Y11838893D01*
X8831747Y11858599D01*
X8848223Y11876777D01*
X8866401Y11893253D01*
X8886107Y11907868D01*
X8907150Y11920480D01*
X8929329Y11930970D01*
X8952428Y11939235D01*
X8976227Y11945196D01*
X9000495Y11948796D01*
X9024999Y11950000D01*
X9675001Y11950000D01*
X9699505Y11948796D01*
X9699505Y11948796D01*
G37*
D15*
G04 #@! TD*
G04 #@! TO.P,C7,1*
G04 #@! TO.N,GND*
X9350000Y11250000D03*
D10*
G04 #@! TO.N,Net-(C7-Pad2)*
G04 #@! TO.C,C7*
G36*
X7649505Y11948796D02*
X7673773Y11945196D01*
X7697572Y11939235D01*
X7720671Y11930970D01*
X7742850Y11920480D01*
X7763893Y11907868D01*
X7783599Y11893253D01*
X7801777Y11876777D01*
X7818253Y11858599D01*
X7832868Y11838893D01*
X7845480Y11817850D01*
X7855970Y11795671D01*
X7864235Y11772572D01*
X7870196Y11748773D01*
X7873796Y11724505D01*
X7875000Y11700001D01*
X7875000Y10799999D01*
X7873796Y10775495D01*
X7870196Y10751227D01*
X7864235Y10727428D01*
X7855970Y10704329D01*
X7845480Y10682150D01*
X7832868Y10661107D01*
X7818253Y10641401D01*
X7801777Y10623223D01*
X7783599Y10606747D01*
X7763893Y10592132D01*
X7742850Y10579520D01*
X7720671Y10569030D01*
X7697572Y10560765D01*
X7673773Y10554804D01*
X7649505Y10551204D01*
X7625001Y10550000D01*
X6974999Y10550000D01*
X6950495Y10551204D01*
X6926227Y10554804D01*
X6902428Y10560765D01*
X6879329Y10569030D01*
X6857150Y10579520D01*
X6836107Y10592132D01*
X6816401Y10606747D01*
X6798223Y10623223D01*
X6781747Y10641401D01*
X6767132Y10661107D01*
X6754520Y10682150D01*
X6744030Y10704329D01*
X6735765Y10727428D01*
X6729804Y10751227D01*
X6726204Y10775495D01*
X6725000Y10799999D01*
X6725000Y11700001D01*
X6726204Y11724505D01*
X6729804Y11748773D01*
X6735765Y11772572D01*
X6744030Y11795671D01*
X6754520Y11817850D01*
X6767132Y11838893D01*
X6781747Y11858599D01*
X6798223Y11876777D01*
X6816401Y11893253D01*
X6836107Y11907868D01*
X6857150Y11920480D01*
X6879329Y11930970D01*
X6902428Y11939235D01*
X6926227Y11945196D01*
X6950495Y11948796D01*
X6974999Y11950000D01*
X7625001Y11950000D01*
X7649505Y11948796D01*
X7649505Y11948796D01*
G37*
D15*
G04 #@! TD*
G04 #@! TO.P,C7,2*
G04 #@! TO.N,Net-(C7-Pad2)*
X7300000Y11250000D03*
D16*
G04 #@! TO.P,L1,1*
G04 #@! TO.N,Net-(C2-Pad1)*
X36667000Y4721000D03*
G04 #@! TO.P,L1,2*
G04 #@! TO.N,Net-(L1-Pad2)*
X34297000Y4721000D03*
G04 #@! TD*
D10*
G04 #@! TO.N,Net-(C2-Pad1)*
G04 #@! TO.C,R1*
G36*
X23649505Y14198796D02*
X23673773Y14195196D01*
X23697572Y14189235D01*
X23720671Y14180970D01*
X23742850Y14170480D01*
X23763893Y14157868D01*
X23783599Y14143253D01*
X23801777Y14126777D01*
X23818253Y14108599D01*
X23832868Y14088893D01*
X23845480Y14067850D01*
X23855970Y14045671D01*
X23864235Y14022572D01*
X23870196Y13998773D01*
X23873796Y13974505D01*
X23875000Y13950001D01*
X23875000Y13049999D01*
X23873796Y13025495D01*
X23870196Y13001227D01*
X23864235Y12977428D01*
X23855970Y12954329D01*
X23845480Y12932150D01*
X23832868Y12911107D01*
X23818253Y12891401D01*
X23801777Y12873223D01*
X23783599Y12856747D01*
X23763893Y12842132D01*
X23742850Y12829520D01*
X23720671Y12819030D01*
X23697572Y12810765D01*
X23673773Y12804804D01*
X23649505Y12801204D01*
X23625001Y12800000D01*
X22974999Y12800000D01*
X22950495Y12801204D01*
X22926227Y12804804D01*
X22902428Y12810765D01*
X22879329Y12819030D01*
X22857150Y12829520D01*
X22836107Y12842132D01*
X22816401Y12856747D01*
X22798223Y12873223D01*
X22781747Y12891401D01*
X22767132Y12911107D01*
X22754520Y12932150D01*
X22744030Y12954329D01*
X22735765Y12977428D01*
X22729804Y13001227D01*
X22726204Y13025495D01*
X22725000Y13049999D01*
X22725000Y13950001D01*
X22726204Y13974505D01*
X22729804Y13998773D01*
X22735765Y14022572D01*
X22744030Y14045671D01*
X22754520Y14067850D01*
X22767132Y14088893D01*
X22781747Y14108599D01*
X22798223Y14126777D01*
X22816401Y14143253D01*
X22836107Y14157868D01*
X22857150Y14170480D01*
X22879329Y14180970D01*
X22902428Y14189235D01*
X22926227Y14195196D01*
X22950495Y14198796D01*
X22974999Y14200000D01*
X23625001Y14200000D01*
X23649505Y14198796D01*
X23649505Y14198796D01*
G37*
D15*
G04 #@! TD*
G04 #@! TO.P,R1,2*
G04 #@! TO.N,Net-(C2-Pad1)*
X23300000Y13500000D03*
D10*
G04 #@! TO.N,ADC*
G04 #@! TO.C,R1*
G36*
X21599505Y14198796D02*
X21623773Y14195196D01*
X21647572Y14189235D01*
X21670671Y14180970D01*
X21692850Y14170480D01*
X21713893Y14157868D01*
X21733599Y14143253D01*
X21751777Y14126777D01*
X21768253Y14108599D01*
X21782868Y14088893D01*
X21795480Y14067850D01*
X21805970Y14045671D01*
X21814235Y14022572D01*
X21820196Y13998773D01*
X21823796Y13974505D01*
X21825000Y13950001D01*
X21825000Y13049999D01*
X21823796Y13025495D01*
X21820196Y13001227D01*
X21814235Y12977428D01*
X21805970Y12954329D01*
X21795480Y12932150D01*
X21782868Y12911107D01*
X21768253Y12891401D01*
X21751777Y12873223D01*
X21733599Y12856747D01*
X21713893Y12842132D01*
X21692850Y12829520D01*
X21670671Y12819030D01*
X21647572Y12810765D01*
X21623773Y12804804D01*
X21599505Y12801204D01*
X21575001Y12800000D01*
X20924999Y12800000D01*
X20900495Y12801204D01*
X20876227Y12804804D01*
X20852428Y12810765D01*
X20829329Y12819030D01*
X20807150Y12829520D01*
X20786107Y12842132D01*
X20766401Y12856747D01*
X20748223Y12873223D01*
X20731747Y12891401D01*
X20717132Y12911107D01*
X20704520Y12932150D01*
X20694030Y12954329D01*
X20685765Y12977428D01*
X20679804Y13001227D01*
X20676204Y13025495D01*
X20675000Y13049999D01*
X20675000Y13950001D01*
X20676204Y13974505D01*
X20679804Y13998773D01*
X20685765Y14022572D01*
X20694030Y14045671D01*
X20704520Y14067850D01*
X20717132Y14088893D01*
X20731747Y14108599D01*
X20748223Y14126777D01*
X20766401Y14143253D01*
X20786107Y14157868D01*
X20807150Y14170480D01*
X20829329Y14180970D01*
X20852428Y14189235D01*
X20876227Y14195196D01*
X20900495Y14198796D01*
X20924999Y14200000D01*
X21575001Y14200000D01*
X21599505Y14198796D01*
X21599505Y14198796D01*
G37*
D15*
G04 #@! TD*
G04 #@! TO.P,R1,1*
G04 #@! TO.N,ADC*
X21250000Y13500000D03*
D10*
G04 #@! TO.N,GND*
G04 #@! TO.C,R2*
G36*
X23974505Y18348796D02*
X23998773Y18345196D01*
X24022572Y18339235D01*
X24045671Y18330970D01*
X24067850Y18320480D01*
X24088893Y18307868D01*
X24108599Y18293253D01*
X24126777Y18276777D01*
X24143253Y18258599D01*
X24157868Y18238893D01*
X24170480Y18217850D01*
X24180970Y18195671D01*
X24189235Y18172572D01*
X24195196Y18148773D01*
X24198796Y18124505D01*
X24200000Y18100001D01*
X24200000Y17449999D01*
X24198796Y17425495D01*
X24195196Y17401227D01*
X24189235Y17377428D01*
X24180970Y17354329D01*
X24170480Y17332150D01*
X24157868Y17311107D01*
X24143253Y17291401D01*
X24126777Y17273223D01*
X24108599Y17256747D01*
X24088893Y17242132D01*
X24067850Y17229520D01*
X24045671Y17219030D01*
X24022572Y17210765D01*
X23998773Y17204804D01*
X23974505Y17201204D01*
X23950001Y17200000D01*
X23049999Y17200000D01*
X23025495Y17201204D01*
X23001227Y17204804D01*
X22977428Y17210765D01*
X22954329Y17219030D01*
X22932150Y17229520D01*
X22911107Y17242132D01*
X22891401Y17256747D01*
X22873223Y17273223D01*
X22856747Y17291401D01*
X22842132Y17311107D01*
X22829520Y17332150D01*
X22819030Y17354329D01*
X22810765Y17377428D01*
X22804804Y17401227D01*
X22801204Y17425495D01*
X22800000Y17449999D01*
X22800000Y18100001D01*
X22801204Y18124505D01*
X22804804Y18148773D01*
X22810765Y18172572D01*
X22819030Y18195671D01*
X22829520Y18217850D01*
X22842132Y18238893D01*
X22856747Y18258599D01*
X22873223Y18276777D01*
X22891401Y18293253D01*
X22911107Y18307868D01*
X22932150Y18320480D01*
X22954329Y18330970D01*
X22977428Y18339235D01*
X23001227Y18345196D01*
X23025495Y18348796D01*
X23049999Y18350000D01*
X23950001Y18350000D01*
X23974505Y18348796D01*
X23974505Y18348796D01*
G37*
D15*
G04 #@! TD*
G04 #@! TO.P,R2,1*
G04 #@! TO.N,GND*
X23500000Y17775000D03*
D10*
G04 #@! TO.N,ADC*
G04 #@! TO.C,R2*
G36*
X23974505Y16298796D02*
X23998773Y16295196D01*
X24022572Y16289235D01*
X24045671Y16280970D01*
X24067850Y16270480D01*
X24088893Y16257868D01*
X24108599Y16243253D01*
X24126777Y16226777D01*
X24143253Y16208599D01*
X24157868Y16188893D01*
X24170480Y16167850D01*
X24180970Y16145671D01*
X24189235Y16122572D01*
X24195196Y16098773D01*
X24198796Y16074505D01*
X24200000Y16050001D01*
X24200000Y15399999D01*
X24198796Y15375495D01*
X24195196Y15351227D01*
X24189235Y15327428D01*
X24180970Y15304329D01*
X24170480Y15282150D01*
X24157868Y15261107D01*
X24143253Y15241401D01*
X24126777Y15223223D01*
X24108599Y15206747D01*
X24088893Y15192132D01*
X24067850Y15179520D01*
X24045671Y15169030D01*
X24022572Y15160765D01*
X23998773Y15154804D01*
X23974505Y15151204D01*
X23950001Y15150000D01*
X23049999Y15150000D01*
X23025495Y15151204D01*
X23001227Y15154804D01*
X22977428Y15160765D01*
X22954329Y15169030D01*
X22932150Y15179520D01*
X22911107Y15192132D01*
X22891401Y15206747D01*
X22873223Y15223223D01*
X22856747Y15241401D01*
X22842132Y15261107D01*
X22829520Y15282150D01*
X22819030Y15304329D01*
X22810765Y15327428D01*
X22804804Y15351227D01*
X22801204Y15375495D01*
X22800000Y15399999D01*
X22800000Y16050001D01*
X22801204Y16074505D01*
X22804804Y16098773D01*
X22810765Y16122572D01*
X22819030Y16145671D01*
X22829520Y16167850D01*
X22842132Y16188893D01*
X22856747Y16208599D01*
X22873223Y16226777D01*
X22891401Y16243253D01*
X22911107Y16257868D01*
X22932150Y16270480D01*
X22954329Y16280970D01*
X22977428Y16289235D01*
X23001227Y16295196D01*
X23025495Y16298796D01*
X23049999Y16300000D01*
X23950001Y16300000D01*
X23974505Y16298796D01*
X23974505Y16298796D01*
G37*
D15*
G04 #@! TD*
G04 #@! TO.P,R2,2*
G04 #@! TO.N,ADC*
X23500000Y15725000D03*
D10*
G04 #@! TO.N,Net-(R4-Pad1)*
G04 #@! TO.C,R4*
G36*
X3849505Y14198796D02*
X3873773Y14195196D01*
X3897572Y14189235D01*
X3920671Y14180970D01*
X3942850Y14170480D01*
X3963893Y14157868D01*
X3983599Y14143253D01*
X4001777Y14126777D01*
X4018253Y14108599D01*
X4032868Y14088893D01*
X4045480Y14067850D01*
X4055970Y14045671D01*
X4064235Y14022572D01*
X4070196Y13998773D01*
X4073796Y13974505D01*
X4075000Y13950001D01*
X4075000Y13049999D01*
X4073796Y13025495D01*
X4070196Y13001227D01*
X4064235Y12977428D01*
X4055970Y12954329D01*
X4045480Y12932150D01*
X4032868Y12911107D01*
X4018253Y12891401D01*
X4001777Y12873223D01*
X3983599Y12856747D01*
X3963893Y12842132D01*
X3942850Y12829520D01*
X3920671Y12819030D01*
X3897572Y12810765D01*
X3873773Y12804804D01*
X3849505Y12801204D01*
X3825001Y12800000D01*
X3174999Y12800000D01*
X3150495Y12801204D01*
X3126227Y12804804D01*
X3102428Y12810765D01*
X3079329Y12819030D01*
X3057150Y12829520D01*
X3036107Y12842132D01*
X3016401Y12856747D01*
X2998223Y12873223D01*
X2981747Y12891401D01*
X2967132Y12911107D01*
X2954520Y12932150D01*
X2944030Y12954329D01*
X2935765Y12977428D01*
X2929804Y13001227D01*
X2926204Y13025495D01*
X2925000Y13049999D01*
X2925000Y13950001D01*
X2926204Y13974505D01*
X2929804Y13998773D01*
X2935765Y14022572D01*
X2944030Y14045671D01*
X2954520Y14067850D01*
X2967132Y14088893D01*
X2981747Y14108599D01*
X2998223Y14126777D01*
X3016401Y14143253D01*
X3036107Y14157868D01*
X3057150Y14170480D01*
X3079329Y14180970D01*
X3102428Y14189235D01*
X3126227Y14195196D01*
X3150495Y14198796D01*
X3174999Y14200000D01*
X3825001Y14200000D01*
X3849505Y14198796D01*
X3849505Y14198796D01*
G37*
D15*
G04 #@! TD*
G04 #@! TO.P,R4,1*
G04 #@! TO.N,Net-(R4-Pad1)*
X3500000Y13500000D03*
D10*
G04 #@! TO.N,3V3*
G04 #@! TO.C,R4*
G36*
X1799505Y14198796D02*
X1823773Y14195196D01*
X1847572Y14189235D01*
X1870671Y14180970D01*
X1892850Y14170480D01*
X1913893Y14157868D01*
X1933599Y14143253D01*
X1951777Y14126777D01*
X1968253Y14108599D01*
X1982868Y14088893D01*
X1995480Y14067850D01*
X2005970Y14045671D01*
X2014235Y14022572D01*
X2020196Y13998773D01*
X2023796Y13974505D01*
X2025000Y13950001D01*
X2025000Y13049999D01*
X2023796Y13025495D01*
X2020196Y13001227D01*
X2014235Y12977428D01*
X2005970Y12954329D01*
X1995480Y12932150D01*
X1982868Y12911107D01*
X1968253Y12891401D01*
X1951777Y12873223D01*
X1933599Y12856747D01*
X1913893Y12842132D01*
X1892850Y12829520D01*
X1870671Y12819030D01*
X1847572Y12810765D01*
X1823773Y12804804D01*
X1799505Y12801204D01*
X1775001Y12800000D01*
X1124999Y12800000D01*
X1100495Y12801204D01*
X1076227Y12804804D01*
X1052428Y12810765D01*
X1029329Y12819030D01*
X1007150Y12829520D01*
X986107Y12842132D01*
X966401Y12856747D01*
X948223Y12873223D01*
X931747Y12891401D01*
X917132Y12911107D01*
X904520Y12932150D01*
X894030Y12954329D01*
X885765Y12977428D01*
X879804Y13001227D01*
X876204Y13025495D01*
X875000Y13049999D01*
X875000Y13950001D01*
X876204Y13974505D01*
X879804Y13998773D01*
X885765Y14022572D01*
X894030Y14045671D01*
X904520Y14067850D01*
X917132Y14088893D01*
X931747Y14108599D01*
X948223Y14126777D01*
X966401Y14143253D01*
X986107Y14157868D01*
X1007150Y14170480D01*
X1029329Y14180970D01*
X1052428Y14189235D01*
X1076227Y14195196D01*
X1100495Y14198796D01*
X1124999Y14200000D01*
X1775001Y14200000D01*
X1799505Y14198796D01*
X1799505Y14198796D01*
G37*
D15*
G04 #@! TD*
G04 #@! TO.P,R4,2*
G04 #@! TO.N,3V3*
X1450000Y13500000D03*
D10*
G04 #@! TO.N,3V3*
G04 #@! TO.C,R5*
G36*
X1799505Y9698796D02*
X1823773Y9695196D01*
X1847572Y9689235D01*
X1870671Y9680970D01*
X1892850Y9670480D01*
X1913893Y9657868D01*
X1933599Y9643253D01*
X1951777Y9626777D01*
X1968253Y9608599D01*
X1982868Y9588893D01*
X1995480Y9567850D01*
X2005970Y9545671D01*
X2014235Y9522572D01*
X2020196Y9498773D01*
X2023796Y9474505D01*
X2025000Y9450001D01*
X2025000Y8549999D01*
X2023796Y8525495D01*
X2020196Y8501227D01*
X2014235Y8477428D01*
X2005970Y8454329D01*
X1995480Y8432150D01*
X1982868Y8411107D01*
X1968253Y8391401D01*
X1951777Y8373223D01*
X1933599Y8356747D01*
X1913893Y8342132D01*
X1892850Y8329520D01*
X1870671Y8319030D01*
X1847572Y8310765D01*
X1823773Y8304804D01*
X1799505Y8301204D01*
X1775001Y8300000D01*
X1124999Y8300000D01*
X1100495Y8301204D01*
X1076227Y8304804D01*
X1052428Y8310765D01*
X1029329Y8319030D01*
X1007150Y8329520D01*
X986107Y8342132D01*
X966401Y8356747D01*
X948223Y8373223D01*
X931747Y8391401D01*
X917132Y8411107D01*
X904520Y8432150D01*
X894030Y8454329D01*
X885765Y8477428D01*
X879804Y8501227D01*
X876204Y8525495D01*
X875000Y8549999D01*
X875000Y9450001D01*
X876204Y9474505D01*
X879804Y9498773D01*
X885765Y9522572D01*
X894030Y9545671D01*
X904520Y9567850D01*
X917132Y9588893D01*
X931747Y9608599D01*
X948223Y9626777D01*
X966401Y9643253D01*
X986107Y9657868D01*
X1007150Y9670480D01*
X1029329Y9680970D01*
X1052428Y9689235D01*
X1076227Y9695196D01*
X1100495Y9698796D01*
X1124999Y9700000D01*
X1775001Y9700000D01*
X1799505Y9698796D01*
X1799505Y9698796D01*
G37*
D15*
G04 #@! TD*
G04 #@! TO.P,R5,2*
G04 #@! TO.N,3V3*
X1450000Y9000000D03*
D10*
G04 #@! TO.N,Net-(R3-Pad2)*
G04 #@! TO.C,R5*
G36*
X3849505Y9698796D02*
X3873773Y9695196D01*
X3897572Y9689235D01*
X3920671Y9680970D01*
X3942850Y9670480D01*
X3963893Y9657868D01*
X3983599Y9643253D01*
X4001777Y9626777D01*
X4018253Y9608599D01*
X4032868Y9588893D01*
X4045480Y9567850D01*
X4055970Y9545671D01*
X4064235Y9522572D01*
X4070196Y9498773D01*
X4073796Y9474505D01*
X4075000Y9450001D01*
X4075000Y8549999D01*
X4073796Y8525495D01*
X4070196Y8501227D01*
X4064235Y8477428D01*
X4055970Y8454329D01*
X4045480Y8432150D01*
X4032868Y8411107D01*
X4018253Y8391401D01*
X4001777Y8373223D01*
X3983599Y8356747D01*
X3963893Y8342132D01*
X3942850Y8329520D01*
X3920671Y8319030D01*
X3897572Y8310765D01*
X3873773Y8304804D01*
X3849505Y8301204D01*
X3825001Y8300000D01*
X3174999Y8300000D01*
X3150495Y8301204D01*
X3126227Y8304804D01*
X3102428Y8310765D01*
X3079329Y8319030D01*
X3057150Y8329520D01*
X3036107Y8342132D01*
X3016401Y8356747D01*
X2998223Y8373223D01*
X2981747Y8391401D01*
X2967132Y8411107D01*
X2954520Y8432150D01*
X2944030Y8454329D01*
X2935765Y8477428D01*
X2929804Y8501227D01*
X2926204Y8525495D01*
X2925000Y8549999D01*
X2925000Y9450001D01*
X2926204Y9474505D01*
X2929804Y9498773D01*
X2935765Y9522572D01*
X2944030Y9545671D01*
X2954520Y9567850D01*
X2967132Y9588893D01*
X2981747Y9608599D01*
X2998223Y9626777D01*
X3016401Y9643253D01*
X3036107Y9657868D01*
X3057150Y9670480D01*
X3079329Y9680970D01*
X3102428Y9689235D01*
X3126227Y9695196D01*
X3150495Y9698796D01*
X3174999Y9700000D01*
X3825001Y9700000D01*
X3849505Y9698796D01*
X3849505Y9698796D01*
G37*
D15*
G04 #@! TD*
G04 #@! TO.P,R5,1*
G04 #@! TO.N,Net-(R3-Pad2)*
X3500000Y9000000D03*
D10*
G04 #@! TO.N,Net-(C7-Pad2)*
G04 #@! TO.C,R6*
G36*
X3849505Y11948796D02*
X3873773Y11945196D01*
X3897572Y11939235D01*
X3920671Y11930970D01*
X3942850Y11920480D01*
X3963893Y11907868D01*
X3983599Y11893253D01*
X4001777Y11876777D01*
X4018253Y11858599D01*
X4032868Y11838893D01*
X4045480Y11817850D01*
X4055970Y11795671D01*
X4064235Y11772572D01*
X4070196Y11748773D01*
X4073796Y11724505D01*
X4075000Y11700001D01*
X4075000Y10799999D01*
X4073796Y10775495D01*
X4070196Y10751227D01*
X4064235Y10727428D01*
X4055970Y10704329D01*
X4045480Y10682150D01*
X4032868Y10661107D01*
X4018253Y10641401D01*
X4001777Y10623223D01*
X3983599Y10606747D01*
X3963893Y10592132D01*
X3942850Y10579520D01*
X3920671Y10569030D01*
X3897572Y10560765D01*
X3873773Y10554804D01*
X3849505Y10551204D01*
X3825001Y10550000D01*
X3174999Y10550000D01*
X3150495Y10551204D01*
X3126227Y10554804D01*
X3102428Y10560765D01*
X3079329Y10569030D01*
X3057150Y10579520D01*
X3036107Y10592132D01*
X3016401Y10606747D01*
X2998223Y10623223D01*
X2981747Y10641401D01*
X2967132Y10661107D01*
X2954520Y10682150D01*
X2944030Y10704329D01*
X2935765Y10727428D01*
X2929804Y10751227D01*
X2926204Y10775495D01*
X2925000Y10799999D01*
X2925000Y11700001D01*
X2926204Y11724505D01*
X2929804Y11748773D01*
X2935765Y11772572D01*
X2944030Y11795671D01*
X2954520Y11817850D01*
X2967132Y11838893D01*
X2981747Y11858599D01*
X2998223Y11876777D01*
X3016401Y11893253D01*
X3036107Y11907868D01*
X3057150Y11920480D01*
X3079329Y11930970D01*
X3102428Y11939235D01*
X3126227Y11945196D01*
X3150495Y11948796D01*
X3174999Y11950000D01*
X3825001Y11950000D01*
X3849505Y11948796D01*
X3849505Y11948796D01*
G37*
D15*
G04 #@! TD*
G04 #@! TO.P,R6,1*
G04 #@! TO.N,Net-(C7-Pad2)*
X3500000Y11250000D03*
D10*
G04 #@! TO.N,3V3*
G04 #@! TO.C,R6*
G36*
X1799505Y11948796D02*
X1823773Y11945196D01*
X1847572Y11939235D01*
X1870671Y11930970D01*
X1892850Y11920480D01*
X1913893Y11907868D01*
X1933599Y11893253D01*
X1951777Y11876777D01*
X1968253Y11858599D01*
X1982868Y11838893D01*
X1995480Y11817850D01*
X2005970Y11795671D01*
X2014235Y11772572D01*
X2020196Y11748773D01*
X2023796Y11724505D01*
X2025000Y11700001D01*
X2025000Y10799999D01*
X2023796Y10775495D01*
X2020196Y10751227D01*
X2014235Y10727428D01*
X2005970Y10704329D01*
X1995480Y10682150D01*
X1982868Y10661107D01*
X1968253Y10641401D01*
X1951777Y10623223D01*
X1933599Y10606747D01*
X1913893Y10592132D01*
X1892850Y10579520D01*
X1870671Y10569030D01*
X1847572Y10560765D01*
X1823773Y10554804D01*
X1799505Y10551204D01*
X1775001Y10550000D01*
X1124999Y10550000D01*
X1100495Y10551204D01*
X1076227Y10554804D01*
X1052428Y10560765D01*
X1029329Y10569030D01*
X1007150Y10579520D01*
X986107Y10592132D01*
X966401Y10606747D01*
X948223Y10623223D01*
X931747Y10641401D01*
X917132Y10661107D01*
X904520Y10682150D01*
X894030Y10704329D01*
X885765Y10727428D01*
X879804Y10751227D01*
X876204Y10775495D01*
X875000Y10799999D01*
X875000Y11700001D01*
X876204Y11724505D01*
X879804Y11748773D01*
X885765Y11772572D01*
X894030Y11795671D01*
X904520Y11817850D01*
X917132Y11838893D01*
X931747Y11858599D01*
X948223Y11876777D01*
X966401Y11893253D01*
X986107Y11907868D01*
X1007150Y11920480D01*
X1029329Y11930970D01*
X1052428Y11939235D01*
X1076227Y11945196D01*
X1100495Y11948796D01*
X1124999Y11950000D01*
X1775001Y11950000D01*
X1799505Y11948796D01*
X1799505Y11948796D01*
G37*
D15*
G04 #@! TD*
G04 #@! TO.P,R6,2*
G04 #@! TO.N,3V3*
X1450000Y11250000D03*
D10*
G04 #@! TO.N,Net-(R7-Pad2)*
G04 #@! TO.C,R7*
G36*
X14849505Y15698796D02*
X14873773Y15695196D01*
X14897572Y15689235D01*
X14920671Y15680970D01*
X14942850Y15670480D01*
X14963893Y15657868D01*
X14983599Y15643253D01*
X15001777Y15626777D01*
X15018253Y15608599D01*
X15032868Y15588893D01*
X15045480Y15567850D01*
X15055970Y15545671D01*
X15064235Y15522572D01*
X15070196Y15498773D01*
X15073796Y15474505D01*
X15075000Y15450001D01*
X15075000Y14549999D01*
X15073796Y14525495D01*
X15070196Y14501227D01*
X15064235Y14477428D01*
X15055970Y14454329D01*
X15045480Y14432150D01*
X15032868Y14411107D01*
X15018253Y14391401D01*
X15001777Y14373223D01*
X14983599Y14356747D01*
X14963893Y14342132D01*
X14942850Y14329520D01*
X14920671Y14319030D01*
X14897572Y14310765D01*
X14873773Y14304804D01*
X14849505Y14301204D01*
X14825001Y14300000D01*
X14174999Y14300000D01*
X14150495Y14301204D01*
X14126227Y14304804D01*
X14102428Y14310765D01*
X14079329Y14319030D01*
X14057150Y14329520D01*
X14036107Y14342132D01*
X14016401Y14356747D01*
X13998223Y14373223D01*
X13981747Y14391401D01*
X13967132Y14411107D01*
X13954520Y14432150D01*
X13944030Y14454329D01*
X13935765Y14477428D01*
X13929804Y14501227D01*
X13926204Y14525495D01*
X13925000Y14549999D01*
X13925000Y15450001D01*
X13926204Y15474505D01*
X13929804Y15498773D01*
X13935765Y15522572D01*
X13944030Y15545671D01*
X13954520Y15567850D01*
X13967132Y15588893D01*
X13981747Y15608599D01*
X13998223Y15626777D01*
X14016401Y15643253D01*
X14036107Y15657868D01*
X14057150Y15670480D01*
X14079329Y15680970D01*
X14102428Y15689235D01*
X14126227Y15695196D01*
X14150495Y15698796D01*
X14174999Y15700000D01*
X14825001Y15700000D01*
X14849505Y15698796D01*
X14849505Y15698796D01*
G37*
D15*
G04 #@! TD*
G04 #@! TO.P,R7,2*
G04 #@! TO.N,Net-(R7-Pad2)*
X14500000Y15000000D03*
D10*
G04 #@! TO.N,GND*
G04 #@! TO.C,R7*
G36*
X16899505Y15698796D02*
X16923773Y15695196D01*
X16947572Y15689235D01*
X16970671Y15680970D01*
X16992850Y15670480D01*
X17013893Y15657868D01*
X17033599Y15643253D01*
X17051777Y15626777D01*
X17068253Y15608599D01*
X17082868Y15588893D01*
X17095480Y15567850D01*
X17105970Y15545671D01*
X17114235Y15522572D01*
X17120196Y15498773D01*
X17123796Y15474505D01*
X17125000Y15450001D01*
X17125000Y14549999D01*
X17123796Y14525495D01*
X17120196Y14501227D01*
X17114235Y14477428D01*
X17105970Y14454329D01*
X17095480Y14432150D01*
X17082868Y14411107D01*
X17068253Y14391401D01*
X17051777Y14373223D01*
X17033599Y14356747D01*
X17013893Y14342132D01*
X16992850Y14329520D01*
X16970671Y14319030D01*
X16947572Y14310765D01*
X16923773Y14304804D01*
X16899505Y14301204D01*
X16875001Y14300000D01*
X16224999Y14300000D01*
X16200495Y14301204D01*
X16176227Y14304804D01*
X16152428Y14310765D01*
X16129329Y14319030D01*
X16107150Y14329520D01*
X16086107Y14342132D01*
X16066401Y14356747D01*
X16048223Y14373223D01*
X16031747Y14391401D01*
X16017132Y14411107D01*
X16004520Y14432150D01*
X15994030Y14454329D01*
X15985765Y14477428D01*
X15979804Y14501227D01*
X15976204Y14525495D01*
X15975000Y14549999D01*
X15975000Y15450001D01*
X15976204Y15474505D01*
X15979804Y15498773D01*
X15985765Y15522572D01*
X15994030Y15545671D01*
X16004520Y15567850D01*
X16017132Y15588893D01*
X16031747Y15608599D01*
X16048223Y15626777D01*
X16066401Y15643253D01*
X16086107Y15657868D01*
X16107150Y15670480D01*
X16129329Y15680970D01*
X16152428Y15689235D01*
X16176227Y15695196D01*
X16200495Y15698796D01*
X16224999Y15700000D01*
X16875001Y15700000D01*
X16899505Y15698796D01*
X16899505Y15698796D01*
G37*
D15*
G04 #@! TD*
G04 #@! TO.P,R7,1*
G04 #@! TO.N,GND*
X16550000Y15000000D03*
D17*
G04 #@! TO.P,U1,1*
G04 #@! TO.N,Net-(R3-Pad2)*
X2497000Y2421000D03*
D18*
G04 #@! TO.P,U1,2*
G04 #@! TO.N,ADC*
X4497000Y2421000D03*
G04 #@! TO.P,U1,3*
G04 #@! TO.N,Net-(C7-Pad2)*
X6497000Y2421000D03*
G04 #@! TO.P,U1,4*
G04 #@! TO.N,Net-(R3-Pad1)*
X8497000Y2421000D03*
G04 #@! TO.P,U1,5*
G04 #@! TO.N,Net-(JP1-Pad2)*
X10497000Y2421000D03*
G04 #@! TO.P,U1,6*
G04 #@! TO.N,Net-(U1-Pad6)*
X12497000Y2421000D03*
G04 #@! TO.P,U1,7*
G04 #@! TO.N,Net-(U1-Pad7)*
X14497000Y2421000D03*
G04 #@! TO.P,U1,8*
G04 #@! TO.N,3V3*
X16497000Y2421000D03*
G04 #@! TO.P,U1,9*
G04 #@! TO.N,GND*
X16497000Y17821000D03*
G04 #@! TO.P,U1,10*
G04 #@! TO.N,Net-(R7-Pad2)*
X14497000Y17721000D03*
G04 #@! TO.P,U1,11*
G04 #@! TO.N,Net-(U1-Pad11)*
X12497000Y17821000D03*
G04 #@! TO.P,U1,12*
G04 #@! TO.N,Net-(R4-Pad1)*
X10497000Y17821000D03*
G04 #@! TO.P,U1,13*
G04 #@! TO.N,SDA*
X8497000Y17821000D03*
G04 #@! TO.P,U1,14*
G04 #@! TO.N,SCL*
X6497000Y17821000D03*
G04 #@! TO.P,U1,15*
G04 #@! TO.N,Net-(U1-Pad15)*
X4497000Y17821000D03*
G04 #@! TO.P,U1,16*
G04 #@! TO.N,Net-(U1-Pad16)*
X2497000Y17821000D03*
G04 #@! TD*
D10*
G04 #@! TO.N,3V3*
G04 #@! TO.C,C5*
G36*
X23549504Y2998795D02*
X23573773Y2995195D01*
X23597571Y2989234D01*
X23620671Y2980969D01*
X23642849Y2970479D01*
X23663893Y2957866D01*
X23683598Y2943252D01*
X23701777Y2926776D01*
X23718253Y2908597D01*
X23732867Y2888892D01*
X23745480Y2867848D01*
X23755970Y2845670D01*
X23764235Y2822570D01*
X23770196Y2798772D01*
X23773796Y2774503D01*
X23775000Y2749999D01*
X23775000Y1749999D01*
X23773796Y1725495D01*
X23770196Y1701226D01*
X23764235Y1677428D01*
X23755970Y1654328D01*
X23745480Y1632150D01*
X23732867Y1611106D01*
X23718253Y1591401D01*
X23701777Y1573222D01*
X23683598Y1556746D01*
X23663893Y1542132D01*
X23642849Y1529519D01*
X23620671Y1519029D01*
X23597571Y1510764D01*
X23573773Y1504803D01*
X23549504Y1501203D01*
X23525000Y1499999D01*
X21675000Y1499999D01*
X21650496Y1501203D01*
X21626227Y1504803D01*
X21602429Y1510764D01*
X21579329Y1519029D01*
X21557151Y1529519D01*
X21536107Y1542132D01*
X21516402Y1556746D01*
X21498223Y1573222D01*
X21481747Y1591401D01*
X21467133Y1611106D01*
X21454520Y1632150D01*
X21444030Y1654328D01*
X21435765Y1677428D01*
X21429804Y1701226D01*
X21426204Y1725495D01*
X21425000Y1749999D01*
X21425000Y2749999D01*
X21426204Y2774503D01*
X21429804Y2798772D01*
X21435765Y2822570D01*
X21444030Y2845670D01*
X21454520Y2867848D01*
X21467133Y2888892D01*
X21481747Y2908597D01*
X21498223Y2926776D01*
X21516402Y2943252D01*
X21536107Y2957866D01*
X21557151Y2970479D01*
X21579329Y2980969D01*
X21602429Y2989234D01*
X21626227Y2995195D01*
X21650496Y2998795D01*
X21675000Y2999999D01*
X23525000Y2999999D01*
X23549504Y2998795D01*
X23549504Y2998795D01*
G37*
D19*
G04 #@! TD*
G04 #@! TO.P,C5,1*
G04 #@! TO.N,3V3*
X22600000Y2249999D03*
D10*
G04 #@! TO.N,GND*
G04 #@! TO.C,C5*
G36*
X23549504Y6248795D02*
X23573773Y6245195D01*
X23597571Y6239234D01*
X23620671Y6230969D01*
X23642849Y6220479D01*
X23663893Y6207866D01*
X23683598Y6193252D01*
X23701777Y6176776D01*
X23718253Y6158597D01*
X23732867Y6138892D01*
X23745480Y6117848D01*
X23755970Y6095670D01*
X23764235Y6072570D01*
X23770196Y6048772D01*
X23773796Y6024503D01*
X23775000Y5999999D01*
X23775000Y4999999D01*
X23773796Y4975495D01*
X23770196Y4951226D01*
X23764235Y4927428D01*
X23755970Y4904328D01*
X23745480Y4882150D01*
X23732867Y4861106D01*
X23718253Y4841401D01*
X23701777Y4823222D01*
X23683598Y4806746D01*
X23663893Y4792132D01*
X23642849Y4779519D01*
X23620671Y4769029D01*
X23597571Y4760764D01*
X23573773Y4754803D01*
X23549504Y4751203D01*
X23525000Y4749999D01*
X21675000Y4749999D01*
X21650496Y4751203D01*
X21626227Y4754803D01*
X21602429Y4760764D01*
X21579329Y4769029D01*
X21557151Y4779519D01*
X21536107Y4792132D01*
X21516402Y4806746D01*
X21498223Y4823222D01*
X21481747Y4841401D01*
X21467133Y4861106D01*
X21454520Y4882150D01*
X21444030Y4904328D01*
X21435765Y4927428D01*
X21429804Y4951226D01*
X21426204Y4975495D01*
X21425000Y4999999D01*
X21425000Y5999999D01*
X21426204Y6024503D01*
X21429804Y6048772D01*
X21435765Y6072570D01*
X21444030Y6095670D01*
X21454520Y6117848D01*
X21467133Y6138892D01*
X21481747Y6158597D01*
X21498223Y6176776D01*
X21516402Y6193252D01*
X21536107Y6207866D01*
X21557151Y6220479D01*
X21579329Y6230969D01*
X21602429Y6239234D01*
X21626227Y6245195D01*
X21650496Y6248795D01*
X21675000Y6249999D01*
X23525000Y6249999D01*
X23549504Y6248795D01*
X23549504Y6248795D01*
G37*
D19*
G04 #@! TD*
G04 #@! TO.P,C5,2*
G04 #@! TO.N,GND*
X22600000Y5499999D03*
D20*
G04 #@! TO.P,U2,1*
G04 #@! TO.N,3V3*
X31950000Y3421000D03*
G04 #@! TO.P,U2,2*
X31000000Y3421000D03*
G04 #@! TO.P,U2,3*
G04 #@! TO.N,Net-(U2-Pad3)*
X30050000Y3421000D03*
G04 #@! TO.P,U2,4*
G04 #@! TO.N,GND*
X30050000Y5621000D03*
G04 #@! TO.P,U2,5*
G04 #@! TO.N,Net-(L1-Pad2)*
X31950000Y5621000D03*
G04 #@! TD*
D21*
G04 #@! TO.P,JP1,2*
G04 #@! TO.N,Net-(JP1-Pad2)*
X43000000Y12660000D03*
D22*
G04 #@! TO.P,JP1,1*
G04 #@! TO.N,GND*
X43000000Y15200000D03*
G04 #@! TD*
D23*
G04 #@! TO.P,SW1,3*
G04 #@! TO.N,N/C*
X41600000Y3300000D03*
G04 #@! TO.P,SW1,2*
G04 #@! TO.N,Net-(BT1-Pad1)*
X44800000Y5800000D03*
G04 #@! TO.P,SW1,1*
G04 #@! TO.N,Net-(C2-Pad1)*
X41600000Y8300000D03*
G04 #@! TD*
D24*
G04 #@! TO.N,3V3*
X16497000Y5721000D03*
X1500000Y6250000D03*
X38500000Y14250000D03*
X39000000Y8200000D03*
G04 #@! TO.N,Net-(C2-Pad1)*
X36500000Y10500000D03*
G04 #@! TO.N,ADC*
X6000000Y6250000D03*
X21250000Y11500000D03*
G04 #@! TO.N,SCL*
X5700000Y14900000D03*
X33500000Y13750000D03*
G04 #@! TO.N,SDA*
X8497000Y14921000D03*
X28000000Y17500000D03*
G04 #@! TO.N,Net-(JP1-Pad2)*
X43000000Y10900000D03*
X12750000Y8000000D03*
G04 #@! TO.N,Net-(C2-Pad1)*
X23250000Y11500000D03*
G04 #@! TD*
D25*
G04 #@! TO.N,3V3*
X31824999Y3421000D02*
X31000000Y3421000D01*
D26*
X16497000Y5721000D02*
X16497000Y3121000D01*
X16176000Y5400000D02*
X16497000Y5721000D01*
D25*
X27600000Y2029999D02*
X25400000Y2029999D01*
X22820000Y2029999D02*
X22600000Y2249999D01*
X25400000Y2029999D02*
X22820000Y2029999D01*
X22600000Y2249999D02*
X22150001Y1800000D01*
X31776000Y1800000D02*
X32000000Y2024000D01*
X27600000Y2000000D02*
X27800000Y1800000D01*
X32000000Y2024000D02*
X32000000Y3400000D01*
X27800000Y1800000D02*
X31776000Y1800000D01*
D26*
X1450000Y6300000D02*
X1450000Y9000000D01*
X1500000Y6250000D02*
X1450000Y6300000D01*
X1450000Y9000000D02*
X1450000Y11250000D01*
X1450000Y11250000D02*
X1450000Y13500000D01*
D25*
X19917000Y2249999D02*
X19697000Y2029999D01*
X22600000Y2249999D02*
X19917000Y2249999D01*
X17588001Y2029999D02*
X16497000Y3121000D01*
X19697000Y2029999D02*
X17588001Y2029999D01*
D26*
X38500000Y17540000D02*
X38490000Y17550000D01*
X38500000Y14250000D02*
X38500000Y17540000D01*
X32000000Y2000000D02*
X32000000Y3600000D01*
X32300000Y1700000D02*
X32000000Y2000000D01*
X37900000Y1700000D02*
X32300000Y1700000D01*
X39350000Y3150000D02*
X37900000Y1700000D01*
X39000000Y8200000D02*
X39350000Y7850000D01*
X39350000Y7850000D02*
X39350000Y3150000D01*
D25*
G04 #@! TO.N,Net-(C2-Pad1)*
X39400000Y10500000D02*
X41600000Y8300000D01*
X36500000Y10500000D02*
X39400000Y10500000D01*
X36667000Y8133000D02*
X36667000Y4721000D01*
D26*
X36500000Y10500000D02*
X36800000Y10200000D01*
D25*
X36500000Y10500000D02*
X36500000Y8300000D01*
X36500000Y8300000D02*
X36667000Y8133000D01*
D26*
X36800000Y10200000D02*
X36800000Y8200000D01*
G04 #@! TO.N,ADC*
X6000000Y6250000D02*
X4497000Y4747000D01*
X4497000Y4747000D02*
X4497000Y3121000D01*
X21250000Y11500000D02*
X21250000Y13500000D01*
X23500000Y15725000D02*
X21250000Y15725000D01*
X21250000Y15725000D02*
X21250000Y13500000D01*
G04 #@! TO.N,SCL*
X5700000Y14900000D02*
X6497000Y15697000D01*
X6497000Y15697000D02*
X6497000Y17121000D01*
X33410000Y17010000D02*
X33420000Y17000000D01*
X33500000Y13750000D02*
X33500000Y17460000D01*
X33500000Y17460000D02*
X33410000Y17550000D01*
G04 #@! TO.N,SDA*
X8497000Y17121000D02*
X8497000Y14921000D01*
X30820000Y17500000D02*
X30870000Y17550000D01*
X28000000Y17500000D02*
X30820000Y17500000D01*
D25*
G04 #@! TO.N,Net-(L1-Pad2)*
X33418000Y5600000D02*
X34297000Y4721000D01*
X32000000Y5600000D02*
X33418000Y5600000D01*
D26*
G04 #@! TO.N,Net-(JP1-Pad2)*
X43000000Y10900000D02*
X43000000Y12660000D01*
X12750000Y8000000D02*
X10497000Y5747000D01*
X10497000Y5747000D02*
X10497000Y3121000D01*
G04 #@! TO.N,Net-(BT1-Pad1)*
X46200000Y7400000D02*
X46200000Y10000000D01*
X44600000Y5800000D02*
X46200000Y7400000D01*
G04 #@! TO.N,Net-(R7-Pad2)*
X14497000Y15003000D02*
X14500000Y15000000D01*
X14497000Y17121000D02*
X14497000Y15003000D01*
G04 #@! TO.N,Net-(C7-Pad2)*
X7350000Y11250000D02*
X3750000Y11250000D01*
X7750000Y10850000D02*
X7350000Y11250000D01*
X7750000Y5750000D02*
X7750000Y10850000D01*
X6497000Y3121000D02*
X6497000Y4497000D01*
X6497000Y4497000D02*
X7750000Y5750000D01*
G04 #@! TO.N,Net-(R3-Pad2)*
X3750000Y8750000D02*
X3500000Y9000000D01*
X6250000Y8750000D02*
X3750000Y8750000D01*
X3000000Y3624000D02*
X2497000Y3121000D01*
X3000000Y4750000D02*
X3000000Y3624000D01*
X3500000Y9000000D02*
X3500000Y5250000D01*
X3500000Y5250000D02*
X3000000Y4750000D01*
G04 #@! TO.N,Net-(R4-Pad1)*
X10497000Y14247000D02*
X10497000Y17121000D01*
X9500000Y13250000D02*
X10497000Y14247000D01*
X3500000Y13500000D02*
X3750000Y13250000D01*
X3750000Y13250000D02*
X9500000Y13250000D01*
G04 #@! TO.N,Net-(R3-Pad1)*
X9250000Y5500000D02*
X9250000Y8750000D01*
X8497000Y3121000D02*
X8497000Y4747000D01*
X8497000Y4747000D02*
X9250000Y5500000D01*
G04 #@! TO.N,Net-(C2-Pad1)*
X23250000Y11500000D02*
X23250000Y13500000D01*
G04 #@! TD*
D27*
G04 #@! TO.N,GND*
G36*
X19823000Y18494609D02*
X19823000Y18129750D01*
X20004750Y17948000D01*
X21077000Y17948000D01*
X21077000Y17968000D01*
X21423000Y17968000D01*
X21423000Y17948000D01*
X23327000Y17948000D01*
X23327000Y17968000D01*
X23673000Y17968000D01*
X23673000Y17948000D01*
X24745250Y17948000D01*
X24927000Y18129750D01*
X24927000Y18494609D01*
X24842753Y18698000D01*
X27109207Y18698000D01*
X26747860Y18336653D01*
X26523000Y17793794D01*
X26523000Y17206206D01*
X26747860Y16663347D01*
X27163347Y16247860D01*
X27706206Y16023000D01*
X28293794Y16023000D01*
X28836653Y16247860D01*
X29161793Y16573000D01*
X29432400Y16573000D01*
X29696999Y16176999D01*
X30235176Y15817400D01*
X30870000Y15691126D01*
X31504823Y15817400D01*
X32043001Y16176999D01*
X32140000Y16322168D01*
X32236999Y16176999D01*
X32573001Y15952490D01*
X32573000Y14911793D01*
X32247860Y14586653D01*
X32023000Y14043794D01*
X32023000Y13456206D01*
X32247860Y12913347D01*
X32663347Y12497860D01*
X33206206Y12273000D01*
X33793794Y12273000D01*
X34336653Y12497860D01*
X34752140Y12913347D01*
X34977000Y13456206D01*
X34977000Y14043794D01*
X34752140Y14586653D01*
X34427000Y14911793D01*
X34427000Y16072762D01*
X34583001Y16176999D01*
X34699779Y16351770D01*
X34970987Y16048441D01*
X35526054Y15779205D01*
X35777000Y15915142D01*
X35777000Y17377000D01*
X35757000Y17377000D01*
X35757000Y17723000D01*
X35777000Y17723000D01*
X35777000Y17743000D01*
X36123000Y17743000D01*
X36123000Y17723000D01*
X36143000Y17723000D01*
X36143000Y17377000D01*
X36123000Y17377000D01*
X36123000Y15915142D01*
X36373946Y15779205D01*
X36929013Y16048441D01*
X37046435Y16179770D01*
X37115863Y16075863D01*
X37356339Y15915182D01*
X37573000Y15872085D01*
X37573000Y15411793D01*
X37247860Y15086653D01*
X37023000Y14543794D01*
X37023000Y13956206D01*
X37247860Y13413347D01*
X37663347Y12997860D01*
X38206206Y12773000D01*
X38793794Y12773000D01*
X39336653Y12997860D01*
X39752140Y13413347D01*
X39977000Y13956206D01*
X39977000Y14543794D01*
X39752140Y15086653D01*
X39427000Y15411793D01*
X39427000Y15876063D01*
X39623661Y15915182D01*
X39864137Y16075863D01*
X39976890Y16244610D01*
X41173000Y16244610D01*
X41173000Y15554750D01*
X41354750Y15373000D01*
X42827000Y15373000D01*
X42827000Y16645250D01*
X42645250Y16827000D01*
X41755391Y16827000D01*
X41488188Y16716321D01*
X41283679Y16511813D01*
X41173000Y16244610D01*
X39976890Y16244610D01*
X40024818Y16316339D01*
X40081242Y16600000D01*
X40081242Y18500000D01*
X40041857Y18698000D01*
X102973743Y18698000D01*
X104118777Y18622951D01*
X105218411Y18404220D01*
X106280086Y18043830D01*
X107285640Y17547945D01*
X108217868Y16925050D01*
X109060813Y16185807D01*
X109800053Y15342864D01*
X110422945Y14410640D01*
X110918830Y13405086D01*
X111279220Y12343410D01*
X111497951Y11243777D01*
X111571279Y10125000D01*
X111497951Y9006223D01*
X111279220Y7906590D01*
X110918830Y6844914D01*
X110422945Y5839360D01*
X109800053Y4907136D01*
X109060813Y4064193D01*
X108217868Y3324950D01*
X107285640Y2702055D01*
X106280086Y2206170D01*
X105656957Y1994646D01*
X105779016Y2177321D01*
X105827000Y2418552D01*
X105827000Y2418553D01*
X105843201Y2500000D01*
X105827000Y2581448D01*
X105827000Y3523000D01*
X105845250Y3523000D01*
X106027000Y3704750D01*
X106027000Y9827000D01*
X106373000Y9827000D01*
X106373000Y3704750D01*
X106554750Y3523000D01*
X107344609Y3523000D01*
X107611812Y3633679D01*
X107816321Y3838187D01*
X107927000Y4105390D01*
X107927000Y9645250D01*
X107745250Y9827000D01*
X106373000Y9827000D01*
X106027000Y9827000D01*
X106007000Y9827000D01*
X106007000Y10173000D01*
X106027000Y10173000D01*
X106027000Y16295250D01*
X106373000Y16295250D01*
X106373000Y10173000D01*
X107745250Y10173000D01*
X107927000Y10354750D01*
X107927000Y15894610D01*
X107816321Y16161813D01*
X107611812Y16366321D01*
X107344609Y16477000D01*
X106554750Y16477000D01*
X106373000Y16295250D01*
X106027000Y16295250D01*
X105845250Y16477000D01*
X105827000Y16477000D01*
X105827000Y17418552D01*
X105843201Y17500000D01*
X105825115Y17590927D01*
X105779016Y17822679D01*
X105596233Y18096233D01*
X105565273Y18116920D01*
X105322679Y18279016D01*
X105081448Y18327000D01*
X105081447Y18327000D01*
X105000000Y18343201D01*
X104918552Y18327000D01*
X47081448Y18327000D01*
X47000000Y18343201D01*
X46918553Y18327000D01*
X46918552Y18327000D01*
X46677321Y18279016D01*
X46403767Y18096233D01*
X46220984Y17822679D01*
X46156799Y17500000D01*
X46173001Y17418547D01*
X46173001Y16491242D01*
X45200000Y16491242D01*
X44916339Y16434818D01*
X44784658Y16346832D01*
X44716321Y16511813D01*
X44511812Y16716321D01*
X44244609Y16827000D01*
X43354750Y16827000D01*
X43173000Y16645250D01*
X43173000Y15373000D01*
X43193000Y15373000D01*
X43193000Y15027000D01*
X43173000Y15027000D01*
X43173000Y15007000D01*
X42827000Y15007000D01*
X42827000Y15027000D01*
X41354750Y15027000D01*
X41173000Y14845250D01*
X41173000Y14155390D01*
X41283679Y13888187D01*
X41488188Y13683679D01*
X41518763Y13671014D01*
X41267400Y13294824D01*
X41141126Y12660000D01*
X41267400Y12025176D01*
X41626999Y11486999D01*
X41640667Y11477866D01*
X41523000Y11193794D01*
X41523000Y10606206D01*
X41747860Y10063347D01*
X41992603Y9818604D01*
X41950393Y9827000D01*
X41596108Y9827000D01*
X40236559Y11186548D01*
X40176473Y11276473D01*
X39820224Y11514511D01*
X39506072Y11577000D01*
X39506066Y11577000D01*
X39400000Y11598098D01*
X39293934Y11577000D01*
X37511793Y11577000D01*
X37336653Y11752140D01*
X36793794Y11977000D01*
X36206206Y11977000D01*
X35663347Y11752140D01*
X35247860Y11336653D01*
X35023000Y10793794D01*
X35023000Y10206206D01*
X35247860Y9663347D01*
X35284207Y9627000D01*
X34929750Y9627000D01*
X34748000Y9445250D01*
X34748000Y8373000D01*
X34768000Y8373000D01*
X34768000Y8027000D01*
X34748000Y8027000D01*
X34748000Y8007000D01*
X34402000Y8007000D01*
X34402000Y8027000D01*
X33454750Y8027000D01*
X33273000Y7845250D01*
X33273000Y7355390D01*
X33330197Y7217304D01*
X33138670Y7089330D01*
X32933785Y6782697D01*
X32912761Y6677000D01*
X32796349Y6677000D01*
X32558661Y6835818D01*
X32275000Y6892242D01*
X31625000Y6892242D01*
X31341339Y6835818D01*
X31100863Y6675137D01*
X31004519Y6530949D01*
X30991321Y6562812D01*
X30786813Y6767321D01*
X30519610Y6878000D01*
X30394250Y6878000D01*
X30212500Y6696250D01*
X30212500Y5794000D01*
X30243000Y5794000D01*
X30243000Y5448000D01*
X30212500Y5448000D01*
X30212500Y5428000D01*
X29887500Y5428000D01*
X29887500Y5448000D01*
X29179750Y5448000D01*
X28998000Y5266250D01*
X28998000Y4946391D01*
X29108679Y4679188D01*
X29267922Y4519944D01*
X29200863Y4475137D01*
X29040182Y4234661D01*
X29027000Y4168391D01*
X29027000Y4253001D01*
X28845252Y4253001D01*
X29027000Y4434749D01*
X29027000Y4799608D01*
X28916321Y5066811D01*
X28711813Y5271320D01*
X28444610Y5381999D01*
X27954750Y5381999D01*
X27773000Y5200249D01*
X27773000Y4252999D01*
X27793000Y4252999D01*
X27793000Y3906999D01*
X27773000Y3906999D01*
X27773000Y3886999D01*
X27427000Y3886999D01*
X27427000Y3906999D01*
X25573000Y3906999D01*
X25573000Y3886999D01*
X25227000Y3886999D01*
X25227000Y3906999D01*
X25207000Y3906999D01*
X25207000Y4252999D01*
X25227000Y4252999D01*
X25227000Y5200249D01*
X25573000Y5200249D01*
X25573000Y4252999D01*
X27427000Y4252999D01*
X27427000Y5200249D01*
X27245250Y5381999D01*
X26755390Y5381999D01*
X26500000Y5276213D01*
X26244610Y5381999D01*
X25754750Y5381999D01*
X25573000Y5200249D01*
X25227000Y5200249D01*
X25045250Y5381999D01*
X24555390Y5381999D01*
X24350230Y5297019D01*
X24320250Y5326999D01*
X22773000Y5326999D01*
X22773000Y4204749D01*
X22954750Y4022999D01*
X23919610Y4022999D01*
X23973000Y4045114D01*
X23973000Y3906997D01*
X24154748Y3906997D01*
X23973000Y3725249D01*
X23973000Y3619905D01*
X23904332Y3665787D01*
X23525000Y3741241D01*
X21675000Y3741241D01*
X21295668Y3665787D01*
X21124000Y3551082D01*
X21124000Y3725249D01*
X20942250Y3906999D01*
X19870000Y3906999D01*
X19870000Y3886999D01*
X19524000Y3886999D01*
X19524000Y3906999D01*
X18451750Y3906999D01*
X18270000Y3725249D01*
X18270000Y3360390D01*
X18374958Y3106999D01*
X18034109Y3106999D01*
X17744120Y3396988D01*
X17699907Y3619260D01*
X17424000Y4032184D01*
X17424000Y4559207D01*
X17664401Y4799608D01*
X18270000Y4799608D01*
X18270000Y4434749D01*
X18451750Y4252999D01*
X19524000Y4252999D01*
X19524000Y5200249D01*
X19870000Y5200249D01*
X19870000Y4252999D01*
X20893867Y4252999D01*
X21013187Y4133678D01*
X21280390Y4022999D01*
X22245250Y4022999D01*
X22427000Y4204749D01*
X22427000Y5326999D01*
X20879750Y5326999D01*
X20816442Y5263691D01*
X20808813Y5271320D01*
X20541610Y5381999D01*
X20051750Y5381999D01*
X19870000Y5200249D01*
X19524000Y5200249D01*
X19342250Y5381999D01*
X18852390Y5381999D01*
X18585187Y5271320D01*
X18380679Y5066811D01*
X18270000Y4799608D01*
X17664401Y4799608D01*
X17749140Y4884347D01*
X17974000Y5427206D01*
X17974000Y6014794D01*
X17816676Y6394608D01*
X20698000Y6394608D01*
X20698000Y5854749D01*
X20879750Y5672999D01*
X22427000Y5672999D01*
X22427000Y6795249D01*
X22773000Y6795249D01*
X22773000Y5672999D01*
X24320250Y5672999D01*
X24502000Y5854749D01*
X24502000Y6295609D01*
X28998000Y6295609D01*
X28998000Y5975750D01*
X29179750Y5794000D01*
X29887500Y5794000D01*
X29887500Y6696250D01*
X29705750Y6878000D01*
X29580390Y6878000D01*
X29313187Y6767321D01*
X29108679Y6562812D01*
X28998000Y6295609D01*
X24502000Y6295609D01*
X24502000Y6394608D01*
X24391321Y6661811D01*
X24186813Y6866320D01*
X23919610Y6976999D01*
X22954750Y6976999D01*
X22773000Y6795249D01*
X22427000Y6795249D01*
X22245250Y6976999D01*
X21280390Y6976999D01*
X21013187Y6866320D01*
X20808679Y6661811D01*
X20698000Y6394608D01*
X17816676Y6394608D01*
X17749140Y6557653D01*
X17333653Y6973140D01*
X16790794Y7198000D01*
X16203206Y7198000D01*
X15660347Y6973140D01*
X15244860Y6557653D01*
X15020000Y6014794D01*
X15020000Y5427206D01*
X15244860Y4884347D01*
X15570000Y4559207D01*
X15570001Y4032185D01*
X15497000Y3922932D01*
X15417665Y4041665D01*
X14995259Y4323907D01*
X14497000Y4423017D01*
X13998740Y4323907D01*
X13576335Y4041665D01*
X13497000Y3922932D01*
X13417665Y4041665D01*
X12995259Y4323907D01*
X12497000Y4423017D01*
X11998740Y4323907D01*
X11576335Y4041665D01*
X11497000Y3922932D01*
X11424000Y4032184D01*
X11424000Y5363025D01*
X12583976Y6523000D01*
X13043794Y6523000D01*
X13586653Y6747860D01*
X14002140Y7163347D01*
X14227000Y7706206D01*
X14227000Y8293794D01*
X14002140Y8836653D01*
X13794183Y9044610D01*
X33273000Y9044610D01*
X33273000Y8554750D01*
X33454750Y8373000D01*
X34402000Y8373000D01*
X34402000Y9445250D01*
X34220250Y9627000D01*
X33855391Y9627000D01*
X33588188Y9516321D01*
X33383679Y9311813D01*
X33273000Y9044610D01*
X13794183Y9044610D01*
X13586653Y9252140D01*
X13043794Y9477000D01*
X12456206Y9477000D01*
X11913347Y9252140D01*
X11497860Y8836653D01*
X11273000Y8293794D01*
X11273000Y7833976D01*
X10177000Y6737975D01*
X10177000Y7266119D01*
X10413414Y7424086D01*
X10628288Y7745668D01*
X10703742Y8125000D01*
X10703742Y9375000D01*
X10628288Y9754332D01*
X10439703Y10036570D01*
X10541321Y10138187D01*
X10652000Y10405390D01*
X10652000Y10895250D01*
X10470250Y11077000D01*
X9523000Y11077000D01*
X9523000Y11057000D01*
X9177000Y11057000D01*
X9177000Y11077000D01*
X9157000Y11077000D01*
X9157000Y11423000D01*
X9177000Y11423000D01*
X9177000Y11443000D01*
X9523000Y11443000D01*
X9523000Y11423000D01*
X10470250Y11423000D01*
X10652000Y11604750D01*
X10652000Y11793794D01*
X19773000Y11793794D01*
X19773000Y11206206D01*
X19997860Y10663347D01*
X20413347Y10247860D01*
X20956206Y10023000D01*
X21543794Y10023000D01*
X22086653Y10247860D01*
X22250000Y10411207D01*
X22413347Y10247860D01*
X22956206Y10023000D01*
X23543794Y10023000D01*
X24086653Y10247860D01*
X24502140Y10663347D01*
X24727000Y11206206D01*
X24727000Y11793794D01*
X24502140Y12336653D01*
X24391520Y12447273D01*
X24540788Y12670667D01*
X24616242Y13049999D01*
X24616242Y13950001D01*
X24540788Y14329333D01*
X24403976Y14534087D01*
X24650914Y14699086D01*
X24865788Y15020667D01*
X24941242Y15399999D01*
X24941242Y16050001D01*
X24865788Y16429333D01*
X24702237Y16674104D01*
X24816321Y16788188D01*
X24927000Y17055391D01*
X24927000Y17420250D01*
X24745250Y17602000D01*
X23673000Y17602000D01*
X23673000Y17582000D01*
X23327000Y17582000D01*
X23327000Y17602000D01*
X21423000Y17602000D01*
X21423000Y17582000D01*
X21077000Y17582000D01*
X21077000Y17602000D01*
X20004750Y17602000D01*
X19823000Y17420250D01*
X19823000Y17055391D01*
X19933679Y16788188D01*
X20047763Y16674104D01*
X19884212Y16429333D01*
X19808758Y16050001D01*
X19808758Y15399999D01*
X19884212Y15020667D01*
X20099086Y14699086D01*
X20207756Y14626475D01*
X20009212Y14329333D01*
X19933758Y13950001D01*
X19933758Y13049999D01*
X20009212Y12670667D01*
X20138452Y12477245D01*
X19997860Y12336653D01*
X19773000Y11793794D01*
X10652000Y11793794D01*
X10652000Y12094610D01*
X10541321Y12361813D01*
X10336812Y12566321D01*
X10196820Y12624308D01*
X10220050Y12659075D01*
X11087928Y13526952D01*
X11165330Y13578670D01*
X11370215Y13885303D01*
X11424000Y14155698D01*
X11424000Y14155699D01*
X11442161Y14247000D01*
X11424000Y14338300D01*
X11424000Y16209816D01*
X11497000Y16319069D01*
X11576336Y16200335D01*
X11998741Y15918093D01*
X12497000Y15818983D01*
X12995260Y15918093D01*
X13417665Y16200335D01*
X13463591Y16269069D01*
X13521411Y16182536D01*
X13474086Y16150914D01*
X13259212Y15829333D01*
X13183758Y15450001D01*
X13183758Y14549999D01*
X13259212Y14170667D01*
X13474086Y13849086D01*
X13795667Y13634212D01*
X14174999Y13558758D01*
X14825001Y13558758D01*
X15204333Y13634212D01*
X15449104Y13797763D01*
X15563188Y13683679D01*
X15830391Y13573000D01*
X16195250Y13573000D01*
X16377000Y13754750D01*
X16377000Y14827000D01*
X16723000Y14827000D01*
X16723000Y13754750D01*
X16904750Y13573000D01*
X17269609Y13573000D01*
X17536812Y13683679D01*
X17741321Y13888187D01*
X17852000Y14155390D01*
X17852000Y14645250D01*
X17670250Y14827000D01*
X16723000Y14827000D01*
X16377000Y14827000D01*
X16357000Y14827000D01*
X16357000Y15173000D01*
X16377000Y15173000D01*
X16377000Y16245250D01*
X16324000Y16298250D01*
X16324000Y17648000D01*
X16670000Y17648000D01*
X16670000Y16039499D01*
X16723000Y16001308D01*
X16723000Y15173000D01*
X17670250Y15173000D01*
X17852000Y15354750D01*
X17852000Y15844610D01*
X17741321Y16111813D01*
X17536812Y16316321D01*
X17489805Y16335792D01*
X17610590Y16472482D01*
X17774000Y16948000D01*
X17774000Y17648000D01*
X16670000Y17648000D01*
X16324000Y17648000D01*
X16304000Y17648000D01*
X16304000Y17994000D01*
X16324000Y17994000D01*
X16324000Y18014000D01*
X16670000Y18014000D01*
X16670000Y17994000D01*
X17774000Y17994000D01*
X17774000Y18694000D01*
X17772625Y18698000D01*
X19907247Y18698000D01*
X19823000Y18494609D01*
X19823000Y18494609D01*
G37*
X19823000Y18494609D02*
X19823000Y18129750D01*
X20004750Y17948000D01*
X21077000Y17948000D01*
X21077000Y17968000D01*
X21423000Y17968000D01*
X21423000Y17948000D01*
X23327000Y17948000D01*
X23327000Y17968000D01*
X23673000Y17968000D01*
X23673000Y17948000D01*
X24745250Y17948000D01*
X24927000Y18129750D01*
X24927000Y18494609D01*
X24842753Y18698000D01*
X27109207Y18698000D01*
X26747860Y18336653D01*
X26523000Y17793794D01*
X26523000Y17206206D01*
X26747860Y16663347D01*
X27163347Y16247860D01*
X27706206Y16023000D01*
X28293794Y16023000D01*
X28836653Y16247860D01*
X29161793Y16573000D01*
X29432400Y16573000D01*
X29696999Y16176999D01*
X30235176Y15817400D01*
X30870000Y15691126D01*
X31504823Y15817400D01*
X32043001Y16176999D01*
X32140000Y16322168D01*
X32236999Y16176999D01*
X32573001Y15952490D01*
X32573000Y14911793D01*
X32247860Y14586653D01*
X32023000Y14043794D01*
X32023000Y13456206D01*
X32247860Y12913347D01*
X32663347Y12497860D01*
X33206206Y12273000D01*
X33793794Y12273000D01*
X34336653Y12497860D01*
X34752140Y12913347D01*
X34977000Y13456206D01*
X34977000Y14043794D01*
X34752140Y14586653D01*
X34427000Y14911793D01*
X34427000Y16072762D01*
X34583001Y16176999D01*
X34699779Y16351770D01*
X34970987Y16048441D01*
X35526054Y15779205D01*
X35777000Y15915142D01*
X35777000Y17377000D01*
X35757000Y17377000D01*
X35757000Y17723000D01*
X35777000Y17723000D01*
X35777000Y17743000D01*
X36123000Y17743000D01*
X36123000Y17723000D01*
X36143000Y17723000D01*
X36143000Y17377000D01*
X36123000Y17377000D01*
X36123000Y15915142D01*
X36373946Y15779205D01*
X36929013Y16048441D01*
X37046435Y16179770D01*
X37115863Y16075863D01*
X37356339Y15915182D01*
X37573000Y15872085D01*
X37573000Y15411793D01*
X37247860Y15086653D01*
X37023000Y14543794D01*
X37023000Y13956206D01*
X37247860Y13413347D01*
X37663347Y12997860D01*
X38206206Y12773000D01*
X38793794Y12773000D01*
X39336653Y12997860D01*
X39752140Y13413347D01*
X39977000Y13956206D01*
X39977000Y14543794D01*
X39752140Y15086653D01*
X39427000Y15411793D01*
X39427000Y15876063D01*
X39623661Y15915182D01*
X39864137Y16075863D01*
X39976890Y16244610D01*
X41173000Y16244610D01*
X41173000Y15554750D01*
X41354750Y15373000D01*
X42827000Y15373000D01*
X42827000Y16645250D01*
X42645250Y16827000D01*
X41755391Y16827000D01*
X41488188Y16716321D01*
X41283679Y16511813D01*
X41173000Y16244610D01*
X39976890Y16244610D01*
X40024818Y16316339D01*
X40081242Y16600000D01*
X40081242Y18500000D01*
X40041857Y18698000D01*
X102973743Y18698000D01*
X104118777Y18622951D01*
X105218411Y18404220D01*
X106280086Y18043830D01*
X107285640Y17547945D01*
X108217868Y16925050D01*
X109060813Y16185807D01*
X109800053Y15342864D01*
X110422945Y14410640D01*
X110918830Y13405086D01*
X111279220Y12343410D01*
X111497951Y11243777D01*
X111571279Y10125000D01*
X111497951Y9006223D01*
X111279220Y7906590D01*
X110918830Y6844914D01*
X110422945Y5839360D01*
X109800053Y4907136D01*
X109060813Y4064193D01*
X108217868Y3324950D01*
X107285640Y2702055D01*
X106280086Y2206170D01*
X105656957Y1994646D01*
X105779016Y2177321D01*
X105827000Y2418552D01*
X105827000Y2418553D01*
X105843201Y2500000D01*
X105827000Y2581448D01*
X105827000Y3523000D01*
X105845250Y3523000D01*
X106027000Y3704750D01*
X106027000Y9827000D01*
X106373000Y9827000D01*
X106373000Y3704750D01*
X106554750Y3523000D01*
X107344609Y3523000D01*
X107611812Y3633679D01*
X107816321Y3838187D01*
X107927000Y4105390D01*
X107927000Y9645250D01*
X107745250Y9827000D01*
X106373000Y9827000D01*
X106027000Y9827000D01*
X106007000Y9827000D01*
X106007000Y10173000D01*
X106027000Y10173000D01*
X106027000Y16295250D01*
X106373000Y16295250D01*
X106373000Y10173000D01*
X107745250Y10173000D01*
X107927000Y10354750D01*
X107927000Y15894610D01*
X107816321Y16161813D01*
X107611812Y16366321D01*
X107344609Y16477000D01*
X106554750Y16477000D01*
X106373000Y16295250D01*
X106027000Y16295250D01*
X105845250Y16477000D01*
X105827000Y16477000D01*
X105827000Y17418552D01*
X105843201Y17500000D01*
X105825115Y17590927D01*
X105779016Y17822679D01*
X105596233Y18096233D01*
X105565273Y18116920D01*
X105322679Y18279016D01*
X105081448Y18327000D01*
X105081447Y18327000D01*
X105000000Y18343201D01*
X104918552Y18327000D01*
X47081448Y18327000D01*
X47000000Y18343201D01*
X46918553Y18327000D01*
X46918552Y18327000D01*
X46677321Y18279016D01*
X46403767Y18096233D01*
X46220984Y17822679D01*
X46156799Y17500000D01*
X46173001Y17418547D01*
X46173001Y16491242D01*
X45200000Y16491242D01*
X44916339Y16434818D01*
X44784658Y16346832D01*
X44716321Y16511813D01*
X44511812Y16716321D01*
X44244609Y16827000D01*
X43354750Y16827000D01*
X43173000Y16645250D01*
X43173000Y15373000D01*
X43193000Y15373000D01*
X43193000Y15027000D01*
X43173000Y15027000D01*
X43173000Y15007000D01*
X42827000Y15007000D01*
X42827000Y15027000D01*
X41354750Y15027000D01*
X41173000Y14845250D01*
X41173000Y14155390D01*
X41283679Y13888187D01*
X41488188Y13683679D01*
X41518763Y13671014D01*
X41267400Y13294824D01*
X41141126Y12660000D01*
X41267400Y12025176D01*
X41626999Y11486999D01*
X41640667Y11477866D01*
X41523000Y11193794D01*
X41523000Y10606206D01*
X41747860Y10063347D01*
X41992603Y9818604D01*
X41950393Y9827000D01*
X41596108Y9827000D01*
X40236559Y11186548D01*
X40176473Y11276473D01*
X39820224Y11514511D01*
X39506072Y11577000D01*
X39506066Y11577000D01*
X39400000Y11598098D01*
X39293934Y11577000D01*
X37511793Y11577000D01*
X37336653Y11752140D01*
X36793794Y11977000D01*
X36206206Y11977000D01*
X35663347Y11752140D01*
X35247860Y11336653D01*
X35023000Y10793794D01*
X35023000Y10206206D01*
X35247860Y9663347D01*
X35284207Y9627000D01*
X34929750Y9627000D01*
X34748000Y9445250D01*
X34748000Y8373000D01*
X34768000Y8373000D01*
X34768000Y8027000D01*
X34748000Y8027000D01*
X34748000Y8007000D01*
X34402000Y8007000D01*
X34402000Y8027000D01*
X33454750Y8027000D01*
X33273000Y7845250D01*
X33273000Y7355390D01*
X33330197Y7217304D01*
X33138670Y7089330D01*
X32933785Y6782697D01*
X32912761Y6677000D01*
X32796349Y6677000D01*
X32558661Y6835818D01*
X32275000Y6892242D01*
X31625000Y6892242D01*
X31341339Y6835818D01*
X31100863Y6675137D01*
X31004519Y6530949D01*
X30991321Y6562812D01*
X30786813Y6767321D01*
X30519610Y6878000D01*
X30394250Y6878000D01*
X30212500Y6696250D01*
X30212500Y5794000D01*
X30243000Y5794000D01*
X30243000Y5448000D01*
X30212500Y5448000D01*
X30212500Y5428000D01*
X29887500Y5428000D01*
X29887500Y5448000D01*
X29179750Y5448000D01*
X28998000Y5266250D01*
X28998000Y4946391D01*
X29108679Y4679188D01*
X29267922Y4519944D01*
X29200863Y4475137D01*
X29040182Y4234661D01*
X29027000Y4168391D01*
X29027000Y4253001D01*
X28845252Y4253001D01*
X29027000Y4434749D01*
X29027000Y4799608D01*
X28916321Y5066811D01*
X28711813Y5271320D01*
X28444610Y5381999D01*
X27954750Y5381999D01*
X27773000Y5200249D01*
X27773000Y4252999D01*
X27793000Y4252999D01*
X27793000Y3906999D01*
X27773000Y3906999D01*
X27773000Y3886999D01*
X27427000Y3886999D01*
X27427000Y3906999D01*
X25573000Y3906999D01*
X25573000Y3886999D01*
X25227000Y3886999D01*
X25227000Y3906999D01*
X25207000Y3906999D01*
X25207000Y4252999D01*
X25227000Y4252999D01*
X25227000Y5200249D01*
X25573000Y5200249D01*
X25573000Y4252999D01*
X27427000Y4252999D01*
X27427000Y5200249D01*
X27245250Y5381999D01*
X26755390Y5381999D01*
X26500000Y5276213D01*
X26244610Y5381999D01*
X25754750Y5381999D01*
X25573000Y5200249D01*
X25227000Y5200249D01*
X25045250Y5381999D01*
X24555390Y5381999D01*
X24350230Y5297019D01*
X24320250Y5326999D01*
X22773000Y5326999D01*
X22773000Y4204749D01*
X22954750Y4022999D01*
X23919610Y4022999D01*
X23973000Y4045114D01*
X23973000Y3906997D01*
X24154748Y3906997D01*
X23973000Y3725249D01*
X23973000Y3619905D01*
X23904332Y3665787D01*
X23525000Y3741241D01*
X21675000Y3741241D01*
X21295668Y3665787D01*
X21124000Y3551082D01*
X21124000Y3725249D01*
X20942250Y3906999D01*
X19870000Y3906999D01*
X19870000Y3886999D01*
X19524000Y3886999D01*
X19524000Y3906999D01*
X18451750Y3906999D01*
X18270000Y3725249D01*
X18270000Y3360390D01*
X18374958Y3106999D01*
X18034109Y3106999D01*
X17744120Y3396988D01*
X17699907Y3619260D01*
X17424000Y4032184D01*
X17424000Y4559207D01*
X17664401Y4799608D01*
X18270000Y4799608D01*
X18270000Y4434749D01*
X18451750Y4252999D01*
X19524000Y4252999D01*
X19524000Y5200249D01*
X19870000Y5200249D01*
X19870000Y4252999D01*
X20893867Y4252999D01*
X21013187Y4133678D01*
X21280390Y4022999D01*
X22245250Y4022999D01*
X22427000Y4204749D01*
X22427000Y5326999D01*
X20879750Y5326999D01*
X20816442Y5263691D01*
X20808813Y5271320D01*
X20541610Y5381999D01*
X20051750Y5381999D01*
X19870000Y5200249D01*
X19524000Y5200249D01*
X19342250Y5381999D01*
X18852390Y5381999D01*
X18585187Y5271320D01*
X18380679Y5066811D01*
X18270000Y4799608D01*
X17664401Y4799608D01*
X17749140Y4884347D01*
X17974000Y5427206D01*
X17974000Y6014794D01*
X17816676Y6394608D01*
X20698000Y6394608D01*
X20698000Y5854749D01*
X20879750Y5672999D01*
X22427000Y5672999D01*
X22427000Y6795249D01*
X22773000Y6795249D01*
X22773000Y5672999D01*
X24320250Y5672999D01*
X24502000Y5854749D01*
X24502000Y6295609D01*
X28998000Y6295609D01*
X28998000Y5975750D01*
X29179750Y5794000D01*
X29887500Y5794000D01*
X29887500Y6696250D01*
X29705750Y6878000D01*
X29580390Y6878000D01*
X29313187Y6767321D01*
X29108679Y6562812D01*
X28998000Y6295609D01*
X24502000Y6295609D01*
X24502000Y6394608D01*
X24391321Y6661811D01*
X24186813Y6866320D01*
X23919610Y6976999D01*
X22954750Y6976999D01*
X22773000Y6795249D01*
X22427000Y6795249D01*
X22245250Y6976999D01*
X21280390Y6976999D01*
X21013187Y6866320D01*
X20808679Y6661811D01*
X20698000Y6394608D01*
X17816676Y6394608D01*
X17749140Y6557653D01*
X17333653Y6973140D01*
X16790794Y7198000D01*
X16203206Y7198000D01*
X15660347Y6973140D01*
X15244860Y6557653D01*
X15020000Y6014794D01*
X15020000Y5427206D01*
X15244860Y4884347D01*
X15570000Y4559207D01*
X15570001Y4032185D01*
X15497000Y3922932D01*
X15417665Y4041665D01*
X14995259Y4323907D01*
X14497000Y4423017D01*
X13998740Y4323907D01*
X13576335Y4041665D01*
X13497000Y3922932D01*
X13417665Y4041665D01*
X12995259Y4323907D01*
X12497000Y4423017D01*
X11998740Y4323907D01*
X11576335Y4041665D01*
X11497000Y3922932D01*
X11424000Y4032184D01*
X11424000Y5363025D01*
X12583976Y6523000D01*
X13043794Y6523000D01*
X13586653Y6747860D01*
X14002140Y7163347D01*
X14227000Y7706206D01*
X14227000Y8293794D01*
X14002140Y8836653D01*
X13794183Y9044610D01*
X33273000Y9044610D01*
X33273000Y8554750D01*
X33454750Y8373000D01*
X34402000Y8373000D01*
X34402000Y9445250D01*
X34220250Y9627000D01*
X33855391Y9627000D01*
X33588188Y9516321D01*
X33383679Y9311813D01*
X33273000Y9044610D01*
X13794183Y9044610D01*
X13586653Y9252140D01*
X13043794Y9477000D01*
X12456206Y9477000D01*
X11913347Y9252140D01*
X11497860Y8836653D01*
X11273000Y8293794D01*
X11273000Y7833976D01*
X10177000Y6737975D01*
X10177000Y7266119D01*
X10413414Y7424086D01*
X10628288Y7745668D01*
X10703742Y8125000D01*
X10703742Y9375000D01*
X10628288Y9754332D01*
X10439703Y10036570D01*
X10541321Y10138187D01*
X10652000Y10405390D01*
X10652000Y10895250D01*
X10470250Y11077000D01*
X9523000Y11077000D01*
X9523000Y11057000D01*
X9177000Y11057000D01*
X9177000Y11077000D01*
X9157000Y11077000D01*
X9157000Y11423000D01*
X9177000Y11423000D01*
X9177000Y11443000D01*
X9523000Y11443000D01*
X9523000Y11423000D01*
X10470250Y11423000D01*
X10652000Y11604750D01*
X10652000Y11793794D01*
X19773000Y11793794D01*
X19773000Y11206206D01*
X19997860Y10663347D01*
X20413347Y10247860D01*
X20956206Y10023000D01*
X21543794Y10023000D01*
X22086653Y10247860D01*
X22250000Y10411207D01*
X22413347Y10247860D01*
X22956206Y10023000D01*
X23543794Y10023000D01*
X24086653Y10247860D01*
X24502140Y10663347D01*
X24727000Y11206206D01*
X24727000Y11793794D01*
X24502140Y12336653D01*
X24391520Y12447273D01*
X24540788Y12670667D01*
X24616242Y13049999D01*
X24616242Y13950001D01*
X24540788Y14329333D01*
X24403976Y14534087D01*
X24650914Y14699086D01*
X24865788Y15020667D01*
X24941242Y15399999D01*
X24941242Y16050001D01*
X24865788Y16429333D01*
X24702237Y16674104D01*
X24816321Y16788188D01*
X24927000Y17055391D01*
X24927000Y17420250D01*
X24745250Y17602000D01*
X23673000Y17602000D01*
X23673000Y17582000D01*
X23327000Y17582000D01*
X23327000Y17602000D01*
X21423000Y17602000D01*
X21423000Y17582000D01*
X21077000Y17582000D01*
X21077000Y17602000D01*
X20004750Y17602000D01*
X19823000Y17420250D01*
X19823000Y17055391D01*
X19933679Y16788188D01*
X20047763Y16674104D01*
X19884212Y16429333D01*
X19808758Y16050001D01*
X19808758Y15399999D01*
X19884212Y15020667D01*
X20099086Y14699086D01*
X20207756Y14626475D01*
X20009212Y14329333D01*
X19933758Y13950001D01*
X19933758Y13049999D01*
X20009212Y12670667D01*
X20138452Y12477245D01*
X19997860Y12336653D01*
X19773000Y11793794D01*
X10652000Y11793794D01*
X10652000Y12094610D01*
X10541321Y12361813D01*
X10336812Y12566321D01*
X10196820Y12624308D01*
X10220050Y12659075D01*
X11087928Y13526952D01*
X11165330Y13578670D01*
X11370215Y13885303D01*
X11424000Y14155698D01*
X11424000Y14155699D01*
X11442161Y14247000D01*
X11424000Y14338300D01*
X11424000Y16209816D01*
X11497000Y16319069D01*
X11576336Y16200335D01*
X11998741Y15918093D01*
X12497000Y15818983D01*
X12995260Y15918093D01*
X13417665Y16200335D01*
X13463591Y16269069D01*
X13521411Y16182536D01*
X13474086Y16150914D01*
X13259212Y15829333D01*
X13183758Y15450001D01*
X13183758Y14549999D01*
X13259212Y14170667D01*
X13474086Y13849086D01*
X13795667Y13634212D01*
X14174999Y13558758D01*
X14825001Y13558758D01*
X15204333Y13634212D01*
X15449104Y13797763D01*
X15563188Y13683679D01*
X15830391Y13573000D01*
X16195250Y13573000D01*
X16377000Y13754750D01*
X16377000Y14827000D01*
X16723000Y14827000D01*
X16723000Y13754750D01*
X16904750Y13573000D01*
X17269609Y13573000D01*
X17536812Y13683679D01*
X17741321Y13888187D01*
X17852000Y14155390D01*
X17852000Y14645250D01*
X17670250Y14827000D01*
X16723000Y14827000D01*
X16377000Y14827000D01*
X16357000Y14827000D01*
X16357000Y15173000D01*
X16377000Y15173000D01*
X16377000Y16245250D01*
X16324000Y16298250D01*
X16324000Y17648000D01*
X16670000Y17648000D01*
X16670000Y16039499D01*
X16723000Y16001308D01*
X16723000Y15173000D01*
X17670250Y15173000D01*
X17852000Y15354750D01*
X17852000Y15844610D01*
X17741321Y16111813D01*
X17536812Y16316321D01*
X17489805Y16335792D01*
X17610590Y16472482D01*
X17774000Y16948000D01*
X17774000Y17648000D01*
X16670000Y17648000D01*
X16324000Y17648000D01*
X16304000Y17648000D01*
X16304000Y17994000D01*
X16324000Y17994000D01*
X16324000Y18014000D01*
X16670000Y18014000D01*
X16670000Y17994000D01*
X17774000Y17994000D01*
X17774000Y18694000D01*
X17772625Y18698000D01*
X19907247Y18698000D01*
X19823000Y18494609D01*
G04 #@! TD*
M02*
