G04 #@! TF.GenerationSoftware,KiCad,Pcbnew,5.0.2-bee76a0~70~ubuntu18.04.1*
G04 #@! TF.CreationDate,2020-04-01T20:00:59-04:00*
G04 #@! TF.ProjectId,weeSpindel,77656553-7069-46e6-9465-6c2e6b696361,rev?*
G04 #@! TF.SameCoordinates,PX56c8cc0PY6dac2c0*
G04 #@! TF.FileFunction,Drawing*
%FSLAX46Y46*%
G04 Gerber Fmt 4.6, Leading zero omitted, Abs format (unit mm)*
G04 Created by KiCad (PCBNEW 5.0.2-bee76a0~70~ubuntu18.04.1) date Wed 01 Apr 2020 08:00:59 PM EDT*
%MOMM*%
%LPD*%
G01*
G04 APERTURE LIST*
%ADD10C,0.300000*%
G04 APERTURE END LIST*
D10*
X44525000Y13733334D02*
X44525000Y15066667D01*
X43933333Y6275000D02*
X45266666Y6275000D01*
X44600000Y5608334D02*
X44600000Y6941667D01*
X42225000Y14100000D02*
X43391666Y14516667D01*
X42225000Y14933334D01*
X43391666Y16516667D02*
X43391666Y15516667D01*
X43391666Y16016667D02*
X41641666Y16016667D01*
X41891666Y15850000D01*
X42058333Y15683334D01*
X42141666Y15516667D01*
X43225000Y17266667D02*
X43308333Y17350000D01*
X43391666Y17266667D01*
X43308333Y17183334D01*
X43225000Y17266667D01*
X43391666Y17266667D01*
X41641666Y18433334D02*
X41641666Y18600000D01*
X41725000Y18766667D01*
X41808333Y18850000D01*
X41975000Y18933334D01*
X42308333Y19016667D01*
X42725000Y19016667D01*
X43058333Y18933334D01*
X43225000Y18850000D01*
X43308333Y18766667D01*
X43391666Y18600000D01*
X43391666Y18433334D01*
X43308333Y18266667D01*
X43225000Y18183334D01*
X43058333Y18100000D01*
X42725000Y18016667D01*
X42308333Y18016667D01*
X41975000Y18100000D01*
X41808333Y18183334D01*
X41725000Y18266667D01*
X41641666Y18433334D01*
M02*
