M48
;DRILL file {KiCad 5.0.2-bee76a0~70~ubuntu18.04.1} date Fri 19 Jun 2020 07:47:46 AM EDT
;FORMAT={-:-/ absolute / metric / decimal}
FMAT,2
METRIC,TZ
T1C0.600
T2C0.650
T3C0.700
T4C0.750
T5C0.762
T6C0.800
T7C1.000
%
G90
G05
T1
X1.651Y14.605
X1.651Y6.604
X3.937Y3.683
X4.318Y13.97
X6.731Y13.589
X7.493Y5.842
X8.692Y13.586
X10.668Y5.969
X13.97Y9.144
X15.367Y4.953
X16.256Y7.874
X20.955Y5.461
X23.241Y7.493
X23.368Y3.556
X25.781Y3.302
X29.083Y6.477
X29.21Y15.24
X33.401Y13.081
X34.734Y1.016
X35.052Y6.731
X35.179Y3.683
X35.496Y9.144
X38.227Y10.858
X38.291Y13.081
X41.695Y10.665
X41.719Y5.143
T2
X2.692Y15.786
X2.692Y1.786
X4.692Y15.786
X4.692Y1.786
X6.692Y15.786
X6.692Y1.786
X8.692Y15.786
X8.692Y1.786
X10.692Y15.786
X10.692Y1.786
X12.692Y15.786
X12.692Y1.786
X14.692Y15.786
X14.692Y1.786
X16.692Y15.786
X16.692Y1.786
T3
X20.308Y12.877
X25.158Y12.877
T4
X47.195Y9.915
X47.195Y7.915
T5
X30.988Y15.24
X33.528Y15.24
X36.068Y15.24
X38.608Y15.24
T6
X41.845Y7.665
X41.845Y2.665
X45.045Y5.165
T7
X43.445Y14.665
X43.445Y12.125
T7
X19.108Y15.557G85X19.108Y15.557
G05
X26.358Y15.557G85X26.358Y15.557
G05
T0
M30
