M48
;DRILL file {KiCad 5.0.2-bee76a0~70~ubuntu18.04.1} date Thu 02 Apr 2020 07:28:57 PM EDT
;FORMAT={-:-/ absolute / metric / decimal}
FMAT,2
METRIC,TZ
T1C0.600
T2C0.650
T3C0.800
T4C1.000
%
G90
G05
T1
X2.2Y11.5
X4.497Y5.121
X4.697Y10.721
X5.7Y14.9
X8.497Y14.921
X8.497Y5.121
X13.3Y6.8
X16.497Y5.721
X19.397Y10.421
X28.6Y11.7
X31.897Y15.121
X34.497Y15.121
X36.5Y10.5
X38.5Y9.
X38.6Y15.6
X39.Y2.1
X46.2Y10.
X106.2Y10.
T2
X2.497Y17.121
X2.497Y3.121
X4.497Y17.121
X4.497Y3.121
X6.497Y17.121
X6.497Y3.121
X8.497Y17.121
X8.497Y3.121
X10.497Y17.121
X10.497Y3.121
X12.497Y17.121
X12.497Y3.121
X14.497Y17.121
X14.497Y3.121
X16.497Y17.121
X16.497Y3.121
T3
X111.Y12.4
X111.Y9.86
X111.Y7.32
X41.6Y8.3
X41.6Y3.3
X44.8Y5.8
T4
X21.717Y17.721
X24.257Y17.721
X26.797Y17.721
X29.337Y17.721
X31.877Y17.721
X34.417Y17.721
X36.957Y17.721
X39.497Y17.721
X43.Y15.2
X43.Y12.66
T0
M30
