G04 #@! TF.GenerationSoftware,KiCad,Pcbnew,5.0.2-bee76a0~70~ubuntu18.04.1*
G04 #@! TF.CreationDate,2020-04-13T09:29:54-04:00*
G04 #@! TF.ProjectId,weeSpindel,77656553-7069-46e6-9465-6c2e6b696361,rev?*
G04 #@! TF.SameCoordinates,PX56c8cc0PY6dac2c0*
G04 #@! TF.FileFunction,Copper,L1,Top*
G04 #@! TF.FilePolarity,Positive*
%FSLAX46Y46*%
G04 Gerber Fmt 4.6, Leading zero omitted, Abs format (unit mm)*
G04 Created by KiCad (PCBNEW 5.0.2-bee76a0~70~ubuntu18.04.1) date Mon 13 Apr 2020 09:29:54 AM EDT*
%MOMM*%
%LPD*%
G01*
G04 APERTURE LIST*
G04 #@! TA.AperFunction,ComponentPad*
%ADD10C,1.000000*%
G04 #@! TD*
G04 #@! TA.AperFunction,ComponentPad*
%ADD11R,2.000000X10.000000*%
G04 #@! TD*
G04 #@! TA.AperFunction,ComponentPad*
%ADD12O,2.200000X1.800000*%
G04 #@! TD*
G04 #@! TA.AperFunction,ComponentPad*
%ADD13R,2.200000X1.800000*%
G04 #@! TD*
G04 #@! TA.AperFunction,ComponentPad*
%ADD14O,1.600000X2.000000*%
G04 #@! TD*
G04 #@! TA.AperFunction,ComponentPad*
%ADD15R,1.100000X2.500000*%
G04 #@! TD*
G04 #@! TA.AperFunction,ComponentPad*
%ADD16O,1.100000X2.500000*%
G04 #@! TD*
G04 #@! TA.AperFunction,ComponentPad*
%ADD17O,2.000000X1.600000*%
G04 #@! TD*
G04 #@! TA.AperFunction,ViaPad*
%ADD18C,1.500000*%
G04 #@! TD*
G04 #@! TA.AperFunction,Conductor*
%ADD19C,0.700000*%
G04 #@! TD*
G04 #@! TA.AperFunction,Conductor*
%ADD20C,0.400000*%
G04 #@! TD*
G04 #@! TA.AperFunction,Conductor*
%ADD21C,0.254000*%
G04 #@! TD*
G04 APERTURE END LIST*
D10*
G04 #@! TO.P,BT1,2*
G04 #@! TO.N,GND*
X102500000Y9000000D03*
X102500000Y9500000D03*
X102500000Y11000000D03*
X102500000Y10500000D03*
G04 #@! TO.P,BT1,1*
G04 #@! TO.N,Net-(BT1-Pad1)*
X46500000Y10500000D03*
X46500000Y9500000D03*
X46500000Y9000000D03*
X46500000Y11000000D03*
D11*
G04 #@! TO.P,BT1,2*
G04 #@! TO.N,GND*
X102500000Y10000000D03*
G04 #@! TO.P,BT1,1*
G04 #@! TO.N,Net-(BT1-Pad1)*
X46500000Y10000000D03*
G04 #@! TD*
D12*
G04 #@! TO.P,JP1,2*
G04 #@! TO.N,Net-(JP1-Pad2)*
X43250000Y13460000D03*
D13*
G04 #@! TO.P,JP1,1*
G04 #@! TO.N,GND*
X43250000Y16000000D03*
G04 #@! TD*
D14*
G04 #@! TO.P,J1,4*
G04 #@! TO.N,SDA*
X30793000Y16575000D03*
G04 #@! TO.P,J1,3*
G04 #@! TO.N,SCL*
X33333000Y16575000D03*
G04 #@! TO.P,J1,2*
G04 #@! TO.N,GND*
X35873000Y16575000D03*
G04 #@! TO.P,J1,1*
G04 #@! TO.N,3V3*
X38413000Y16575000D03*
G04 #@! TD*
D15*
G04 #@! TO.P,U1,1*
G04 #@! TO.N,Net-(R3-Pad2)*
X2497000Y2421000D03*
D16*
G04 #@! TO.P,U1,2*
G04 #@! TO.N,ADC*
X4497000Y2421000D03*
G04 #@! TO.P,U1,3*
G04 #@! TO.N,Net-(C7-Pad2)*
X6497000Y2421000D03*
G04 #@! TO.P,U1,4*
G04 #@! TO.N,Net-(R3-Pad1)*
X8497000Y2421000D03*
G04 #@! TO.P,U1,5*
G04 #@! TO.N,Net-(JP1-Pad2)*
X10497000Y2421000D03*
G04 #@! TO.P,U1,6*
G04 #@! TO.N,Net-(U1-Pad6)*
X12497000Y2421000D03*
G04 #@! TO.P,U1,7*
G04 #@! TO.N,Net-(U1-Pad7)*
X14497000Y2421000D03*
G04 #@! TO.P,U1,8*
G04 #@! TO.N,3V3*
X16497000Y2421000D03*
G04 #@! TO.P,U1,9*
G04 #@! TO.N,GND*
X16497000Y17821000D03*
G04 #@! TO.P,U1,10*
G04 #@! TO.N,Net-(R7-Pad2)*
X14497000Y17721000D03*
G04 #@! TO.P,U1,11*
G04 #@! TO.N,Net-(U1-Pad11)*
X12497000Y17821000D03*
G04 #@! TO.P,U1,12*
G04 #@! TO.N,Net-(R4-Pad1)*
X10497000Y17821000D03*
G04 #@! TO.P,U1,13*
G04 #@! TO.N,SDA*
X8497000Y17821000D03*
G04 #@! TO.P,U1,14*
G04 #@! TO.N,SCL*
X6497000Y17821000D03*
G04 #@! TO.P,U1,15*
G04 #@! TO.N,Net-(U1-Pad15)*
X4497000Y17821000D03*
G04 #@! TO.P,U1,16*
G04 #@! TO.N,Net-(U1-Pad16)*
X2497000Y17821000D03*
G04 #@! TD*
D17*
G04 #@! TO.P,SW1,3*
G04 #@! TO.N,N/C*
X41650000Y4000000D03*
G04 #@! TO.P,SW1,2*
G04 #@! TO.N,Net-(BT1-Pad1)*
X44850000Y6500000D03*
G04 #@! TO.P,SW1,1*
G04 #@! TO.N,Net-(C2-Pad1)*
X41650000Y9000000D03*
G04 #@! TD*
D18*
G04 #@! TO.N,3V3*
X16497000Y5721000D03*
X1500000Y6250000D03*
X39000000Y8200000D03*
X37500000Y14250000D03*
G04 #@! TO.N,ADC*
X19500000Y11750000D03*
X5250000Y6500000D03*
G04 #@! TO.N,SCL*
X5700000Y14900000D03*
X33500000Y13750000D03*
G04 #@! TO.N,SDA*
X8497000Y14921000D03*
X28000000Y16000000D03*
G04 #@! TO.N,Net-(JP1-Pad2)*
X12750000Y8000000D03*
X41500000Y12000000D03*
G04 #@! TO.N,Net-(C2-Pad1)*
X36500000Y10500000D03*
X24750000Y11500000D03*
G04 #@! TD*
D19*
G04 #@! TO.N,GND*
X102500000Y10000000D02*
X105000000Y10000000D01*
D20*
G04 #@! TO.N,3V3*
X16497000Y5721000D02*
X14971000Y5721000D01*
X14971000Y5721000D02*
X14000000Y4750000D01*
X14000000Y4750000D02*
X3000000Y4750000D01*
X3000000Y4750000D02*
X1500000Y6250000D01*
X39000000Y12750000D02*
X39000000Y8200000D01*
X37500000Y14250000D02*
X39000000Y12750000D01*
G04 #@! TO.N,ADC*
X18750000Y12500000D02*
X19500000Y11750000D01*
X11750000Y12500000D02*
X18750000Y12500000D01*
X5250000Y6500000D02*
X5750000Y6500000D01*
X5750000Y6500000D02*
X11750000Y12500000D01*
G04 #@! TO.N,SCL*
X5700000Y13550000D02*
X5700000Y14900000D01*
X6500000Y12750000D02*
X5700000Y13550000D01*
X10350000Y12750000D02*
X6500000Y12750000D01*
X11200000Y13600000D02*
X10350000Y12750000D01*
X33500000Y13750000D02*
X33350000Y13600000D01*
X33350000Y13600000D02*
X11200000Y13600000D01*
G04 #@! TO.N,SDA*
X8668000Y14750000D02*
X8497000Y14921000D01*
X26750000Y14750000D02*
X8668000Y14750000D01*
X28000000Y16000000D02*
X26750000Y14750000D01*
G04 #@! TO.N,Net-(JP1-Pad2)*
X18500000Y4700000D02*
X18500000Y6750000D01*
X37900000Y3000000D02*
X20200000Y3000000D01*
X39000000Y4100000D02*
X37900000Y3000000D01*
X39000000Y4970000D02*
X39000000Y4100000D01*
X18500000Y6750000D02*
X17250000Y8000000D01*
X41500000Y12000000D02*
X42600000Y12000000D01*
X42600000Y12000000D02*
X43700000Y10900000D01*
X40699000Y6669000D02*
X39000000Y4970000D01*
X17250000Y8000000D02*
X12750000Y8000000D01*
X43700000Y10900000D02*
X43700000Y8200000D01*
X43700000Y8200000D02*
X42169000Y6669000D01*
X20200000Y3000000D02*
X18500000Y4700000D01*
X42169000Y6669000D02*
X40699000Y6669000D01*
G04 #@! TO.N,Net-(C2-Pad1)*
X35500000Y11500000D02*
X36500000Y10500000D01*
X24750000Y11500000D02*
X35500000Y11500000D01*
G04 #@! TD*
D21*
G04 #@! TO.N,GND*
G36*
X100107235Y18423352D02*
X101195022Y18204015D01*
X102244234Y17842742D01*
X103236464Y17345872D01*
X104154252Y16722143D01*
X104981488Y15982508D01*
X105703636Y15139964D01*
X106308012Y14209307D01*
X106783990Y13206900D01*
X107123214Y12150342D01*
X107319720Y11058206D01*
X107370058Y9949675D01*
X107273343Y8844216D01*
X107031275Y7761266D01*
X106648108Y6719848D01*
X106130566Y5738243D01*
X105487755Y4833720D01*
X104730956Y4022151D01*
X103873471Y3317806D01*
X102930363Y2733055D01*
X101918211Y2278175D01*
X100854782Y1961153D01*
X99753549Y1786736D01*
X98988613Y1752000D01*
X17774000Y1752000D01*
X17774000Y3246769D01*
X17699907Y3619260D01*
X17417665Y4041665D01*
X16995259Y4323907D01*
X16987454Y4325459D01*
X17333653Y4468860D01*
X17556490Y4691697D01*
X17573000Y4608700D01*
X17573000Y4608699D01*
X17626785Y4338304D01*
X17831670Y4031670D01*
X17909075Y3979950D01*
X19479951Y2409073D01*
X19531670Y2331670D01*
X19838303Y2126785D01*
X20108698Y2073000D01*
X20108699Y2073000D01*
X20199999Y2054839D01*
X20291300Y2073000D01*
X37808700Y2073000D01*
X37900000Y2054839D01*
X37991300Y2073000D01*
X37991302Y2073000D01*
X38261697Y2126785D01*
X38568330Y2331670D01*
X38620050Y2409075D01*
X39590927Y3379951D01*
X39668330Y3431670D01*
X39873215Y3738303D01*
X39909177Y3919098D01*
X40011598Y3404194D01*
X40349095Y2899095D01*
X40854194Y2561598D01*
X41299607Y2473000D01*
X42000393Y2473000D01*
X42445806Y2561598D01*
X42950905Y2899095D01*
X43288402Y3404194D01*
X43406915Y4000000D01*
X43288402Y4595806D01*
X42950905Y5100905D01*
X42445806Y5438402D01*
X42000393Y5527000D01*
X41299607Y5527000D01*
X40854194Y5438402D01*
X40628721Y5287746D01*
X41082976Y5742000D01*
X42077700Y5742000D01*
X42169000Y5723839D01*
X42260300Y5742000D01*
X42260302Y5742000D01*
X42530697Y5795785D01*
X42837330Y6000670D01*
X42889050Y6078075D01*
X43129235Y6318260D01*
X43211598Y5904194D01*
X43549095Y5399095D01*
X44054194Y5061598D01*
X44350921Y5002575D01*
X44350921Y5000000D01*
X44438389Y4560267D01*
X44687478Y4187478D01*
X45060267Y3938389D01*
X45500000Y3850921D01*
X47500000Y3850921D01*
X47939733Y3938389D01*
X47991532Y3973000D01*
X101448098Y3973000D01*
X101500000Y3962676D01*
X101705625Y4003577D01*
X101879945Y4120055D01*
X101982141Y4273000D01*
X102145250Y4273000D01*
X102327000Y4454750D01*
X102327000Y7770524D01*
X102378977Y7754830D01*
X102673000Y7784170D01*
X102673000Y4454750D01*
X102854750Y4273000D01*
X103644609Y4273000D01*
X103911812Y4383679D01*
X104116321Y4588187D01*
X104227000Y4855390D01*
X104227000Y9645250D01*
X104045250Y9827000D01*
X103700463Y9827000D01*
X103696701Y9864695D01*
X103634921Y10013845D01*
X103682977Y10173000D01*
X104045250Y10173000D01*
X104227000Y10354750D01*
X104227000Y15144610D01*
X104116321Y15411813D01*
X103911812Y15616321D01*
X103644609Y15727000D01*
X102854750Y15727000D01*
X102673000Y15545250D01*
X102673000Y12229476D01*
X102621023Y12245170D01*
X102327000Y12215830D01*
X102327000Y15545250D01*
X102145250Y15727000D01*
X101982141Y15727000D01*
X101879945Y15879945D01*
X101822853Y15918093D01*
X101705625Y15996423D01*
X101551903Y16027000D01*
X101551902Y16027000D01*
X101500000Y16037324D01*
X101448097Y16027000D01*
X47991532Y16027000D01*
X47939733Y16061611D01*
X47500000Y16149079D01*
X45500000Y16149079D01*
X45077000Y16064939D01*
X45077000Y16173002D01*
X44895252Y16173002D01*
X45077000Y16354750D01*
X45077000Y17044610D01*
X44966321Y17311813D01*
X44761812Y17516321D01*
X44494609Y17627000D01*
X43604750Y17627000D01*
X43423000Y17445250D01*
X43423000Y16173000D01*
X43443000Y16173000D01*
X43443000Y15827000D01*
X43423000Y15827000D01*
X43423000Y15807000D01*
X43077000Y15807000D01*
X43077000Y15827000D01*
X41604750Y15827000D01*
X41423000Y15645250D01*
X41423000Y14955390D01*
X41533679Y14688187D01*
X41738188Y14483679D01*
X41768763Y14471014D01*
X41517400Y14094824D01*
X41394508Y13477000D01*
X41206206Y13477000D01*
X40663347Y13252140D01*
X40247860Y12836653D01*
X40023000Y12293794D01*
X40023000Y11706206D01*
X40247860Y11163347D01*
X40663347Y10747860D01*
X41206206Y10523000D01*
X41279498Y10523000D01*
X40854194Y10438402D01*
X40349095Y10100905D01*
X40011598Y9595806D01*
X39958737Y9330056D01*
X39927000Y9361793D01*
X39927000Y12658700D01*
X39945161Y12750001D01*
X39911852Y12917455D01*
X39873215Y13111697D01*
X39868539Y13118696D01*
X39720048Y13340928D01*
X39668330Y13418330D01*
X39590928Y13470048D01*
X38977000Y14083976D01*
X38977000Y14543794D01*
X38829101Y14900853D01*
X39008806Y14936598D01*
X39513905Y15274095D01*
X39851402Y15779195D01*
X39940000Y16224608D01*
X39940000Y16925393D01*
X39916287Y17044610D01*
X41423000Y17044610D01*
X41423000Y16354750D01*
X41604750Y16173000D01*
X43077000Y16173000D01*
X43077000Y17445250D01*
X42895250Y17627000D01*
X42005391Y17627000D01*
X41738188Y17516321D01*
X41533679Y17311813D01*
X41423000Y17044610D01*
X39916287Y17044610D01*
X39851402Y17370806D01*
X39513905Y17875905D01*
X39008805Y18213402D01*
X38413000Y18331915D01*
X37817194Y18213402D01*
X37312095Y17875905D01*
X37135709Y17611924D01*
X36793289Y17995734D01*
X36281207Y18246426D01*
X36046000Y18109080D01*
X36046000Y16748000D01*
X36066000Y16748000D01*
X36066000Y16402000D01*
X36046000Y16402000D01*
X36046000Y15040920D01*
X36193291Y14954912D01*
X36023000Y14543794D01*
X36023000Y13956206D01*
X36247860Y13413347D01*
X36663347Y12997860D01*
X37206206Y12773000D01*
X37666024Y12773000D01*
X38073000Y12366024D01*
X38073001Y9361794D01*
X37747860Y9036653D01*
X37523000Y8493794D01*
X37523000Y7906206D01*
X37747860Y7363347D01*
X38163347Y6947860D01*
X38706206Y6723000D01*
X39293794Y6723000D01*
X39546839Y6827815D01*
X38409075Y5690050D01*
X38331670Y5638330D01*
X38126785Y5331696D01*
X38073079Y5061697D01*
X38054839Y4970000D01*
X38073000Y4878699D01*
X38073001Y4483976D01*
X37516025Y3927000D01*
X20583976Y3927000D01*
X19427000Y5083975D01*
X19427000Y6658700D01*
X19445161Y6750000D01*
X19422943Y6861697D01*
X19373215Y7111697D01*
X19168330Y7418330D01*
X19090927Y7470049D01*
X17970050Y8590925D01*
X17918330Y8668330D01*
X17611697Y8873215D01*
X17341302Y8927000D01*
X17341300Y8927000D01*
X17250000Y8945161D01*
X17158700Y8927000D01*
X13911793Y8927000D01*
X13586653Y9252140D01*
X13043794Y9477000D01*
X12456206Y9477000D01*
X11913347Y9252140D01*
X11497860Y8836653D01*
X11273000Y8293794D01*
X11273000Y7706206D01*
X11497860Y7163347D01*
X11913347Y6747860D01*
X12456206Y6523000D01*
X13043794Y6523000D01*
X13586653Y6747860D01*
X13911793Y7073000D01*
X15901430Y7073000D01*
X15660347Y6973140D01*
X15335207Y6648000D01*
X15062300Y6648000D01*
X14970999Y6666161D01*
X14879698Y6648000D01*
X14609303Y6594215D01*
X14609302Y6594214D01*
X14609301Y6594214D01*
X14559323Y6560819D01*
X14302670Y6389330D01*
X14250949Y6311924D01*
X13616025Y5677000D01*
X6507795Y5677000D01*
X6698588Y6137613D01*
X12133975Y11573000D01*
X18023000Y11573000D01*
X18023000Y11456206D01*
X18247860Y10913347D01*
X18663347Y10497860D01*
X19206206Y10273000D01*
X19793794Y10273000D01*
X20336653Y10497860D01*
X20752140Y10913347D01*
X20977000Y11456206D01*
X20977000Y12043794D01*
X20752140Y12586653D01*
X20665793Y12673000D01*
X23834207Y12673000D01*
X23497860Y12336653D01*
X23273000Y11793794D01*
X23273000Y11206206D01*
X23497860Y10663347D01*
X23913347Y10247860D01*
X24456206Y10023000D01*
X25043794Y10023000D01*
X25586653Y10247860D01*
X25911793Y10573000D01*
X35023000Y10573000D01*
X35023000Y10206206D01*
X35247860Y9663347D01*
X35663347Y9247860D01*
X36206206Y9023000D01*
X36793794Y9023000D01*
X37336653Y9247860D01*
X37752140Y9663347D01*
X37977000Y10206206D01*
X37977000Y10793794D01*
X37752140Y11336653D01*
X37336653Y11752140D01*
X36793794Y11977000D01*
X36333975Y11977000D01*
X36220050Y12090925D01*
X36168330Y12168330D01*
X35861697Y12373215D01*
X35591302Y12427000D01*
X35591300Y12427000D01*
X35500000Y12445161D01*
X35408700Y12427000D01*
X34165582Y12427000D01*
X34336653Y12497860D01*
X34752140Y12913347D01*
X34977000Y13456206D01*
X34977000Y14043794D01*
X34752140Y14586653D01*
X34336653Y15002140D01*
X34145435Y15081345D01*
X34433905Y15274095D01*
X34610291Y15538076D01*
X34952711Y15154266D01*
X35464793Y14903574D01*
X35700000Y15040920D01*
X35700000Y16402000D01*
X35680000Y16402000D01*
X35680000Y16748000D01*
X35700000Y16748000D01*
X35700000Y18109080D01*
X35464793Y18246426D01*
X34952711Y17995734D01*
X34610292Y17611924D01*
X34433905Y17875905D01*
X33928805Y18213402D01*
X33333000Y18331915D01*
X32737194Y18213402D01*
X32232095Y17875905D01*
X32063000Y17622837D01*
X31893905Y17875905D01*
X31388805Y18213402D01*
X30793000Y18331915D01*
X30197194Y18213402D01*
X29692095Y17875905D01*
X29354598Y17370805D01*
X29266000Y16925392D01*
X29266000Y16803192D01*
X29252140Y16836653D01*
X28836653Y17252140D01*
X28293794Y17477000D01*
X27706206Y17477000D01*
X27163347Y17252140D01*
X26747860Y16836653D01*
X26523000Y16293794D01*
X26523000Y15833975D01*
X26366025Y15677000D01*
X9782548Y15677000D01*
X9749140Y15757653D01*
X9351001Y16155792D01*
X9417665Y16200335D01*
X9497000Y16319069D01*
X9576336Y16200335D01*
X9998741Y15918093D01*
X10497000Y15818983D01*
X10995260Y15918093D01*
X11417665Y16200335D01*
X11497000Y16319069D01*
X11576336Y16200335D01*
X11998741Y15918093D01*
X12497000Y15818983D01*
X12995260Y15918093D01*
X13417665Y16200335D01*
X13463591Y16269069D01*
X13576336Y16100335D01*
X13998741Y15818093D01*
X14497000Y15718983D01*
X14995260Y15818093D01*
X15417665Y16100335D01*
X15544508Y16290170D01*
X15716354Y16095695D01*
X16128205Y15898413D01*
X16324000Y16039499D01*
X16324000Y17648000D01*
X16670000Y17648000D01*
X16670000Y16039499D01*
X16865795Y15898413D01*
X17277646Y16095695D01*
X17610590Y16472482D01*
X17774000Y16948000D01*
X17774000Y17648000D01*
X16670000Y17648000D01*
X16324000Y17648000D01*
X16304000Y17648000D01*
X16304000Y17994000D01*
X16324000Y17994000D01*
X16324000Y18014000D01*
X16670000Y18014000D01*
X16670000Y17994000D01*
X17774000Y17994000D01*
X17774000Y18498000D01*
X98983353Y18498000D01*
X100107235Y18423352D01*
X100107235Y18423352D01*
G37*
X100107235Y18423352D02*
X101195022Y18204015D01*
X102244234Y17842742D01*
X103236464Y17345872D01*
X104154252Y16722143D01*
X104981488Y15982508D01*
X105703636Y15139964D01*
X106308012Y14209307D01*
X106783990Y13206900D01*
X107123214Y12150342D01*
X107319720Y11058206D01*
X107370058Y9949675D01*
X107273343Y8844216D01*
X107031275Y7761266D01*
X106648108Y6719848D01*
X106130566Y5738243D01*
X105487755Y4833720D01*
X104730956Y4022151D01*
X103873471Y3317806D01*
X102930363Y2733055D01*
X101918211Y2278175D01*
X100854782Y1961153D01*
X99753549Y1786736D01*
X98988613Y1752000D01*
X17774000Y1752000D01*
X17774000Y3246769D01*
X17699907Y3619260D01*
X17417665Y4041665D01*
X16995259Y4323907D01*
X16987454Y4325459D01*
X17333653Y4468860D01*
X17556490Y4691697D01*
X17573000Y4608700D01*
X17573000Y4608699D01*
X17626785Y4338304D01*
X17831670Y4031670D01*
X17909075Y3979950D01*
X19479951Y2409073D01*
X19531670Y2331670D01*
X19838303Y2126785D01*
X20108698Y2073000D01*
X20108699Y2073000D01*
X20199999Y2054839D01*
X20291300Y2073000D01*
X37808700Y2073000D01*
X37900000Y2054839D01*
X37991300Y2073000D01*
X37991302Y2073000D01*
X38261697Y2126785D01*
X38568330Y2331670D01*
X38620050Y2409075D01*
X39590927Y3379951D01*
X39668330Y3431670D01*
X39873215Y3738303D01*
X39909177Y3919098D01*
X40011598Y3404194D01*
X40349095Y2899095D01*
X40854194Y2561598D01*
X41299607Y2473000D01*
X42000393Y2473000D01*
X42445806Y2561598D01*
X42950905Y2899095D01*
X43288402Y3404194D01*
X43406915Y4000000D01*
X43288402Y4595806D01*
X42950905Y5100905D01*
X42445806Y5438402D01*
X42000393Y5527000D01*
X41299607Y5527000D01*
X40854194Y5438402D01*
X40628721Y5287746D01*
X41082976Y5742000D01*
X42077700Y5742000D01*
X42169000Y5723839D01*
X42260300Y5742000D01*
X42260302Y5742000D01*
X42530697Y5795785D01*
X42837330Y6000670D01*
X42889050Y6078075D01*
X43129235Y6318260D01*
X43211598Y5904194D01*
X43549095Y5399095D01*
X44054194Y5061598D01*
X44350921Y5002575D01*
X44350921Y5000000D01*
X44438389Y4560267D01*
X44687478Y4187478D01*
X45060267Y3938389D01*
X45500000Y3850921D01*
X47500000Y3850921D01*
X47939733Y3938389D01*
X47991532Y3973000D01*
X101448098Y3973000D01*
X101500000Y3962676D01*
X101705625Y4003577D01*
X101879945Y4120055D01*
X101982141Y4273000D01*
X102145250Y4273000D01*
X102327000Y4454750D01*
X102327000Y7770524D01*
X102378977Y7754830D01*
X102673000Y7784170D01*
X102673000Y4454750D01*
X102854750Y4273000D01*
X103644609Y4273000D01*
X103911812Y4383679D01*
X104116321Y4588187D01*
X104227000Y4855390D01*
X104227000Y9645250D01*
X104045250Y9827000D01*
X103700463Y9827000D01*
X103696701Y9864695D01*
X103634921Y10013845D01*
X103682977Y10173000D01*
X104045250Y10173000D01*
X104227000Y10354750D01*
X104227000Y15144610D01*
X104116321Y15411813D01*
X103911812Y15616321D01*
X103644609Y15727000D01*
X102854750Y15727000D01*
X102673000Y15545250D01*
X102673000Y12229476D01*
X102621023Y12245170D01*
X102327000Y12215830D01*
X102327000Y15545250D01*
X102145250Y15727000D01*
X101982141Y15727000D01*
X101879945Y15879945D01*
X101822853Y15918093D01*
X101705625Y15996423D01*
X101551903Y16027000D01*
X101551902Y16027000D01*
X101500000Y16037324D01*
X101448097Y16027000D01*
X47991532Y16027000D01*
X47939733Y16061611D01*
X47500000Y16149079D01*
X45500000Y16149079D01*
X45077000Y16064939D01*
X45077000Y16173002D01*
X44895252Y16173002D01*
X45077000Y16354750D01*
X45077000Y17044610D01*
X44966321Y17311813D01*
X44761812Y17516321D01*
X44494609Y17627000D01*
X43604750Y17627000D01*
X43423000Y17445250D01*
X43423000Y16173000D01*
X43443000Y16173000D01*
X43443000Y15827000D01*
X43423000Y15827000D01*
X43423000Y15807000D01*
X43077000Y15807000D01*
X43077000Y15827000D01*
X41604750Y15827000D01*
X41423000Y15645250D01*
X41423000Y14955390D01*
X41533679Y14688187D01*
X41738188Y14483679D01*
X41768763Y14471014D01*
X41517400Y14094824D01*
X41394508Y13477000D01*
X41206206Y13477000D01*
X40663347Y13252140D01*
X40247860Y12836653D01*
X40023000Y12293794D01*
X40023000Y11706206D01*
X40247860Y11163347D01*
X40663347Y10747860D01*
X41206206Y10523000D01*
X41279498Y10523000D01*
X40854194Y10438402D01*
X40349095Y10100905D01*
X40011598Y9595806D01*
X39958737Y9330056D01*
X39927000Y9361793D01*
X39927000Y12658700D01*
X39945161Y12750001D01*
X39911852Y12917455D01*
X39873215Y13111697D01*
X39868539Y13118696D01*
X39720048Y13340928D01*
X39668330Y13418330D01*
X39590928Y13470048D01*
X38977000Y14083976D01*
X38977000Y14543794D01*
X38829101Y14900853D01*
X39008806Y14936598D01*
X39513905Y15274095D01*
X39851402Y15779195D01*
X39940000Y16224608D01*
X39940000Y16925393D01*
X39916287Y17044610D01*
X41423000Y17044610D01*
X41423000Y16354750D01*
X41604750Y16173000D01*
X43077000Y16173000D01*
X43077000Y17445250D01*
X42895250Y17627000D01*
X42005391Y17627000D01*
X41738188Y17516321D01*
X41533679Y17311813D01*
X41423000Y17044610D01*
X39916287Y17044610D01*
X39851402Y17370806D01*
X39513905Y17875905D01*
X39008805Y18213402D01*
X38413000Y18331915D01*
X37817194Y18213402D01*
X37312095Y17875905D01*
X37135709Y17611924D01*
X36793289Y17995734D01*
X36281207Y18246426D01*
X36046000Y18109080D01*
X36046000Y16748000D01*
X36066000Y16748000D01*
X36066000Y16402000D01*
X36046000Y16402000D01*
X36046000Y15040920D01*
X36193291Y14954912D01*
X36023000Y14543794D01*
X36023000Y13956206D01*
X36247860Y13413347D01*
X36663347Y12997860D01*
X37206206Y12773000D01*
X37666024Y12773000D01*
X38073000Y12366024D01*
X38073001Y9361794D01*
X37747860Y9036653D01*
X37523000Y8493794D01*
X37523000Y7906206D01*
X37747860Y7363347D01*
X38163347Y6947860D01*
X38706206Y6723000D01*
X39293794Y6723000D01*
X39546839Y6827815D01*
X38409075Y5690050D01*
X38331670Y5638330D01*
X38126785Y5331696D01*
X38073079Y5061697D01*
X38054839Y4970000D01*
X38073000Y4878699D01*
X38073001Y4483976D01*
X37516025Y3927000D01*
X20583976Y3927000D01*
X19427000Y5083975D01*
X19427000Y6658700D01*
X19445161Y6750000D01*
X19422943Y6861697D01*
X19373215Y7111697D01*
X19168330Y7418330D01*
X19090927Y7470049D01*
X17970050Y8590925D01*
X17918330Y8668330D01*
X17611697Y8873215D01*
X17341302Y8927000D01*
X17341300Y8927000D01*
X17250000Y8945161D01*
X17158700Y8927000D01*
X13911793Y8927000D01*
X13586653Y9252140D01*
X13043794Y9477000D01*
X12456206Y9477000D01*
X11913347Y9252140D01*
X11497860Y8836653D01*
X11273000Y8293794D01*
X11273000Y7706206D01*
X11497860Y7163347D01*
X11913347Y6747860D01*
X12456206Y6523000D01*
X13043794Y6523000D01*
X13586653Y6747860D01*
X13911793Y7073000D01*
X15901430Y7073000D01*
X15660347Y6973140D01*
X15335207Y6648000D01*
X15062300Y6648000D01*
X14970999Y6666161D01*
X14879698Y6648000D01*
X14609303Y6594215D01*
X14609302Y6594214D01*
X14609301Y6594214D01*
X14559323Y6560819D01*
X14302670Y6389330D01*
X14250949Y6311924D01*
X13616025Y5677000D01*
X6507795Y5677000D01*
X6698588Y6137613D01*
X12133975Y11573000D01*
X18023000Y11573000D01*
X18023000Y11456206D01*
X18247860Y10913347D01*
X18663347Y10497860D01*
X19206206Y10273000D01*
X19793794Y10273000D01*
X20336653Y10497860D01*
X20752140Y10913347D01*
X20977000Y11456206D01*
X20977000Y12043794D01*
X20752140Y12586653D01*
X20665793Y12673000D01*
X23834207Y12673000D01*
X23497860Y12336653D01*
X23273000Y11793794D01*
X23273000Y11206206D01*
X23497860Y10663347D01*
X23913347Y10247860D01*
X24456206Y10023000D01*
X25043794Y10023000D01*
X25586653Y10247860D01*
X25911793Y10573000D01*
X35023000Y10573000D01*
X35023000Y10206206D01*
X35247860Y9663347D01*
X35663347Y9247860D01*
X36206206Y9023000D01*
X36793794Y9023000D01*
X37336653Y9247860D01*
X37752140Y9663347D01*
X37977000Y10206206D01*
X37977000Y10793794D01*
X37752140Y11336653D01*
X37336653Y11752140D01*
X36793794Y11977000D01*
X36333975Y11977000D01*
X36220050Y12090925D01*
X36168330Y12168330D01*
X35861697Y12373215D01*
X35591302Y12427000D01*
X35591300Y12427000D01*
X35500000Y12445161D01*
X35408700Y12427000D01*
X34165582Y12427000D01*
X34336653Y12497860D01*
X34752140Y12913347D01*
X34977000Y13456206D01*
X34977000Y14043794D01*
X34752140Y14586653D01*
X34336653Y15002140D01*
X34145435Y15081345D01*
X34433905Y15274095D01*
X34610291Y15538076D01*
X34952711Y15154266D01*
X35464793Y14903574D01*
X35700000Y15040920D01*
X35700000Y16402000D01*
X35680000Y16402000D01*
X35680000Y16748000D01*
X35700000Y16748000D01*
X35700000Y18109080D01*
X35464793Y18246426D01*
X34952711Y17995734D01*
X34610292Y17611924D01*
X34433905Y17875905D01*
X33928805Y18213402D01*
X33333000Y18331915D01*
X32737194Y18213402D01*
X32232095Y17875905D01*
X32063000Y17622837D01*
X31893905Y17875905D01*
X31388805Y18213402D01*
X30793000Y18331915D01*
X30197194Y18213402D01*
X29692095Y17875905D01*
X29354598Y17370805D01*
X29266000Y16925392D01*
X29266000Y16803192D01*
X29252140Y16836653D01*
X28836653Y17252140D01*
X28293794Y17477000D01*
X27706206Y17477000D01*
X27163347Y17252140D01*
X26747860Y16836653D01*
X26523000Y16293794D01*
X26523000Y15833975D01*
X26366025Y15677000D01*
X9782548Y15677000D01*
X9749140Y15757653D01*
X9351001Y16155792D01*
X9417665Y16200335D01*
X9497000Y16319069D01*
X9576336Y16200335D01*
X9998741Y15918093D01*
X10497000Y15818983D01*
X10995260Y15918093D01*
X11417665Y16200335D01*
X11497000Y16319069D01*
X11576336Y16200335D01*
X11998741Y15918093D01*
X12497000Y15818983D01*
X12995260Y15918093D01*
X13417665Y16200335D01*
X13463591Y16269069D01*
X13576336Y16100335D01*
X13998741Y15818093D01*
X14497000Y15718983D01*
X14995260Y15818093D01*
X15417665Y16100335D01*
X15544508Y16290170D01*
X15716354Y16095695D01*
X16128205Y15898413D01*
X16324000Y16039499D01*
X16324000Y17648000D01*
X16670000Y17648000D01*
X16670000Y16039499D01*
X16865795Y15898413D01*
X17277646Y16095695D01*
X17610590Y16472482D01*
X17774000Y16948000D01*
X17774000Y17648000D01*
X16670000Y17648000D01*
X16324000Y17648000D01*
X16304000Y17648000D01*
X16304000Y17994000D01*
X16324000Y17994000D01*
X16324000Y18014000D01*
X16670000Y18014000D01*
X16670000Y17994000D01*
X17774000Y17994000D01*
X17774000Y18498000D01*
X98983353Y18498000D01*
X100107235Y18423352D01*
G36*
X102494659Y9250000D02*
X102485858Y9241199D01*
X102477057Y9250000D01*
X102485858Y9258801D01*
X102494659Y9250000D01*
X102494659Y9250000D01*
G37*
X102494659Y9250000D02*
X102485858Y9241199D01*
X102477057Y9250000D01*
X102485858Y9258801D01*
X102494659Y9250000D01*
G36*
X102522943Y9250000D02*
X102514142Y9241199D01*
X102505341Y9250000D01*
X102514142Y9258801D01*
X102522943Y9250000D01*
X102522943Y9250000D01*
G37*
X102522943Y9250000D02*
X102514142Y9241199D01*
X102505341Y9250000D01*
X102514142Y9258801D01*
X102522943Y9250000D01*
G36*
X102494659Y10750000D02*
X102485858Y10741199D01*
X102477057Y10750000D01*
X102485858Y10758801D01*
X102494659Y10750000D01*
X102494659Y10750000D01*
G37*
X102494659Y10750000D02*
X102485858Y10741199D01*
X102477057Y10750000D01*
X102485858Y10758801D01*
X102494659Y10750000D01*
G36*
X102522943Y10750000D02*
X102514142Y10741199D01*
X102505341Y10750000D01*
X102514142Y10758801D01*
X102522943Y10750000D01*
X102522943Y10750000D01*
G37*
X102522943Y10750000D02*
X102514142Y10741199D01*
X102505341Y10750000D01*
X102514142Y10758801D01*
X102522943Y10750000D01*
G04 #@! TD*
M02*
