G04 #@! TF.GenerationSoftware,KiCad,Pcbnew,5.0.2-bee76a0~70~ubuntu18.04.1*
G04 #@! TF.CreationDate,2020-04-19T14:24:32-04:00*
G04 #@! TF.ProjectId,weeSpindel,77656553-7069-46e6-9465-6c2e6b696361,rev?*
G04 #@! TF.SameCoordinates,PX56c8cc0PY6dac2c0*
G04 #@! TF.FileFunction,Drawing*
%FSLAX46Y46*%
G04 Gerber Fmt 4.6, Leading zero omitted, Abs format (unit mm)*
G04 Created by KiCad (PCBNEW 5.0.2-bee76a0~70~ubuntu18.04.1) date Sun 19 Apr 2020 02:24:32 PM EDT*
%MOMM*%
%LPD*%
G01*
G04 APERTURE LIST*
%ADD10C,0.300000*%
G04 APERTURE END LIST*
D10*
X95833333Y17275000D02*
X97166666Y17275000D01*
X48333333Y17275000D02*
X49666666Y17275000D01*
X49000000Y16608334D02*
X49000000Y17941667D01*
X57628571Y3321429D02*
X57914285Y2321429D01*
X58200000Y3035715D01*
X58485714Y2321429D01*
X58771428Y3321429D01*
X59914285Y2392858D02*
X59771428Y2321429D01*
X59485714Y2321429D01*
X59342857Y2392858D01*
X59271428Y2535715D01*
X59271428Y3107143D01*
X59342857Y3250000D01*
X59485714Y3321429D01*
X59771428Y3321429D01*
X59914285Y3250000D01*
X59985714Y3107143D01*
X59985714Y2964286D01*
X59271428Y2821429D01*
X61200000Y2392858D02*
X61057142Y2321429D01*
X60771428Y2321429D01*
X60628571Y2392858D01*
X60557142Y2535715D01*
X60557142Y3107143D01*
X60628571Y3250000D01*
X60771428Y3321429D01*
X61057142Y3321429D01*
X61200000Y3250000D01*
X61271428Y3107143D01*
X61271428Y2964286D01*
X60557142Y2821429D01*
X61842857Y2392858D02*
X62057142Y2321429D01*
X62414285Y2321429D01*
X62557142Y2392858D01*
X62628571Y2464286D01*
X62700000Y2607143D01*
X62700000Y2750000D01*
X62628571Y2892858D01*
X62557142Y2964286D01*
X62414285Y3035715D01*
X62128571Y3107143D01*
X61985714Y3178572D01*
X61914285Y3250000D01*
X61842857Y3392858D01*
X61842857Y3535715D01*
X61914285Y3678572D01*
X61985714Y3750000D01*
X62128571Y3821429D01*
X62485714Y3821429D01*
X62700000Y3750000D01*
X63342857Y3321429D02*
X63342857Y1821429D01*
X63342857Y3250000D02*
X63485714Y3321429D01*
X63771428Y3321429D01*
X63914285Y3250000D01*
X63985714Y3178572D01*
X64057142Y3035715D01*
X64057142Y2607143D01*
X63985714Y2464286D01*
X63914285Y2392858D01*
X63771428Y2321429D01*
X63485714Y2321429D01*
X63342857Y2392858D01*
X64700000Y2321429D02*
X64700000Y3321429D01*
X64700000Y3821429D02*
X64628571Y3750000D01*
X64700000Y3678572D01*
X64771428Y3750000D01*
X64700000Y3821429D01*
X64700000Y3678572D01*
X65414285Y3321429D02*
X65414285Y2321429D01*
X65414285Y3178572D02*
X65485714Y3250000D01*
X65628571Y3321429D01*
X65842857Y3321429D01*
X65985714Y3250000D01*
X66057142Y3107143D01*
X66057142Y2321429D01*
X67414285Y2321429D02*
X67414285Y3821429D01*
X67414285Y2392858D02*
X67271428Y2321429D01*
X66985714Y2321429D01*
X66842857Y2392858D01*
X66771428Y2464286D01*
X66700000Y2607143D01*
X66700000Y3035715D01*
X66771428Y3178572D01*
X66842857Y3250000D01*
X66985714Y3321429D01*
X67271428Y3321429D01*
X67414285Y3250000D01*
X68700000Y2392858D02*
X68557142Y2321429D01*
X68271428Y2321429D01*
X68128571Y2392858D01*
X68057142Y2535715D01*
X68057142Y3107143D01*
X68128571Y3250000D01*
X68271428Y3321429D01*
X68557142Y3321429D01*
X68700000Y3250000D01*
X68771428Y3107143D01*
X68771428Y2964286D01*
X68057142Y2821429D01*
X69628571Y2321429D02*
X69485714Y2392858D01*
X69414285Y2535715D01*
X69414285Y3821429D01*
X71200000Y3321429D02*
X71557142Y2321429D01*
X71914285Y3321429D01*
X73271428Y2321429D02*
X72414285Y2321429D01*
X72842857Y2321429D02*
X72842857Y3821429D01*
X72700000Y3607143D01*
X72557142Y3464286D01*
X72414285Y3392858D01*
X73914285Y2464286D02*
X73985714Y2392858D01*
X73914285Y2321429D01*
X73842857Y2392858D01*
X73914285Y2464286D01*
X73914285Y2321429D01*
X75414285Y2321429D02*
X74557142Y2321429D01*
X74985714Y2321429D02*
X74985714Y3821429D01*
X74842857Y3607143D01*
X74700000Y3464286D01*
X74557142Y3392858D01*
X77842857Y2392858D02*
X77700000Y2321429D01*
X77414285Y2321429D01*
X77271428Y2392858D01*
X77200000Y2464286D01*
X77128571Y2607143D01*
X77128571Y3035715D01*
X77200000Y3178572D01*
X77271428Y3250000D01*
X77414285Y3321429D01*
X77700000Y3321429D01*
X77842857Y3250000D01*
X78485714Y3321429D02*
X78485714Y1821429D01*
X78485714Y3250000D02*
X78628571Y3321429D01*
X78914285Y3321429D01*
X79057142Y3250000D01*
X79128571Y3178572D01*
X79200000Y3035715D01*
X79200000Y2607143D01*
X79128571Y2464286D01*
X79057142Y2392858D01*
X78914285Y2321429D01*
X78628571Y2321429D01*
X78485714Y2392858D01*
X80414285Y2392858D02*
X80271428Y2321429D01*
X79985714Y2321429D01*
X79842857Y2392858D01*
X79771428Y2535715D01*
X79771428Y3107143D01*
X79842857Y3250000D01*
X79985714Y3321429D01*
X80271428Y3321429D01*
X80414285Y3250000D01*
X80485714Y3107143D01*
X80485714Y2964286D01*
X79771428Y2821429D01*
X81128571Y2321429D02*
X81128571Y3321429D01*
X81128571Y3035715D02*
X81200000Y3178572D01*
X81271428Y3250000D01*
X81414285Y3321429D01*
X81557142Y3321429D01*
X82057142Y2321429D02*
X82057142Y3321429D01*
X82057142Y3821429D02*
X81985714Y3750000D01*
X82057142Y3678572D01*
X82128571Y3750000D01*
X82057142Y3821429D01*
X82057142Y3678572D01*
X82985714Y2321429D02*
X82842857Y2392858D01*
X82771428Y2464286D01*
X82700000Y2607143D01*
X82700000Y3035715D01*
X82771428Y3178572D01*
X82842857Y3250000D01*
X82985714Y3321429D01*
X83200000Y3321429D01*
X83342857Y3250000D01*
X83414285Y3178572D01*
X83485714Y3035715D01*
X83485714Y2607143D01*
X83414285Y2464286D01*
X83342857Y2392858D01*
X83200000Y2321429D01*
X82985714Y2321429D01*
X84771428Y2321429D02*
X84771428Y3821429D01*
X84771428Y2392858D02*
X84628571Y2321429D01*
X84342857Y2321429D01*
X84200000Y2392858D01*
X84128571Y2464286D01*
X84057142Y2607143D01*
X84057142Y3035715D01*
X84128571Y3178572D01*
X84200000Y3250000D01*
X84342857Y3321429D01*
X84628571Y3321429D01*
X84771428Y3250000D01*
X86557142Y3678572D02*
X86628571Y3750000D01*
X86771428Y3821429D01*
X87128571Y3821429D01*
X87271428Y3750000D01*
X87342857Y3678572D01*
X87414285Y3535715D01*
X87414285Y3392858D01*
X87342857Y3178572D01*
X86485714Y2321429D01*
X87414285Y2321429D01*
X88342857Y3821429D02*
X88485714Y3821429D01*
X88628571Y3750000D01*
X88700000Y3678572D01*
X88771428Y3535715D01*
X88842857Y3250000D01*
X88842857Y2892858D01*
X88771428Y2607143D01*
X88700000Y2464286D01*
X88628571Y2392858D01*
X88485714Y2321429D01*
X88342857Y2321429D01*
X88200000Y2392858D01*
X88128571Y2464286D01*
X88057142Y2607143D01*
X87985714Y2892858D01*
X87985714Y3250000D01*
X88057142Y3535715D01*
X88128571Y3678572D01*
X88200000Y3750000D01*
X88342857Y3821429D01*
X89414285Y3678572D02*
X89485714Y3750000D01*
X89628571Y3821429D01*
X89985714Y3821429D01*
X90128571Y3750000D01*
X90200000Y3678572D01*
X90271428Y3535715D01*
X90271428Y3392858D01*
X90200000Y3178572D01*
X89342857Y2321429D01*
X90271428Y2321429D01*
X91200000Y3821429D02*
X91342857Y3821429D01*
X91485714Y3750000D01*
X91557142Y3678572D01*
X91628571Y3535715D01*
X91700000Y3250000D01*
X91700000Y2892858D01*
X91628571Y2607143D01*
X91557142Y2464286D01*
X91485714Y2392858D01*
X91342857Y2321429D01*
X91200000Y2321429D01*
X91057142Y2392858D01*
X90985714Y2464286D01*
X90914285Y2607143D01*
X90842857Y2892858D01*
X90842857Y3250000D01*
X90914285Y3535715D01*
X90985714Y3678572D01*
X91057142Y3750000D01*
X91200000Y3821429D01*
M02*
