M48
;DRILL file {KiCad 5.0.2-bee76a0~70~ubuntu18.04.1} date Thu 02 Apr 2020 09:18:14 AM EDT
;FORMAT={-:-/ absolute / metric / decimal}
FMAT,2
METRIC,TZ
T1C0.600
T2C0.650
T3C0.800
T4C1.000
%
G90
G05
T1
X2.297Y10.721
X4.497Y5.121
X4.697Y10.721
X6.497Y14.921
X8.497Y14.921
X8.497Y5.121
X12.505Y7.05
X12.797Y14.321
X14.7Y6.9
X16.497Y5.721
X19.397Y17.721
X19.397Y10.421
X28.4Y12.6
X31.897Y15.121
X34.497Y15.121
X38.Y9.6
X39.6Y15.4
X39.8Y7.4
T2
X2.497Y17.121
X2.497Y3.121
X4.497Y17.121
X4.497Y3.121
X6.497Y17.121
X6.497Y3.121
X8.497Y17.121
X8.497Y3.121
X10.497Y17.121
X10.497Y3.121
X12.497Y17.121
X12.497Y3.121
X14.497Y17.121
X14.497Y3.121
X16.497Y17.121
X16.497Y3.121
T3
X39.02Y2.9
X41.56Y2.9
X44.1Y2.9
T4
X21.717Y17.721
X24.257Y17.721
X26.797Y17.721
X29.337Y17.721
X31.877Y17.721
X34.417Y17.721
X36.957Y17.721
X39.497Y17.721
X43.2Y11.6
X43.2Y9.06
X43.2Y17.74
X43.2Y15.2
T0
M30
