G04 #@! TF.GenerationSoftware,KiCad,Pcbnew,5.0.2-bee76a0~70~ubuntu18.04.1*
G04 #@! TF.CreationDate,2020-06-19T07:36:42-04:00*
G04 #@! TF.ProjectId,weeSpindel,77656553-7069-46e6-9465-6c2e6b696361,rev?*
G04 #@! TF.SameCoordinates,PX5699308PY6c663e8*
G04 #@! TF.FileFunction,Copper,L2,Bot*
G04 #@! TF.FilePolarity,Positive*
%FSLAX46Y46*%
G04 Gerber Fmt 4.6, Leading zero omitted, Abs format (unit mm)*
G04 Created by KiCad (PCBNEW 5.0.2-bee76a0~70~ubuntu18.04.1) date Fri 19 Jun 2020 07:36:42 AM EDT*
%MOMM*%
%LPD*%
G01*
G04 APERTURE LIST*
G04 #@! TA.AperFunction,ComponentPad*
%ADD10O,2.000000X2.500000*%
G04 #@! TD*
G04 #@! TA.AperFunction,ComponentPad*
%ADD11O,1.000000X1.700000*%
G04 #@! TD*
G04 #@! TA.AperFunction,SMDPad,CuDef*
%ADD12R,0.400000X1.600000*%
G04 #@! TD*
G04 #@! TA.AperFunction,SMDPad,CuDef*
%ADD13R,1.400000X1.000000*%
G04 #@! TD*
G04 #@! TA.AperFunction,Conductor*
%ADD14C,0.050000*%
G04 #@! TD*
G04 #@! TA.AperFunction,SMDPad,CuDef*
%ADD15C,1.150000*%
G04 #@! TD*
G04 #@! TA.AperFunction,SMDPad,CuDef*
%ADD16R,1.500000X1.500000*%
G04 #@! TD*
G04 #@! TA.AperFunction,SMDPad,CuDef*
%ADD17C,0.950000*%
G04 #@! TD*
G04 #@! TA.AperFunction,SMDPad,CuDef*
%ADD18R,1.100000X1.100000*%
G04 #@! TD*
G04 #@! TA.AperFunction,SMDPad,CuDef*
%ADD19R,1.550000X0.600000*%
G04 #@! TD*
G04 #@! TA.AperFunction,ComponentPad*
%ADD20C,1.200000*%
G04 #@! TD*
G04 #@! TA.AperFunction,ComponentPad*
%ADD21O,1.750000X1.200000*%
G04 #@! TD*
G04 #@! TA.AperFunction,SMDPad,CuDef*
%ADD22R,0.800000X1.900000*%
G04 #@! TD*
G04 #@! TA.AperFunction,ComponentPad*
%ADD23O,2.200000X1.800000*%
G04 #@! TD*
G04 #@! TA.AperFunction,ComponentPad*
%ADD24R,2.200000X1.800000*%
G04 #@! TD*
G04 #@! TA.AperFunction,ComponentPad*
%ADD25O,1.600000X2.000000*%
G04 #@! TD*
G04 #@! TA.AperFunction,ComponentPad*
%ADD26R,1.100000X2.500000*%
G04 #@! TD*
G04 #@! TA.AperFunction,ComponentPad*
%ADD27O,1.100000X2.500000*%
G04 #@! TD*
G04 #@! TA.AperFunction,ComponentPad*
%ADD28O,2.000000X1.600000*%
G04 #@! TD*
G04 #@! TA.AperFunction,ViaPad*
%ADD29C,1.000000*%
G04 #@! TD*
G04 #@! TA.AperFunction,ViaPad*
%ADD30C,1.500000*%
G04 #@! TD*
G04 #@! TA.AperFunction,Conductor*
%ADD31C,0.400000*%
G04 #@! TD*
G04 #@! TA.AperFunction,Conductor*
%ADD32C,0.700000*%
G04 #@! TD*
G04 #@! TA.AperFunction,Conductor*
%ADD33C,0.500000*%
G04 #@! TD*
G04 #@! TA.AperFunction,Conductor*
%ADD34C,0.254000*%
G04 #@! TD*
G04 APERTURE END LIST*
D10*
G04 #@! TO.P,J2,6*
G04 #@! TO.N,GND*
X19108000Y15557000D03*
D11*
X20308000Y12877000D03*
X25158000Y12877000D03*
D12*
G04 #@! TO.P,J2,1*
G04 #@! TO.N,Net-(C8-Pad1)*
X21433000Y12357000D03*
G04 #@! TO.P,J2,2*
G04 #@! TO.N,Net-(J2-Pad2)*
X22083000Y12357000D03*
G04 #@! TO.P,J2,5*
G04 #@! TO.N,GND*
X24033000Y12357000D03*
G04 #@! TO.P,J2,4*
G04 #@! TO.N,Net-(J2-Pad4)*
X23383000Y12357000D03*
G04 #@! TO.P,J2,3*
G04 #@! TO.N,Net-(J2-Pad3)*
X22733000Y12357000D03*
D10*
G04 #@! TO.P,J2,6*
G04 #@! TO.N,GND*
X26358000Y15557000D03*
D13*
X21033000Y17107000D03*
X24433000Y17107000D03*
G04 #@! TD*
D14*
G04 #@! TO.N,Net-(R3-Pad1)*
G04 #@! TO.C,R3*
G36*
X4157505Y9971796D02*
X4181773Y9968196D01*
X4205572Y9962235D01*
X4228671Y9953970D01*
X4250850Y9943480D01*
X4271893Y9930868D01*
X4291599Y9916253D01*
X4309777Y9899777D01*
X4326253Y9881599D01*
X4340868Y9861893D01*
X4353480Y9840850D01*
X4363970Y9818671D01*
X4372235Y9795572D01*
X4378196Y9771773D01*
X4381796Y9747505D01*
X4383000Y9723001D01*
X4383000Y9072999D01*
X4381796Y9048495D01*
X4378196Y9024227D01*
X4372235Y9000428D01*
X4363970Y8977329D01*
X4353480Y8955150D01*
X4340868Y8934107D01*
X4326253Y8914401D01*
X4309777Y8896223D01*
X4291599Y8879747D01*
X4271893Y8865132D01*
X4250850Y8852520D01*
X4228671Y8842030D01*
X4205572Y8833765D01*
X4181773Y8827804D01*
X4157505Y8824204D01*
X4133001Y8823000D01*
X3232999Y8823000D01*
X3208495Y8824204D01*
X3184227Y8827804D01*
X3160428Y8833765D01*
X3137329Y8842030D01*
X3115150Y8852520D01*
X3094107Y8865132D01*
X3074401Y8879747D01*
X3056223Y8896223D01*
X3039747Y8914401D01*
X3025132Y8934107D01*
X3012520Y8955150D01*
X3002030Y8977329D01*
X2993765Y9000428D01*
X2987804Y9024227D01*
X2984204Y9048495D01*
X2983000Y9072999D01*
X2983000Y9723001D01*
X2984204Y9747505D01*
X2987804Y9771773D01*
X2993765Y9795572D01*
X3002030Y9818671D01*
X3012520Y9840850D01*
X3025132Y9861893D01*
X3039747Y9881599D01*
X3056223Y9899777D01*
X3074401Y9916253D01*
X3094107Y9930868D01*
X3115150Y9943480D01*
X3137329Y9953970D01*
X3160428Y9962235D01*
X3184227Y9968196D01*
X3208495Y9971796D01*
X3232999Y9973000D01*
X4133001Y9973000D01*
X4157505Y9971796D01*
X4157505Y9971796D01*
G37*
D15*
G04 #@! TD*
G04 #@! TO.P,R3,1*
G04 #@! TO.N,Net-(R3-Pad1)*
X3683000Y9398000D03*
D14*
G04 #@! TO.N,Net-(R3-Pad2)*
G04 #@! TO.C,R3*
G36*
X4157505Y7921796D02*
X4181773Y7918196D01*
X4205572Y7912235D01*
X4228671Y7903970D01*
X4250850Y7893480D01*
X4271893Y7880868D01*
X4291599Y7866253D01*
X4309777Y7849777D01*
X4326253Y7831599D01*
X4340868Y7811893D01*
X4353480Y7790850D01*
X4363970Y7768671D01*
X4372235Y7745572D01*
X4378196Y7721773D01*
X4381796Y7697505D01*
X4383000Y7673001D01*
X4383000Y7022999D01*
X4381796Y6998495D01*
X4378196Y6974227D01*
X4372235Y6950428D01*
X4363970Y6927329D01*
X4353480Y6905150D01*
X4340868Y6884107D01*
X4326253Y6864401D01*
X4309777Y6846223D01*
X4291599Y6829747D01*
X4271893Y6815132D01*
X4250850Y6802520D01*
X4228671Y6792030D01*
X4205572Y6783765D01*
X4181773Y6777804D01*
X4157505Y6774204D01*
X4133001Y6773000D01*
X3232999Y6773000D01*
X3208495Y6774204D01*
X3184227Y6777804D01*
X3160428Y6783765D01*
X3137329Y6792030D01*
X3115150Y6802520D01*
X3094107Y6815132D01*
X3074401Y6829747D01*
X3056223Y6846223D01*
X3039747Y6864401D01*
X3025132Y6884107D01*
X3012520Y6905150D01*
X3002030Y6927329D01*
X2993765Y6950428D01*
X2987804Y6974227D01*
X2984204Y6998495D01*
X2983000Y7022999D01*
X2983000Y7673001D01*
X2984204Y7697505D01*
X2987804Y7721773D01*
X2993765Y7745572D01*
X3002030Y7768671D01*
X3012520Y7790850D01*
X3025132Y7811893D01*
X3039747Y7831599D01*
X3056223Y7849777D01*
X3074401Y7866253D01*
X3094107Y7880868D01*
X3115150Y7893480D01*
X3137329Y7903970D01*
X3160428Y7912235D01*
X3184227Y7918196D01*
X3208495Y7921796D01*
X3232999Y7923000D01*
X4133001Y7923000D01*
X4157505Y7921796D01*
X4157505Y7921796D01*
G37*
D15*
G04 #@! TD*
G04 #@! TO.P,R3,2*
G04 #@! TO.N,Net-(R3-Pad2)*
X3683000Y7348000D03*
D16*
G04 #@! TO.P,SW3,2*
G04 #@! TO.N,GND*
X13298000Y11430000D03*
G04 #@! TO.P,SW3,1*
G04 #@! TO.N,Net-(R4-Pad1)*
X5498000Y11430000D03*
G04 #@! TD*
G04 #@! TO.P,SW2,1*
G04 #@! TO.N,Net-(R3-Pad2)*
X5625000Y6985000D03*
G04 #@! TO.P,SW2,2*
G04 #@! TO.N,GND*
X13425000Y6985000D03*
G04 #@! TD*
D14*
G04 #@! TO.N,GND*
G04 #@! TO.C,C8*
G36*
X18421779Y5617856D02*
X18444834Y5614437D01*
X18467443Y5608773D01*
X18489387Y5600921D01*
X18510457Y5590956D01*
X18530448Y5578974D01*
X18549168Y5565090D01*
X18566438Y5549438D01*
X18582090Y5532168D01*
X18595974Y5513448D01*
X18607956Y5493457D01*
X18617921Y5472387D01*
X18625773Y5450443D01*
X18631437Y5427834D01*
X18634856Y5404779D01*
X18636000Y5381500D01*
X18636000Y4806500D01*
X18634856Y4783221D01*
X18631437Y4760166D01*
X18625773Y4737557D01*
X18617921Y4715613D01*
X18607956Y4694543D01*
X18595974Y4674552D01*
X18582090Y4655832D01*
X18566438Y4638562D01*
X18549168Y4622910D01*
X18530448Y4609026D01*
X18510457Y4597044D01*
X18489387Y4587079D01*
X18467443Y4579227D01*
X18444834Y4573563D01*
X18421779Y4570144D01*
X18398500Y4569000D01*
X17923500Y4569000D01*
X17900221Y4570144D01*
X17877166Y4573563D01*
X17854557Y4579227D01*
X17832613Y4587079D01*
X17811543Y4597044D01*
X17791552Y4609026D01*
X17772832Y4622910D01*
X17755562Y4638562D01*
X17739910Y4655832D01*
X17726026Y4674552D01*
X17714044Y4694543D01*
X17704079Y4715613D01*
X17696227Y4737557D01*
X17690563Y4760166D01*
X17687144Y4783221D01*
X17686000Y4806500D01*
X17686000Y5381500D01*
X17687144Y5404779D01*
X17690563Y5427834D01*
X17696227Y5450443D01*
X17704079Y5472387D01*
X17714044Y5493457D01*
X17726026Y5513448D01*
X17739910Y5532168D01*
X17755562Y5549438D01*
X17772832Y5565090D01*
X17791552Y5578974D01*
X17811543Y5590956D01*
X17832613Y5600921D01*
X17854557Y5608773D01*
X17877166Y5614437D01*
X17900221Y5617856D01*
X17923500Y5619000D01*
X18398500Y5619000D01*
X18421779Y5617856D01*
X18421779Y5617856D01*
G37*
D17*
G04 #@! TD*
G04 #@! TO.P,C8,2*
G04 #@! TO.N,GND*
X18161000Y5094000D03*
D14*
G04 #@! TO.N,Net-(C8-Pad1)*
G04 #@! TO.C,C8*
G36*
X18421779Y7367856D02*
X18444834Y7364437D01*
X18467443Y7358773D01*
X18489387Y7350921D01*
X18510457Y7340956D01*
X18530448Y7328974D01*
X18549168Y7315090D01*
X18566438Y7299438D01*
X18582090Y7282168D01*
X18595974Y7263448D01*
X18607956Y7243457D01*
X18617921Y7222387D01*
X18625773Y7200443D01*
X18631437Y7177834D01*
X18634856Y7154779D01*
X18636000Y7131500D01*
X18636000Y6556500D01*
X18634856Y6533221D01*
X18631437Y6510166D01*
X18625773Y6487557D01*
X18617921Y6465613D01*
X18607956Y6444543D01*
X18595974Y6424552D01*
X18582090Y6405832D01*
X18566438Y6388562D01*
X18549168Y6372910D01*
X18530448Y6359026D01*
X18510457Y6347044D01*
X18489387Y6337079D01*
X18467443Y6329227D01*
X18444834Y6323563D01*
X18421779Y6320144D01*
X18398500Y6319000D01*
X17923500Y6319000D01*
X17900221Y6320144D01*
X17877166Y6323563D01*
X17854557Y6329227D01*
X17832613Y6337079D01*
X17811543Y6347044D01*
X17791552Y6359026D01*
X17772832Y6372910D01*
X17755562Y6388562D01*
X17739910Y6405832D01*
X17726026Y6424552D01*
X17714044Y6444543D01*
X17704079Y6465613D01*
X17696227Y6487557D01*
X17690563Y6510166D01*
X17687144Y6533221D01*
X17686000Y6556500D01*
X17686000Y7131500D01*
X17687144Y7154779D01*
X17690563Y7177834D01*
X17696227Y7200443D01*
X17704079Y7222387D01*
X17714044Y7243457D01*
X17726026Y7263448D01*
X17739910Y7282168D01*
X17755562Y7299438D01*
X17772832Y7315090D01*
X17791552Y7328974D01*
X17811543Y7340956D01*
X17832613Y7350921D01*
X17854557Y7358773D01*
X17877166Y7364437D01*
X17900221Y7367856D01*
X17923500Y7369000D01*
X18398500Y7369000D01*
X18421779Y7367856D01*
X18421779Y7367856D01*
G37*
D17*
G04 #@! TD*
G04 #@! TO.P,C8,1*
G04 #@! TO.N,Net-(C8-Pad1)*
X18161000Y6844000D03*
D14*
G04 #@! TO.N,Net-(C5-Pad1)*
G04 #@! TO.C,C5*
G36*
X17822779Y12157856D02*
X17845834Y12154437D01*
X17868443Y12148773D01*
X17890387Y12140921D01*
X17911457Y12130956D01*
X17931448Y12118974D01*
X17950168Y12105090D01*
X17967438Y12089438D01*
X17983090Y12072168D01*
X17996974Y12053448D01*
X18008956Y12033457D01*
X18018921Y12012387D01*
X18026773Y11990443D01*
X18032437Y11967834D01*
X18035856Y11944779D01*
X18037000Y11921500D01*
X18037000Y11446500D01*
X18035856Y11423221D01*
X18032437Y11400166D01*
X18026773Y11377557D01*
X18018921Y11355613D01*
X18008956Y11334543D01*
X17996974Y11314552D01*
X17983090Y11295832D01*
X17967438Y11278562D01*
X17950168Y11262910D01*
X17931448Y11249026D01*
X17911457Y11237044D01*
X17890387Y11227079D01*
X17868443Y11219227D01*
X17845834Y11213563D01*
X17822779Y11210144D01*
X17799500Y11209000D01*
X17224500Y11209000D01*
X17201221Y11210144D01*
X17178166Y11213563D01*
X17155557Y11219227D01*
X17133613Y11227079D01*
X17112543Y11237044D01*
X17092552Y11249026D01*
X17073832Y11262910D01*
X17056562Y11278562D01*
X17040910Y11295832D01*
X17027026Y11314552D01*
X17015044Y11334543D01*
X17005079Y11355613D01*
X16997227Y11377557D01*
X16991563Y11400166D01*
X16988144Y11423221D01*
X16987000Y11446500D01*
X16987000Y11921500D01*
X16988144Y11944779D01*
X16991563Y11967834D01*
X16997227Y11990443D01*
X17005079Y12012387D01*
X17015044Y12033457D01*
X17027026Y12053448D01*
X17040910Y12072168D01*
X17056562Y12089438D01*
X17073832Y12105090D01*
X17092552Y12118974D01*
X17112543Y12130956D01*
X17133613Y12140921D01*
X17155557Y12148773D01*
X17178166Y12154437D01*
X17201221Y12157856D01*
X17224500Y12159000D01*
X17799500Y12159000D01*
X17822779Y12157856D01*
X17822779Y12157856D01*
G37*
D17*
G04 #@! TD*
G04 #@! TO.P,C5,1*
G04 #@! TO.N,Net-(C5-Pad1)*
X17512000Y11684000D03*
D14*
G04 #@! TO.N,GND*
G04 #@! TO.C,C5*
G36*
X16072779Y12157856D02*
X16095834Y12154437D01*
X16118443Y12148773D01*
X16140387Y12140921D01*
X16161457Y12130956D01*
X16181448Y12118974D01*
X16200168Y12105090D01*
X16217438Y12089438D01*
X16233090Y12072168D01*
X16246974Y12053448D01*
X16258956Y12033457D01*
X16268921Y12012387D01*
X16276773Y11990443D01*
X16282437Y11967834D01*
X16285856Y11944779D01*
X16287000Y11921500D01*
X16287000Y11446500D01*
X16285856Y11423221D01*
X16282437Y11400166D01*
X16276773Y11377557D01*
X16268921Y11355613D01*
X16258956Y11334543D01*
X16246974Y11314552D01*
X16233090Y11295832D01*
X16217438Y11278562D01*
X16200168Y11262910D01*
X16181448Y11249026D01*
X16161457Y11237044D01*
X16140387Y11227079D01*
X16118443Y11219227D01*
X16095834Y11213563D01*
X16072779Y11210144D01*
X16049500Y11209000D01*
X15474500Y11209000D01*
X15451221Y11210144D01*
X15428166Y11213563D01*
X15405557Y11219227D01*
X15383613Y11227079D01*
X15362543Y11237044D01*
X15342552Y11249026D01*
X15323832Y11262910D01*
X15306562Y11278562D01*
X15290910Y11295832D01*
X15277026Y11314552D01*
X15265044Y11334543D01*
X15255079Y11355613D01*
X15247227Y11377557D01*
X15241563Y11400166D01*
X15238144Y11423221D01*
X15237000Y11446500D01*
X15237000Y11921500D01*
X15238144Y11944779D01*
X15241563Y11967834D01*
X15247227Y11990443D01*
X15255079Y12012387D01*
X15265044Y12033457D01*
X15277026Y12053448D01*
X15290910Y12072168D01*
X15306562Y12089438D01*
X15323832Y12105090D01*
X15342552Y12118974D01*
X15362543Y12130956D01*
X15383613Y12140921D01*
X15405557Y12148773D01*
X15428166Y12154437D01*
X15451221Y12157856D01*
X15474500Y12159000D01*
X16049500Y12159000D01*
X16072779Y12157856D01*
X16072779Y12157856D01*
G37*
D17*
G04 #@! TD*
G04 #@! TO.P,C5,2*
G04 #@! TO.N,GND*
X15762000Y11684000D03*
D18*
G04 #@! TO.P,D1,1*
G04 #@! TO.N,+5V*
X27689000Y5080000D03*
G04 #@! TO.P,D1,2*
G04 #@! TO.N,Net-(C8-Pad1)*
X24889000Y5080000D03*
G04 #@! TD*
D19*
G04 #@! TO.P,U4,1*
G04 #@! TO.N,Net-(J2-Pad3)*
X25273000Y10795000D03*
G04 #@! TO.P,U4,2*
G04 #@! TO.N,Net-(J2-Pad2)*
X25273000Y9525000D03*
G04 #@! TO.P,U4,3*
G04 #@! TO.N,GND*
X25273000Y8255000D03*
G04 #@! TO.P,U4,4*
G04 #@! TO.N,Net-(U4-Pad4)*
X25273000Y6985000D03*
G04 #@! TO.P,U4,5*
G04 #@! TO.N,Net-(C8-Pad1)*
X19873000Y6985000D03*
G04 #@! TO.P,U4,6*
G04 #@! TO.N,eRX*
X19873000Y8255000D03*
G04 #@! TO.P,U4,7*
G04 #@! TO.N,Net-(R9-Pad2)*
X19873000Y9525000D03*
G04 #@! TO.P,U4,8*
G04 #@! TO.N,Net-(C5-Pad1)*
X19873000Y10795000D03*
G04 #@! TD*
D14*
G04 #@! TO.N,eTX*
G04 #@! TO.C,R9*
G36*
X15952505Y10477796D02*
X15976773Y10474196D01*
X16000572Y10468235D01*
X16023671Y10459970D01*
X16045850Y10449480D01*
X16066893Y10436868D01*
X16086599Y10422253D01*
X16104777Y10405777D01*
X16121253Y10387599D01*
X16135868Y10367893D01*
X16148480Y10346850D01*
X16158970Y10324671D01*
X16167235Y10301572D01*
X16173196Y10277773D01*
X16176796Y10253505D01*
X16178000Y10229001D01*
X16178000Y9328999D01*
X16176796Y9304495D01*
X16173196Y9280227D01*
X16167235Y9256428D01*
X16158970Y9233329D01*
X16148480Y9211150D01*
X16135868Y9190107D01*
X16121253Y9170401D01*
X16104777Y9152223D01*
X16086599Y9135747D01*
X16066893Y9121132D01*
X16045850Y9108520D01*
X16023671Y9098030D01*
X16000572Y9089765D01*
X15976773Y9083804D01*
X15952505Y9080204D01*
X15928001Y9079000D01*
X15277999Y9079000D01*
X15253495Y9080204D01*
X15229227Y9083804D01*
X15205428Y9089765D01*
X15182329Y9098030D01*
X15160150Y9108520D01*
X15139107Y9121132D01*
X15119401Y9135747D01*
X15101223Y9152223D01*
X15084747Y9170401D01*
X15070132Y9190107D01*
X15057520Y9211150D01*
X15047030Y9233329D01*
X15038765Y9256428D01*
X15032804Y9280227D01*
X15029204Y9304495D01*
X15028000Y9328999D01*
X15028000Y10229001D01*
X15029204Y10253505D01*
X15032804Y10277773D01*
X15038765Y10301572D01*
X15047030Y10324671D01*
X15057520Y10346850D01*
X15070132Y10367893D01*
X15084747Y10387599D01*
X15101223Y10405777D01*
X15119401Y10422253D01*
X15139107Y10436868D01*
X15160150Y10449480D01*
X15182329Y10459970D01*
X15205428Y10468235D01*
X15229227Y10474196D01*
X15253495Y10477796D01*
X15277999Y10479000D01*
X15928001Y10479000D01*
X15952505Y10477796D01*
X15952505Y10477796D01*
G37*
D15*
G04 #@! TD*
G04 #@! TO.P,R9,1*
G04 #@! TO.N,eTX*
X15603000Y9779000D03*
D14*
G04 #@! TO.N,Net-(R9-Pad2)*
G04 #@! TO.C,R9*
G36*
X18002505Y10477796D02*
X18026773Y10474196D01*
X18050572Y10468235D01*
X18073671Y10459970D01*
X18095850Y10449480D01*
X18116893Y10436868D01*
X18136599Y10422253D01*
X18154777Y10405777D01*
X18171253Y10387599D01*
X18185868Y10367893D01*
X18198480Y10346850D01*
X18208970Y10324671D01*
X18217235Y10301572D01*
X18223196Y10277773D01*
X18226796Y10253505D01*
X18228000Y10229001D01*
X18228000Y9328999D01*
X18226796Y9304495D01*
X18223196Y9280227D01*
X18217235Y9256428D01*
X18208970Y9233329D01*
X18198480Y9211150D01*
X18185868Y9190107D01*
X18171253Y9170401D01*
X18154777Y9152223D01*
X18136599Y9135747D01*
X18116893Y9121132D01*
X18095850Y9108520D01*
X18073671Y9098030D01*
X18050572Y9089765D01*
X18026773Y9083804D01*
X18002505Y9080204D01*
X17978001Y9079000D01*
X17327999Y9079000D01*
X17303495Y9080204D01*
X17279227Y9083804D01*
X17255428Y9089765D01*
X17232329Y9098030D01*
X17210150Y9108520D01*
X17189107Y9121132D01*
X17169401Y9135747D01*
X17151223Y9152223D01*
X17134747Y9170401D01*
X17120132Y9190107D01*
X17107520Y9211150D01*
X17097030Y9233329D01*
X17088765Y9256428D01*
X17082804Y9280227D01*
X17079204Y9304495D01*
X17078000Y9328999D01*
X17078000Y10229001D01*
X17079204Y10253505D01*
X17082804Y10277773D01*
X17088765Y10301572D01*
X17097030Y10324671D01*
X17107520Y10346850D01*
X17120132Y10367893D01*
X17134747Y10387599D01*
X17151223Y10405777D01*
X17169401Y10422253D01*
X17189107Y10436868D01*
X17210150Y10449480D01*
X17232329Y10459970D01*
X17255428Y10468235D01*
X17279227Y10474196D01*
X17303495Y10477796D01*
X17327999Y10479000D01*
X17978001Y10479000D01*
X18002505Y10477796D01*
X18002505Y10477796D01*
G37*
D15*
G04 #@! TD*
G04 #@! TO.P,R9,2*
G04 #@! TO.N,Net-(R9-Pad2)*
X17653000Y9779000D03*
D14*
G04 #@! TO.N,3V3*
G04 #@! TO.C,C1*
G36*
X18955779Y2338856D02*
X18978834Y2335437D01*
X19001443Y2329773D01*
X19023387Y2321921D01*
X19044457Y2311956D01*
X19064448Y2299974D01*
X19083168Y2286090D01*
X19100438Y2270438D01*
X19116090Y2253168D01*
X19129974Y2234448D01*
X19141956Y2214457D01*
X19151921Y2193387D01*
X19159773Y2171443D01*
X19165437Y2148834D01*
X19168856Y2125779D01*
X19170000Y2102500D01*
X19170000Y1527500D01*
X19168856Y1504221D01*
X19165437Y1481166D01*
X19159773Y1458557D01*
X19151921Y1436613D01*
X19141956Y1415543D01*
X19129974Y1395552D01*
X19116090Y1376832D01*
X19100438Y1359562D01*
X19083168Y1343910D01*
X19064448Y1330026D01*
X19044457Y1318044D01*
X19023387Y1308079D01*
X19001443Y1300227D01*
X18978834Y1294563D01*
X18955779Y1291144D01*
X18932500Y1290000D01*
X18457500Y1290000D01*
X18434221Y1291144D01*
X18411166Y1294563D01*
X18388557Y1300227D01*
X18366613Y1308079D01*
X18345543Y1318044D01*
X18325552Y1330026D01*
X18306832Y1343910D01*
X18289562Y1359562D01*
X18273910Y1376832D01*
X18260026Y1395552D01*
X18248044Y1415543D01*
X18238079Y1436613D01*
X18230227Y1458557D01*
X18224563Y1481166D01*
X18221144Y1504221D01*
X18220000Y1527500D01*
X18220000Y2102500D01*
X18221144Y2125779D01*
X18224563Y2148834D01*
X18230227Y2171443D01*
X18238079Y2193387D01*
X18248044Y2214457D01*
X18260026Y2234448D01*
X18273910Y2253168D01*
X18289562Y2270438D01*
X18306832Y2286090D01*
X18325552Y2299974D01*
X18345543Y2311956D01*
X18366613Y2321921D01*
X18388557Y2329773D01*
X18411166Y2335437D01*
X18434221Y2338856D01*
X18457500Y2340000D01*
X18932500Y2340000D01*
X18955779Y2338856D01*
X18955779Y2338856D01*
G37*
D17*
G04 #@! TD*
G04 #@! TO.P,C1,2*
G04 #@! TO.N,3V3*
X18695000Y1815000D03*
D14*
G04 #@! TO.N,GND*
G04 #@! TO.C,C1*
G36*
X18955779Y4088856D02*
X18978834Y4085437D01*
X19001443Y4079773D01*
X19023387Y4071921D01*
X19044457Y4061956D01*
X19064448Y4049974D01*
X19083168Y4036090D01*
X19100438Y4020438D01*
X19116090Y4003168D01*
X19129974Y3984448D01*
X19141956Y3964457D01*
X19151921Y3943387D01*
X19159773Y3921443D01*
X19165437Y3898834D01*
X19168856Y3875779D01*
X19170000Y3852500D01*
X19170000Y3277500D01*
X19168856Y3254221D01*
X19165437Y3231166D01*
X19159773Y3208557D01*
X19151921Y3186613D01*
X19141956Y3165543D01*
X19129974Y3145552D01*
X19116090Y3126832D01*
X19100438Y3109562D01*
X19083168Y3093910D01*
X19064448Y3080026D01*
X19044457Y3068044D01*
X19023387Y3058079D01*
X19001443Y3050227D01*
X18978834Y3044563D01*
X18955779Y3041144D01*
X18932500Y3040000D01*
X18457500Y3040000D01*
X18434221Y3041144D01*
X18411166Y3044563D01*
X18388557Y3050227D01*
X18366613Y3058079D01*
X18345543Y3068044D01*
X18325552Y3080026D01*
X18306832Y3093910D01*
X18289562Y3109562D01*
X18273910Y3126832D01*
X18260026Y3145552D01*
X18248044Y3165543D01*
X18238079Y3186613D01*
X18230227Y3208557D01*
X18224563Y3231166D01*
X18221144Y3254221D01*
X18220000Y3277500D01*
X18220000Y3852500D01*
X18221144Y3875779D01*
X18224563Y3898834D01*
X18230227Y3921443D01*
X18238079Y3943387D01*
X18248044Y3964457D01*
X18260026Y3984448D01*
X18273910Y4003168D01*
X18289562Y4020438D01*
X18306832Y4036090D01*
X18325552Y4049974D01*
X18345543Y4061956D01*
X18366613Y4071921D01*
X18388557Y4079773D01*
X18411166Y4085437D01*
X18434221Y4088856D01*
X18457500Y4090000D01*
X18932500Y4090000D01*
X18955779Y4088856D01*
X18955779Y4088856D01*
G37*
D17*
G04 #@! TD*
G04 #@! TO.P,C1,1*
G04 #@! TO.N,GND*
X18695000Y3565000D03*
D14*
G04 #@! TO.N,Net-(C4-Pad1)*
G04 #@! TO.C,C4*
G36*
X49955779Y9338856D02*
X49978834Y9335437D01*
X50001443Y9329773D01*
X50023387Y9321921D01*
X50044457Y9311956D01*
X50064448Y9299974D01*
X50083168Y9286090D01*
X50100438Y9270438D01*
X50116090Y9253168D01*
X50129974Y9234448D01*
X50141956Y9214457D01*
X50151921Y9193387D01*
X50159773Y9171443D01*
X50165437Y9148834D01*
X50168856Y9125779D01*
X50170000Y9102500D01*
X50170000Y8527500D01*
X50168856Y8504221D01*
X50165437Y8481166D01*
X50159773Y8458557D01*
X50151921Y8436613D01*
X50141956Y8415543D01*
X50129974Y8395552D01*
X50116090Y8376832D01*
X50100438Y8359562D01*
X50083168Y8343910D01*
X50064448Y8330026D01*
X50044457Y8318044D01*
X50023387Y8308079D01*
X50001443Y8300227D01*
X49978834Y8294563D01*
X49955779Y8291144D01*
X49932500Y8290000D01*
X49457500Y8290000D01*
X49434221Y8291144D01*
X49411166Y8294563D01*
X49388557Y8300227D01*
X49366613Y8308079D01*
X49345543Y8318044D01*
X49325552Y8330026D01*
X49306832Y8343910D01*
X49289562Y8359562D01*
X49273910Y8376832D01*
X49260026Y8395552D01*
X49248044Y8415543D01*
X49238079Y8436613D01*
X49230227Y8458557D01*
X49224563Y8481166D01*
X49221144Y8504221D01*
X49220000Y8527500D01*
X49220000Y9102500D01*
X49221144Y9125779D01*
X49224563Y9148834D01*
X49230227Y9171443D01*
X49238079Y9193387D01*
X49248044Y9214457D01*
X49260026Y9234448D01*
X49273910Y9253168D01*
X49289562Y9270438D01*
X49306832Y9286090D01*
X49325552Y9299974D01*
X49345543Y9311956D01*
X49366613Y9321921D01*
X49388557Y9329773D01*
X49411166Y9335437D01*
X49434221Y9338856D01*
X49457500Y9340000D01*
X49932500Y9340000D01*
X49955779Y9338856D01*
X49955779Y9338856D01*
G37*
D17*
G04 #@! TD*
G04 #@! TO.P,C4,1*
G04 #@! TO.N,Net-(C4-Pad1)*
X49695000Y8815000D03*
D14*
G04 #@! TO.N,Net-(BT1-Pad2)*
G04 #@! TO.C,C4*
G36*
X49955779Y11088856D02*
X49978834Y11085437D01*
X50001443Y11079773D01*
X50023387Y11071921D01*
X50044457Y11061956D01*
X50064448Y11049974D01*
X50083168Y11036090D01*
X50100438Y11020438D01*
X50116090Y11003168D01*
X50129974Y10984448D01*
X50141956Y10964457D01*
X50151921Y10943387D01*
X50159773Y10921443D01*
X50165437Y10898834D01*
X50168856Y10875779D01*
X50170000Y10852500D01*
X50170000Y10277500D01*
X50168856Y10254221D01*
X50165437Y10231166D01*
X50159773Y10208557D01*
X50151921Y10186613D01*
X50141956Y10165543D01*
X50129974Y10145552D01*
X50116090Y10126832D01*
X50100438Y10109562D01*
X50083168Y10093910D01*
X50064448Y10080026D01*
X50044457Y10068044D01*
X50023387Y10058079D01*
X50001443Y10050227D01*
X49978834Y10044563D01*
X49955779Y10041144D01*
X49932500Y10040000D01*
X49457500Y10040000D01*
X49434221Y10041144D01*
X49411166Y10044563D01*
X49388557Y10050227D01*
X49366613Y10058079D01*
X49345543Y10068044D01*
X49325552Y10080026D01*
X49306832Y10093910D01*
X49289562Y10109562D01*
X49273910Y10126832D01*
X49260026Y10145552D01*
X49248044Y10165543D01*
X49238079Y10186613D01*
X49230227Y10208557D01*
X49224563Y10231166D01*
X49221144Y10254221D01*
X49220000Y10277500D01*
X49220000Y10852500D01*
X49221144Y10875779D01*
X49224563Y10898834D01*
X49230227Y10921443D01*
X49238079Y10943387D01*
X49248044Y10964457D01*
X49260026Y10984448D01*
X49273910Y11003168D01*
X49289562Y11020438D01*
X49306832Y11036090D01*
X49325552Y11049974D01*
X49345543Y11061956D01*
X49366613Y11071921D01*
X49388557Y11079773D01*
X49411166Y11085437D01*
X49434221Y11088856D01*
X49457500Y11090000D01*
X49932500Y11090000D01*
X49955779Y11088856D01*
X49955779Y11088856D01*
G37*
D17*
G04 #@! TD*
G04 #@! TO.P,C4,2*
G04 #@! TO.N,Net-(BT1-Pad2)*
X49695000Y10565000D03*
D14*
G04 #@! TO.N,GND*
G04 #@! TO.C,C6*
G36*
X36455779Y2560856D02*
X36478834Y2557437D01*
X36501443Y2551773D01*
X36523387Y2543921D01*
X36544457Y2533956D01*
X36564448Y2521974D01*
X36583168Y2508090D01*
X36600438Y2492438D01*
X36616090Y2475168D01*
X36629974Y2456448D01*
X36641956Y2436457D01*
X36651921Y2415387D01*
X36659773Y2393443D01*
X36665437Y2370834D01*
X36668856Y2347779D01*
X36670000Y2324500D01*
X36670000Y1749500D01*
X36668856Y1726221D01*
X36665437Y1703166D01*
X36659773Y1680557D01*
X36651921Y1658613D01*
X36641956Y1637543D01*
X36629974Y1617552D01*
X36616090Y1598832D01*
X36600438Y1581562D01*
X36583168Y1565910D01*
X36564448Y1552026D01*
X36544457Y1540044D01*
X36523387Y1530079D01*
X36501443Y1522227D01*
X36478834Y1516563D01*
X36455779Y1513144D01*
X36432500Y1512000D01*
X35957500Y1512000D01*
X35934221Y1513144D01*
X35911166Y1516563D01*
X35888557Y1522227D01*
X35866613Y1530079D01*
X35845543Y1540044D01*
X35825552Y1552026D01*
X35806832Y1565910D01*
X35789562Y1581562D01*
X35773910Y1598832D01*
X35760026Y1617552D01*
X35748044Y1637543D01*
X35738079Y1658613D01*
X35730227Y1680557D01*
X35724563Y1703166D01*
X35721144Y1726221D01*
X35720000Y1749500D01*
X35720000Y2324500D01*
X35721144Y2347779D01*
X35724563Y2370834D01*
X35730227Y2393443D01*
X35738079Y2415387D01*
X35748044Y2436457D01*
X35760026Y2456448D01*
X35773910Y2475168D01*
X35789562Y2492438D01*
X35806832Y2508090D01*
X35825552Y2521974D01*
X35845543Y2533956D01*
X35866613Y2543921D01*
X35888557Y2551773D01*
X35911166Y2557437D01*
X35934221Y2560856D01*
X35957500Y2562000D01*
X36432500Y2562000D01*
X36455779Y2560856D01*
X36455779Y2560856D01*
G37*
D17*
G04 #@! TD*
G04 #@! TO.P,C6,2*
G04 #@! TO.N,GND*
X36195000Y2037000D03*
D14*
G04 #@! TO.N,ADC*
G04 #@! TO.C,C6*
G36*
X36455779Y4310856D02*
X36478834Y4307437D01*
X36501443Y4301773D01*
X36523387Y4293921D01*
X36544457Y4283956D01*
X36564448Y4271974D01*
X36583168Y4258090D01*
X36600438Y4242438D01*
X36616090Y4225168D01*
X36629974Y4206448D01*
X36641956Y4186457D01*
X36651921Y4165387D01*
X36659773Y4143443D01*
X36665437Y4120834D01*
X36668856Y4097779D01*
X36670000Y4074500D01*
X36670000Y3499500D01*
X36668856Y3476221D01*
X36665437Y3453166D01*
X36659773Y3430557D01*
X36651921Y3408613D01*
X36641956Y3387543D01*
X36629974Y3367552D01*
X36616090Y3348832D01*
X36600438Y3331562D01*
X36583168Y3315910D01*
X36564448Y3302026D01*
X36544457Y3290044D01*
X36523387Y3280079D01*
X36501443Y3272227D01*
X36478834Y3266563D01*
X36455779Y3263144D01*
X36432500Y3262000D01*
X35957500Y3262000D01*
X35934221Y3263144D01*
X35911166Y3266563D01*
X35888557Y3272227D01*
X35866613Y3280079D01*
X35845543Y3290044D01*
X35825552Y3302026D01*
X35806832Y3315910D01*
X35789562Y3331562D01*
X35773910Y3348832D01*
X35760026Y3367552D01*
X35748044Y3387543D01*
X35738079Y3408613D01*
X35730227Y3430557D01*
X35724563Y3453166D01*
X35721144Y3476221D01*
X35720000Y3499500D01*
X35720000Y4074500D01*
X35721144Y4097779D01*
X35724563Y4120834D01*
X35730227Y4143443D01*
X35738079Y4165387D01*
X35748044Y4186457D01*
X35760026Y4206448D01*
X35773910Y4225168D01*
X35789562Y4242438D01*
X35806832Y4258090D01*
X35825552Y4271974D01*
X35845543Y4283956D01*
X35866613Y4293921D01*
X35888557Y4301773D01*
X35911166Y4307437D01*
X35934221Y4310856D01*
X35957500Y4312000D01*
X36432500Y4312000D01*
X36455779Y4310856D01*
X36455779Y4310856D01*
G37*
D17*
G04 #@! TD*
G04 #@! TO.P,C6,1*
G04 #@! TO.N,ADC*
X36195000Y3787000D03*
D14*
G04 #@! TO.N,Net-(F1-Pad1)*
G04 #@! TO.C,F1*
G36*
X45178505Y7413796D02*
X45202773Y7410196D01*
X45226572Y7404235D01*
X45249671Y7395970D01*
X45271850Y7385480D01*
X45292893Y7372868D01*
X45312599Y7358253D01*
X45330777Y7341777D01*
X45347253Y7323599D01*
X45361868Y7303893D01*
X45374480Y7282850D01*
X45384970Y7260671D01*
X45393235Y7237572D01*
X45399196Y7213773D01*
X45402796Y7189505D01*
X45404000Y7165001D01*
X45404000Y6514999D01*
X45402796Y6490495D01*
X45399196Y6466227D01*
X45393235Y6442428D01*
X45384970Y6419329D01*
X45374480Y6397150D01*
X45361868Y6376107D01*
X45347253Y6356401D01*
X45330777Y6338223D01*
X45312599Y6321747D01*
X45292893Y6307132D01*
X45271850Y6294520D01*
X45249671Y6284030D01*
X45226572Y6275765D01*
X45202773Y6269804D01*
X45178505Y6266204D01*
X45154001Y6265000D01*
X44253999Y6265000D01*
X44229495Y6266204D01*
X44205227Y6269804D01*
X44181428Y6275765D01*
X44158329Y6284030D01*
X44136150Y6294520D01*
X44115107Y6307132D01*
X44095401Y6321747D01*
X44077223Y6338223D01*
X44060747Y6356401D01*
X44046132Y6376107D01*
X44033520Y6397150D01*
X44023030Y6419329D01*
X44014765Y6442428D01*
X44008804Y6466227D01*
X44005204Y6490495D01*
X44004000Y6514999D01*
X44004000Y7165001D01*
X44005204Y7189505D01*
X44008804Y7213773D01*
X44014765Y7237572D01*
X44023030Y7260671D01*
X44033520Y7282850D01*
X44046132Y7303893D01*
X44060747Y7323599D01*
X44077223Y7341777D01*
X44095401Y7358253D01*
X44115107Y7372868D01*
X44136150Y7385480D01*
X44158329Y7395970D01*
X44181428Y7404235D01*
X44205227Y7410196D01*
X44229495Y7413796D01*
X44253999Y7415000D01*
X45154001Y7415000D01*
X45178505Y7413796D01*
X45178505Y7413796D01*
G37*
D15*
G04 #@! TD*
G04 #@! TO.P,F1,1*
G04 #@! TO.N,Net-(F1-Pad1)*
X44704000Y6840000D03*
D14*
G04 #@! TO.N,Net-(BT1-Pad1)*
G04 #@! TO.C,F1*
G36*
X45178505Y9463796D02*
X45202773Y9460196D01*
X45226572Y9454235D01*
X45249671Y9445970D01*
X45271850Y9435480D01*
X45292893Y9422868D01*
X45312599Y9408253D01*
X45330777Y9391777D01*
X45347253Y9373599D01*
X45361868Y9353893D01*
X45374480Y9332850D01*
X45384970Y9310671D01*
X45393235Y9287572D01*
X45399196Y9263773D01*
X45402796Y9239505D01*
X45404000Y9215001D01*
X45404000Y8564999D01*
X45402796Y8540495D01*
X45399196Y8516227D01*
X45393235Y8492428D01*
X45384970Y8469329D01*
X45374480Y8447150D01*
X45361868Y8426107D01*
X45347253Y8406401D01*
X45330777Y8388223D01*
X45312599Y8371747D01*
X45292893Y8357132D01*
X45271850Y8344520D01*
X45249671Y8334030D01*
X45226572Y8325765D01*
X45202773Y8319804D01*
X45178505Y8316204D01*
X45154001Y8315000D01*
X44253999Y8315000D01*
X44229495Y8316204D01*
X44205227Y8319804D01*
X44181428Y8325765D01*
X44158329Y8334030D01*
X44136150Y8344520D01*
X44115107Y8357132D01*
X44095401Y8371747D01*
X44077223Y8388223D01*
X44060747Y8406401D01*
X44046132Y8426107D01*
X44033520Y8447150D01*
X44023030Y8469329D01*
X44014765Y8492428D01*
X44008804Y8516227D01*
X44005204Y8540495D01*
X44004000Y8564999D01*
X44004000Y9215001D01*
X44005204Y9239505D01*
X44008804Y9263773D01*
X44014765Y9287572D01*
X44023030Y9310671D01*
X44033520Y9332850D01*
X44046132Y9353893D01*
X44060747Y9373599D01*
X44077223Y9391777D01*
X44095401Y9408253D01*
X44115107Y9422868D01*
X44136150Y9435480D01*
X44158329Y9445970D01*
X44181428Y9454235D01*
X44205227Y9460196D01*
X44229495Y9463796D01*
X44253999Y9465000D01*
X45154001Y9465000D01*
X45178505Y9463796D01*
X45178505Y9463796D01*
G37*
D15*
G04 #@! TD*
G04 #@! TO.P,F1,2*
G04 #@! TO.N,Net-(BT1-Pad1)*
X44704000Y8890000D03*
D14*
G04 #@! TO.N,3V3*
G04 #@! TO.C,R4*
G36*
X1530779Y8778856D02*
X1553834Y8775437D01*
X1576443Y8769773D01*
X1598387Y8761921D01*
X1619457Y8751956D01*
X1639448Y8739974D01*
X1658168Y8726090D01*
X1675438Y8710438D01*
X1691090Y8693168D01*
X1704974Y8674448D01*
X1716956Y8654457D01*
X1726921Y8633387D01*
X1734773Y8611443D01*
X1740437Y8588834D01*
X1743856Y8565779D01*
X1745000Y8542500D01*
X1745000Y7967500D01*
X1743856Y7944221D01*
X1740437Y7921166D01*
X1734773Y7898557D01*
X1726921Y7876613D01*
X1716956Y7855543D01*
X1704974Y7835552D01*
X1691090Y7816832D01*
X1675438Y7799562D01*
X1658168Y7783910D01*
X1639448Y7770026D01*
X1619457Y7758044D01*
X1598387Y7748079D01*
X1576443Y7740227D01*
X1553834Y7734563D01*
X1530779Y7731144D01*
X1507500Y7730000D01*
X1032500Y7730000D01*
X1009221Y7731144D01*
X986166Y7734563D01*
X963557Y7740227D01*
X941613Y7748079D01*
X920543Y7758044D01*
X900552Y7770026D01*
X881832Y7783910D01*
X864562Y7799562D01*
X848910Y7816832D01*
X835026Y7835552D01*
X823044Y7855543D01*
X813079Y7876613D01*
X805227Y7898557D01*
X799563Y7921166D01*
X796144Y7944221D01*
X795000Y7967500D01*
X795000Y8542500D01*
X796144Y8565779D01*
X799563Y8588834D01*
X805227Y8611443D01*
X813079Y8633387D01*
X823044Y8654457D01*
X835026Y8674448D01*
X848910Y8693168D01*
X864562Y8710438D01*
X881832Y8726090D01*
X900552Y8739974D01*
X920543Y8751956D01*
X941613Y8761921D01*
X963557Y8769773D01*
X986166Y8775437D01*
X1009221Y8778856D01*
X1032500Y8780000D01*
X1507500Y8780000D01*
X1530779Y8778856D01*
X1530779Y8778856D01*
G37*
D17*
G04 #@! TD*
G04 #@! TO.P,R4,2*
G04 #@! TO.N,3V3*
X1270000Y8255000D03*
D14*
G04 #@! TO.N,Net-(R4-Pad1)*
G04 #@! TO.C,R4*
G36*
X1530779Y10528856D02*
X1553834Y10525437D01*
X1576443Y10519773D01*
X1598387Y10511921D01*
X1619457Y10501956D01*
X1639448Y10489974D01*
X1658168Y10476090D01*
X1675438Y10460438D01*
X1691090Y10443168D01*
X1704974Y10424448D01*
X1716956Y10404457D01*
X1726921Y10383387D01*
X1734773Y10361443D01*
X1740437Y10338834D01*
X1743856Y10315779D01*
X1745000Y10292500D01*
X1745000Y9717500D01*
X1743856Y9694221D01*
X1740437Y9671166D01*
X1734773Y9648557D01*
X1726921Y9626613D01*
X1716956Y9605543D01*
X1704974Y9585552D01*
X1691090Y9566832D01*
X1675438Y9549562D01*
X1658168Y9533910D01*
X1639448Y9520026D01*
X1619457Y9508044D01*
X1598387Y9498079D01*
X1576443Y9490227D01*
X1553834Y9484563D01*
X1530779Y9481144D01*
X1507500Y9480000D01*
X1032500Y9480000D01*
X1009221Y9481144D01*
X986166Y9484563D01*
X963557Y9490227D01*
X941613Y9498079D01*
X920543Y9508044D01*
X900552Y9520026D01*
X881832Y9533910D01*
X864562Y9549562D01*
X848910Y9566832D01*
X835026Y9585552D01*
X823044Y9605543D01*
X813079Y9626613D01*
X805227Y9648557D01*
X799563Y9671166D01*
X796144Y9694221D01*
X795000Y9717500D01*
X795000Y10292500D01*
X796144Y10315779D01*
X799563Y10338834D01*
X805227Y10361443D01*
X813079Y10383387D01*
X823044Y10404457D01*
X835026Y10424448D01*
X848910Y10443168D01*
X864562Y10460438D01*
X881832Y10476090D01*
X900552Y10489974D01*
X920543Y10501956D01*
X941613Y10511921D01*
X963557Y10519773D01*
X986166Y10525437D01*
X1009221Y10528856D01*
X1032500Y10530000D01*
X1507500Y10530000D01*
X1530779Y10528856D01*
X1530779Y10528856D01*
G37*
D17*
G04 #@! TD*
G04 #@! TO.P,R4,1*
G04 #@! TO.N,Net-(R4-Pad1)*
X1270000Y10005000D03*
D14*
G04 #@! TO.N,Net-(R3-Pad2)*
G04 #@! TO.C,R5*
G36*
X1530779Y3952856D02*
X1553834Y3949437D01*
X1576443Y3943773D01*
X1598387Y3935921D01*
X1619457Y3925956D01*
X1639448Y3913974D01*
X1658168Y3900090D01*
X1675438Y3884438D01*
X1691090Y3867168D01*
X1704974Y3848448D01*
X1716956Y3828457D01*
X1726921Y3807387D01*
X1734773Y3785443D01*
X1740437Y3762834D01*
X1743856Y3739779D01*
X1745000Y3716500D01*
X1745000Y3141500D01*
X1743856Y3118221D01*
X1740437Y3095166D01*
X1734773Y3072557D01*
X1726921Y3050613D01*
X1716956Y3029543D01*
X1704974Y3009552D01*
X1691090Y2990832D01*
X1675438Y2973562D01*
X1658168Y2957910D01*
X1639448Y2944026D01*
X1619457Y2932044D01*
X1598387Y2922079D01*
X1576443Y2914227D01*
X1553834Y2908563D01*
X1530779Y2905144D01*
X1507500Y2904000D01*
X1032500Y2904000D01*
X1009221Y2905144D01*
X986166Y2908563D01*
X963557Y2914227D01*
X941613Y2922079D01*
X920543Y2932044D01*
X900552Y2944026D01*
X881832Y2957910D01*
X864562Y2973562D01*
X848910Y2990832D01*
X835026Y3009552D01*
X823044Y3029543D01*
X813079Y3050613D01*
X805227Y3072557D01*
X799563Y3095166D01*
X796144Y3118221D01*
X795000Y3141500D01*
X795000Y3716500D01*
X796144Y3739779D01*
X799563Y3762834D01*
X805227Y3785443D01*
X813079Y3807387D01*
X823044Y3828457D01*
X835026Y3848448D01*
X848910Y3867168D01*
X864562Y3884438D01*
X881832Y3900090D01*
X900552Y3913974D01*
X920543Y3925956D01*
X941613Y3935921D01*
X963557Y3943773D01*
X986166Y3949437D01*
X1009221Y3952856D01*
X1032500Y3954000D01*
X1507500Y3954000D01*
X1530779Y3952856D01*
X1530779Y3952856D01*
G37*
D17*
G04 #@! TD*
G04 #@! TO.P,R5,1*
G04 #@! TO.N,Net-(R3-Pad2)*
X1270000Y3429000D03*
D14*
G04 #@! TO.N,3V3*
G04 #@! TO.C,R5*
G36*
X1530779Y5702856D02*
X1553834Y5699437D01*
X1576443Y5693773D01*
X1598387Y5685921D01*
X1619457Y5675956D01*
X1639448Y5663974D01*
X1658168Y5650090D01*
X1675438Y5634438D01*
X1691090Y5617168D01*
X1704974Y5598448D01*
X1716956Y5578457D01*
X1726921Y5557387D01*
X1734773Y5535443D01*
X1740437Y5512834D01*
X1743856Y5489779D01*
X1745000Y5466500D01*
X1745000Y4891500D01*
X1743856Y4868221D01*
X1740437Y4845166D01*
X1734773Y4822557D01*
X1726921Y4800613D01*
X1716956Y4779543D01*
X1704974Y4759552D01*
X1691090Y4740832D01*
X1675438Y4723562D01*
X1658168Y4707910D01*
X1639448Y4694026D01*
X1619457Y4682044D01*
X1598387Y4672079D01*
X1576443Y4664227D01*
X1553834Y4658563D01*
X1530779Y4655144D01*
X1507500Y4654000D01*
X1032500Y4654000D01*
X1009221Y4655144D01*
X986166Y4658563D01*
X963557Y4664227D01*
X941613Y4672079D01*
X920543Y4682044D01*
X900552Y4694026D01*
X881832Y4707910D01*
X864562Y4723562D01*
X848910Y4740832D01*
X835026Y4759552D01*
X823044Y4779543D01*
X813079Y4800613D01*
X805227Y4822557D01*
X799563Y4845166D01*
X796144Y4868221D01*
X795000Y4891500D01*
X795000Y5466500D01*
X796144Y5489779D01*
X799563Y5512834D01*
X805227Y5535443D01*
X813079Y5557387D01*
X823044Y5578457D01*
X835026Y5598448D01*
X848910Y5617168D01*
X864562Y5634438D01*
X881832Y5650090D01*
X900552Y5663974D01*
X920543Y5675956D01*
X941613Y5685921D01*
X963557Y5693773D01*
X986166Y5699437D01*
X1009221Y5702856D01*
X1032500Y5704000D01*
X1507500Y5704000D01*
X1530779Y5702856D01*
X1530779Y5702856D01*
G37*
D17*
G04 #@! TD*
G04 #@! TO.P,R5,2*
G04 #@! TO.N,3V3*
X1270000Y5179000D03*
D14*
G04 #@! TO.N,3V3*
G04 #@! TO.C,R6*
G36*
X8029779Y4537856D02*
X8052834Y4534437D01*
X8075443Y4528773D01*
X8097387Y4520921D01*
X8118457Y4510956D01*
X8138448Y4498974D01*
X8157168Y4485090D01*
X8174438Y4469438D01*
X8190090Y4452168D01*
X8203974Y4433448D01*
X8215956Y4413457D01*
X8225921Y4392387D01*
X8233773Y4370443D01*
X8239437Y4347834D01*
X8242856Y4324779D01*
X8244000Y4301500D01*
X8244000Y3826500D01*
X8242856Y3803221D01*
X8239437Y3780166D01*
X8233773Y3757557D01*
X8225921Y3735613D01*
X8215956Y3714543D01*
X8203974Y3694552D01*
X8190090Y3675832D01*
X8174438Y3658562D01*
X8157168Y3642910D01*
X8138448Y3629026D01*
X8118457Y3617044D01*
X8097387Y3607079D01*
X8075443Y3599227D01*
X8052834Y3593563D01*
X8029779Y3590144D01*
X8006500Y3589000D01*
X7431500Y3589000D01*
X7408221Y3590144D01*
X7385166Y3593563D01*
X7362557Y3599227D01*
X7340613Y3607079D01*
X7319543Y3617044D01*
X7299552Y3629026D01*
X7280832Y3642910D01*
X7263562Y3658562D01*
X7247910Y3675832D01*
X7234026Y3694552D01*
X7222044Y3714543D01*
X7212079Y3735613D01*
X7204227Y3757557D01*
X7198563Y3780166D01*
X7195144Y3803221D01*
X7194000Y3826500D01*
X7194000Y4301500D01*
X7195144Y4324779D01*
X7198563Y4347834D01*
X7204227Y4370443D01*
X7212079Y4392387D01*
X7222044Y4413457D01*
X7234026Y4433448D01*
X7247910Y4452168D01*
X7263562Y4469438D01*
X7280832Y4485090D01*
X7299552Y4498974D01*
X7319543Y4510956D01*
X7340613Y4520921D01*
X7362557Y4528773D01*
X7385166Y4534437D01*
X7408221Y4537856D01*
X7431500Y4539000D01*
X8006500Y4539000D01*
X8029779Y4537856D01*
X8029779Y4537856D01*
G37*
D17*
G04 #@! TD*
G04 #@! TO.P,R6,2*
G04 #@! TO.N,3V3*
X7719000Y4064000D03*
D14*
G04 #@! TO.N,Net-(R6-Pad1)*
G04 #@! TO.C,R6*
G36*
X6279779Y4537856D02*
X6302834Y4534437D01*
X6325443Y4528773D01*
X6347387Y4520921D01*
X6368457Y4510956D01*
X6388448Y4498974D01*
X6407168Y4485090D01*
X6424438Y4469438D01*
X6440090Y4452168D01*
X6453974Y4433448D01*
X6465956Y4413457D01*
X6475921Y4392387D01*
X6483773Y4370443D01*
X6489437Y4347834D01*
X6492856Y4324779D01*
X6494000Y4301500D01*
X6494000Y3826500D01*
X6492856Y3803221D01*
X6489437Y3780166D01*
X6483773Y3757557D01*
X6475921Y3735613D01*
X6465956Y3714543D01*
X6453974Y3694552D01*
X6440090Y3675832D01*
X6424438Y3658562D01*
X6407168Y3642910D01*
X6388448Y3629026D01*
X6368457Y3617044D01*
X6347387Y3607079D01*
X6325443Y3599227D01*
X6302834Y3593563D01*
X6279779Y3590144D01*
X6256500Y3589000D01*
X5681500Y3589000D01*
X5658221Y3590144D01*
X5635166Y3593563D01*
X5612557Y3599227D01*
X5590613Y3607079D01*
X5569543Y3617044D01*
X5549552Y3629026D01*
X5530832Y3642910D01*
X5513562Y3658562D01*
X5497910Y3675832D01*
X5484026Y3694552D01*
X5472044Y3714543D01*
X5462079Y3735613D01*
X5454227Y3757557D01*
X5448563Y3780166D01*
X5445144Y3803221D01*
X5444000Y3826500D01*
X5444000Y4301500D01*
X5445144Y4324779D01*
X5448563Y4347834D01*
X5454227Y4370443D01*
X5462079Y4392387D01*
X5472044Y4413457D01*
X5484026Y4433448D01*
X5497910Y4452168D01*
X5513562Y4469438D01*
X5530832Y4485090D01*
X5549552Y4498974D01*
X5569543Y4510956D01*
X5590613Y4520921D01*
X5612557Y4528773D01*
X5635166Y4534437D01*
X5658221Y4537856D01*
X5681500Y4539000D01*
X6256500Y4539000D01*
X6279779Y4537856D01*
X6279779Y4537856D01*
G37*
D17*
G04 #@! TD*
G04 #@! TO.P,R6,1*
G04 #@! TO.N,Net-(R6-Pad1)*
X5969000Y4064000D03*
D14*
G04 #@! TO.N,GND*
G04 #@! TO.C,R7*
G36*
X16905779Y14824856D02*
X16928834Y14821437D01*
X16951443Y14815773D01*
X16973387Y14807921D01*
X16994457Y14797956D01*
X17014448Y14785974D01*
X17033168Y14772090D01*
X17050438Y14756438D01*
X17066090Y14739168D01*
X17079974Y14720448D01*
X17091956Y14700457D01*
X17101921Y14679387D01*
X17109773Y14657443D01*
X17115437Y14634834D01*
X17118856Y14611779D01*
X17120000Y14588500D01*
X17120000Y14113500D01*
X17118856Y14090221D01*
X17115437Y14067166D01*
X17109773Y14044557D01*
X17101921Y14022613D01*
X17091956Y14001543D01*
X17079974Y13981552D01*
X17066090Y13962832D01*
X17050438Y13945562D01*
X17033168Y13929910D01*
X17014448Y13916026D01*
X16994457Y13904044D01*
X16973387Y13894079D01*
X16951443Y13886227D01*
X16928834Y13880563D01*
X16905779Y13877144D01*
X16882500Y13876000D01*
X16307500Y13876000D01*
X16284221Y13877144D01*
X16261166Y13880563D01*
X16238557Y13886227D01*
X16216613Y13894079D01*
X16195543Y13904044D01*
X16175552Y13916026D01*
X16156832Y13929910D01*
X16139562Y13945562D01*
X16123910Y13962832D01*
X16110026Y13981552D01*
X16098044Y14001543D01*
X16088079Y14022613D01*
X16080227Y14044557D01*
X16074563Y14067166D01*
X16071144Y14090221D01*
X16070000Y14113500D01*
X16070000Y14588500D01*
X16071144Y14611779D01*
X16074563Y14634834D01*
X16080227Y14657443D01*
X16088079Y14679387D01*
X16098044Y14700457D01*
X16110026Y14720448D01*
X16123910Y14739168D01*
X16139562Y14756438D01*
X16156832Y14772090D01*
X16175552Y14785974D01*
X16195543Y14797956D01*
X16216613Y14807921D01*
X16238557Y14815773D01*
X16261166Y14821437D01*
X16284221Y14824856D01*
X16307500Y14826000D01*
X16882500Y14826000D01*
X16905779Y14824856D01*
X16905779Y14824856D01*
G37*
D17*
G04 #@! TD*
G04 #@! TO.P,R7,1*
G04 #@! TO.N,GND*
X16595000Y14351000D03*
D14*
G04 #@! TO.N,Net-(R7-Pad2)*
G04 #@! TO.C,R7*
G36*
X15155779Y14824856D02*
X15178834Y14821437D01*
X15201443Y14815773D01*
X15223387Y14807921D01*
X15244457Y14797956D01*
X15264448Y14785974D01*
X15283168Y14772090D01*
X15300438Y14756438D01*
X15316090Y14739168D01*
X15329974Y14720448D01*
X15341956Y14700457D01*
X15351921Y14679387D01*
X15359773Y14657443D01*
X15365437Y14634834D01*
X15368856Y14611779D01*
X15370000Y14588500D01*
X15370000Y14113500D01*
X15368856Y14090221D01*
X15365437Y14067166D01*
X15359773Y14044557D01*
X15351921Y14022613D01*
X15341956Y14001543D01*
X15329974Y13981552D01*
X15316090Y13962832D01*
X15300438Y13945562D01*
X15283168Y13929910D01*
X15264448Y13916026D01*
X15244457Y13904044D01*
X15223387Y13894079D01*
X15201443Y13886227D01*
X15178834Y13880563D01*
X15155779Y13877144D01*
X15132500Y13876000D01*
X14557500Y13876000D01*
X14534221Y13877144D01*
X14511166Y13880563D01*
X14488557Y13886227D01*
X14466613Y13894079D01*
X14445543Y13904044D01*
X14425552Y13916026D01*
X14406832Y13929910D01*
X14389562Y13945562D01*
X14373910Y13962832D01*
X14360026Y13981552D01*
X14348044Y14001543D01*
X14338079Y14022613D01*
X14330227Y14044557D01*
X14324563Y14067166D01*
X14321144Y14090221D01*
X14320000Y14113500D01*
X14320000Y14588500D01*
X14321144Y14611779D01*
X14324563Y14634834D01*
X14330227Y14657443D01*
X14338079Y14679387D01*
X14348044Y14700457D01*
X14360026Y14720448D01*
X14373910Y14739168D01*
X14389562Y14756438D01*
X14406832Y14772090D01*
X14425552Y14785974D01*
X14445543Y14797956D01*
X14466613Y14807921D01*
X14488557Y14815773D01*
X14511166Y14821437D01*
X14534221Y14824856D01*
X14557500Y14826000D01*
X15132500Y14826000D01*
X15155779Y14824856D01*
X15155779Y14824856D01*
G37*
D17*
G04 #@! TD*
G04 #@! TO.P,R7,2*
G04 #@! TO.N,Net-(R7-Pad2)*
X14845000Y14351000D03*
D14*
G04 #@! TO.N,Net-(BT1-Pad1)*
G04 #@! TO.C,BT1*
G36*
X47844505Y8513796D02*
X47868773Y8510196D01*
X47892572Y8504235D01*
X47915671Y8495970D01*
X47937850Y8485480D01*
X47958893Y8472868D01*
X47978599Y8458253D01*
X47996777Y8441777D01*
X48013253Y8423599D01*
X48027868Y8403893D01*
X48040480Y8382850D01*
X48050970Y8360671D01*
X48059235Y8337572D01*
X48065196Y8313773D01*
X48068796Y8289505D01*
X48070000Y8265001D01*
X48070000Y7564999D01*
X48068796Y7540495D01*
X48065196Y7516227D01*
X48059235Y7492428D01*
X48050970Y7469329D01*
X48040480Y7447150D01*
X48027868Y7426107D01*
X48013253Y7406401D01*
X47996777Y7388223D01*
X47978599Y7371747D01*
X47958893Y7357132D01*
X47937850Y7344520D01*
X47915671Y7334030D01*
X47892572Y7325765D01*
X47868773Y7319804D01*
X47844505Y7316204D01*
X47820001Y7315000D01*
X46569999Y7315000D01*
X46545495Y7316204D01*
X46521227Y7319804D01*
X46497428Y7325765D01*
X46474329Y7334030D01*
X46452150Y7344520D01*
X46431107Y7357132D01*
X46411401Y7371747D01*
X46393223Y7388223D01*
X46376747Y7406401D01*
X46362132Y7426107D01*
X46349520Y7447150D01*
X46339030Y7469329D01*
X46330765Y7492428D01*
X46324804Y7516227D01*
X46321204Y7540495D01*
X46320000Y7564999D01*
X46320000Y8265001D01*
X46321204Y8289505D01*
X46324804Y8313773D01*
X46330765Y8337572D01*
X46339030Y8360671D01*
X46349520Y8382850D01*
X46362132Y8403893D01*
X46376747Y8423599D01*
X46393223Y8441777D01*
X46411401Y8458253D01*
X46431107Y8472868D01*
X46452150Y8485480D01*
X46474329Y8495970D01*
X46497428Y8504235D01*
X46521227Y8510196D01*
X46545495Y8513796D01*
X46569999Y8515000D01*
X47820001Y8515000D01*
X47844505Y8513796D01*
X47844505Y8513796D01*
G37*
D20*
G04 #@! TD*
G04 #@! TO.P,BT1,1*
G04 #@! TO.N,Net-(BT1-Pad1)*
X47195000Y7915000D03*
D21*
G04 #@! TO.P,BT1,2*
G04 #@! TO.N,Net-(BT1-Pad2)*
X47195000Y9915000D03*
G04 #@! TD*
D22*
G04 #@! TO.P,U2,3*
G04 #@! TO.N,Net-(BT1-Pad2)*
X47195000Y11915000D03*
G04 #@! TO.P,U2,2*
G04 #@! TO.N,Net-(C4-Pad1)*
X48145000Y14915000D03*
G04 #@! TO.P,U2,1*
G04 #@! TO.N,GND*
X46245000Y14915000D03*
G04 #@! TD*
G04 #@! TO.P,U3,1*
G04 #@! TO.N,GND*
X29921000Y1572000D03*
G04 #@! TO.P,U3,2*
G04 #@! TO.N,3V3*
X28021000Y1572000D03*
G04 #@! TO.P,U3,3*
G04 #@! TO.N,+5V*
X28971000Y4572000D03*
G04 #@! TD*
D14*
G04 #@! TO.N,Net-(C4-Pad1)*
G04 #@! TO.C,R8*
G36*
X50169505Y7538796D02*
X50193773Y7535196D01*
X50217572Y7529235D01*
X50240671Y7520970D01*
X50262850Y7510480D01*
X50283893Y7497868D01*
X50303599Y7483253D01*
X50321777Y7466777D01*
X50338253Y7448599D01*
X50352868Y7428893D01*
X50365480Y7407850D01*
X50375970Y7385671D01*
X50384235Y7362572D01*
X50390196Y7338773D01*
X50393796Y7314505D01*
X50395000Y7290001D01*
X50395000Y6639999D01*
X50393796Y6615495D01*
X50390196Y6591227D01*
X50384235Y6567428D01*
X50375970Y6544329D01*
X50365480Y6522150D01*
X50352868Y6501107D01*
X50338253Y6481401D01*
X50321777Y6463223D01*
X50303599Y6446747D01*
X50283893Y6432132D01*
X50262850Y6419520D01*
X50240671Y6409030D01*
X50217572Y6400765D01*
X50193773Y6394804D01*
X50169505Y6391204D01*
X50145001Y6390000D01*
X49244999Y6390000D01*
X49220495Y6391204D01*
X49196227Y6394804D01*
X49172428Y6400765D01*
X49149329Y6409030D01*
X49127150Y6419520D01*
X49106107Y6432132D01*
X49086401Y6446747D01*
X49068223Y6463223D01*
X49051747Y6481401D01*
X49037132Y6501107D01*
X49024520Y6522150D01*
X49014030Y6544329D01*
X49005765Y6567428D01*
X48999804Y6591227D01*
X48996204Y6615495D01*
X48995000Y6639999D01*
X48995000Y7290001D01*
X48996204Y7314505D01*
X48999804Y7338773D01*
X49005765Y7362572D01*
X49014030Y7385671D01*
X49024520Y7407850D01*
X49037132Y7428893D01*
X49051747Y7448599D01*
X49068223Y7466777D01*
X49086401Y7483253D01*
X49106107Y7497868D01*
X49127150Y7510480D01*
X49149329Y7520970D01*
X49172428Y7529235D01*
X49196227Y7535196D01*
X49220495Y7538796D01*
X49244999Y7540000D01*
X50145001Y7540000D01*
X50169505Y7538796D01*
X50169505Y7538796D01*
G37*
D15*
G04 #@! TD*
G04 #@! TO.P,R8,1*
G04 #@! TO.N,Net-(C4-Pad1)*
X49695000Y6965000D03*
D14*
G04 #@! TO.N,Net-(BT1-Pad1)*
G04 #@! TO.C,R8*
G36*
X50169505Y5488796D02*
X50193773Y5485196D01*
X50217572Y5479235D01*
X50240671Y5470970D01*
X50262850Y5460480D01*
X50283893Y5447868D01*
X50303599Y5433253D01*
X50321777Y5416777D01*
X50338253Y5398599D01*
X50352868Y5378893D01*
X50365480Y5357850D01*
X50375970Y5335671D01*
X50384235Y5312572D01*
X50390196Y5288773D01*
X50393796Y5264505D01*
X50395000Y5240001D01*
X50395000Y4589999D01*
X50393796Y4565495D01*
X50390196Y4541227D01*
X50384235Y4517428D01*
X50375970Y4494329D01*
X50365480Y4472150D01*
X50352868Y4451107D01*
X50338253Y4431401D01*
X50321777Y4413223D01*
X50303599Y4396747D01*
X50283893Y4382132D01*
X50262850Y4369520D01*
X50240671Y4359030D01*
X50217572Y4350765D01*
X50193773Y4344804D01*
X50169505Y4341204D01*
X50145001Y4340000D01*
X49244999Y4340000D01*
X49220495Y4341204D01*
X49196227Y4344804D01*
X49172428Y4350765D01*
X49149329Y4359030D01*
X49127150Y4369520D01*
X49106107Y4382132D01*
X49086401Y4396747D01*
X49068223Y4413223D01*
X49051747Y4431401D01*
X49037132Y4451107D01*
X49024520Y4472150D01*
X49014030Y4494329D01*
X49005765Y4517428D01*
X48999804Y4541227D01*
X48996204Y4565495D01*
X48995000Y4589999D01*
X48995000Y5240001D01*
X48996204Y5264505D01*
X48999804Y5288773D01*
X49005765Y5312572D01*
X49014030Y5335671D01*
X49024520Y5357850D01*
X49037132Y5378893D01*
X49051747Y5398599D01*
X49068223Y5416777D01*
X49086401Y5433253D01*
X49106107Y5447868D01*
X49127150Y5460480D01*
X49149329Y5470970D01*
X49172428Y5479235D01*
X49196227Y5485196D01*
X49220495Y5488796D01*
X49244999Y5490000D01*
X50145001Y5490000D01*
X50169505Y5488796D01*
X50169505Y5488796D01*
G37*
D15*
G04 #@! TD*
G04 #@! TO.P,R8,2*
G04 #@! TO.N,Net-(BT1-Pad1)*
X49695000Y4915000D03*
D23*
G04 #@! TO.P,JP1,2*
G04 #@! TO.N,Net-(JP1-Pad2)*
X43445000Y12125000D03*
D24*
G04 #@! TO.P,JP1,1*
G04 #@! TO.N,GND*
X43445000Y14665000D03*
G04 #@! TD*
D25*
G04 #@! TO.P,J1,4*
G04 #@! TO.N,SDA*
X30988000Y15240000D03*
G04 #@! TO.P,J1,3*
G04 #@! TO.N,SCL*
X33528000Y15240000D03*
G04 #@! TO.P,J1,2*
G04 #@! TO.N,GND*
X36068000Y15240000D03*
G04 #@! TO.P,J1,1*
G04 #@! TO.N,3V3*
X38608000Y15240000D03*
G04 #@! TD*
D14*
G04 #@! TO.N,GND*
G04 #@! TO.C,C2*
G36*
X32478505Y3476796D02*
X32502773Y3473196D01*
X32526572Y3467235D01*
X32549671Y3458970D01*
X32571850Y3448480D01*
X32592893Y3435868D01*
X32612599Y3421253D01*
X32630777Y3404777D01*
X32647253Y3386599D01*
X32661868Y3366893D01*
X32674480Y3345850D01*
X32684970Y3323671D01*
X32693235Y3300572D01*
X32699196Y3276773D01*
X32702796Y3252505D01*
X32704000Y3228001D01*
X32704000Y2577999D01*
X32702796Y2553495D01*
X32699196Y2529227D01*
X32693235Y2505428D01*
X32684970Y2482329D01*
X32674480Y2460150D01*
X32661868Y2439107D01*
X32647253Y2419401D01*
X32630777Y2401223D01*
X32612599Y2384747D01*
X32592893Y2370132D01*
X32571850Y2357520D01*
X32549671Y2347030D01*
X32526572Y2338765D01*
X32502773Y2332804D01*
X32478505Y2329204D01*
X32454001Y2328000D01*
X31553999Y2328000D01*
X31529495Y2329204D01*
X31505227Y2332804D01*
X31481428Y2338765D01*
X31458329Y2347030D01*
X31436150Y2357520D01*
X31415107Y2370132D01*
X31395401Y2384747D01*
X31377223Y2401223D01*
X31360747Y2419401D01*
X31346132Y2439107D01*
X31333520Y2460150D01*
X31323030Y2482329D01*
X31314765Y2505428D01*
X31308804Y2529227D01*
X31305204Y2553495D01*
X31304000Y2577999D01*
X31304000Y3228001D01*
X31305204Y3252505D01*
X31308804Y3276773D01*
X31314765Y3300572D01*
X31323030Y3323671D01*
X31333520Y3345850D01*
X31346132Y3366893D01*
X31360747Y3386599D01*
X31377223Y3404777D01*
X31395401Y3421253D01*
X31415107Y3435868D01*
X31436150Y3448480D01*
X31458329Y3458970D01*
X31481428Y3467235D01*
X31505227Y3473196D01*
X31529495Y3476796D01*
X31553999Y3478000D01*
X32454001Y3478000D01*
X32478505Y3476796D01*
X32478505Y3476796D01*
G37*
D15*
G04 #@! TD*
G04 #@! TO.P,C2,2*
G04 #@! TO.N,GND*
X32004000Y2903000D03*
D14*
G04 #@! TO.N,+5V*
G04 #@! TO.C,C2*
G36*
X32478505Y5526796D02*
X32502773Y5523196D01*
X32526572Y5517235D01*
X32549671Y5508970D01*
X32571850Y5498480D01*
X32592893Y5485868D01*
X32612599Y5471253D01*
X32630777Y5454777D01*
X32647253Y5436599D01*
X32661868Y5416893D01*
X32674480Y5395850D01*
X32684970Y5373671D01*
X32693235Y5350572D01*
X32699196Y5326773D01*
X32702796Y5302505D01*
X32704000Y5278001D01*
X32704000Y4627999D01*
X32702796Y4603495D01*
X32699196Y4579227D01*
X32693235Y4555428D01*
X32684970Y4532329D01*
X32674480Y4510150D01*
X32661868Y4489107D01*
X32647253Y4469401D01*
X32630777Y4451223D01*
X32612599Y4434747D01*
X32592893Y4420132D01*
X32571850Y4407520D01*
X32549671Y4397030D01*
X32526572Y4388765D01*
X32502773Y4382804D01*
X32478505Y4379204D01*
X32454001Y4378000D01*
X31553999Y4378000D01*
X31529495Y4379204D01*
X31505227Y4382804D01*
X31481428Y4388765D01*
X31458329Y4397030D01*
X31436150Y4407520D01*
X31415107Y4420132D01*
X31395401Y4434747D01*
X31377223Y4451223D01*
X31360747Y4469401D01*
X31346132Y4489107D01*
X31333520Y4510150D01*
X31323030Y4532329D01*
X31314765Y4555428D01*
X31308804Y4579227D01*
X31305204Y4603495D01*
X31304000Y4627999D01*
X31304000Y5278001D01*
X31305204Y5302505D01*
X31308804Y5326773D01*
X31314765Y5350572D01*
X31323030Y5373671D01*
X31333520Y5395850D01*
X31346132Y5416893D01*
X31360747Y5436599D01*
X31377223Y5454777D01*
X31395401Y5471253D01*
X31415107Y5485868D01*
X31436150Y5498480D01*
X31458329Y5508970D01*
X31481428Y5517235D01*
X31505227Y5523196D01*
X31529495Y5526796D01*
X31553999Y5528000D01*
X32454001Y5528000D01*
X32478505Y5526796D01*
X32478505Y5526796D01*
G37*
D15*
G04 #@! TD*
G04 #@! TO.P,C2,1*
G04 #@! TO.N,+5V*
X32004000Y4953000D03*
D14*
G04 #@! TO.N,3V3*
G04 #@! TO.C,C3*
G36*
X21419505Y2238796D02*
X21443773Y2235196D01*
X21467572Y2229235D01*
X21490671Y2220970D01*
X21512850Y2210480D01*
X21533893Y2197868D01*
X21553599Y2183253D01*
X21571777Y2166777D01*
X21588253Y2148599D01*
X21602868Y2128893D01*
X21615480Y2107850D01*
X21625970Y2085671D01*
X21634235Y2062572D01*
X21640196Y2038773D01*
X21643796Y2014505D01*
X21645000Y1990001D01*
X21645000Y1339999D01*
X21643796Y1315495D01*
X21640196Y1291227D01*
X21634235Y1267428D01*
X21625970Y1244329D01*
X21615480Y1222150D01*
X21602868Y1201107D01*
X21588253Y1181401D01*
X21571777Y1163223D01*
X21553599Y1146747D01*
X21533893Y1132132D01*
X21512850Y1119520D01*
X21490671Y1109030D01*
X21467572Y1100765D01*
X21443773Y1094804D01*
X21419505Y1091204D01*
X21395001Y1090000D01*
X20494999Y1090000D01*
X20470495Y1091204D01*
X20446227Y1094804D01*
X20422428Y1100765D01*
X20399329Y1109030D01*
X20377150Y1119520D01*
X20356107Y1132132D01*
X20336401Y1146747D01*
X20318223Y1163223D01*
X20301747Y1181401D01*
X20287132Y1201107D01*
X20274520Y1222150D01*
X20264030Y1244329D01*
X20255765Y1267428D01*
X20249804Y1291227D01*
X20246204Y1315495D01*
X20245000Y1339999D01*
X20245000Y1990001D01*
X20246204Y2014505D01*
X20249804Y2038773D01*
X20255765Y2062572D01*
X20264030Y2085671D01*
X20274520Y2107850D01*
X20287132Y2128893D01*
X20301747Y2148599D01*
X20318223Y2166777D01*
X20336401Y2183253D01*
X20356107Y2197868D01*
X20377150Y2210480D01*
X20399329Y2220970D01*
X20422428Y2229235D01*
X20446227Y2235196D01*
X20470495Y2238796D01*
X20494999Y2240000D01*
X21395001Y2240000D01*
X21419505Y2238796D01*
X21419505Y2238796D01*
G37*
D15*
G04 #@! TD*
G04 #@! TO.P,C3,1*
G04 #@! TO.N,3V3*
X20945000Y1665000D03*
D14*
G04 #@! TO.N,GND*
G04 #@! TO.C,C3*
G36*
X21419505Y4288796D02*
X21443773Y4285196D01*
X21467572Y4279235D01*
X21490671Y4270970D01*
X21512850Y4260480D01*
X21533893Y4247868D01*
X21553599Y4233253D01*
X21571777Y4216777D01*
X21588253Y4198599D01*
X21602868Y4178893D01*
X21615480Y4157850D01*
X21625970Y4135671D01*
X21634235Y4112572D01*
X21640196Y4088773D01*
X21643796Y4064505D01*
X21645000Y4040001D01*
X21645000Y3389999D01*
X21643796Y3365495D01*
X21640196Y3341227D01*
X21634235Y3317428D01*
X21625970Y3294329D01*
X21615480Y3272150D01*
X21602868Y3251107D01*
X21588253Y3231401D01*
X21571777Y3213223D01*
X21553599Y3196747D01*
X21533893Y3182132D01*
X21512850Y3169520D01*
X21490671Y3159030D01*
X21467572Y3150765D01*
X21443773Y3144804D01*
X21419505Y3141204D01*
X21395001Y3140000D01*
X20494999Y3140000D01*
X20470495Y3141204D01*
X20446227Y3144804D01*
X20422428Y3150765D01*
X20399329Y3159030D01*
X20377150Y3169520D01*
X20356107Y3182132D01*
X20336401Y3196747D01*
X20318223Y3213223D01*
X20301747Y3231401D01*
X20287132Y3251107D01*
X20274520Y3272150D01*
X20264030Y3294329D01*
X20255765Y3317428D01*
X20249804Y3341227D01*
X20246204Y3365495D01*
X20245000Y3389999D01*
X20245000Y4040001D01*
X20246204Y4064505D01*
X20249804Y4088773D01*
X20255765Y4112572D01*
X20264030Y4135671D01*
X20274520Y4157850D01*
X20287132Y4178893D01*
X20301747Y4198599D01*
X20318223Y4216777D01*
X20336401Y4233253D01*
X20356107Y4247868D01*
X20377150Y4260480D01*
X20399329Y4270970D01*
X20422428Y4279235D01*
X20446227Y4285196D01*
X20470495Y4288796D01*
X20494999Y4290000D01*
X21395001Y4290000D01*
X21419505Y4288796D01*
X21419505Y4288796D01*
G37*
D15*
G04 #@! TD*
G04 #@! TO.P,C3,2*
G04 #@! TO.N,GND*
X20945000Y3715000D03*
D14*
G04 #@! TO.N,+5V*
G04 #@! TO.C,R1*
G36*
X38955505Y8447796D02*
X38979773Y8444196D01*
X39003572Y8438235D01*
X39026671Y8429970D01*
X39048850Y8419480D01*
X39069893Y8406868D01*
X39089599Y8392253D01*
X39107777Y8375777D01*
X39124253Y8357599D01*
X39138868Y8337893D01*
X39151480Y8316850D01*
X39161970Y8294671D01*
X39170235Y8271572D01*
X39176196Y8247773D01*
X39179796Y8223505D01*
X39181000Y8199001D01*
X39181000Y7548999D01*
X39179796Y7524495D01*
X39176196Y7500227D01*
X39170235Y7476428D01*
X39161970Y7453329D01*
X39151480Y7431150D01*
X39138868Y7410107D01*
X39124253Y7390401D01*
X39107777Y7372223D01*
X39089599Y7355747D01*
X39069893Y7341132D01*
X39048850Y7328520D01*
X39026671Y7318030D01*
X39003572Y7309765D01*
X38979773Y7303804D01*
X38955505Y7300204D01*
X38931001Y7299000D01*
X38030999Y7299000D01*
X38006495Y7300204D01*
X37982227Y7303804D01*
X37958428Y7309765D01*
X37935329Y7318030D01*
X37913150Y7328520D01*
X37892107Y7341132D01*
X37872401Y7355747D01*
X37854223Y7372223D01*
X37837747Y7390401D01*
X37823132Y7410107D01*
X37810520Y7431150D01*
X37800030Y7453329D01*
X37791765Y7476428D01*
X37785804Y7500227D01*
X37782204Y7524495D01*
X37781000Y7548999D01*
X37781000Y8199001D01*
X37782204Y8223505D01*
X37785804Y8247773D01*
X37791765Y8271572D01*
X37800030Y8294671D01*
X37810520Y8316850D01*
X37823132Y8337893D01*
X37837747Y8357599D01*
X37854223Y8375777D01*
X37872401Y8392253D01*
X37892107Y8406868D01*
X37913150Y8419480D01*
X37935329Y8429970D01*
X37958428Y8438235D01*
X37982227Y8444196D01*
X38006495Y8447796D01*
X38030999Y8449000D01*
X38931001Y8449000D01*
X38955505Y8447796D01*
X38955505Y8447796D01*
G37*
D15*
G04 #@! TD*
G04 #@! TO.P,R1,2*
G04 #@! TO.N,+5V*
X38481000Y7874000D03*
D14*
G04 #@! TO.N,ADC*
G04 #@! TO.C,R1*
G36*
X38955505Y6397796D02*
X38979773Y6394196D01*
X39003572Y6388235D01*
X39026671Y6379970D01*
X39048850Y6369480D01*
X39069893Y6356868D01*
X39089599Y6342253D01*
X39107777Y6325777D01*
X39124253Y6307599D01*
X39138868Y6287893D01*
X39151480Y6266850D01*
X39161970Y6244671D01*
X39170235Y6221572D01*
X39176196Y6197773D01*
X39179796Y6173505D01*
X39181000Y6149001D01*
X39181000Y5498999D01*
X39179796Y5474495D01*
X39176196Y5450227D01*
X39170235Y5426428D01*
X39161970Y5403329D01*
X39151480Y5381150D01*
X39138868Y5360107D01*
X39124253Y5340401D01*
X39107777Y5322223D01*
X39089599Y5305747D01*
X39069893Y5291132D01*
X39048850Y5278520D01*
X39026671Y5268030D01*
X39003572Y5259765D01*
X38979773Y5253804D01*
X38955505Y5250204D01*
X38931001Y5249000D01*
X38030999Y5249000D01*
X38006495Y5250204D01*
X37982227Y5253804D01*
X37958428Y5259765D01*
X37935329Y5268030D01*
X37913150Y5278520D01*
X37892107Y5291132D01*
X37872401Y5305747D01*
X37854223Y5322223D01*
X37837747Y5340401D01*
X37823132Y5360107D01*
X37810520Y5381150D01*
X37800030Y5403329D01*
X37791765Y5426428D01*
X37785804Y5450227D01*
X37782204Y5474495D01*
X37781000Y5498999D01*
X37781000Y6149001D01*
X37782204Y6173505D01*
X37785804Y6197773D01*
X37791765Y6221572D01*
X37800030Y6244671D01*
X37810520Y6266850D01*
X37823132Y6287893D01*
X37837747Y6307599D01*
X37854223Y6325777D01*
X37872401Y6342253D01*
X37892107Y6356868D01*
X37913150Y6369480D01*
X37935329Y6379970D01*
X37958428Y6388235D01*
X37982227Y6394196D01*
X38006495Y6397796D01*
X38030999Y6399000D01*
X38931001Y6399000D01*
X38955505Y6397796D01*
X38955505Y6397796D01*
G37*
D15*
G04 #@! TD*
G04 #@! TO.P,R1,1*
G04 #@! TO.N,ADC*
X38481000Y5824000D03*
D14*
G04 #@! TO.N,GND*
G04 #@! TO.C,R2*
G36*
X38955505Y2478796D02*
X38979773Y2475196D01*
X39003572Y2469235D01*
X39026671Y2460970D01*
X39048850Y2450480D01*
X39069893Y2437868D01*
X39089599Y2423253D01*
X39107777Y2406777D01*
X39124253Y2388599D01*
X39138868Y2368893D01*
X39151480Y2347850D01*
X39161970Y2325671D01*
X39170235Y2302572D01*
X39176196Y2278773D01*
X39179796Y2254505D01*
X39181000Y2230001D01*
X39181000Y1579999D01*
X39179796Y1555495D01*
X39176196Y1531227D01*
X39170235Y1507428D01*
X39161970Y1484329D01*
X39151480Y1462150D01*
X39138868Y1441107D01*
X39124253Y1421401D01*
X39107777Y1403223D01*
X39089599Y1386747D01*
X39069893Y1372132D01*
X39048850Y1359520D01*
X39026671Y1349030D01*
X39003572Y1340765D01*
X38979773Y1334804D01*
X38955505Y1331204D01*
X38931001Y1330000D01*
X38030999Y1330000D01*
X38006495Y1331204D01*
X37982227Y1334804D01*
X37958428Y1340765D01*
X37935329Y1349030D01*
X37913150Y1359520D01*
X37892107Y1372132D01*
X37872401Y1386747D01*
X37854223Y1403223D01*
X37837747Y1421401D01*
X37823132Y1441107D01*
X37810520Y1462150D01*
X37800030Y1484329D01*
X37791765Y1507428D01*
X37785804Y1531227D01*
X37782204Y1555495D01*
X37781000Y1579999D01*
X37781000Y2230001D01*
X37782204Y2254505D01*
X37785804Y2278773D01*
X37791765Y2302572D01*
X37800030Y2325671D01*
X37810520Y2347850D01*
X37823132Y2368893D01*
X37837747Y2388599D01*
X37854223Y2406777D01*
X37872401Y2423253D01*
X37892107Y2437868D01*
X37913150Y2450480D01*
X37935329Y2460970D01*
X37958428Y2469235D01*
X37982227Y2475196D01*
X38006495Y2478796D01*
X38030999Y2480000D01*
X38931001Y2480000D01*
X38955505Y2478796D01*
X38955505Y2478796D01*
G37*
D15*
G04 #@! TD*
G04 #@! TO.P,R2,1*
G04 #@! TO.N,GND*
X38481000Y1905000D03*
D14*
G04 #@! TO.N,ADC*
G04 #@! TO.C,R2*
G36*
X38955505Y4528796D02*
X38979773Y4525196D01*
X39003572Y4519235D01*
X39026671Y4510970D01*
X39048850Y4500480D01*
X39069893Y4487868D01*
X39089599Y4473253D01*
X39107777Y4456777D01*
X39124253Y4438599D01*
X39138868Y4418893D01*
X39151480Y4397850D01*
X39161970Y4375671D01*
X39170235Y4352572D01*
X39176196Y4328773D01*
X39179796Y4304505D01*
X39181000Y4280001D01*
X39181000Y3629999D01*
X39179796Y3605495D01*
X39176196Y3581227D01*
X39170235Y3557428D01*
X39161970Y3534329D01*
X39151480Y3512150D01*
X39138868Y3491107D01*
X39124253Y3471401D01*
X39107777Y3453223D01*
X39089599Y3436747D01*
X39069893Y3422132D01*
X39048850Y3409520D01*
X39026671Y3399030D01*
X39003572Y3390765D01*
X38979773Y3384804D01*
X38955505Y3381204D01*
X38931001Y3380000D01*
X38030999Y3380000D01*
X38006495Y3381204D01*
X37982227Y3384804D01*
X37958428Y3390765D01*
X37935329Y3399030D01*
X37913150Y3409520D01*
X37892107Y3422132D01*
X37872401Y3436747D01*
X37854223Y3453223D01*
X37837747Y3471401D01*
X37823132Y3491107D01*
X37810520Y3512150D01*
X37800030Y3534329D01*
X37791765Y3557428D01*
X37785804Y3581227D01*
X37782204Y3605495D01*
X37781000Y3629999D01*
X37781000Y4280001D01*
X37782204Y4304505D01*
X37785804Y4328773D01*
X37791765Y4352572D01*
X37800030Y4375671D01*
X37810520Y4397850D01*
X37823132Y4418893D01*
X37837747Y4438599D01*
X37854223Y4456777D01*
X37872401Y4473253D01*
X37892107Y4487868D01*
X37913150Y4500480D01*
X37935329Y4510970D01*
X37958428Y4519235D01*
X37982227Y4525196D01*
X38006495Y4528796D01*
X38030999Y4530000D01*
X38931001Y4530000D01*
X38955505Y4528796D01*
X38955505Y4528796D01*
G37*
D15*
G04 #@! TD*
G04 #@! TO.P,R2,2*
G04 #@! TO.N,ADC*
X38481000Y3955000D03*
D26*
G04 #@! TO.P,U1,1*
G04 #@! TO.N,Net-(R3-Pad2)*
X2692000Y1086000D03*
D27*
G04 #@! TO.P,U1,2*
G04 #@! TO.N,ADC*
X4692000Y1086000D03*
G04 #@! TO.P,U1,3*
G04 #@! TO.N,Net-(R6-Pad1)*
X6692000Y1086000D03*
G04 #@! TO.P,U1,4*
G04 #@! TO.N,Net-(R3-Pad1)*
X8692000Y1086000D03*
G04 #@! TO.P,U1,5*
G04 #@! TO.N,Net-(JP1-Pad2)*
X10692000Y1086000D03*
G04 #@! TO.P,U1,6*
G04 #@! TO.N,Net-(U1-Pad6)*
X12692000Y1086000D03*
G04 #@! TO.P,U1,7*
G04 #@! TO.N,Net-(U1-Pad7)*
X14692000Y1086000D03*
G04 #@! TO.P,U1,8*
G04 #@! TO.N,3V3*
X16692000Y1086000D03*
G04 #@! TO.P,U1,9*
G04 #@! TO.N,GND*
X16692000Y16486000D03*
G04 #@! TO.P,U1,10*
G04 #@! TO.N,Net-(R7-Pad2)*
X14692000Y16386000D03*
G04 #@! TO.P,U1,11*
G04 #@! TO.N,Net-(U1-Pad11)*
X12692000Y16486000D03*
G04 #@! TO.P,U1,12*
G04 #@! TO.N,Net-(R4-Pad1)*
X10692000Y16486000D03*
G04 #@! TO.P,U1,13*
G04 #@! TO.N,SDA*
X8692000Y16486000D03*
G04 #@! TO.P,U1,14*
G04 #@! TO.N,SCL*
X6692000Y16486000D03*
G04 #@! TO.P,U1,15*
G04 #@! TO.N,eRX*
X4692000Y16486000D03*
G04 #@! TO.P,U1,16*
G04 #@! TO.N,eTX*
X2692000Y16486000D03*
G04 #@! TD*
D28*
G04 #@! TO.P,SW1,3*
G04 #@! TO.N,N/C*
X41845000Y2665000D03*
G04 #@! TO.P,SW1,2*
G04 #@! TO.N,Net-(F1-Pad1)*
X45045000Y5165000D03*
G04 #@! TO.P,SW1,1*
G04 #@! TO.N,+5V*
X41845000Y7665000D03*
G04 #@! TD*
D29*
G04 #@! TO.N,GND*
X20955000Y5461000D03*
X23241000Y7493000D03*
X29083000Y8509000D03*
D30*
G04 #@! TO.N,3V3*
X23368000Y3556000D03*
X38195000Y13415000D03*
X15367000Y4953000D03*
X7493000Y5842000D03*
X1651000Y6604000D03*
G04 #@! TO.N,ADC*
X3937000Y3683000D03*
X35179000Y3683000D03*
G04 #@! TO.N,SCL*
X33401000Y13081000D03*
X6731000Y13589000D03*
G04 #@! TO.N,SDA*
X8692000Y13586000D03*
X29210000Y15240000D03*
G04 #@! TO.N,Net-(JP1-Pad2)*
X41695000Y10665000D03*
X10668000Y5969000D03*
G04 #@! TO.N,eTX*
X1651000Y14605000D03*
X13970000Y9144000D03*
G04 #@! TO.N,+5V*
X36695000Y7665000D03*
X29083000Y6477000D03*
G04 #@! TO.N,eRX*
X4318000Y13970000D03*
X16256000Y7874000D03*
G04 #@! TD*
D31*
G04 #@! TO.N,GND*
X24638000Y12357000D02*
X25158000Y12877000D01*
X24033000Y12357000D02*
X24638000Y12357000D01*
D32*
X20308000Y12877000D02*
X20308000Y14085000D01*
X21033000Y14810000D02*
X21033000Y16639990D01*
X20308000Y14085000D02*
X21033000Y14810000D01*
X18879000Y15786000D02*
X19108000Y15557000D01*
X16692000Y15786000D02*
X18879000Y15786000D01*
X24433000Y17107000D02*
X24433000Y15762500D01*
X24638500Y15557000D02*
X26358000Y15557000D01*
X24433000Y15762500D02*
X24638500Y15557000D01*
X19108000Y12877000D02*
X19108000Y15557000D01*
X20270000Y12877000D02*
X19108000Y12877000D01*
X26339000Y12877000D02*
X25158000Y12877000D01*
X26358000Y15557000D02*
X26358000Y12896000D01*
X26358000Y12896000D02*
X26339000Y12877000D01*
X25158000Y12877000D02*
X25158000Y13640500D01*
X24433000Y14365500D02*
X24433000Y16839990D01*
X25158000Y13640500D02*
X24433000Y14365500D01*
D33*
G04 #@! TO.N,3V3*
X38608000Y13828000D02*
X38608000Y15240000D01*
X38195000Y13415000D02*
X38608000Y13828000D01*
D32*
X18820000Y1790000D02*
X18695000Y1665000D01*
X16813000Y1665000D02*
X16692000Y1786000D01*
X18695000Y1665000D02*
X16813000Y1665000D01*
X18695000Y1665000D02*
X20945000Y1665000D01*
D33*
X15367000Y4953000D02*
X16692000Y3628000D01*
X16692000Y3628000D02*
X16692000Y1786000D01*
X7493000Y4445000D02*
X7874000Y4064000D01*
X7493000Y5842000D02*
X7493000Y4445000D01*
D31*
X1795000Y6748000D02*
X1651000Y6604000D01*
D33*
X1270000Y6985000D02*
X1270000Y8255000D01*
X1651000Y6604000D02*
X1270000Y6985000D01*
X1270000Y6223000D02*
X1270000Y5080000D01*
X1651000Y6604000D02*
X1270000Y6223000D01*
D32*
X27813000Y1651000D02*
X27940000Y1524000D01*
X20828000Y1651000D02*
X27813000Y1651000D01*
D31*
X23368000Y3556000D02*
X23368000Y1778000D01*
X23241000Y1651000D02*
X21082000Y1651000D01*
X23368000Y1778000D02*
X23241000Y1651000D01*
G04 #@! TO.N,ADC*
X38481000Y5824000D02*
X38481000Y3955000D01*
X36213000Y3955000D02*
X36195000Y3937000D01*
X38481000Y3955000D02*
X36213000Y3955000D01*
D33*
X4191000Y3683000D02*
X4692000Y3182000D01*
X4692000Y3182000D02*
X4692000Y1786000D01*
X35283000Y3787000D02*
X36195000Y3787000D01*
X35179000Y3683000D02*
X35283000Y3787000D01*
D31*
X4445000Y3556000D02*
X4318000Y3683000D01*
X4318000Y3683000D02*
X4191000Y3683000D01*
G04 #@! TO.N,SCL*
X33605000Y15675000D02*
X33615000Y15665000D01*
D33*
X6692000Y13628000D02*
X6692000Y15786000D01*
X6731000Y13589000D02*
X6692000Y13628000D01*
X33470000Y15240000D02*
X33528000Y15240000D01*
X33445000Y15215000D02*
X33470000Y15240000D01*
X33445000Y13125000D02*
X33445000Y15215000D01*
X33401000Y13081000D02*
X33445000Y13125000D01*
G04 #@! TO.N,SDA*
X29210000Y15240000D02*
X30988000Y15240000D01*
X8692000Y15786000D02*
X8692000Y13586000D01*
G04 #@! TO.N,Net-(JP1-Pad2)*
X41695000Y10665000D02*
X43155000Y12125000D01*
X43155000Y12125000D02*
X43445000Y12125000D01*
X10692000Y5945000D02*
X10692000Y1786000D01*
X10668000Y5969000D02*
X10692000Y5945000D01*
D32*
G04 #@! TO.N,Net-(BT1-Pad1)*
X47195000Y7915000D02*
X47195000Y5665000D01*
X47945000Y4915000D02*
X49695000Y4915000D01*
X47195000Y5665000D02*
X47945000Y4915000D01*
X44704000Y8890000D02*
X45212000Y8890000D01*
X46187000Y7915000D02*
X47195000Y7915000D01*
X45212000Y8890000D02*
X46187000Y7915000D01*
D31*
G04 #@! TO.N,Net-(R7-Pad2)*
X14692000Y14645000D02*
X14859000Y14478000D01*
X14692000Y15786000D02*
X14692000Y14645000D01*
D33*
G04 #@! TO.N,Net-(R3-Pad2)*
X5262000Y7348000D02*
X5625000Y6985000D01*
X3683000Y7348000D02*
X5262000Y7348000D01*
X1270000Y2921000D02*
X2405000Y1786000D01*
X1270000Y3429000D02*
X1270000Y2921000D01*
X2405000Y1786000D02*
X2692000Y1786000D01*
X1651000Y3429000D02*
X1270000Y3429000D01*
X3302000Y6985000D02*
X3302000Y5080000D01*
X3683000Y7366000D02*
X3302000Y6985000D01*
X3302000Y5080000D02*
X1651000Y3429000D01*
G04 #@! TO.N,Net-(R4-Pad1)*
X10692000Y13232000D02*
X10692000Y15786000D01*
X1397000Y10668000D02*
X2159000Y11430000D01*
X1397000Y10033000D02*
X1397000Y10668000D01*
X2159000Y11430000D02*
X8890000Y11430000D01*
X8890000Y11430000D02*
X10692000Y13232000D01*
G04 #@! TO.N,Net-(R3-Pad1)*
X7874000Y9525000D02*
X3683000Y9525000D01*
X8692000Y2723000D02*
X9017000Y3048000D01*
X9017000Y3048000D02*
X9017000Y8382000D01*
X8692000Y1786000D02*
X8692000Y2723000D01*
X9017000Y8382000D02*
X7874000Y9525000D01*
D32*
G04 #@! TO.N,Net-(C4-Pad1)*
X49695000Y6965000D02*
X49695000Y8665000D01*
X49695000Y8665000D02*
X50445000Y8665000D01*
X50445000Y8665000D02*
X51445000Y9665000D01*
X51445000Y11615000D02*
X48145000Y14915000D01*
X51445000Y9665000D02*
X51445000Y11615000D01*
G04 #@! TO.N,Net-(BT1-Pad2)*
X47995000Y10715000D02*
X47195000Y9915000D01*
X49695000Y10715000D02*
X47995000Y10715000D01*
X47195000Y10415000D02*
X47445000Y10165000D01*
X47195000Y11915000D02*
X47195000Y10415000D01*
G04 #@! TO.N,Net-(F1-Pad1)*
X45045000Y6517000D02*
X44704000Y6858000D01*
X45045000Y5165000D02*
X45045000Y6517000D01*
D33*
G04 #@! TO.N,eTX*
X13970000Y9144000D02*
X14605000Y9779000D01*
X14605000Y9779000D02*
X15603000Y9779000D01*
X1651000Y14605000D02*
X1651000Y14745000D01*
X1651000Y14745000D02*
X2692000Y15786000D01*
G04 #@! TO.N,Net-(R9-Pad2)*
X17907000Y9525000D02*
X17653000Y9779000D01*
X19873000Y9525000D02*
X17907000Y9525000D01*
D32*
G04 #@! TO.N,+5V*
X36695000Y7665000D02*
X41095000Y7665000D01*
X41095000Y7665000D02*
X41845000Y7665000D01*
X29083000Y6477000D02*
X29083000Y4572000D01*
X30480000Y6477000D02*
X32004000Y4953000D01*
X29083000Y6477000D02*
X30480000Y6477000D01*
X28463000Y5080000D02*
X28971000Y4572000D01*
X27689000Y5080000D02*
X28463000Y5080000D01*
D31*
G04 #@! TO.N,Net-(J2-Pad3)*
X22733000Y12357000D02*
X22733000Y10947000D01*
X22885000Y10795000D02*
X25273000Y10795000D01*
X22733000Y10947000D02*
X22885000Y10795000D01*
G04 #@! TO.N,Net-(J2-Pad2)*
X22083000Y10429000D02*
X22083000Y12357000D01*
X25273000Y9525000D02*
X22987000Y9525000D01*
X22987000Y9525000D02*
X22083000Y10429000D01*
D33*
G04 #@! TO.N,eRX*
X16637000Y8255000D02*
X19873000Y8255000D01*
X16256000Y7874000D02*
X16637000Y8255000D01*
X4318000Y13970000D02*
X4318000Y15412000D01*
X4318000Y15412000D02*
X4692000Y15786000D01*
D31*
G04 #@! TO.N,Net-(C5-Pad1)*
X18984000Y11684000D02*
X19873000Y10795000D01*
X17512000Y11684000D02*
X18984000Y11684000D01*
G04 #@! TO.N,Net-(C8-Pad1)*
X21433000Y12357000D02*
X21433000Y7590000D01*
X19732000Y6844000D02*
X19873000Y6985000D01*
X18161000Y6844000D02*
X19732000Y6844000D01*
D33*
X23873000Y5080000D02*
X24892000Y5080000D01*
X21433000Y7520000D02*
X23873000Y5080000D01*
X21433000Y7590000D02*
X21433000Y7520000D01*
D31*
X21082000Y6985000D02*
X19873000Y6985000D01*
X21433000Y7590000D02*
X21433000Y7336000D01*
X21433000Y7336000D02*
X21082000Y6985000D01*
D33*
G04 #@! TO.N,Net-(R6-Pad1)*
X5842000Y4064000D02*
X5969000Y3937000D01*
X5969000Y3937000D02*
X5969000Y2509000D01*
X5969000Y2509000D02*
X6692000Y1786000D01*
G04 #@! TD*
D34*
G04 #@! TO.N,GND*
G36*
X21206000Y16061750D02*
X21387750Y15880000D01*
X21877609Y15880000D01*
X22144812Y15990679D01*
X22349321Y16195187D01*
X22460000Y16462390D01*
X22460000Y16752250D01*
X22349250Y16863000D01*
X23116750Y16863000D01*
X23006000Y16752250D01*
X23006000Y16462390D01*
X23116679Y16195187D01*
X23321188Y15990679D01*
X23588391Y15880000D01*
X24078250Y15880000D01*
X24260000Y16061750D01*
X24260000Y16863000D01*
X24606000Y16863000D01*
X24606000Y16061750D01*
X24643584Y16024166D01*
X24636417Y16001712D01*
X24808903Y15730000D01*
X26185000Y15730000D01*
X26185000Y15750000D01*
X26531000Y15750000D01*
X26531000Y15730000D01*
X26551000Y15730000D01*
X26551000Y15384000D01*
X26531000Y15384000D01*
X26531000Y13771465D01*
X26797673Y13636905D01*
X26836931Y13641952D01*
X27437661Y13951975D01*
X27874022Y14468288D01*
X27898803Y14545923D01*
X27957860Y14403347D01*
X28373347Y13987860D01*
X28916206Y13763000D01*
X29503794Y13763000D01*
X29903102Y13928399D01*
X30392195Y13601598D01*
X30988000Y13483085D01*
X31583806Y13601598D01*
X32088905Y13939095D01*
X32258000Y14192163D01*
X32324238Y14093031D01*
X32148860Y13917653D01*
X31924000Y13374794D01*
X31924000Y12787206D01*
X32148860Y12244347D01*
X32564347Y11828860D01*
X33107206Y11604000D01*
X33694794Y11604000D01*
X34237653Y11828860D01*
X34653140Y12244347D01*
X34878000Y12787206D01*
X34878000Y13374794D01*
X34653140Y13917653D01*
X34630024Y13940769D01*
X34805291Y14203076D01*
X35147711Y13819266D01*
X35659793Y13568574D01*
X35895000Y13705920D01*
X35895000Y15067000D01*
X35875000Y15067000D01*
X35875000Y15413000D01*
X35895000Y15413000D01*
X35895000Y15433000D01*
X36241000Y15433000D01*
X36241000Y15413000D01*
X36261000Y15413000D01*
X36261000Y15067000D01*
X36241000Y15067000D01*
X36241000Y13705920D01*
X36476207Y13568574D01*
X36718000Y13686945D01*
X36718000Y13121206D01*
X36942860Y12578347D01*
X37358347Y12162860D01*
X37901206Y11938000D01*
X38488794Y11938000D01*
X39031653Y12162860D01*
X39447140Y12578347D01*
X39672000Y13121206D01*
X39672000Y13708794D01*
X39605285Y13869858D01*
X39708905Y13939095D01*
X40046402Y14444195D01*
X40135000Y14889608D01*
X40135000Y15590393D01*
X40111287Y15709610D01*
X41618000Y15709610D01*
X41618000Y15019750D01*
X41799750Y14838000D01*
X43272000Y14838000D01*
X43272000Y16110250D01*
X43090250Y16292000D01*
X42200391Y16292000D01*
X41933188Y16181321D01*
X41728679Y15976813D01*
X41618000Y15709610D01*
X40111287Y15709610D01*
X40046402Y16035806D01*
X39708905Y16540905D01*
X39226856Y16863000D01*
X44168391Y16863000D01*
X45262477Y16790331D01*
X46311186Y16578874D01*
X46516075Y16508325D01*
X46418000Y16410250D01*
X46418000Y15088000D01*
X46438000Y15088000D01*
X46438000Y14742000D01*
X46418000Y14742000D01*
X46418000Y14722000D01*
X46072000Y14722000D01*
X46072000Y14742000D01*
X46052000Y14742000D01*
X46052000Y15088000D01*
X46072000Y15088000D01*
X46072000Y16410250D01*
X45890250Y16592000D01*
X45700390Y16592000D01*
X45433187Y16481321D01*
X45228679Y16276812D01*
X45121083Y16017051D01*
X44956812Y16181321D01*
X44689609Y16292000D01*
X43799750Y16292000D01*
X43618000Y16110250D01*
X43618000Y14838000D01*
X43638000Y14838000D01*
X43638000Y14492000D01*
X43618000Y14492000D01*
X43618000Y14472000D01*
X43272000Y14472000D01*
X43272000Y14492000D01*
X41799750Y14492000D01*
X41618000Y14310250D01*
X41618000Y13620390D01*
X41728679Y13353187D01*
X41933188Y13148679D01*
X41963763Y13136014D01*
X41712400Y12759824D01*
X41589508Y12142000D01*
X41401206Y12142000D01*
X40858347Y11917140D01*
X40442860Y11501653D01*
X40218000Y10958794D01*
X40218000Y10371206D01*
X40442860Y9828347D01*
X40858347Y9412860D01*
X41401206Y9188000D01*
X41474498Y9188000D01*
X41049194Y9103402D01*
X40544095Y8765905D01*
X40528122Y8742000D01*
X39737429Y8742000D01*
X39631914Y8899914D01*
X39310333Y9114788D01*
X38931001Y9190242D01*
X38030999Y9190242D01*
X37651667Y9114788D01*
X37423137Y8962089D01*
X36988794Y9142000D01*
X36401206Y9142000D01*
X35858347Y8917140D01*
X35442860Y8501653D01*
X35218000Y7958794D01*
X35218000Y7371206D01*
X35442860Y6828347D01*
X35858347Y6412860D01*
X36401206Y6188000D01*
X36988794Y6188000D01*
X37052788Y6214507D01*
X37039758Y6149001D01*
X37039758Y5498999D01*
X37115212Y5119667D01*
X37269005Y4889500D01*
X37263994Y4882000D01*
X36951829Y4882000D01*
X36807048Y4978740D01*
X36432500Y5053242D01*
X35957500Y5053242D01*
X35804164Y5022742D01*
X35472794Y5160000D01*
X34885206Y5160000D01*
X34342347Y4935140D01*
X33926860Y4519653D01*
X33702000Y3976794D01*
X33702000Y3389206D01*
X33926860Y2846347D01*
X34342347Y2430860D01*
X34885206Y2206000D01*
X35472794Y2206000D01*
X35482451Y2210000D01*
X36022000Y2210000D01*
X36022000Y2230000D01*
X36368000Y2230000D01*
X36368000Y2210000D01*
X37103750Y2210000D01*
X37235750Y2078000D01*
X38308000Y2078000D01*
X38308000Y2098000D01*
X38654000Y2098000D01*
X38654000Y2078000D01*
X39726250Y2078000D01*
X39908000Y2259750D01*
X39908000Y2624609D01*
X39891270Y2665000D01*
X40088085Y2665000D01*
X40206598Y2069194D01*
X40544095Y1564095D01*
X41049194Y1226598D01*
X41494607Y1138000D01*
X42195393Y1138000D01*
X42640806Y1226598D01*
X43145905Y1564095D01*
X43483402Y2069194D01*
X43601915Y2665000D01*
X43483402Y3260806D01*
X43145905Y3765905D01*
X42640806Y4103402D01*
X42195393Y4192000D01*
X41494607Y4192000D01*
X41049194Y4103402D01*
X40544095Y3765905D01*
X40206598Y3260806D01*
X40088085Y2665000D01*
X39891270Y2665000D01*
X39797321Y2891812D01*
X39683237Y3005896D01*
X39846788Y3250667D01*
X39922242Y3629999D01*
X39922242Y4280001D01*
X39846788Y4659333D01*
X39692995Y4889500D01*
X39846788Y5119667D01*
X39922242Y5498999D01*
X39922242Y6149001D01*
X39846788Y6528333D01*
X39806920Y6588000D01*
X40528122Y6588000D01*
X40544095Y6564095D01*
X41049194Y6226598D01*
X41494607Y6138000D01*
X42195393Y6138000D01*
X42640806Y6226598D01*
X43145905Y6564095D01*
X43262758Y6738978D01*
X43262758Y6514999D01*
X43338212Y6135667D01*
X43497642Y5897063D01*
X43406598Y5760806D01*
X43288085Y5165000D01*
X43406598Y4569194D01*
X43744095Y4064095D01*
X44249194Y3726598D01*
X44694607Y3638000D01*
X45395393Y3638000D01*
X45840806Y3726598D01*
X46345905Y4064095D01*
X46683402Y4569194D01*
X46697388Y4639505D01*
X47108443Y4228449D01*
X47168527Y4138527D01*
X47258449Y4078443D01*
X47258450Y4078442D01*
X47362071Y4009205D01*
X47524776Y3900489D01*
X47838928Y3838000D01*
X47838933Y3838000D01*
X47944999Y3816902D01*
X48051066Y3838000D01*
X48620541Y3838000D01*
X48865667Y3674212D01*
X49244999Y3598758D01*
X50145001Y3598758D01*
X50416136Y3652690D01*
X49720141Y2906325D01*
X48893452Y2227276D01*
X47984209Y1663522D01*
X47008411Y1224980D01*
X45983167Y919341D01*
X44918188Y750666D01*
X44176809Y717000D01*
X39596134Y717000D01*
X39797321Y918188D01*
X39908000Y1185391D01*
X39908000Y1550250D01*
X39726250Y1732000D01*
X38654000Y1732000D01*
X38654000Y1712000D01*
X38308000Y1712000D01*
X38308000Y1732000D01*
X37347250Y1732000D01*
X37215250Y1864000D01*
X36368000Y1864000D01*
X36368000Y966750D01*
X36549750Y785000D01*
X36814610Y785000D01*
X37081813Y895679D01*
X37147001Y960867D01*
X37164679Y918188D01*
X37365866Y717000D01*
X31048000Y717000D01*
X31048000Y1217250D01*
X30866250Y1399000D01*
X30094000Y1399000D01*
X30094000Y1379000D01*
X29748000Y1379000D01*
X29748000Y1399000D01*
X29728000Y1399000D01*
X29728000Y1745000D01*
X29748000Y1745000D01*
X29748000Y1765000D01*
X30094000Y1765000D01*
X30094000Y1745000D01*
X30858866Y1745000D01*
X30892187Y1711679D01*
X31159390Y1601000D01*
X31649250Y1601000D01*
X31831000Y1782750D01*
X31831000Y2730000D01*
X32177000Y2730000D01*
X32177000Y1782750D01*
X32358750Y1601000D01*
X32848610Y1601000D01*
X33044765Y1682250D01*
X34993000Y1682250D01*
X34993000Y1367391D01*
X35103679Y1100188D01*
X35308187Y895679D01*
X35575390Y785000D01*
X35840250Y785000D01*
X36022000Y966750D01*
X36022000Y1864000D01*
X35174750Y1864000D01*
X34993000Y1682250D01*
X33044765Y1682250D01*
X33115813Y1711679D01*
X33320321Y1916188D01*
X33431000Y2183391D01*
X33431000Y2548250D01*
X33249250Y2730000D01*
X32177000Y2730000D01*
X31831000Y2730000D01*
X31811000Y2730000D01*
X31811000Y3076000D01*
X31831000Y3076000D01*
X31831000Y3096000D01*
X32177000Y3096000D01*
X32177000Y3076000D01*
X33249250Y3076000D01*
X33431000Y3257750D01*
X33431000Y3622609D01*
X33320321Y3889812D01*
X33206237Y4003896D01*
X33369788Y4248667D01*
X33445242Y4627999D01*
X33445242Y5278001D01*
X33369788Y5657333D01*
X33154914Y5978914D01*
X32833333Y6193788D01*
X32454001Y6269242D01*
X32210866Y6269242D01*
X31316559Y7163548D01*
X31256473Y7253473D01*
X30900224Y7491511D01*
X30586072Y7554000D01*
X30586066Y7554000D01*
X30480000Y7575098D01*
X30373934Y7554000D01*
X30094793Y7554000D01*
X29919653Y7729140D01*
X29376794Y7954000D01*
X28789206Y7954000D01*
X28246347Y7729140D01*
X27830860Y7313653D01*
X27606000Y6770794D01*
X27606000Y6371242D01*
X27139000Y6371242D01*
X26855339Y6314818D01*
X26614863Y6154137D01*
X26454182Y5913661D01*
X26397758Y5630000D01*
X26397758Y4530000D01*
X26454182Y4246339D01*
X26614863Y4005863D01*
X26855339Y3845182D01*
X27139000Y3788758D01*
X27829758Y3788758D01*
X27829758Y3622000D01*
X27886182Y3338339D01*
X27936360Y3263242D01*
X27621000Y3263242D01*
X27337339Y3206818D01*
X27096863Y3046137D01*
X26936182Y2805661D01*
X26920734Y2728000D01*
X24623724Y2728000D01*
X24845000Y3262206D01*
X24845000Y3788758D01*
X25439000Y3788758D01*
X25722661Y3845182D01*
X25963137Y4005863D01*
X26123818Y4246339D01*
X26180242Y4530000D01*
X26180242Y5630000D01*
X26123818Y5913661D01*
X26097172Y5953539D01*
X26331661Y6000182D01*
X26572137Y6160863D01*
X26732818Y6401339D01*
X26789242Y6685000D01*
X26789242Y7285000D01*
X26732818Y7568661D01*
X26697047Y7622196D01*
X26775000Y7810390D01*
X26775000Y7923250D01*
X26593250Y8105000D01*
X25446000Y8105000D01*
X25446000Y8062000D01*
X25100000Y8062000D01*
X25100000Y8105000D01*
X23952750Y8105000D01*
X23771000Y7923250D01*
X23771000Y7810390D01*
X23848953Y7622196D01*
X23813182Y7568661D01*
X23756758Y7285000D01*
X23756758Y6685000D01*
X23783344Y6551342D01*
X22360000Y7974686D01*
X22360000Y8829054D01*
X22625303Y8651785D01*
X22895698Y8598000D01*
X22895699Y8598000D01*
X22986999Y8579839D01*
X23078300Y8598000D01*
X23771000Y8598000D01*
X23771000Y8586750D01*
X23952750Y8405000D01*
X25100000Y8405000D01*
X25100000Y8448000D01*
X25446000Y8448000D01*
X25446000Y8405000D01*
X26593250Y8405000D01*
X26775000Y8586750D01*
X26775000Y8699610D01*
X26697047Y8887804D01*
X26732818Y8941339D01*
X26789242Y9225000D01*
X26789242Y9825000D01*
X26732818Y10108661D01*
X26698514Y10160000D01*
X26732818Y10211339D01*
X26789242Y10495000D01*
X26789242Y11095000D01*
X26732818Y11378661D01*
X26572137Y11619137D01*
X26331661Y11779818D01*
X26152075Y11815540D01*
X26225396Y11897616D01*
X26385000Y12354000D01*
X26385000Y12704000D01*
X25331000Y12704000D01*
X25331000Y12684000D01*
X24985000Y12684000D01*
X24985000Y12704000D01*
X24965000Y12704000D01*
X24965000Y13050000D01*
X24985000Y13050000D01*
X24985000Y13070000D01*
X25331000Y13070000D01*
X25331000Y13050000D01*
X26385000Y13050000D01*
X26385000Y13400000D01*
X26225396Y13856384D01*
X26185000Y13901603D01*
X26185000Y15384000D01*
X24808903Y15384000D01*
X24636417Y15112288D01*
X24841978Y14468288D01*
X24984998Y14299063D01*
X24984998Y14257836D01*
X24797102Y14399724D01*
X24412710Y14216950D01*
X24090604Y13856384D01*
X24044058Y13723285D01*
X23866661Y13841818D01*
X23775249Y13860001D01*
X23751250Y13884000D01*
X23688391Y13884000D01*
X23677428Y13879459D01*
X23583000Y13898242D01*
X23183000Y13898242D01*
X23058000Y13873378D01*
X22933000Y13898242D01*
X22533000Y13898242D01*
X22408000Y13873378D01*
X22283000Y13898242D01*
X21883000Y13898242D01*
X21758000Y13873378D01*
X21633000Y13898242D01*
X21338003Y13898242D01*
X21053290Y14216950D01*
X20668898Y14399724D01*
X20481002Y14257836D01*
X20481002Y14299063D01*
X20624022Y14468288D01*
X20829583Y15112288D01*
X20657097Y15384000D01*
X19281000Y15384000D01*
X19281000Y13901603D01*
X19240604Y13856384D01*
X19081000Y13400000D01*
X19081000Y13050000D01*
X20135000Y13050000D01*
X20135000Y13070000D01*
X20481000Y13070000D01*
X20481000Y13050000D01*
X20491758Y13050000D01*
X20491758Y12704000D01*
X20481000Y12704000D01*
X20481000Y12684000D01*
X20135000Y12684000D01*
X20135000Y12704000D01*
X19081000Y12704000D01*
X19081000Y12609867D01*
X19075302Y12611000D01*
X19075300Y12611000D01*
X18984000Y12629161D01*
X18892700Y12611000D01*
X18493296Y12611000D01*
X18491575Y12613575D01*
X18174048Y12825740D01*
X17799500Y12900242D01*
X17224500Y12900242D01*
X16849952Y12825740D01*
X16729126Y12745007D01*
X16698812Y12775321D01*
X16431609Y12886000D01*
X16116750Y12886000D01*
X15935000Y12704250D01*
X15935000Y11857000D01*
X15955000Y11857000D01*
X15955000Y11511000D01*
X15935000Y11511000D01*
X15935000Y11491000D01*
X15589000Y11491000D01*
X15589000Y11511000D01*
X15569000Y11511000D01*
X15569000Y11857000D01*
X15589000Y11857000D01*
X15589000Y12704250D01*
X15407250Y12886000D01*
X15092391Y12886000D01*
X14825188Y12775321D01*
X14653000Y12603134D01*
X14459812Y12796321D01*
X14192609Y12907000D01*
X13652750Y12907000D01*
X13471000Y12725250D01*
X13471000Y11603000D01*
X13491000Y11603000D01*
X13491000Y11257000D01*
X13471000Y11257000D01*
X13471000Y11237000D01*
X13125000Y11237000D01*
X13125000Y11257000D01*
X12002750Y11257000D01*
X11821000Y11075250D01*
X11821000Y10535390D01*
X11931679Y10268187D01*
X12136188Y10063679D01*
X12403391Y9953000D01*
X12706406Y9953000D01*
X12493000Y9437794D01*
X12493000Y8850206D01*
X12653801Y8462000D01*
X12530391Y8462000D01*
X12263188Y8351321D01*
X12058679Y8146813D01*
X11948000Y7879610D01*
X11948000Y7339750D01*
X12129750Y7158000D01*
X13252000Y7158000D01*
X13252000Y7178000D01*
X13598000Y7178000D01*
X13598000Y7158000D01*
X14720250Y7158000D01*
X14885454Y7323204D01*
X15003860Y7037347D01*
X15419347Y6621860D01*
X15962206Y6397000D01*
X16549794Y6397000D01*
X16944758Y6560600D01*
X16944758Y6556500D01*
X17019260Y6181952D01*
X17099993Y6061126D01*
X17069679Y6030812D01*
X16959000Y5763609D01*
X16959000Y5448750D01*
X17140750Y5267000D01*
X17988000Y5267000D01*
X17988000Y5287000D01*
X18334000Y5287000D01*
X18334000Y5267000D01*
X19181250Y5267000D01*
X19363000Y5448750D01*
X19363000Y5763609D01*
X19299463Y5917000D01*
X19640700Y5917000D01*
X19732000Y5898839D01*
X19823300Y5917000D01*
X19823302Y5917000D01*
X19957823Y5943758D01*
X20648000Y5943758D01*
X20931661Y6000182D01*
X21011885Y6053786D01*
X21082000Y6039839D01*
X21173300Y6058000D01*
X21173302Y6058000D01*
X21443697Y6111785D01*
X21453187Y6118126D01*
X22695273Y4876040D01*
X22531347Y4808140D01*
X22309267Y4586060D01*
X22261321Y4701812D01*
X22056813Y4906321D01*
X21789610Y5017000D01*
X21299750Y5017000D01*
X21118000Y4835250D01*
X21118000Y3888000D01*
X21138000Y3888000D01*
X21138000Y3542000D01*
X21118000Y3542000D01*
X21118000Y3522000D01*
X20772000Y3522000D01*
X20772000Y3542000D01*
X19699750Y3542000D01*
X19549750Y3392000D01*
X18868000Y3392000D01*
X18868000Y3372000D01*
X18522000Y3372000D01*
X18522000Y3392000D01*
X18502000Y3392000D01*
X18502000Y3738000D01*
X18522000Y3738000D01*
X18522000Y3758000D01*
X18868000Y3758000D01*
X18868000Y3738000D01*
X19715250Y3738000D01*
X19865250Y3888000D01*
X20772000Y3888000D01*
X20772000Y4835250D01*
X20590250Y5017000D01*
X20100390Y5017000D01*
X19833187Y4906321D01*
X19628679Y4701812D01*
X19616273Y4671861D01*
X19581813Y4706321D01*
X19314610Y4817000D01*
X19285250Y4817000D01*
X19181250Y4921000D01*
X18334000Y4921000D01*
X18334000Y4901000D01*
X17988000Y4901000D01*
X17988000Y4921000D01*
X17140750Y4921000D01*
X16960718Y4740968D01*
X16844000Y4857687D01*
X16844000Y5246794D01*
X16619140Y5789653D01*
X16203653Y6205140D01*
X15660794Y6430000D01*
X15073206Y6430000D01*
X14902000Y6359084D01*
X14902000Y6630250D01*
X14720250Y6812000D01*
X13598000Y6812000D01*
X13598000Y5689750D01*
X13779750Y5508000D01*
X13998195Y5508000D01*
X13890000Y5246794D01*
X13890000Y4659206D01*
X14114860Y4116347D01*
X14530347Y3700860D01*
X15073206Y3476000D01*
X15462313Y3476000D01*
X15715000Y3223313D01*
X15715001Y2622354D01*
X15692000Y2587932D01*
X15612665Y2706665D01*
X15190259Y2988907D01*
X14692000Y3088017D01*
X14193740Y2988907D01*
X13771335Y2706665D01*
X13692000Y2587932D01*
X13612665Y2706665D01*
X13190259Y2988907D01*
X12692000Y3088017D01*
X12193740Y2988907D01*
X11771335Y2706665D01*
X11692000Y2587932D01*
X11669000Y2622354D01*
X11669000Y4881207D01*
X11920140Y5132347D01*
X12145000Y5675206D01*
X12145000Y5736866D01*
X12263188Y5618679D01*
X12530391Y5508000D01*
X13070250Y5508000D01*
X13252000Y5689750D01*
X13252000Y6812000D01*
X12129750Y6812000D01*
X11979674Y6661924D01*
X11920140Y6805653D01*
X11504653Y7221140D01*
X10961794Y7446000D01*
X10374206Y7446000D01*
X9994000Y7288513D01*
X9994000Y8285783D01*
X10013139Y8382001D01*
X9994000Y8478219D01*
X9994000Y8478223D01*
X9937313Y8763206D01*
X9826192Y8929511D01*
X9775883Y9004804D01*
X9775881Y9004806D01*
X9721377Y9086377D01*
X9639806Y9140881D01*
X8632883Y10147803D01*
X8578377Y10229377D01*
X8255206Y10445313D01*
X8216561Y10453000D01*
X8793782Y10453000D01*
X8890000Y10433861D01*
X8986218Y10453000D01*
X8986223Y10453000D01*
X9271206Y10509687D01*
X9594377Y10725623D01*
X9648883Y10807197D01*
X11166296Y12324610D01*
X11821000Y12324610D01*
X11821000Y11784750D01*
X12002750Y11603000D01*
X13125000Y11603000D01*
X13125000Y12725250D01*
X12943250Y12907000D01*
X12403391Y12907000D01*
X12136188Y12796321D01*
X11931679Y12591813D01*
X11821000Y12324610D01*
X11166296Y12324610D01*
X11314806Y12473119D01*
X11396377Y12527623D01*
X11450881Y12609194D01*
X11450883Y12609196D01*
X11612313Y12850793D01*
X11631013Y12944803D01*
X11669000Y13135777D01*
X11669000Y13135781D01*
X11688139Y13232000D01*
X11669000Y13328219D01*
X11669000Y14949646D01*
X11692000Y14984069D01*
X11771336Y14865335D01*
X12193741Y14583093D01*
X12692000Y14483983D01*
X13190260Y14583093D01*
X13612665Y14865335D01*
X13642792Y14910424D01*
X13578758Y14588500D01*
X13578758Y14113500D01*
X13653260Y13738952D01*
X13865425Y13421425D01*
X14182952Y13209260D01*
X14557500Y13134758D01*
X15132500Y13134758D01*
X15507048Y13209260D01*
X15627874Y13289993D01*
X15658188Y13259679D01*
X15925391Y13149000D01*
X16240250Y13149000D01*
X16422000Y13330750D01*
X16422000Y14178000D01*
X16402000Y14178000D01*
X16402000Y14524000D01*
X16422000Y14524000D01*
X16422000Y14634603D01*
X16519000Y14704499D01*
X16519000Y16313000D01*
X16499000Y16313000D01*
X16499000Y16659000D01*
X16519000Y16659000D01*
X16519000Y16679000D01*
X16865000Y16679000D01*
X16865000Y16659000D01*
X16885000Y16659000D01*
X16885000Y16313000D01*
X16865000Y16313000D01*
X16865000Y15468250D01*
X16768000Y15371250D01*
X16768000Y14524000D01*
X16788000Y14524000D01*
X16788000Y14178000D01*
X16768000Y14178000D01*
X16768000Y13330750D01*
X16949750Y13149000D01*
X17264609Y13149000D01*
X17531812Y13259679D01*
X17736321Y13464187D01*
X17847000Y13731390D01*
X17847000Y13996250D01*
X17665252Y14177998D01*
X17837316Y14177998D01*
X18028339Y13951975D01*
X18629069Y13641952D01*
X18668327Y13636905D01*
X18935000Y13771465D01*
X18935000Y15384000D01*
X18915000Y15384000D01*
X18915000Y15730000D01*
X18935000Y15730000D01*
X18935000Y15750000D01*
X19281000Y15750000D01*
X19281000Y15730000D01*
X20657097Y15730000D01*
X20829583Y16001712D01*
X20822416Y16024166D01*
X20860000Y16061750D01*
X20860000Y16863000D01*
X21206000Y16863000D01*
X21206000Y16061750D01*
X21206000Y16061750D01*
G37*
X21206000Y16061750D02*
X21387750Y15880000D01*
X21877609Y15880000D01*
X22144812Y15990679D01*
X22349321Y16195187D01*
X22460000Y16462390D01*
X22460000Y16752250D01*
X22349250Y16863000D01*
X23116750Y16863000D01*
X23006000Y16752250D01*
X23006000Y16462390D01*
X23116679Y16195187D01*
X23321188Y15990679D01*
X23588391Y15880000D01*
X24078250Y15880000D01*
X24260000Y16061750D01*
X24260000Y16863000D01*
X24606000Y16863000D01*
X24606000Y16061750D01*
X24643584Y16024166D01*
X24636417Y16001712D01*
X24808903Y15730000D01*
X26185000Y15730000D01*
X26185000Y15750000D01*
X26531000Y15750000D01*
X26531000Y15730000D01*
X26551000Y15730000D01*
X26551000Y15384000D01*
X26531000Y15384000D01*
X26531000Y13771465D01*
X26797673Y13636905D01*
X26836931Y13641952D01*
X27437661Y13951975D01*
X27874022Y14468288D01*
X27898803Y14545923D01*
X27957860Y14403347D01*
X28373347Y13987860D01*
X28916206Y13763000D01*
X29503794Y13763000D01*
X29903102Y13928399D01*
X30392195Y13601598D01*
X30988000Y13483085D01*
X31583806Y13601598D01*
X32088905Y13939095D01*
X32258000Y14192163D01*
X32324238Y14093031D01*
X32148860Y13917653D01*
X31924000Y13374794D01*
X31924000Y12787206D01*
X32148860Y12244347D01*
X32564347Y11828860D01*
X33107206Y11604000D01*
X33694794Y11604000D01*
X34237653Y11828860D01*
X34653140Y12244347D01*
X34878000Y12787206D01*
X34878000Y13374794D01*
X34653140Y13917653D01*
X34630024Y13940769D01*
X34805291Y14203076D01*
X35147711Y13819266D01*
X35659793Y13568574D01*
X35895000Y13705920D01*
X35895000Y15067000D01*
X35875000Y15067000D01*
X35875000Y15413000D01*
X35895000Y15413000D01*
X35895000Y15433000D01*
X36241000Y15433000D01*
X36241000Y15413000D01*
X36261000Y15413000D01*
X36261000Y15067000D01*
X36241000Y15067000D01*
X36241000Y13705920D01*
X36476207Y13568574D01*
X36718000Y13686945D01*
X36718000Y13121206D01*
X36942860Y12578347D01*
X37358347Y12162860D01*
X37901206Y11938000D01*
X38488794Y11938000D01*
X39031653Y12162860D01*
X39447140Y12578347D01*
X39672000Y13121206D01*
X39672000Y13708794D01*
X39605285Y13869858D01*
X39708905Y13939095D01*
X40046402Y14444195D01*
X40135000Y14889608D01*
X40135000Y15590393D01*
X40111287Y15709610D01*
X41618000Y15709610D01*
X41618000Y15019750D01*
X41799750Y14838000D01*
X43272000Y14838000D01*
X43272000Y16110250D01*
X43090250Y16292000D01*
X42200391Y16292000D01*
X41933188Y16181321D01*
X41728679Y15976813D01*
X41618000Y15709610D01*
X40111287Y15709610D01*
X40046402Y16035806D01*
X39708905Y16540905D01*
X39226856Y16863000D01*
X44168391Y16863000D01*
X45262477Y16790331D01*
X46311186Y16578874D01*
X46516075Y16508325D01*
X46418000Y16410250D01*
X46418000Y15088000D01*
X46438000Y15088000D01*
X46438000Y14742000D01*
X46418000Y14742000D01*
X46418000Y14722000D01*
X46072000Y14722000D01*
X46072000Y14742000D01*
X46052000Y14742000D01*
X46052000Y15088000D01*
X46072000Y15088000D01*
X46072000Y16410250D01*
X45890250Y16592000D01*
X45700390Y16592000D01*
X45433187Y16481321D01*
X45228679Y16276812D01*
X45121083Y16017051D01*
X44956812Y16181321D01*
X44689609Y16292000D01*
X43799750Y16292000D01*
X43618000Y16110250D01*
X43618000Y14838000D01*
X43638000Y14838000D01*
X43638000Y14492000D01*
X43618000Y14492000D01*
X43618000Y14472000D01*
X43272000Y14472000D01*
X43272000Y14492000D01*
X41799750Y14492000D01*
X41618000Y14310250D01*
X41618000Y13620390D01*
X41728679Y13353187D01*
X41933188Y13148679D01*
X41963763Y13136014D01*
X41712400Y12759824D01*
X41589508Y12142000D01*
X41401206Y12142000D01*
X40858347Y11917140D01*
X40442860Y11501653D01*
X40218000Y10958794D01*
X40218000Y10371206D01*
X40442860Y9828347D01*
X40858347Y9412860D01*
X41401206Y9188000D01*
X41474498Y9188000D01*
X41049194Y9103402D01*
X40544095Y8765905D01*
X40528122Y8742000D01*
X39737429Y8742000D01*
X39631914Y8899914D01*
X39310333Y9114788D01*
X38931001Y9190242D01*
X38030999Y9190242D01*
X37651667Y9114788D01*
X37423137Y8962089D01*
X36988794Y9142000D01*
X36401206Y9142000D01*
X35858347Y8917140D01*
X35442860Y8501653D01*
X35218000Y7958794D01*
X35218000Y7371206D01*
X35442860Y6828347D01*
X35858347Y6412860D01*
X36401206Y6188000D01*
X36988794Y6188000D01*
X37052788Y6214507D01*
X37039758Y6149001D01*
X37039758Y5498999D01*
X37115212Y5119667D01*
X37269005Y4889500D01*
X37263994Y4882000D01*
X36951829Y4882000D01*
X36807048Y4978740D01*
X36432500Y5053242D01*
X35957500Y5053242D01*
X35804164Y5022742D01*
X35472794Y5160000D01*
X34885206Y5160000D01*
X34342347Y4935140D01*
X33926860Y4519653D01*
X33702000Y3976794D01*
X33702000Y3389206D01*
X33926860Y2846347D01*
X34342347Y2430860D01*
X34885206Y2206000D01*
X35472794Y2206000D01*
X35482451Y2210000D01*
X36022000Y2210000D01*
X36022000Y2230000D01*
X36368000Y2230000D01*
X36368000Y2210000D01*
X37103750Y2210000D01*
X37235750Y2078000D01*
X38308000Y2078000D01*
X38308000Y2098000D01*
X38654000Y2098000D01*
X38654000Y2078000D01*
X39726250Y2078000D01*
X39908000Y2259750D01*
X39908000Y2624609D01*
X39891270Y2665000D01*
X40088085Y2665000D01*
X40206598Y2069194D01*
X40544095Y1564095D01*
X41049194Y1226598D01*
X41494607Y1138000D01*
X42195393Y1138000D01*
X42640806Y1226598D01*
X43145905Y1564095D01*
X43483402Y2069194D01*
X43601915Y2665000D01*
X43483402Y3260806D01*
X43145905Y3765905D01*
X42640806Y4103402D01*
X42195393Y4192000D01*
X41494607Y4192000D01*
X41049194Y4103402D01*
X40544095Y3765905D01*
X40206598Y3260806D01*
X40088085Y2665000D01*
X39891270Y2665000D01*
X39797321Y2891812D01*
X39683237Y3005896D01*
X39846788Y3250667D01*
X39922242Y3629999D01*
X39922242Y4280001D01*
X39846788Y4659333D01*
X39692995Y4889500D01*
X39846788Y5119667D01*
X39922242Y5498999D01*
X39922242Y6149001D01*
X39846788Y6528333D01*
X39806920Y6588000D01*
X40528122Y6588000D01*
X40544095Y6564095D01*
X41049194Y6226598D01*
X41494607Y6138000D01*
X42195393Y6138000D01*
X42640806Y6226598D01*
X43145905Y6564095D01*
X43262758Y6738978D01*
X43262758Y6514999D01*
X43338212Y6135667D01*
X43497642Y5897063D01*
X43406598Y5760806D01*
X43288085Y5165000D01*
X43406598Y4569194D01*
X43744095Y4064095D01*
X44249194Y3726598D01*
X44694607Y3638000D01*
X45395393Y3638000D01*
X45840806Y3726598D01*
X46345905Y4064095D01*
X46683402Y4569194D01*
X46697388Y4639505D01*
X47108443Y4228449D01*
X47168527Y4138527D01*
X47258449Y4078443D01*
X47258450Y4078442D01*
X47362071Y4009205D01*
X47524776Y3900489D01*
X47838928Y3838000D01*
X47838933Y3838000D01*
X47944999Y3816902D01*
X48051066Y3838000D01*
X48620541Y3838000D01*
X48865667Y3674212D01*
X49244999Y3598758D01*
X50145001Y3598758D01*
X50416136Y3652690D01*
X49720141Y2906325D01*
X48893452Y2227276D01*
X47984209Y1663522D01*
X47008411Y1224980D01*
X45983167Y919341D01*
X44918188Y750666D01*
X44176809Y717000D01*
X39596134Y717000D01*
X39797321Y918188D01*
X39908000Y1185391D01*
X39908000Y1550250D01*
X39726250Y1732000D01*
X38654000Y1732000D01*
X38654000Y1712000D01*
X38308000Y1712000D01*
X38308000Y1732000D01*
X37347250Y1732000D01*
X37215250Y1864000D01*
X36368000Y1864000D01*
X36368000Y966750D01*
X36549750Y785000D01*
X36814610Y785000D01*
X37081813Y895679D01*
X37147001Y960867D01*
X37164679Y918188D01*
X37365866Y717000D01*
X31048000Y717000D01*
X31048000Y1217250D01*
X30866250Y1399000D01*
X30094000Y1399000D01*
X30094000Y1379000D01*
X29748000Y1379000D01*
X29748000Y1399000D01*
X29728000Y1399000D01*
X29728000Y1745000D01*
X29748000Y1745000D01*
X29748000Y1765000D01*
X30094000Y1765000D01*
X30094000Y1745000D01*
X30858866Y1745000D01*
X30892187Y1711679D01*
X31159390Y1601000D01*
X31649250Y1601000D01*
X31831000Y1782750D01*
X31831000Y2730000D01*
X32177000Y2730000D01*
X32177000Y1782750D01*
X32358750Y1601000D01*
X32848610Y1601000D01*
X33044765Y1682250D01*
X34993000Y1682250D01*
X34993000Y1367391D01*
X35103679Y1100188D01*
X35308187Y895679D01*
X35575390Y785000D01*
X35840250Y785000D01*
X36022000Y966750D01*
X36022000Y1864000D01*
X35174750Y1864000D01*
X34993000Y1682250D01*
X33044765Y1682250D01*
X33115813Y1711679D01*
X33320321Y1916188D01*
X33431000Y2183391D01*
X33431000Y2548250D01*
X33249250Y2730000D01*
X32177000Y2730000D01*
X31831000Y2730000D01*
X31811000Y2730000D01*
X31811000Y3076000D01*
X31831000Y3076000D01*
X31831000Y3096000D01*
X32177000Y3096000D01*
X32177000Y3076000D01*
X33249250Y3076000D01*
X33431000Y3257750D01*
X33431000Y3622609D01*
X33320321Y3889812D01*
X33206237Y4003896D01*
X33369788Y4248667D01*
X33445242Y4627999D01*
X33445242Y5278001D01*
X33369788Y5657333D01*
X33154914Y5978914D01*
X32833333Y6193788D01*
X32454001Y6269242D01*
X32210866Y6269242D01*
X31316559Y7163548D01*
X31256473Y7253473D01*
X30900224Y7491511D01*
X30586072Y7554000D01*
X30586066Y7554000D01*
X30480000Y7575098D01*
X30373934Y7554000D01*
X30094793Y7554000D01*
X29919653Y7729140D01*
X29376794Y7954000D01*
X28789206Y7954000D01*
X28246347Y7729140D01*
X27830860Y7313653D01*
X27606000Y6770794D01*
X27606000Y6371242D01*
X27139000Y6371242D01*
X26855339Y6314818D01*
X26614863Y6154137D01*
X26454182Y5913661D01*
X26397758Y5630000D01*
X26397758Y4530000D01*
X26454182Y4246339D01*
X26614863Y4005863D01*
X26855339Y3845182D01*
X27139000Y3788758D01*
X27829758Y3788758D01*
X27829758Y3622000D01*
X27886182Y3338339D01*
X27936360Y3263242D01*
X27621000Y3263242D01*
X27337339Y3206818D01*
X27096863Y3046137D01*
X26936182Y2805661D01*
X26920734Y2728000D01*
X24623724Y2728000D01*
X24845000Y3262206D01*
X24845000Y3788758D01*
X25439000Y3788758D01*
X25722661Y3845182D01*
X25963137Y4005863D01*
X26123818Y4246339D01*
X26180242Y4530000D01*
X26180242Y5630000D01*
X26123818Y5913661D01*
X26097172Y5953539D01*
X26331661Y6000182D01*
X26572137Y6160863D01*
X26732818Y6401339D01*
X26789242Y6685000D01*
X26789242Y7285000D01*
X26732818Y7568661D01*
X26697047Y7622196D01*
X26775000Y7810390D01*
X26775000Y7923250D01*
X26593250Y8105000D01*
X25446000Y8105000D01*
X25446000Y8062000D01*
X25100000Y8062000D01*
X25100000Y8105000D01*
X23952750Y8105000D01*
X23771000Y7923250D01*
X23771000Y7810390D01*
X23848953Y7622196D01*
X23813182Y7568661D01*
X23756758Y7285000D01*
X23756758Y6685000D01*
X23783344Y6551342D01*
X22360000Y7974686D01*
X22360000Y8829054D01*
X22625303Y8651785D01*
X22895698Y8598000D01*
X22895699Y8598000D01*
X22986999Y8579839D01*
X23078300Y8598000D01*
X23771000Y8598000D01*
X23771000Y8586750D01*
X23952750Y8405000D01*
X25100000Y8405000D01*
X25100000Y8448000D01*
X25446000Y8448000D01*
X25446000Y8405000D01*
X26593250Y8405000D01*
X26775000Y8586750D01*
X26775000Y8699610D01*
X26697047Y8887804D01*
X26732818Y8941339D01*
X26789242Y9225000D01*
X26789242Y9825000D01*
X26732818Y10108661D01*
X26698514Y10160000D01*
X26732818Y10211339D01*
X26789242Y10495000D01*
X26789242Y11095000D01*
X26732818Y11378661D01*
X26572137Y11619137D01*
X26331661Y11779818D01*
X26152075Y11815540D01*
X26225396Y11897616D01*
X26385000Y12354000D01*
X26385000Y12704000D01*
X25331000Y12704000D01*
X25331000Y12684000D01*
X24985000Y12684000D01*
X24985000Y12704000D01*
X24965000Y12704000D01*
X24965000Y13050000D01*
X24985000Y13050000D01*
X24985000Y13070000D01*
X25331000Y13070000D01*
X25331000Y13050000D01*
X26385000Y13050000D01*
X26385000Y13400000D01*
X26225396Y13856384D01*
X26185000Y13901603D01*
X26185000Y15384000D01*
X24808903Y15384000D01*
X24636417Y15112288D01*
X24841978Y14468288D01*
X24984998Y14299063D01*
X24984998Y14257836D01*
X24797102Y14399724D01*
X24412710Y14216950D01*
X24090604Y13856384D01*
X24044058Y13723285D01*
X23866661Y13841818D01*
X23775249Y13860001D01*
X23751250Y13884000D01*
X23688391Y13884000D01*
X23677428Y13879459D01*
X23583000Y13898242D01*
X23183000Y13898242D01*
X23058000Y13873378D01*
X22933000Y13898242D01*
X22533000Y13898242D01*
X22408000Y13873378D01*
X22283000Y13898242D01*
X21883000Y13898242D01*
X21758000Y13873378D01*
X21633000Y13898242D01*
X21338003Y13898242D01*
X21053290Y14216950D01*
X20668898Y14399724D01*
X20481002Y14257836D01*
X20481002Y14299063D01*
X20624022Y14468288D01*
X20829583Y15112288D01*
X20657097Y15384000D01*
X19281000Y15384000D01*
X19281000Y13901603D01*
X19240604Y13856384D01*
X19081000Y13400000D01*
X19081000Y13050000D01*
X20135000Y13050000D01*
X20135000Y13070000D01*
X20481000Y13070000D01*
X20481000Y13050000D01*
X20491758Y13050000D01*
X20491758Y12704000D01*
X20481000Y12704000D01*
X20481000Y12684000D01*
X20135000Y12684000D01*
X20135000Y12704000D01*
X19081000Y12704000D01*
X19081000Y12609867D01*
X19075302Y12611000D01*
X19075300Y12611000D01*
X18984000Y12629161D01*
X18892700Y12611000D01*
X18493296Y12611000D01*
X18491575Y12613575D01*
X18174048Y12825740D01*
X17799500Y12900242D01*
X17224500Y12900242D01*
X16849952Y12825740D01*
X16729126Y12745007D01*
X16698812Y12775321D01*
X16431609Y12886000D01*
X16116750Y12886000D01*
X15935000Y12704250D01*
X15935000Y11857000D01*
X15955000Y11857000D01*
X15955000Y11511000D01*
X15935000Y11511000D01*
X15935000Y11491000D01*
X15589000Y11491000D01*
X15589000Y11511000D01*
X15569000Y11511000D01*
X15569000Y11857000D01*
X15589000Y11857000D01*
X15589000Y12704250D01*
X15407250Y12886000D01*
X15092391Y12886000D01*
X14825188Y12775321D01*
X14653000Y12603134D01*
X14459812Y12796321D01*
X14192609Y12907000D01*
X13652750Y12907000D01*
X13471000Y12725250D01*
X13471000Y11603000D01*
X13491000Y11603000D01*
X13491000Y11257000D01*
X13471000Y11257000D01*
X13471000Y11237000D01*
X13125000Y11237000D01*
X13125000Y11257000D01*
X12002750Y11257000D01*
X11821000Y11075250D01*
X11821000Y10535390D01*
X11931679Y10268187D01*
X12136188Y10063679D01*
X12403391Y9953000D01*
X12706406Y9953000D01*
X12493000Y9437794D01*
X12493000Y8850206D01*
X12653801Y8462000D01*
X12530391Y8462000D01*
X12263188Y8351321D01*
X12058679Y8146813D01*
X11948000Y7879610D01*
X11948000Y7339750D01*
X12129750Y7158000D01*
X13252000Y7158000D01*
X13252000Y7178000D01*
X13598000Y7178000D01*
X13598000Y7158000D01*
X14720250Y7158000D01*
X14885454Y7323204D01*
X15003860Y7037347D01*
X15419347Y6621860D01*
X15962206Y6397000D01*
X16549794Y6397000D01*
X16944758Y6560600D01*
X16944758Y6556500D01*
X17019260Y6181952D01*
X17099993Y6061126D01*
X17069679Y6030812D01*
X16959000Y5763609D01*
X16959000Y5448750D01*
X17140750Y5267000D01*
X17988000Y5267000D01*
X17988000Y5287000D01*
X18334000Y5287000D01*
X18334000Y5267000D01*
X19181250Y5267000D01*
X19363000Y5448750D01*
X19363000Y5763609D01*
X19299463Y5917000D01*
X19640700Y5917000D01*
X19732000Y5898839D01*
X19823300Y5917000D01*
X19823302Y5917000D01*
X19957823Y5943758D01*
X20648000Y5943758D01*
X20931661Y6000182D01*
X21011885Y6053786D01*
X21082000Y6039839D01*
X21173300Y6058000D01*
X21173302Y6058000D01*
X21443697Y6111785D01*
X21453187Y6118126D01*
X22695273Y4876040D01*
X22531347Y4808140D01*
X22309267Y4586060D01*
X22261321Y4701812D01*
X22056813Y4906321D01*
X21789610Y5017000D01*
X21299750Y5017000D01*
X21118000Y4835250D01*
X21118000Y3888000D01*
X21138000Y3888000D01*
X21138000Y3542000D01*
X21118000Y3542000D01*
X21118000Y3522000D01*
X20772000Y3522000D01*
X20772000Y3542000D01*
X19699750Y3542000D01*
X19549750Y3392000D01*
X18868000Y3392000D01*
X18868000Y3372000D01*
X18522000Y3372000D01*
X18522000Y3392000D01*
X18502000Y3392000D01*
X18502000Y3738000D01*
X18522000Y3738000D01*
X18522000Y3758000D01*
X18868000Y3758000D01*
X18868000Y3738000D01*
X19715250Y3738000D01*
X19865250Y3888000D01*
X20772000Y3888000D01*
X20772000Y4835250D01*
X20590250Y5017000D01*
X20100390Y5017000D01*
X19833187Y4906321D01*
X19628679Y4701812D01*
X19616273Y4671861D01*
X19581813Y4706321D01*
X19314610Y4817000D01*
X19285250Y4817000D01*
X19181250Y4921000D01*
X18334000Y4921000D01*
X18334000Y4901000D01*
X17988000Y4901000D01*
X17988000Y4921000D01*
X17140750Y4921000D01*
X16960718Y4740968D01*
X16844000Y4857687D01*
X16844000Y5246794D01*
X16619140Y5789653D01*
X16203653Y6205140D01*
X15660794Y6430000D01*
X15073206Y6430000D01*
X14902000Y6359084D01*
X14902000Y6630250D01*
X14720250Y6812000D01*
X13598000Y6812000D01*
X13598000Y5689750D01*
X13779750Y5508000D01*
X13998195Y5508000D01*
X13890000Y5246794D01*
X13890000Y4659206D01*
X14114860Y4116347D01*
X14530347Y3700860D01*
X15073206Y3476000D01*
X15462313Y3476000D01*
X15715000Y3223313D01*
X15715001Y2622354D01*
X15692000Y2587932D01*
X15612665Y2706665D01*
X15190259Y2988907D01*
X14692000Y3088017D01*
X14193740Y2988907D01*
X13771335Y2706665D01*
X13692000Y2587932D01*
X13612665Y2706665D01*
X13190259Y2988907D01*
X12692000Y3088017D01*
X12193740Y2988907D01*
X11771335Y2706665D01*
X11692000Y2587932D01*
X11669000Y2622354D01*
X11669000Y4881207D01*
X11920140Y5132347D01*
X12145000Y5675206D01*
X12145000Y5736866D01*
X12263188Y5618679D01*
X12530391Y5508000D01*
X13070250Y5508000D01*
X13252000Y5689750D01*
X13252000Y6812000D01*
X12129750Y6812000D01*
X11979674Y6661924D01*
X11920140Y6805653D01*
X11504653Y7221140D01*
X10961794Y7446000D01*
X10374206Y7446000D01*
X9994000Y7288513D01*
X9994000Y8285783D01*
X10013139Y8382001D01*
X9994000Y8478219D01*
X9994000Y8478223D01*
X9937313Y8763206D01*
X9826192Y8929511D01*
X9775883Y9004804D01*
X9775881Y9004806D01*
X9721377Y9086377D01*
X9639806Y9140881D01*
X8632883Y10147803D01*
X8578377Y10229377D01*
X8255206Y10445313D01*
X8216561Y10453000D01*
X8793782Y10453000D01*
X8890000Y10433861D01*
X8986218Y10453000D01*
X8986223Y10453000D01*
X9271206Y10509687D01*
X9594377Y10725623D01*
X9648883Y10807197D01*
X11166296Y12324610D01*
X11821000Y12324610D01*
X11821000Y11784750D01*
X12002750Y11603000D01*
X13125000Y11603000D01*
X13125000Y12725250D01*
X12943250Y12907000D01*
X12403391Y12907000D01*
X12136188Y12796321D01*
X11931679Y12591813D01*
X11821000Y12324610D01*
X11166296Y12324610D01*
X11314806Y12473119D01*
X11396377Y12527623D01*
X11450881Y12609194D01*
X11450883Y12609196D01*
X11612313Y12850793D01*
X11631013Y12944803D01*
X11669000Y13135777D01*
X11669000Y13135781D01*
X11688139Y13232000D01*
X11669000Y13328219D01*
X11669000Y14949646D01*
X11692000Y14984069D01*
X11771336Y14865335D01*
X12193741Y14583093D01*
X12692000Y14483983D01*
X13190260Y14583093D01*
X13612665Y14865335D01*
X13642792Y14910424D01*
X13578758Y14588500D01*
X13578758Y14113500D01*
X13653260Y13738952D01*
X13865425Y13421425D01*
X14182952Y13209260D01*
X14557500Y13134758D01*
X15132500Y13134758D01*
X15507048Y13209260D01*
X15627874Y13289993D01*
X15658188Y13259679D01*
X15925391Y13149000D01*
X16240250Y13149000D01*
X16422000Y13330750D01*
X16422000Y14178000D01*
X16402000Y14178000D01*
X16402000Y14524000D01*
X16422000Y14524000D01*
X16422000Y14634603D01*
X16519000Y14704499D01*
X16519000Y16313000D01*
X16499000Y16313000D01*
X16499000Y16659000D01*
X16519000Y16659000D01*
X16519000Y16679000D01*
X16865000Y16679000D01*
X16865000Y16659000D01*
X16885000Y16659000D01*
X16885000Y16313000D01*
X16865000Y16313000D01*
X16865000Y15468250D01*
X16768000Y15371250D01*
X16768000Y14524000D01*
X16788000Y14524000D01*
X16788000Y14178000D01*
X16768000Y14178000D01*
X16768000Y13330750D01*
X16949750Y13149000D01*
X17264609Y13149000D01*
X17531812Y13259679D01*
X17736321Y13464187D01*
X17847000Y13731390D01*
X17847000Y13996250D01*
X17665252Y14177998D01*
X17837316Y14177998D01*
X18028339Y13951975D01*
X18629069Y13641952D01*
X18668327Y13636905D01*
X18935000Y13771465D01*
X18935000Y15384000D01*
X18915000Y15384000D01*
X18915000Y15730000D01*
X18935000Y15730000D01*
X18935000Y15750000D01*
X19281000Y15750000D01*
X19281000Y15730000D01*
X20657097Y15730000D01*
X20829583Y16001712D01*
X20822416Y16024166D01*
X20860000Y16061750D01*
X20860000Y16863000D01*
X21206000Y16863000D01*
X21206000Y16061750D01*
G04 #@! TD*
M02*
