M48
;DRILL file {KiCad 5.0.2-bee76a0~70~ubuntu18.04.1} date Sun 26 Apr 2020 01:11:56 PM EDT
;FORMAT={-:-/ absolute / metric / decimal}
FMAT,2
METRIC,TZ
T1C0.600
T2C0.650
T3C0.750
T4C0.762
T5C0.800
T6C1.000
%
G90
G05
T1
X1.5Y6.25
X5.25Y6.5
X5.7Y14.9
X8.497Y14.921
X12.6Y6.4
X15.5Y7.
X21.5Y14.5
X24.75Y14.5
X27.Y6.5
X28.Y16.
X30.6Y13.9
X36.5Y9.
X38.Y14.75
X41.5Y12.
T2
X2.497Y17.121
X2.497Y3.121
X4.497Y17.121
X4.497Y3.121
X6.497Y17.121
X6.497Y3.121
X8.497Y17.121
X8.497Y3.121
X10.497Y17.121
X10.497Y3.121
X12.497Y17.121
X12.497Y3.121
X14.497Y17.121
X14.497Y3.121
X16.497Y17.121
X16.497Y3.121
T3
X47.Y11.25
X47.Y9.25
T4
X30.793Y16.575
X33.333Y16.575
X35.873Y16.575
X38.413Y16.575
T5
X41.65Y9.
X41.65Y4.
X44.85Y6.5
T6
X43.25Y16.
X43.25Y13.46
T0
M30
