G04 #@! TF.GenerationSoftware,KiCad,Pcbnew,5.0.2-bee76a0~70~ubuntu18.04.1*
G04 #@! TF.CreationDate,2020-04-01T20:00:59-04:00*
G04 #@! TF.ProjectId,weeSpindel,77656553-7069-46e6-9465-6c2e6b696361,rev?*
G04 #@! TF.SameCoordinates,PX56c8cc0PY6dac2c0*
G04 #@! TF.FileFunction,Copper,L1,Top*
G04 #@! TF.FilePolarity,Positive*
%FSLAX46Y46*%
G04 Gerber Fmt 4.6, Leading zero omitted, Abs format (unit mm)*
G04 Created by KiCad (PCBNEW 5.0.2-bee76a0~70~ubuntu18.04.1) date Wed 01 Apr 2020 08:00:59 PM EDT*
%MOMM*%
%LPD*%
G01*
G04 APERTURE LIST*
G04 #@! TA.AperFunction,ComponentPad*
%ADD10O,2.200000X1.800000*%
G04 #@! TD*
G04 #@! TA.AperFunction,ComponentPad*
%ADD11R,2.200000X1.800000*%
G04 #@! TD*
G04 #@! TA.AperFunction,ComponentPad*
%ADD12R,1.700000X1.700000*%
G04 #@! TD*
G04 #@! TA.AperFunction,ComponentPad*
%ADD13O,1.700000X1.700000*%
G04 #@! TD*
G04 #@! TA.AperFunction,ComponentPad*
%ADD14R,1.100000X2.500000*%
G04 #@! TD*
G04 #@! TA.AperFunction,ComponentPad*
%ADD15O,1.100000X2.500000*%
G04 #@! TD*
G04 #@! TA.AperFunction,ComponentPad*
%ADD16C,1.500000*%
G04 #@! TD*
G04 #@! TA.AperFunction,ComponentPad*
%ADD17R,1.500000X1.500000*%
G04 #@! TD*
G04 #@! TA.AperFunction,ViaPad*
%ADD18C,1.500000*%
G04 #@! TD*
G04 #@! TA.AperFunction,Conductor*
%ADD19C,0.400000*%
G04 #@! TD*
G04 APERTURE END LIST*
D10*
G04 #@! TO.P,J1,2*
G04 #@! TO.N,VBAT*
X44497000Y8981000D03*
D11*
G04 #@! TO.P,J1,1*
G04 #@! TO.N,GND*
X44497000Y11521000D03*
G04 #@! TD*
D12*
G04 #@! TO.P,J2,1*
G04 #@! TO.N,3V3*
X39497000Y17721000D03*
D13*
G04 #@! TO.P,J2,2*
G04 #@! TO.N,GND*
X36957000Y17721000D03*
G04 #@! TO.P,J2,3*
G04 #@! TO.N,SCL*
X34417000Y17721000D03*
G04 #@! TO.P,J2,4*
G04 #@! TO.N,SDA*
X31877000Y17721000D03*
G04 #@! TO.P,J2,5*
G04 #@! TO.N,N/C*
X29337000Y17721000D03*
G04 #@! TO.P,J2,6*
X26797000Y17721000D03*
G04 #@! TO.P,J2,7*
X24257000Y17721000D03*
G04 #@! TO.P,J2,8*
G04 #@! TO.N,GPIO15*
X21717000Y17721000D03*
G04 #@! TD*
D14*
G04 #@! TO.P,U1,1*
G04 #@! TO.N,RST*
X2497000Y2421000D03*
D15*
G04 #@! TO.P,U1,2*
G04 #@! TO.N,ADC*
X4497000Y2421000D03*
G04 #@! TO.P,U1,3*
G04 #@! TO.N,EN*
X6497000Y2421000D03*
G04 #@! TO.P,U1,4*
G04 #@! TO.N,GPIO16*
X8497000Y2421000D03*
G04 #@! TO.P,U1,5*
G04 #@! TO.N,N/C*
X10497000Y2421000D03*
G04 #@! TO.P,U1,6*
G04 #@! TO.N,GPIO12*
X12497000Y2421000D03*
G04 #@! TO.P,U1,7*
G04 #@! TO.N,N/C*
X14497000Y2421000D03*
G04 #@! TO.P,U1,8*
G04 #@! TO.N,3V3*
X16497000Y2421000D03*
G04 #@! TO.P,U1,9*
G04 #@! TO.N,GND*
X16497000Y17821000D03*
G04 #@! TO.P,U1,10*
G04 #@! TO.N,GPIO15*
X14497000Y17721000D03*
G04 #@! TO.P,U1,11*
G04 #@! TO.N,N/C*
X12497000Y17821000D03*
G04 #@! TO.P,U1,12*
G04 #@! TO.N,GPIO0*
X10497000Y17821000D03*
G04 #@! TO.P,U1,13*
G04 #@! TO.N,SDA*
X8497000Y17821000D03*
G04 #@! TO.P,U1,14*
G04 #@! TO.N,SCL*
X6497000Y17821000D03*
G04 #@! TO.P,U1,15*
G04 #@! TO.N,N/C*
X4497000Y17821000D03*
G04 #@! TO.P,U1,16*
X2497000Y17821000D03*
G04 #@! TD*
D16*
G04 #@! TO.P,U3,2*
G04 #@! TO.N,GPIO12*
X23097000Y4581000D03*
G04 #@! TO.P,U3,3*
G04 #@! TO.N,3V3*
X23097000Y2041000D03*
D17*
G04 #@! TO.P,U3,1*
G04 #@! TO.N,GND*
X23097000Y7121000D03*
G04 #@! TD*
D18*
G04 #@! TO.N,3V3*
X4697000Y10721000D03*
X28697000Y1521000D03*
X39497000Y15121000D03*
X16497000Y5721000D03*
G04 #@! TO.N,VBAT*
X39997000Y9021000D03*
X32297000Y10721000D03*
G04 #@! TO.N,ADC*
X4497000Y5121000D03*
X19397000Y10421000D03*
G04 #@! TO.N,SCL*
X34497000Y15121000D03*
X6497000Y14921000D03*
G04 #@! TO.N,SDA*
X31897000Y15121000D03*
X8497000Y14921000D03*
G04 #@! TO.N,GPIO15*
X12797000Y14321000D03*
X19397000Y17721000D03*
G04 #@! TO.N,GPIO16*
X2297000Y10721000D03*
X8497000Y5121000D03*
G04 #@! TO.N,GPIO12*
X12505000Y7050000D03*
G04 #@! TD*
D19*
G04 #@! TO.N,3V3*
X5497000Y10721000D02*
X4697000Y10721000D01*
X10797000Y5421000D02*
X5497000Y10721000D01*
X16497000Y5721000D02*
X16197000Y5421000D01*
X16197000Y5421000D02*
X10797000Y5421000D01*
X28697000Y9221000D02*
X28697000Y1521000D01*
X31797000Y12321000D02*
X28697000Y9221000D01*
X33797000Y12321000D02*
X31797000Y12321000D01*
X39497000Y15121000D02*
X36597000Y15121000D01*
X36597000Y15121000D02*
X33797000Y12321000D01*
G04 #@! TO.N,VBAT*
X38297000Y10721000D02*
X39997000Y9021000D01*
X32297000Y10721000D02*
X38297000Y10721000D01*
G04 #@! TO.N,ADC*
X19328000Y10352000D02*
X19397000Y10421000D01*
X4297000Y5121000D02*
X697000Y8721000D01*
X4497000Y5121000D02*
X4297000Y5121000D01*
X697000Y8721000D02*
X697000Y11921000D01*
X697000Y11921000D02*
X2097000Y13321000D01*
X2097000Y13321000D02*
X5097000Y13321000D01*
X8066000Y10352000D02*
X19328000Y10352000D01*
X5097000Y13321000D02*
X8066000Y10352000D01*
G04 #@! TO.N,SCL*
X34297000Y15121000D02*
X34497000Y15121000D01*
X6497000Y14921000D02*
X6497000Y14521000D01*
X6497000Y14521000D02*
X9097000Y11921000D01*
X9097000Y11921000D02*
X29997000Y11921000D01*
X31197000Y13121000D02*
X32297000Y13121000D01*
X29997000Y11921000D02*
X31197000Y13121000D01*
X32297000Y13121000D02*
X34297000Y15121000D01*
G04 #@! TO.N,SDA*
X29697000Y12921000D02*
X31897000Y15121000D01*
X10197000Y12921000D02*
X29697000Y12921000D01*
X8497000Y14921000D02*
X8497000Y14621000D01*
X8497000Y14621000D02*
X10197000Y12921000D01*
G04 #@! TO.N,GPIO15*
X18097000Y14321000D02*
X12797000Y14321000D01*
X19397000Y17721000D02*
X19397000Y15621000D01*
X19397000Y15621000D02*
X18097000Y14321000D01*
G04 #@! TO.N,GPIO16*
X2697000Y10721000D02*
X2297000Y10721000D01*
X8497000Y5121000D02*
X8297000Y5121000D01*
X8297000Y5121000D02*
X2697000Y10721000D01*
G04 #@! TO.N,GPIO12*
X21337000Y4581000D02*
X23097000Y4581000D01*
X17598000Y8320000D02*
X21337000Y4581000D01*
X13140000Y8320000D02*
X17598000Y8320000D01*
X12505000Y7050000D02*
X12505000Y7685000D01*
X12505000Y7685000D02*
X13140000Y8320000D01*
G04 #@! TD*
M02*
