G04 #@! TF.GenerationSoftware,KiCad,Pcbnew,5.0.2-bee76a0~70~ubuntu18.04.1*
G04 #@! TF.CreationDate,2020-06-19T07:36:41-04:00*
G04 #@! TF.ProjectId,weeSpindel,77656553-7069-46e6-9465-6c2e6b696361,rev?*
G04 #@! TF.SameCoordinates,PX5699308PY6c663e8*
G04 #@! TF.FileFunction,Copper,L1,Top*
G04 #@! TF.FilePolarity,Positive*
%FSLAX46Y46*%
G04 Gerber Fmt 4.6, Leading zero omitted, Abs format (unit mm)*
G04 Created by KiCad (PCBNEW 5.0.2-bee76a0~70~ubuntu18.04.1) date Fri 19 Jun 2020 07:36:41 AM EDT*
%MOMM*%
%LPD*%
G01*
G04 APERTURE LIST*
G04 #@! TA.AperFunction,ComponentPad*
%ADD10O,2.000000X2.500000*%
G04 #@! TD*
G04 #@! TA.AperFunction,ComponentPad*
%ADD11O,1.000000X1.700000*%
G04 #@! TD*
G04 #@! TA.AperFunction,Conductor*
%ADD12C,0.050000*%
G04 #@! TD*
G04 #@! TA.AperFunction,ComponentPad*
%ADD13C,1.200000*%
G04 #@! TD*
G04 #@! TA.AperFunction,ComponentPad*
%ADD14O,1.750000X1.200000*%
G04 #@! TD*
G04 #@! TA.AperFunction,ComponentPad*
%ADD15O,2.200000X1.800000*%
G04 #@! TD*
G04 #@! TA.AperFunction,ComponentPad*
%ADD16R,2.200000X1.800000*%
G04 #@! TD*
G04 #@! TA.AperFunction,ComponentPad*
%ADD17O,1.600000X2.000000*%
G04 #@! TD*
G04 #@! TA.AperFunction,ComponentPad*
%ADD18R,1.100000X2.500000*%
G04 #@! TD*
G04 #@! TA.AperFunction,ComponentPad*
%ADD19O,1.100000X2.500000*%
G04 #@! TD*
G04 #@! TA.AperFunction,ComponentPad*
%ADD20O,2.000000X1.600000*%
G04 #@! TD*
G04 #@! TA.AperFunction,ViaPad*
%ADD21C,1.000000*%
G04 #@! TD*
G04 #@! TA.AperFunction,ViaPad*
%ADD22C,1.500000*%
G04 #@! TD*
G04 #@! TA.AperFunction,Conductor*
%ADD23C,0.500000*%
G04 #@! TD*
G04 #@! TA.AperFunction,Conductor*
%ADD24C,0.400000*%
G04 #@! TD*
G04 #@! TA.AperFunction,Conductor*
%ADD25C,0.700000*%
G04 #@! TD*
G04 #@! TA.AperFunction,Conductor*
%ADD26C,0.254000*%
G04 #@! TD*
G04 APERTURE END LIST*
D10*
G04 #@! TO.P,J2,6*
G04 #@! TO.N,GND*
X19108000Y15557000D03*
D11*
X20308000Y12877000D03*
X25158000Y12877000D03*
D10*
X26358000Y15557000D03*
G04 #@! TD*
D12*
G04 #@! TO.N,Net-(BT1-Pad1)*
G04 #@! TO.C,BT1*
G36*
X47844505Y8513796D02*
X47868773Y8510196D01*
X47892572Y8504235D01*
X47915671Y8495970D01*
X47937850Y8485480D01*
X47958893Y8472868D01*
X47978599Y8458253D01*
X47996777Y8441777D01*
X48013253Y8423599D01*
X48027868Y8403893D01*
X48040480Y8382850D01*
X48050970Y8360671D01*
X48059235Y8337572D01*
X48065196Y8313773D01*
X48068796Y8289505D01*
X48070000Y8265001D01*
X48070000Y7564999D01*
X48068796Y7540495D01*
X48065196Y7516227D01*
X48059235Y7492428D01*
X48050970Y7469329D01*
X48040480Y7447150D01*
X48027868Y7426107D01*
X48013253Y7406401D01*
X47996777Y7388223D01*
X47978599Y7371747D01*
X47958893Y7357132D01*
X47937850Y7344520D01*
X47915671Y7334030D01*
X47892572Y7325765D01*
X47868773Y7319804D01*
X47844505Y7316204D01*
X47820001Y7315000D01*
X46569999Y7315000D01*
X46545495Y7316204D01*
X46521227Y7319804D01*
X46497428Y7325765D01*
X46474329Y7334030D01*
X46452150Y7344520D01*
X46431107Y7357132D01*
X46411401Y7371747D01*
X46393223Y7388223D01*
X46376747Y7406401D01*
X46362132Y7426107D01*
X46349520Y7447150D01*
X46339030Y7469329D01*
X46330765Y7492428D01*
X46324804Y7516227D01*
X46321204Y7540495D01*
X46320000Y7564999D01*
X46320000Y8265001D01*
X46321204Y8289505D01*
X46324804Y8313773D01*
X46330765Y8337572D01*
X46339030Y8360671D01*
X46349520Y8382850D01*
X46362132Y8403893D01*
X46376747Y8423599D01*
X46393223Y8441777D01*
X46411401Y8458253D01*
X46431107Y8472868D01*
X46452150Y8485480D01*
X46474329Y8495970D01*
X46497428Y8504235D01*
X46521227Y8510196D01*
X46545495Y8513796D01*
X46569999Y8515000D01*
X47820001Y8515000D01*
X47844505Y8513796D01*
X47844505Y8513796D01*
G37*
D13*
G04 #@! TD*
G04 #@! TO.P,BT1,1*
G04 #@! TO.N,Net-(BT1-Pad1)*
X47195000Y7915000D03*
D14*
G04 #@! TO.P,BT1,2*
G04 #@! TO.N,Net-(BT1-Pad2)*
X47195000Y9915000D03*
G04 #@! TD*
D15*
G04 #@! TO.P,JP1,2*
G04 #@! TO.N,Net-(JP1-Pad2)*
X43445000Y12125000D03*
D16*
G04 #@! TO.P,JP1,1*
G04 #@! TO.N,GND*
X43445000Y14665000D03*
G04 #@! TD*
D17*
G04 #@! TO.P,J1,4*
G04 #@! TO.N,SDA*
X30988000Y15240000D03*
G04 #@! TO.P,J1,3*
G04 #@! TO.N,SCL*
X33528000Y15240000D03*
G04 #@! TO.P,J1,2*
G04 #@! TO.N,GND*
X36068000Y15240000D03*
G04 #@! TO.P,J1,1*
G04 #@! TO.N,3V3*
X38608000Y15240000D03*
G04 #@! TD*
D18*
G04 #@! TO.P,U1,1*
G04 #@! TO.N,Net-(R3-Pad2)*
X2692000Y1086000D03*
D19*
G04 #@! TO.P,U1,2*
G04 #@! TO.N,ADC*
X4692000Y1086000D03*
G04 #@! TO.P,U1,3*
G04 #@! TO.N,Net-(R6-Pad1)*
X6692000Y1086000D03*
G04 #@! TO.P,U1,4*
G04 #@! TO.N,Net-(R3-Pad1)*
X8692000Y1086000D03*
G04 #@! TO.P,U1,5*
G04 #@! TO.N,Net-(JP1-Pad2)*
X10692000Y1086000D03*
G04 #@! TO.P,U1,6*
G04 #@! TO.N,Net-(U1-Pad6)*
X12692000Y1086000D03*
G04 #@! TO.P,U1,7*
G04 #@! TO.N,Net-(U1-Pad7)*
X14692000Y1086000D03*
G04 #@! TO.P,U1,8*
G04 #@! TO.N,3V3*
X16692000Y1086000D03*
G04 #@! TO.P,U1,9*
G04 #@! TO.N,GND*
X16692000Y16486000D03*
G04 #@! TO.P,U1,10*
G04 #@! TO.N,Net-(R7-Pad2)*
X14692000Y16386000D03*
G04 #@! TO.P,U1,11*
G04 #@! TO.N,Net-(U1-Pad11)*
X12692000Y16486000D03*
G04 #@! TO.P,U1,12*
G04 #@! TO.N,Net-(R4-Pad1)*
X10692000Y16486000D03*
G04 #@! TO.P,U1,13*
G04 #@! TO.N,SDA*
X8692000Y16486000D03*
G04 #@! TO.P,U1,14*
G04 #@! TO.N,SCL*
X6692000Y16486000D03*
G04 #@! TO.P,U1,15*
G04 #@! TO.N,eRX*
X4692000Y16486000D03*
G04 #@! TO.P,U1,16*
G04 #@! TO.N,eTX*
X2692000Y16486000D03*
G04 #@! TD*
D20*
G04 #@! TO.P,SW1,3*
G04 #@! TO.N,N/C*
X41845000Y2665000D03*
G04 #@! TO.P,SW1,2*
G04 #@! TO.N,Net-(F1-Pad1)*
X45045000Y5165000D03*
G04 #@! TO.P,SW1,1*
G04 #@! TO.N,+5V*
X41845000Y7665000D03*
G04 #@! TD*
D21*
G04 #@! TO.N,GND*
X20955000Y5461000D03*
X23241000Y7493000D03*
X29083000Y8509000D03*
D22*
G04 #@! TO.N,3V3*
X23368000Y3556000D03*
X38195000Y13415000D03*
X15367000Y4953000D03*
X7493000Y5842000D03*
X1651000Y6604000D03*
G04 #@! TO.N,ADC*
X3937000Y3683000D03*
X35179000Y3683000D03*
G04 #@! TO.N,SCL*
X33401000Y13081000D03*
X6731000Y13589000D03*
G04 #@! TO.N,SDA*
X8692000Y13586000D03*
X29210000Y15240000D03*
G04 #@! TO.N,Net-(JP1-Pad2)*
X41695000Y10665000D03*
X10668000Y5969000D03*
G04 #@! TO.N,eTX*
X1651000Y14605000D03*
X13970000Y9144000D03*
G04 #@! TO.N,+5V*
X36695000Y7665000D03*
X29083000Y6477000D03*
G04 #@! TO.N,eRX*
X4318000Y13970000D03*
X16256000Y7874000D03*
G04 #@! TD*
D23*
G04 #@! TO.N,3V3*
X31115000Y6096000D02*
X37726000Y6096000D01*
X28575000Y3556000D02*
X31115000Y6096000D01*
X37726000Y6096000D02*
X38495000Y6865000D01*
X38495000Y6865000D02*
X38495000Y13115000D01*
X38495000Y13115000D02*
X38195000Y13415000D01*
X22987000Y3556000D02*
X28575000Y3556000D01*
X8905990Y4429010D02*
X14843010Y4429010D01*
X7493000Y5842000D02*
X8905990Y4429010D01*
X14843010Y4429010D02*
X15367000Y4953000D01*
X6985000Y6350000D02*
X7493000Y5842000D01*
X1651000Y6604000D02*
X1905000Y6350000D01*
X1905000Y6350000D02*
X6985000Y6350000D01*
D24*
G04 #@! TO.N,ADC*
X4318000Y3683000D02*
X4445000Y3556000D01*
X4191000Y3683000D02*
X4318000Y3683000D01*
D23*
X4635500Y3238500D02*
X4191000Y3683000D01*
X18097500Y3238500D02*
X4635500Y3238500D01*
X20574000Y762000D02*
X18097500Y3238500D01*
X32766000Y762000D02*
X20574000Y762000D01*
X35179000Y3683000D02*
X35179000Y3175000D01*
X35179000Y3175000D02*
X32766000Y762000D01*
G04 #@! TO.N,SCL*
X16002000Y12954000D02*
X20320000Y8636000D01*
X6731000Y13208000D02*
X7747000Y12192000D01*
X31369000Y13081000D02*
X33401000Y13081000D01*
X11938000Y12954000D02*
X16002000Y12954000D01*
X11176000Y12192000D02*
X11938000Y12954000D01*
X6731000Y13589000D02*
X6731000Y13208000D01*
X7747000Y12192000D02*
X11176000Y12192000D01*
X26924000Y8636000D02*
X31369000Y13081000D01*
X20320000Y8636000D02*
X26924000Y8636000D01*
G04 #@! TO.N,SDA*
X20701000Y10033000D02*
X16637000Y14097000D01*
X26035000Y10033000D02*
X20701000Y10033000D01*
X9203000Y14097000D02*
X8692000Y13586000D01*
X29210000Y13208000D02*
X26035000Y10033000D01*
X29210000Y15240000D02*
X29210000Y13208000D01*
X16637000Y14097000D02*
X9203000Y14097000D01*
G04 #@! TO.N,Net-(JP1-Pad2)*
X16891000Y6477000D02*
X21590000Y1778000D01*
X21590000Y1778000D02*
X28575000Y1778000D01*
X14605000Y6477000D02*
X16891000Y6477000D01*
X10668000Y5969000D02*
X11049000Y5588000D01*
X13716000Y5588000D02*
X14605000Y6477000D01*
X11049000Y5588000D02*
X13716000Y5588000D01*
X39495000Y9665000D02*
X40495000Y10665000D01*
X28575000Y1778000D02*
X31877000Y5080000D01*
X31877000Y5080000D02*
X38610000Y5080000D01*
X38610000Y5080000D02*
X39495000Y5965000D01*
X39495000Y5965000D02*
X39495000Y9665000D01*
X40495000Y10665000D02*
X41695000Y10665000D01*
G04 #@! TO.N,eTX*
X13335000Y9779000D02*
X3429000Y9779000D01*
X3429000Y9779000D02*
X1651000Y11557000D01*
X1651000Y11557000D02*
X1651000Y14605000D01*
X13970000Y9144000D02*
X13335000Y9779000D01*
D25*
G04 #@! TO.N,+5V*
X29083000Y6477000D02*
X29591000Y6477000D01*
X30779000Y7665000D02*
X36695000Y7665000D01*
X29591000Y6477000D02*
X30779000Y7665000D01*
D23*
G04 #@! TO.N,eRX*
X16256000Y9906000D02*
X15113000Y11049000D01*
X16256000Y7874000D02*
X16256000Y9906000D01*
X15113000Y11049000D02*
X5207000Y11049000D01*
X5207000Y11049000D02*
X4318000Y11938000D01*
X4318000Y11938000D02*
X4318000Y13970000D01*
G04 #@! TD*
D26*
G04 #@! TO.N,GND*
G36*
X45262477Y16790331D02*
X46311186Y16578874D01*
X47322731Y16230571D01*
X48279319Y15751548D01*
X49164144Y15150221D01*
X49961674Y14437147D01*
X50657891Y13624856D01*
X51240556Y12727630D01*
X51699442Y11761220D01*
X52026484Y10742605D01*
X52215933Y9689688D01*
X52264463Y8620970D01*
X52171222Y7555215D01*
X51937847Y6511157D01*
X51568440Y5507136D01*
X51069487Y4560787D01*
X50449760Y3688748D01*
X49720141Y2906325D01*
X48893452Y2227276D01*
X47984209Y1663522D01*
X47008411Y1224980D01*
X45983167Y919341D01*
X44918188Y750666D01*
X44176809Y717000D01*
X34102686Y717000D01*
X35675757Y2290070D01*
X36015653Y2430860D01*
X36249793Y2665000D01*
X40088085Y2665000D01*
X40206598Y2069194D01*
X40544095Y1564095D01*
X41049194Y1226598D01*
X41494607Y1138000D01*
X42195393Y1138000D01*
X42640806Y1226598D01*
X43145905Y1564095D01*
X43483402Y2069194D01*
X43601915Y2665000D01*
X43483402Y3260806D01*
X43145905Y3765905D01*
X42640806Y4103402D01*
X42195393Y4192000D01*
X41494607Y4192000D01*
X41049194Y4103402D01*
X40544095Y3765905D01*
X40206598Y3260806D01*
X40088085Y2665000D01*
X36249793Y2665000D01*
X36431140Y2846347D01*
X36656000Y3389206D01*
X36656000Y3976794D01*
X36603724Y4103000D01*
X38513782Y4103000D01*
X38610000Y4083861D01*
X38706218Y4103000D01*
X38706223Y4103000D01*
X38991206Y4159687D01*
X39314377Y4375623D01*
X39368883Y4457197D01*
X40076686Y5165000D01*
X43288085Y5165000D01*
X43406598Y4569194D01*
X43744095Y4064095D01*
X44249194Y3726598D01*
X44694607Y3638000D01*
X45395393Y3638000D01*
X45840806Y3726598D01*
X46345905Y4064095D01*
X46683402Y4569194D01*
X46801915Y5165000D01*
X46683402Y5760806D01*
X46345905Y6265905D01*
X45840806Y6603402D01*
X45395393Y6692000D01*
X44694607Y6692000D01*
X44249194Y6603402D01*
X43744095Y6265905D01*
X43406598Y5760806D01*
X43288085Y5165000D01*
X40076686Y5165000D01*
X40117806Y5206119D01*
X40199377Y5260623D01*
X40253881Y5342194D01*
X40253883Y5342196D01*
X40360949Y5502433D01*
X40415313Y5583794D01*
X40472000Y5868777D01*
X40472000Y5868781D01*
X40491139Y5964999D01*
X40472000Y6061217D01*
X40472000Y6671993D01*
X40544095Y6564095D01*
X41049194Y6226598D01*
X41494607Y6138000D01*
X42195393Y6138000D01*
X42640806Y6226598D01*
X43145905Y6564095D01*
X43483402Y7069194D01*
X43601915Y7665000D01*
X43483402Y8260806D01*
X43145905Y8765905D01*
X42640806Y9103402D01*
X42195393Y9192000D01*
X41998451Y9192000D01*
X42531653Y9412860D01*
X42947140Y9828347D01*
X42983032Y9915000D01*
X45567003Y9915000D01*
X45669994Y9397230D01*
X45930688Y9007075D01*
X45869086Y8965914D01*
X45654212Y8644333D01*
X45578758Y8265001D01*
X45578758Y7564999D01*
X45654212Y7185667D01*
X45869086Y6864086D01*
X46190667Y6649212D01*
X46569999Y6573758D01*
X47820001Y6573758D01*
X48199333Y6649212D01*
X48520914Y6864086D01*
X48735788Y7185667D01*
X48811242Y7564999D01*
X48811242Y8265001D01*
X48735788Y8644333D01*
X48520914Y8965914D01*
X48459312Y9007075D01*
X48720006Y9397230D01*
X48822997Y9915000D01*
X48720006Y10432770D01*
X48426713Y10871713D01*
X47987770Y11165006D01*
X47600696Y11242000D01*
X46789304Y11242000D01*
X46402230Y11165006D01*
X45963287Y10871713D01*
X45669994Y10432770D01*
X45567003Y9915000D01*
X42983032Y9915000D01*
X43172000Y10371206D01*
X43172000Y10498000D01*
X43805242Y10498000D01*
X44279824Y10592400D01*
X44818001Y10951999D01*
X45177600Y11490176D01*
X45303874Y12125000D01*
X45177600Y12759824D01*
X44926237Y13136014D01*
X44956812Y13148679D01*
X45161321Y13353187D01*
X45272000Y13620390D01*
X45272000Y14310250D01*
X45090250Y14492000D01*
X43618000Y14492000D01*
X43618000Y14472000D01*
X43272000Y14472000D01*
X43272000Y14492000D01*
X41799750Y14492000D01*
X41618000Y14310250D01*
X41618000Y13620390D01*
X41728679Y13353187D01*
X41933188Y13148679D01*
X41963763Y13136014D01*
X41712400Y12759824D01*
X41589508Y12142000D01*
X41401206Y12142000D01*
X40858347Y11917140D01*
X40584536Y11643329D01*
X40495000Y11661139D01*
X40398781Y11642000D01*
X40398777Y11642000D01*
X40113794Y11585313D01*
X39872196Y11423883D01*
X39872194Y11423881D01*
X39790623Y11369377D01*
X39736119Y11287806D01*
X39472000Y11023687D01*
X39472000Y12638364D01*
X39672000Y13121206D01*
X39672000Y13708794D01*
X39605285Y13869858D01*
X39708905Y13939095D01*
X40046402Y14444195D01*
X40135000Y14889608D01*
X40135000Y15590393D01*
X40111287Y15709610D01*
X41618000Y15709610D01*
X41618000Y15019750D01*
X41799750Y14838000D01*
X43272000Y14838000D01*
X43272000Y16110250D01*
X43618000Y16110250D01*
X43618000Y14838000D01*
X45090250Y14838000D01*
X45272000Y15019750D01*
X45272000Y15709610D01*
X45161321Y15976813D01*
X44956812Y16181321D01*
X44689609Y16292000D01*
X43799750Y16292000D01*
X43618000Y16110250D01*
X43272000Y16110250D01*
X43090250Y16292000D01*
X42200391Y16292000D01*
X41933188Y16181321D01*
X41728679Y15976813D01*
X41618000Y15709610D01*
X40111287Y15709610D01*
X40046402Y16035806D01*
X39708905Y16540905D01*
X39226856Y16863000D01*
X44168391Y16863000D01*
X45262477Y16790331D01*
X45262477Y16790331D01*
G37*
X45262477Y16790331D02*
X46311186Y16578874D01*
X47322731Y16230571D01*
X48279319Y15751548D01*
X49164144Y15150221D01*
X49961674Y14437147D01*
X50657891Y13624856D01*
X51240556Y12727630D01*
X51699442Y11761220D01*
X52026484Y10742605D01*
X52215933Y9689688D01*
X52264463Y8620970D01*
X52171222Y7555215D01*
X51937847Y6511157D01*
X51568440Y5507136D01*
X51069487Y4560787D01*
X50449760Y3688748D01*
X49720141Y2906325D01*
X48893452Y2227276D01*
X47984209Y1663522D01*
X47008411Y1224980D01*
X45983167Y919341D01*
X44918188Y750666D01*
X44176809Y717000D01*
X34102686Y717000D01*
X35675757Y2290070D01*
X36015653Y2430860D01*
X36249793Y2665000D01*
X40088085Y2665000D01*
X40206598Y2069194D01*
X40544095Y1564095D01*
X41049194Y1226598D01*
X41494607Y1138000D01*
X42195393Y1138000D01*
X42640806Y1226598D01*
X43145905Y1564095D01*
X43483402Y2069194D01*
X43601915Y2665000D01*
X43483402Y3260806D01*
X43145905Y3765905D01*
X42640806Y4103402D01*
X42195393Y4192000D01*
X41494607Y4192000D01*
X41049194Y4103402D01*
X40544095Y3765905D01*
X40206598Y3260806D01*
X40088085Y2665000D01*
X36249793Y2665000D01*
X36431140Y2846347D01*
X36656000Y3389206D01*
X36656000Y3976794D01*
X36603724Y4103000D01*
X38513782Y4103000D01*
X38610000Y4083861D01*
X38706218Y4103000D01*
X38706223Y4103000D01*
X38991206Y4159687D01*
X39314377Y4375623D01*
X39368883Y4457197D01*
X40076686Y5165000D01*
X43288085Y5165000D01*
X43406598Y4569194D01*
X43744095Y4064095D01*
X44249194Y3726598D01*
X44694607Y3638000D01*
X45395393Y3638000D01*
X45840806Y3726598D01*
X46345905Y4064095D01*
X46683402Y4569194D01*
X46801915Y5165000D01*
X46683402Y5760806D01*
X46345905Y6265905D01*
X45840806Y6603402D01*
X45395393Y6692000D01*
X44694607Y6692000D01*
X44249194Y6603402D01*
X43744095Y6265905D01*
X43406598Y5760806D01*
X43288085Y5165000D01*
X40076686Y5165000D01*
X40117806Y5206119D01*
X40199377Y5260623D01*
X40253881Y5342194D01*
X40253883Y5342196D01*
X40360949Y5502433D01*
X40415313Y5583794D01*
X40472000Y5868777D01*
X40472000Y5868781D01*
X40491139Y5964999D01*
X40472000Y6061217D01*
X40472000Y6671993D01*
X40544095Y6564095D01*
X41049194Y6226598D01*
X41494607Y6138000D01*
X42195393Y6138000D01*
X42640806Y6226598D01*
X43145905Y6564095D01*
X43483402Y7069194D01*
X43601915Y7665000D01*
X43483402Y8260806D01*
X43145905Y8765905D01*
X42640806Y9103402D01*
X42195393Y9192000D01*
X41998451Y9192000D01*
X42531653Y9412860D01*
X42947140Y9828347D01*
X42983032Y9915000D01*
X45567003Y9915000D01*
X45669994Y9397230D01*
X45930688Y9007075D01*
X45869086Y8965914D01*
X45654212Y8644333D01*
X45578758Y8265001D01*
X45578758Y7564999D01*
X45654212Y7185667D01*
X45869086Y6864086D01*
X46190667Y6649212D01*
X46569999Y6573758D01*
X47820001Y6573758D01*
X48199333Y6649212D01*
X48520914Y6864086D01*
X48735788Y7185667D01*
X48811242Y7564999D01*
X48811242Y8265001D01*
X48735788Y8644333D01*
X48520914Y8965914D01*
X48459312Y9007075D01*
X48720006Y9397230D01*
X48822997Y9915000D01*
X48720006Y10432770D01*
X48426713Y10871713D01*
X47987770Y11165006D01*
X47600696Y11242000D01*
X46789304Y11242000D01*
X46402230Y11165006D01*
X45963287Y10871713D01*
X45669994Y10432770D01*
X45567003Y9915000D01*
X42983032Y9915000D01*
X43172000Y10371206D01*
X43172000Y10498000D01*
X43805242Y10498000D01*
X44279824Y10592400D01*
X44818001Y10951999D01*
X45177600Y11490176D01*
X45303874Y12125000D01*
X45177600Y12759824D01*
X44926237Y13136014D01*
X44956812Y13148679D01*
X45161321Y13353187D01*
X45272000Y13620390D01*
X45272000Y14310250D01*
X45090250Y14492000D01*
X43618000Y14492000D01*
X43618000Y14472000D01*
X43272000Y14472000D01*
X43272000Y14492000D01*
X41799750Y14492000D01*
X41618000Y14310250D01*
X41618000Y13620390D01*
X41728679Y13353187D01*
X41933188Y13148679D01*
X41963763Y13136014D01*
X41712400Y12759824D01*
X41589508Y12142000D01*
X41401206Y12142000D01*
X40858347Y11917140D01*
X40584536Y11643329D01*
X40495000Y11661139D01*
X40398781Y11642000D01*
X40398777Y11642000D01*
X40113794Y11585313D01*
X39872196Y11423883D01*
X39872194Y11423881D01*
X39790623Y11369377D01*
X39736119Y11287806D01*
X39472000Y11023687D01*
X39472000Y12638364D01*
X39672000Y13121206D01*
X39672000Y13708794D01*
X39605285Y13869858D01*
X39708905Y13939095D01*
X40046402Y14444195D01*
X40135000Y14889608D01*
X40135000Y15590393D01*
X40111287Y15709610D01*
X41618000Y15709610D01*
X41618000Y15019750D01*
X41799750Y14838000D01*
X43272000Y14838000D01*
X43272000Y16110250D01*
X43618000Y16110250D01*
X43618000Y14838000D01*
X45090250Y14838000D01*
X45272000Y15019750D01*
X45272000Y15709610D01*
X45161321Y15976813D01*
X44956812Y16181321D01*
X44689609Y16292000D01*
X43799750Y16292000D01*
X43618000Y16110250D01*
X43272000Y16110250D01*
X43090250Y16292000D01*
X42200391Y16292000D01*
X41933188Y16181321D01*
X41728679Y15976813D01*
X41618000Y15709610D01*
X40111287Y15709610D01*
X40046402Y16035806D01*
X39708905Y16540905D01*
X39226856Y16863000D01*
X44168391Y16863000D01*
X45262477Y16790331D01*
G36*
X36241000Y15413000D02*
X36261000Y15413000D01*
X36261000Y15067000D01*
X36241000Y15067000D01*
X36241000Y13705920D01*
X36476207Y13568574D01*
X36718000Y13686945D01*
X36718000Y13121206D01*
X36942860Y12578347D01*
X37358347Y12162860D01*
X37518001Y12096729D01*
X37518000Y8922795D01*
X36988794Y9142000D01*
X36401206Y9142000D01*
X35858347Y8917140D01*
X35683207Y8742000D01*
X30885068Y8742000D01*
X30779000Y8763098D01*
X30672932Y8742000D01*
X30672928Y8742000D01*
X30421777Y8692043D01*
X30358775Y8679511D01*
X30092450Y8501558D01*
X30092449Y8501557D01*
X30002527Y8441473D01*
X29942443Y8351551D01*
X29495657Y7904765D01*
X29376794Y7954000D01*
X28789206Y7954000D01*
X28246347Y7729140D01*
X27830860Y7313653D01*
X27606000Y6770794D01*
X27606000Y6183206D01*
X27830860Y5640347D01*
X28246347Y5224860D01*
X28681802Y5044488D01*
X28170314Y4533000D01*
X24479793Y4533000D01*
X24204653Y4808140D01*
X23661794Y5033000D01*
X23074206Y5033000D01*
X22531347Y4808140D01*
X22115860Y4392653D01*
X21891000Y3849794D01*
X21891000Y3262206D01*
X22101092Y2755000D01*
X21994687Y2755000D01*
X17649883Y7099803D01*
X17595377Y7181377D01*
X17573777Y7195809D01*
X17733000Y7580206D01*
X17733000Y8167794D01*
X17508140Y8710653D01*
X17233000Y8985793D01*
X17233000Y9809783D01*
X17252139Y9906001D01*
X17233000Y10002219D01*
X17233000Y10002223D01*
X17176313Y10287206D01*
X17045236Y10483377D01*
X17014883Y10528804D01*
X17014881Y10528806D01*
X16960377Y10610377D01*
X16878806Y10664881D01*
X15871882Y11671804D01*
X15817377Y11753377D01*
X15494206Y11969313D01*
X15455561Y11977000D01*
X15597314Y11977000D01*
X19561119Y8013194D01*
X19615623Y7931623D01*
X19697194Y7877119D01*
X19697196Y7877117D01*
X19744021Y7845830D01*
X19938794Y7715687D01*
X20223777Y7659000D01*
X20223781Y7659000D01*
X20319999Y7639861D01*
X20416217Y7659000D01*
X26827782Y7659000D01*
X26924000Y7639861D01*
X27020218Y7659000D01*
X27020223Y7659000D01*
X27305206Y7715687D01*
X27628377Y7931623D01*
X27682883Y8013197D01*
X31773687Y12104000D01*
X32289207Y12104000D01*
X32564347Y11828860D01*
X33107206Y11604000D01*
X33694794Y11604000D01*
X34237653Y11828860D01*
X34653140Y12244347D01*
X34878000Y12787206D01*
X34878000Y13374794D01*
X34653140Y13917653D01*
X34630024Y13940769D01*
X34805291Y14203076D01*
X35147711Y13819266D01*
X35659793Y13568574D01*
X35895000Y13705920D01*
X35895000Y15067000D01*
X35875000Y15067000D01*
X35875000Y15413000D01*
X35895000Y15413000D01*
X35895000Y15433000D01*
X36241000Y15433000D01*
X36241000Y15413000D01*
X36241000Y15413000D01*
G37*
X36241000Y15413000D02*
X36261000Y15413000D01*
X36261000Y15067000D01*
X36241000Y15067000D01*
X36241000Y13705920D01*
X36476207Y13568574D01*
X36718000Y13686945D01*
X36718000Y13121206D01*
X36942860Y12578347D01*
X37358347Y12162860D01*
X37518001Y12096729D01*
X37518000Y8922795D01*
X36988794Y9142000D01*
X36401206Y9142000D01*
X35858347Y8917140D01*
X35683207Y8742000D01*
X30885068Y8742000D01*
X30779000Y8763098D01*
X30672932Y8742000D01*
X30672928Y8742000D01*
X30421777Y8692043D01*
X30358775Y8679511D01*
X30092450Y8501558D01*
X30092449Y8501557D01*
X30002527Y8441473D01*
X29942443Y8351551D01*
X29495657Y7904765D01*
X29376794Y7954000D01*
X28789206Y7954000D01*
X28246347Y7729140D01*
X27830860Y7313653D01*
X27606000Y6770794D01*
X27606000Y6183206D01*
X27830860Y5640347D01*
X28246347Y5224860D01*
X28681802Y5044488D01*
X28170314Y4533000D01*
X24479793Y4533000D01*
X24204653Y4808140D01*
X23661794Y5033000D01*
X23074206Y5033000D01*
X22531347Y4808140D01*
X22115860Y4392653D01*
X21891000Y3849794D01*
X21891000Y3262206D01*
X22101092Y2755000D01*
X21994687Y2755000D01*
X17649883Y7099803D01*
X17595377Y7181377D01*
X17573777Y7195809D01*
X17733000Y7580206D01*
X17733000Y8167794D01*
X17508140Y8710653D01*
X17233000Y8985793D01*
X17233000Y9809783D01*
X17252139Y9906001D01*
X17233000Y10002219D01*
X17233000Y10002223D01*
X17176313Y10287206D01*
X17045236Y10483377D01*
X17014883Y10528804D01*
X17014881Y10528806D01*
X16960377Y10610377D01*
X16878806Y10664881D01*
X15871882Y11671804D01*
X15817377Y11753377D01*
X15494206Y11969313D01*
X15455561Y11977000D01*
X15597314Y11977000D01*
X19561119Y8013194D01*
X19615623Y7931623D01*
X19697194Y7877119D01*
X19697196Y7877117D01*
X19744021Y7845830D01*
X19938794Y7715687D01*
X20223777Y7659000D01*
X20223781Y7659000D01*
X20319999Y7639861D01*
X20416217Y7659000D01*
X26827782Y7659000D01*
X26924000Y7639861D01*
X27020218Y7659000D01*
X27020223Y7659000D01*
X27305206Y7715687D01*
X27628377Y7931623D01*
X27682883Y8013197D01*
X31773687Y12104000D01*
X32289207Y12104000D01*
X32564347Y11828860D01*
X33107206Y11604000D01*
X33694794Y11604000D01*
X34237653Y11828860D01*
X34653140Y12244347D01*
X34878000Y12787206D01*
X34878000Y13374794D01*
X34653140Y13917653D01*
X34630024Y13940769D01*
X34805291Y14203076D01*
X35147711Y13819266D01*
X35659793Y13568574D01*
X35895000Y13705920D01*
X35895000Y15067000D01*
X35875000Y15067000D01*
X35875000Y15413000D01*
X35895000Y15413000D01*
X35895000Y15433000D01*
X36241000Y15433000D01*
X36241000Y15413000D01*
G36*
X24841978Y16645712D02*
X24636417Y16001712D01*
X24808903Y15730000D01*
X26185000Y15730000D01*
X26185000Y15750000D01*
X26531000Y15750000D01*
X26531000Y15730000D01*
X26551000Y15730000D01*
X26551000Y15384000D01*
X26531000Y15384000D01*
X26531000Y13771465D01*
X26797673Y13636905D01*
X26836931Y13641952D01*
X27437661Y13951975D01*
X27874022Y14468288D01*
X27898803Y14545923D01*
X27957860Y14403347D01*
X28233001Y14128206D01*
X28233001Y13612688D01*
X25630314Y11010000D01*
X21105687Y11010000D01*
X20731598Y11384089D01*
X21053290Y11537050D01*
X21375396Y11897616D01*
X21535000Y12354000D01*
X21535000Y12704000D01*
X23931000Y12704000D01*
X23931000Y12354000D01*
X24090604Y11897616D01*
X24412710Y11537050D01*
X24797102Y11354276D01*
X24985000Y11496166D01*
X24985000Y12704000D01*
X25331000Y12704000D01*
X25331000Y11496166D01*
X25518898Y11354276D01*
X25903290Y11537050D01*
X26225396Y11897616D01*
X26385000Y12354000D01*
X26385000Y12704000D01*
X25331000Y12704000D01*
X24985000Y12704000D01*
X23931000Y12704000D01*
X21535000Y12704000D01*
X20481000Y12704000D01*
X20481000Y12684000D01*
X20135000Y12684000D01*
X20135000Y12704000D01*
X20115000Y12704000D01*
X20115000Y13050000D01*
X20135000Y13050000D01*
X20135000Y13070000D01*
X20481000Y13070000D01*
X20481000Y13050000D01*
X21535000Y13050000D01*
X21535000Y13400000D01*
X23931000Y13400000D01*
X23931000Y13050000D01*
X24985000Y13050000D01*
X24985000Y13070000D01*
X25331000Y13070000D01*
X25331000Y13050000D01*
X26385000Y13050000D01*
X26385000Y13400000D01*
X26225396Y13856384D01*
X26185000Y13901603D01*
X26185000Y15384000D01*
X24808903Y15384000D01*
X24636417Y15112288D01*
X24841978Y14468288D01*
X24984998Y14299063D01*
X24984998Y14257836D01*
X24797102Y14399724D01*
X24412710Y14216950D01*
X24090604Y13856384D01*
X23931000Y13400000D01*
X21535000Y13400000D01*
X21375396Y13856384D01*
X21053290Y14216950D01*
X20668898Y14399724D01*
X20481002Y14257836D01*
X20481002Y14299063D01*
X20624022Y14468288D01*
X20829583Y15112288D01*
X20657097Y15384000D01*
X19281000Y15384000D01*
X19281000Y13901603D01*
X19240604Y13856384D01*
X19081000Y13400000D01*
X19081000Y13034687D01*
X18308078Y13807608D01*
X18629069Y13641952D01*
X18668327Y13636905D01*
X18935000Y13771465D01*
X18935000Y15384000D01*
X18915000Y15384000D01*
X18915000Y15730000D01*
X18935000Y15730000D01*
X18935000Y15750000D01*
X19281000Y15750000D01*
X19281000Y15730000D01*
X20657097Y15730000D01*
X20829583Y16001712D01*
X20624022Y16645712D01*
X20440381Y16863000D01*
X25025619Y16863000D01*
X24841978Y16645712D01*
X24841978Y16645712D01*
G37*
X24841978Y16645712D02*
X24636417Y16001712D01*
X24808903Y15730000D01*
X26185000Y15730000D01*
X26185000Y15750000D01*
X26531000Y15750000D01*
X26531000Y15730000D01*
X26551000Y15730000D01*
X26551000Y15384000D01*
X26531000Y15384000D01*
X26531000Y13771465D01*
X26797673Y13636905D01*
X26836931Y13641952D01*
X27437661Y13951975D01*
X27874022Y14468288D01*
X27898803Y14545923D01*
X27957860Y14403347D01*
X28233001Y14128206D01*
X28233001Y13612688D01*
X25630314Y11010000D01*
X21105687Y11010000D01*
X20731598Y11384089D01*
X21053290Y11537050D01*
X21375396Y11897616D01*
X21535000Y12354000D01*
X21535000Y12704000D01*
X23931000Y12704000D01*
X23931000Y12354000D01*
X24090604Y11897616D01*
X24412710Y11537050D01*
X24797102Y11354276D01*
X24985000Y11496166D01*
X24985000Y12704000D01*
X25331000Y12704000D01*
X25331000Y11496166D01*
X25518898Y11354276D01*
X25903290Y11537050D01*
X26225396Y11897616D01*
X26385000Y12354000D01*
X26385000Y12704000D01*
X25331000Y12704000D01*
X24985000Y12704000D01*
X23931000Y12704000D01*
X21535000Y12704000D01*
X20481000Y12704000D01*
X20481000Y12684000D01*
X20135000Y12684000D01*
X20135000Y12704000D01*
X20115000Y12704000D01*
X20115000Y13050000D01*
X20135000Y13050000D01*
X20135000Y13070000D01*
X20481000Y13070000D01*
X20481000Y13050000D01*
X21535000Y13050000D01*
X21535000Y13400000D01*
X23931000Y13400000D01*
X23931000Y13050000D01*
X24985000Y13050000D01*
X24985000Y13070000D01*
X25331000Y13070000D01*
X25331000Y13050000D01*
X26385000Y13050000D01*
X26385000Y13400000D01*
X26225396Y13856384D01*
X26185000Y13901603D01*
X26185000Y15384000D01*
X24808903Y15384000D01*
X24636417Y15112288D01*
X24841978Y14468288D01*
X24984998Y14299063D01*
X24984998Y14257836D01*
X24797102Y14399724D01*
X24412710Y14216950D01*
X24090604Y13856384D01*
X23931000Y13400000D01*
X21535000Y13400000D01*
X21375396Y13856384D01*
X21053290Y14216950D01*
X20668898Y14399724D01*
X20481002Y14257836D01*
X20481002Y14299063D01*
X20624022Y14468288D01*
X20829583Y15112288D01*
X20657097Y15384000D01*
X19281000Y15384000D01*
X19281000Y13901603D01*
X19240604Y13856384D01*
X19081000Y13400000D01*
X19081000Y13034687D01*
X18308078Y13807608D01*
X18629069Y13641952D01*
X18668327Y13636905D01*
X18935000Y13771465D01*
X18935000Y15384000D01*
X18915000Y15384000D01*
X18915000Y15730000D01*
X18935000Y15730000D01*
X18935000Y15750000D01*
X19281000Y15750000D01*
X19281000Y15730000D01*
X20657097Y15730000D01*
X20829583Y16001712D01*
X20624022Y16645712D01*
X20440381Y16863000D01*
X25025619Y16863000D01*
X24841978Y16645712D01*
G36*
X16865000Y16659000D02*
X16885000Y16659000D01*
X16885000Y16313000D01*
X16865000Y16313000D01*
X16865000Y16293000D01*
X16519000Y16293000D01*
X16519000Y16313000D01*
X16499000Y16313000D01*
X16499000Y16659000D01*
X16519000Y16659000D01*
X16519000Y16679000D01*
X16865000Y16679000D01*
X16865000Y16659000D01*
X16865000Y16659000D01*
G37*
X16865000Y16659000D02*
X16885000Y16659000D01*
X16885000Y16313000D01*
X16865000Y16313000D01*
X16865000Y16293000D01*
X16519000Y16293000D01*
X16519000Y16313000D01*
X16499000Y16313000D01*
X16499000Y16659000D01*
X16519000Y16659000D01*
X16519000Y16679000D01*
X16865000Y16679000D01*
X16865000Y16659000D01*
G04 #@! TD*
M02*
